<?xml version="1.0" standalone="no"?>
<svg viewBox="0 0 200 200" xmlns="http://www.w3.org/2000/svg">
  <path fill="#000000" d="M39.1,-69C51.2,-60.6,62.2,-51.4,65.5,-39.8C68.8,-28.1,64.4,-14.1,60.3,-2.4C56.2,9.3,52.4,18.7,46.9,26.6C41.5,34.5,34.5,41,26.4,47.3C18.3,53.6,9.1,59.8,-3,65C-15.2,70.2,-30.3,74.5,-34,65.6C-37.6,56.7,-29.6,34.6,-28.8,21.5C-28,8.4,-34.3,4.2,-44.4,-5.8C-54.4,-15.8,-68.1,-31.5,-61.4,-31.5C-54.6,-31.5,-27.3,-15.8,-13.7,-23.4C0,-30.9,0,-61.8,6.7,-73.4C13.4,-85,26.9,-77.4,39.1,-69Z" transform="translate(100 100)" />
</svg>
