<?xml version="1.0" standalone="no"?>
<svg viewBox="0 0 200 200" xmlns="http://www.w3.org/2000/svg">
  <path fill="#000000" d="M26.5,-37C38.3,-33.6,54.7,-33,60.2,-26C65.8,-19,60.6,-5.5,58.9,8.6C57.1,22.8,58.8,37.6,54,51.5C49.3,65.4,38,78.3,25.3,78.7C12.5,79,-1.7,66.8,-15.8,59.9C-29.9,53,-43.8,51.5,-51.8,44C-59.8,36.4,-62,22.8,-61,10.6C-59.9,-1.7,-55.7,-12.6,-52,-25C-48.3,-37.4,-45.1,-51.3,-36.5,-56.1C-27.9,-61,-14,-56.9,-3.3,-51.7C7.3,-46.5,14.6,-40.3,26.5,-37Z" transform="translate(100 100)" />
</svg>
