<?xml version="1.0" standalone="no"?>
<!DOCTYPE svg PUBLIC "-//W3C//DTD SVG 20010904//EN"
 "http://www.w3.org/TR/2001/REC-SVG-20010904/DTD/svg10.dtd">
<svg version="1.0" xmlns="http://www.w3.org/2000/svg"
 width="500.000000pt" height="500.000000pt" viewBox="0 0 500.000000 500.000000"
 preserveAspectRatio="xMidYMid meet">

<g transform="translate(0.000000,500.000000) scale(0.100000,-0.100000)"
fill="#000000" stroke="none">
<path d="M2031 4509 c-123 -11 -337 -54 -426 -86 -172 -63 -313 -172 -414
-323 -62 -93 -91 -159 -121 -275 l-18 -70 -68 -35 c-277 -142 -417 -370 -480
-785 -27 -177 -27 -835 0 -1010 48 -314 135 -510 290 -653 60 -55 179 -133
240 -156 45 -17 49 -22 86 -103 81 -174 190 -292 360 -386 163 -90 337 -123
744 -139 606 -24 961 24 1193 160 130 76 251 207 314 339 27 57 33 63 72 73
117 30 158 45 227 81 248 129 403 364 454 684 24 155 39 512 32 780 -13 529
-91 786 -297 981 -101 95 -195 149 -338 194 l-84 26 -17 60 c-53 193 -201 385
-374 486 -135 79 -353 137 -596 158 -135 12 -644 11 -779 -1z m915 -317 c216
-34 335 -84 440 -187 36 -35 74 -85 92 -121 l31 -62 -22 -6 c-12 -3 -35 -6
-52 -6 -52 0 -207 -37 -298 -70 -84 -31 -283 -142 -320 -178 -17 -17 -14 -23
63 -125 44 -59 82 -107 85 -107 2 0 38 24 79 54 118 85 288 148 439 162 l67 7
0 -45 c0 -63 -33 -185 -71 -259 -18 -37 -58 -89 -95 -127 -140 -140 -355 -197
-786 -209 l-227 -6 -5 24 c-2 13 -14 76 -26 139 -74 391 -300 638 -662 725
-35 9 -123 18 -195 22 l-133 6 32 61 c18 34 60 88 93 121 124 123 279 174 630
209 22 2 191 3 375 1 278 -2 357 -6 466 -23z m-1291 -672 c183 -57 317 -204
374 -409 26 -95 38 -191 22 -191 -28 0 -220 32 -280 46 -183 45 -324 150 -395
294 -49 100 -82 260 -58 284 4 5 66 6 137 3 95 -3 149 -11 200 -27z m2247 -42
c162 -86 265 -283 300 -575 19 -163 16 -833 -5 -980 -30 -208 -85 -347 -181
-450 -49 -53 -154 -123 -185 -123 -7 0 -11 28 -11 79 0 148 -31 306 -89 457
-32 84 -112 225 -159 282 l-28 34 -94 -73 c-52 -39 -101 -77 -108 -84 -11 -10
-5 -24 34 -76 110 -149 163 -311 171 -523 l6 -139 -68 8 c-132 14 -284 69
-407 148 l-56 35 -69 -101 c-38 -56 -73 -107 -76 -114 -5 -7 20 -28 65 -57
129 -80 267 -134 424 -165 l86 -17 -64 -59 c-110 -103 -262 -163 -468 -185
-255 -28 -887 -21 -1068 11 -155 27 -311 100 -392 183 l-44 46 43 0 c24 0 91
7 149 16 293 43 516 202 645 459 93 187 136 472 137 911 l0 181 218 7 c581 18
870 131 1061 416 83 124 128 253 146 418 4 34 12 62 17 62 6 0 37 -14 70 -32z
m-2847 -100 c11 -84 61 -228 102 -295 168 -274 389 -398 802 -451 l134 -17 -6
-290 c-7 -385 -32 -542 -109 -703 -98 -207 -296 -317 -558 -310 l-105 3 1 120
c1 192 47 332 171 521 12 20 7 25 -101 97 l-115 76 -39 -62 c-111 -175 -170
-351 -188 -557 l-7 -85 -53 58 c-98 108 -146 228 -181 457 -26 168 -26 812 0
980 35 226 83 347 177 453 28 31 55 57 60 57 4 0 11 -24 15 -52z"/>
</g>
</svg>
