<?xml version="1.0" standalone="no"?>
<!DOCTYPE svg PUBLIC "-//W3C//DTD SVG 20010904//EN"
 "http://www.w3.org/TR/2001/REC-SVG-20010904/DTD/svg10.dtd">
<svg version="1.0" xmlns="http://www.w3.org/2000/svg"
 width="478.000000pt" height="451.000000pt" viewBox="0 0 478.000000 451.000000"
 preserveAspectRatio="xMidYMid meet">

<g transform="translate(0.000000,451.000000) scale(0.100000,-0.100000)"
fill="#000000" stroke="none">
<path d="M2217 4396 c-10 -26 4 -47 27 -44 15 2 21 10 21 28 0 29 -38 41 -48
16z"/>
<path d="M2379 4398 c11 -15 11 -21 0 -35 -13 -16 -12 -17 4 -4 14 11 20 11
35 0 15 -13 16 -12 3 4 -11 14 -11 20 0 35 13 15 12 16 -3 3 -15 -11 -21 -11
-35 0 -16 13 -17 12 -4 -3z"/>
<path d="M2534 4395 c-9 -23 3 -45 25 -45 21 0 33 22 25 45 -4 8 -15 15 -25
15 -11 0 -22 -7 -25 -15z"/>
<path d="M2012 4361 c-20 -12 -10 -46 14 -49 25 -4 40 24 23 44 -13 16 -19 17
-37 5z"/>
<path d="M2751 4356 c-17 -20 -2 -48 23 -44 24 3 34 37 14 49 -18 12 -24 11
-37 -5z"/>
<path d="M1866 4291 c-3 -4 -1 -13 4 -21 7 -11 11 -11 24 2 14 14 13 16 -4 21
-11 3 -22 2 -24 -2z"/>
<path d="M2908 4293 c-16 -4 -16 -6 -4 -19 18 -18 22 -18 29 1 7 17 -1 23 -25
18z"/>
<path d="M1716 4235 c-21 -21 -20 -32 2 -44 25 -13 44 1 40 29 -4 30 -21 35
-42 15z"/>
<path d="M3047 4243 c-12 -11 -8 -51 6 -56 21 -8 47 12 40 31 -10 26 -33 39
-46 25z"/>
<path d="M1531 4117 c-16 -16 -13 -35 7 -46 22 -12 42 3 42 30 0 20 -34 31
-49 16z"/>
<path d="M3238 4122 c-20 -4 -24 -32 -6 -50 14 -14 48 2 48 22 0 19 -22 33
-42 28z"/>
<path d="M1455 4000 c-3 -5 -12 -7 -20 -4 -9 4 -13 -1 -12 -13 0 -11 9 -19 18
-19 10 0 16 2 14 4 -2 3 0 13 6 23 10 19 5 27 -6 9z"/>
<path d="M3340 3990 c5 -10 7 -19 5 -22 -2 -2 4 -4 14 -4 27 0 23 33 -4 38
-20 4 -23 2 -15 -12z"/>
<path d="M1304 3885 c-8 -21 2 -45 19 -45 20 0 40 27 33 45 -7 19 -45 20 -52
0z"/>
<path d="M3444 3885 c-4 -9 0 -23 9 -32 21 -21 49 -9 45 19 -4 28 -45 38 -54
13z"/>
<path d="M1181 3702 c-12 -22 3 -42 30 -42 22 0 33 28 18 46 -16 19 -36 17
-48 -4z"/>
<path d="M3571 3706 c-15 -18 -4 -46 18 -46 27 0 42 20 30 42 -12 21 -32 23
-48 4z"/>
<path d="M3062 3444 c-117 -113 -212 -213 -212 -223 0 -21 19 -41 40 -41 20 0
430 411 430 431 0 18 -19 39 -35 39 -6 0 -106 -93 -223 -206z m233 175 c8 -12
-33 -59 -52 -59 -20 0 -16 21 9 47 24 25 34 28 43 12z"/>
<path d="M1136 3551 c-16 -17 -16 -19 4 -24 22 -6 37 8 20 18 -6 4 -8 11 -5
16 10 15 -1 10 -19 -10z"/>
<path d="M3637 3550 c-3 -11 -3 -21 0 -23 10 -11 41 6 39 21 -4 22 -33 24 -39
2z"/>
<path d="M1065 3414 c-18 -19 -4 -44 25 -44 23 0 34 28 19 46 -15 18 -24 18
-44 -2z"/>
<path d="M3691 3416 c-15 -18 -4 -46 19 -46 29 0 43 25 25 44 -20 20 -29 20
-44 2z"/>
<path d="M2170 3341 c-53 -28 -91 -96 -91 -164 0 -53 19 -108 41 -122 7 -5 8
3 3 22 -20 78 9 182 68 242 42 44 35 52 -21 22z"/>
<path d="M1014 3195 c-4 -9 0 -23 8 -31 20 -20 50 -7 46 20 -4 26 -45 35 -54
11z"/>
<path d="M3737 3203 c-13 -12 -7 -41 10 -47 21 -8 48 17 40 38 -6 16 -38 22
-50 9z"/>
<path d="M2792 3184 c-17 -12 -35 -14 -76 -9 -44 6 -61 3 -97 -15 -58 -30
-149 -92 -173 -119 -19 -20 -19 -21 8 -60 31 -44 167 -179 209 -206 27 -17 28
-17 48 1 27 24 89 115 118 173 19 36 22 53 16 100 -5 46 -3 60 9 70 30 25 14
81 -24 81 -8 0 -26 -7 -38 -16z m-148 -103 c7 -11 -99 -111 -118 -111 -29 0
-17 25 36 72 53 47 72 56 82 39z m56 -64 c0 -7 -24 -36 -53 -65 -42 -41 -55
-50 -65 -40 -10 10 -1 23 40 65 51 52 78 66 78 40z m60 -58 c0 -17 -91 -119
-106 -119 -26 0 -14 29 37 84 46 51 69 62 69 35z"/>
<path d="M2308 3110 c5 -63 -12 -112 -53 -155 -28 -30 -30 -35 -13 -35 30 0
85 61 98 109 9 34 8 52 -2 84 -19 58 -34 57 -30 -3z"/>
<path d="M1024 3026 c0 -15 6 -21 22 -21 27 0 25 25 -2 36 -16 5 -20 3 -20
-15z"/>
<path d="M3742 3036 c-13 -22 -9 -32 12 -32 16 0 22 6 22 21 0 23 -22 30 -34
11z"/>
<path d="M1800 3033 c0 -22 47 -79 80 -95 43 -22 101 -23 140 -3 17 9 30 17
30 20 0 2 -22 1 -48 -2 -56 -6 -128 20 -174 64 -16 15 -28 22 -28 16z"/>
<path d="M1482 3008 c-23 -23 -12 -41 81 -141 249 -268 306 -312 498 -384 133
-50 208 -64 384 -70 129 -4 176 -2 245 12 99 20 217 65 276 105 23 15 85 47
138 70 103 45 127 68 100 94 -8 9 -17 16 -19 16 -2 0 -40 -16 -85 -35 -45 -19
-91 -35 -103 -35 -12 0 -155 25 -317 55 -162 30 -459 84 -660 121 l-365 67
-71 68 c-40 38 -76 69 -81 69 -5 0 -14 -5 -21 -12z"/>
<path d="M1027 2888 c-22 -12 -22 -35 1 -46 25 -13 42 -4 42 23 0 27 -19 37
-43 23z"/>
<path d="M3743 2893 c-7 -3 -13 -15 -13 -28 0 -13 6 -25 13 -28 17 -6 47 11
47 28 0 17 -30 34 -47 28z"/>
<path d="M1062 2668 c-14 -14 2 -48 22 -48 20 0 37 25 30 44 -7 19 -35 21 -52
4z"/>
<path d="M3686 2664 c-7 -19 10 -44 30 -44 20 0 36 34 22 48 -17 17 -45 15
-52 -4z"/>
<path d="M1127 2522 c-14 -29 16 -50 44 -30 11 7 9 8 -5 4 -16 -6 -17 -4 -6 9
7 8 11 15 9 16 -31 6 -39 6 -42 1z"/>
<path d="M3638 2523 c-2 -4 -4 -15 -4 -23 1 -22 39 -19 42 3 1 11 0 16 -3 13
-4 -3 -12 -1 -19 5 -7 5 -14 6 -16 2z"/>
<path d="M1184 2375 c-9 -23 3 -45 25 -45 21 0 33 22 25 45 -4 8 -15 15 -25
15 -11 0 -22 -7 -25 -15z"/>
<path d="M3567 2376 c-10 -26 4 -47 27 -44 15 2 21 10 21 28 0 29 -38 41 -48
16z"/>
<path d="M1312 2201 c-21 -13 -10 -46 16 -49 27 -4 40 22 22 43 -14 17 -20 18
-38 6z"/>
<path d="M3450 2195 c-18 -21 -5 -47 22 -43 26 3 37 36 16 49 -18 12 -24 11
-38 -6z"/>
<path d="M1430 2065 c0 -8 5 -15 10 -15 6 0 10 7 10 15 0 8 -4 15 -10 15 -5 0
-10 -7 -10 -15z"/>
<path d="M3346 2065 c-3 -9 0 -15 9 -15 8 0 15 7 15 15 0 8 -4 15 -9 15 -5 0
-11 -7 -15 -15z"/>
<path d="M1526 1964 c-4 -10 -1 -24 7 -31 19 -19 49 -5 45 21 -4 27 -43 34
-52 10z"/>
<path d="M3227 1973 c-13 -12 -7 -41 10 -47 21 -9 46 16 37 37 -6 17 -35 23
-47 10z"/>
<path d="M1711 1851 c-10 -7 -11 -13 -1 -30 15 -29 45 -23 45 9 0 26 -20 36
-44 21z"/>
<path d="M3042 1833 c4 -35 33 -42 48 -12 13 24 1 39 -33 39 -14 0 -18 -6 -15
-27z"/>
<path d="M1864 1779 c-10 -17 13 -36 27 -22 12 12 4 33 -11 33 -5 0 -12 -5
-16 -11z"/>
<path d="M2904 1779 c-10 -17 13 -36 27 -22 12 12 4 33 -11 33 -5 0 -12 -5
-16 -11z"/>
<path d="M2004 1725 c-8 -21 2 -45 19 -45 8 0 20 7 27 15 10 12 10 18 0 30 -7
8 -19 15 -27 15 -7 0 -16 -7 -19 -15z"/>
<path d="M2746 1724 c-9 -22 17 -49 39 -40 10 3 15 15 13 28 -4 29 -42 37 -52
12z"/>
<path d="M2217 1686 c-10 -26 4 -47 27 -44 15 2 21 10 21 28 0 29 -38 41 -48
16z"/>
<path d="M2534 1685 c-9 -23 3 -45 25 -45 21 0 33 22 25 45 -4 8 -15 15 -25
15 -11 0 -22 -7 -25 -15z"/>
<path d="M2384 1669 c0 -10 4 -15 9 -12 4 2 16 -1 25 -9 15 -12 16 -11 4 4 -8
9 -11 21 -9 25 3 5 -2 9 -12 9 -9 0 -17 -8 -17 -17z"/>
<path d="M1530 1301 c-59 -14 -90 -56 -90 -124 0 -43 16 -92 42 -124 8 -10 15
-9 34 4 38 24 51 5 56 -87 6 -105 29 -138 180 -252 65 -48 122 -97 128 -107
24 -46 3 -124 -42 -155 -29 -20 -108 -21 -155 -1 -46 19 -43 20 -43 -18 0 -39
-27 -146 -41 -163 -7 -9 4 -12 48 -11 32 0 97 -3 144 -8 107 -10 129 -4 183
46 58 53 88 124 94 222 4 72 2 82 -27 142 -24 48 -50 80 -99 122 -129 112
-162 149 -162 177 0 43 16 63 65 82 l45 17 60 -30 60 -30 0 27 c0 34 28 129
46 155 13 18 11 20 -44 32 -31 7 -113 17 -182 22 -92 7 -138 15 -175 31 -69
31 -96 37 -125 31z"/>
<path d="M3360 1297 c-73 -25 -102 -121 -59 -202 30 -57 36 -61 57 -42 47 42
69 1 50 -92 -8 -42 -13 -135 -13 -256 1 -174 3 -195 23 -247 27 -68 99 -151
155 -179 57 -29 133 -35 194 -15 107 36 181 139 208 292 24 133 18 385 -11
477 -3 10 -2 17 3 16 4 -1 16 1 26 5 27 12 46 0 65 -41 15 -33 17 -73 16 -313
-1 -185 -6 -304 -16 -363 -13 -79 -13 -87 1 -82 62 25 184 29 237 8 15 -5 15
-3 0 25 -28 54 -46 153 -46 255 0 53 4 97 8 97 5 0 17 -9 26 -19 20 -22 31
-89 45 -268 19 -238 95 -326 294 -340 l86 -6 -16 52 c-12 42 -13 62 -4 96 6
24 11 46 11 48 0 3 -27 3 -60 0 -45 -4 -65 -2 -84 11 -47 30 -51 49 -51 236 0
192 -5 214 -63 262 l-29 23 36 20 c25 14 45 38 66 79 53 108 36 255 -42 346
-50 59 -84 70 -198 69 -86 -1 -101 2 -161 30 -75 35 -93 37 -134 16 -38 -19
-60 -63 -60 -115 l0 -41 -34 35 c-53 57 -106 76 -213 76 -76 0 -109 5 -183 30
-50 17 -91 30 -93 29 -1 0 -18 -5 -37 -12z m960 -244 c19 -24 21 -37 17 -87
-5 -60 -30 -108 -59 -114 -21 -4 -28 27 -28 136 0 91 0 92 24 92 15 0 33 -11
46 -27z m-581 -42 c38 -41 64 -130 69 -241 5 -113 -9 -196 -44 -268 -43 -87
-89 -94 -137 -18 -59 95 -69 253 -26 414 22 82 43 120 73 132 32 13 36 12 65
-19z"/>
<path d="M131 1284 c-27 -19 -51 -72 -51 -111 0 -26 25 -89 48 -121 8 -11 13
-12 30 -1 30 19 58 -10 73 -76 16 -74 6 -457 -16 -603 -9 -62 -15 -115 -13
-117 2 -2 39 1 83 7 79 10 251 4 333 -11 41 -8 42 -7 35 13 -5 11 -8 54 -8 93
0 61 -2 72 -15 68 -89 -27 -186 -32 -214 -12 -27 19 -42 131 -24 182 l13 40
55 0 c30 0 69 -4 87 -8 l32 -8 -10 33 c-12 42 -12 104 1 146 7 28 7 33 -6 28
-44 -17 -143 -27 -163 -17 -26 14 -29 82 -6 159 13 41 21 53 41 58 28 7 139 0
166 -11 13 -5 15 -2 11 16 -4 15 -2 20 5 15 6 -4 20 -1 31 6 17 10 23 9 40 -6
36 -33 42 -106 39 -466 -2 -187 -3 -340 -3 -340 0 6 116 31 168 36 67 5 233
-13 282 -32 15 -6 17 -4 11 17 -14 46 -18 154 -8 193 11 37 10 38 -11 32 -91
-25 -221 -26 -245 -1 -4 4 -7 133 -7 288 1 254 8 359 31 452 5 19 0 20 -63 20
-56 0 -77 5 -117 28 -72 40 -119 37 -164 -10 l-35 -38 -97 0 c-93 0 -101 2
-169 38 -79 41 -132 47 -170 21z"/>
<path d="M2124 1266 c-29 -29 -34 -41 -34 -83 0 -58 37 -140 60 -134 55 14 58
13 76 -20 14 -28 16 -51 11 -144 -8 -127 -47 -397 -77 -521 -11 -47 -20 -89
-20 -92 0 -4 59 -7 131 -7 l131 0 -6 49 c-12 101 33 197 84 181 38 -12 63 -86
58 -172 -4 -63 -3 -73 10 -68 52 20 108 25 164 15 33 -6 62 -9 64 -7 2 2 -7
33 -20 68 -59 158 -100 429 -112 740 l-7 177 -36 -10 c-19 -6 -78 -8 -131 -6
-81 3 -105 8 -164 36 -93 43 -137 43 -182 -2z m370 -336 c12 -36 19 -87 20
-148 1 -107 -10 -125 -74 -120 l-35 3 -3 90 c-3 92 12 200 31 223 20 25 42 7
61 -48z"/>
<path d="M2777 1289 c-57 -33 -64 -172 -10 -231 14 -16 17 -16 39 -1 30 19 47
7 66 -45 21 -61 15 -466 -10 -627 -11 -71 -19 -131 -18 -133 2 -1 17 3 35 9
23 8 62 9 125 3 128 -11 157 -9 204 15 83 42 122 130 122 274 0 120 -32 193
-102 232 l-37 21 34 43 c51 64 68 118 63 199 -3 54 -9 78 -31 110 -39 60 -75
76 -187 82 -77 4 -105 10 -147 33 -54 28 -114 35 -146 16z m360 -215 c21 -33
11 -90 -23 -126 -46 -47 -54 -39 -54 60 0 49 2 91 5 94 12 12 57 -6 72 -28z
m-4 -466 c20 -24 22 -77 3 -121 -14 -35 -52 -74 -62 -64 -12 12 -24 101 -18
137 12 79 13 82 37 75 12 -4 30 -16 40 -27z"/>
</g>
</svg>
