<?xml version="1.0" standalone="no"?>
<!DOCTYPE svg PUBLIC "-//W3C//DTD SVG 20010904//EN"
 "http://www.w3.org/TR/2001/REC-SVG-20010904/DTD/svg10.dtd">
<svg version="1.0" xmlns="http://www.w3.org/2000/svg"
 width="756.000000pt" height="356.000000pt" viewBox="0 0 756.000000 356.000000"
 preserveAspectRatio="xMidYMid meet">

<g transform="translate(0.000000,356.000000) scale(0.100000,-0.100000)"
fill="#000000" stroke="none">
<path d="M1500 3513 c-575 -88 -1069 -443 -1324 -951 -62 -124 -99 -219 -137
-354 l-32 -113 -4 -301 c-5 -339 0 -392 64 -589 164 -509 545 -915 1047 -1115
41 -16 126 -43 188 -60 l113 -30 340 0 c327 0 344 1 435 24 330 84 654 278
874 523 228 253 380 561 439 886 31 174 31 471 -1 639 -91 482 -358 889 -761
1160 -167 112 -390 210 -575 253 -195 45 -477 57 -666 28z m470 -203 c352 -55
618 -185 869 -425 274 -262 436 -603 473 -998 58 -620 -280 -1230 -842 -1521
-575 -297 -1281 -206 -1760 227 -462 417 -633 1076 -433 1667 78 232 201 428
383 610 240 239 511 376 875 439 71 12 357 13 435 1z"/>
<path d="M1530 3255 c-304 -45 -612 -199 -826 -412 -219 -218 -366 -483 -424
-766 -78 -377 -22 -747 162 -1072 228 -402 633 -680 1093 -751 178 -27 418
-15 593 30 181 47 304 103 472 215 133 88 293 241 382 366 260 367 348 828
239 1259 -138 546 -563 970 -1106 1104 -171 43 -406 53 -585 27z m855 -494
c-17 -7 -15 -9 15 -16 50 -11 70 -45 28 -45 l-23 -1 23 -12 c17 -10 20 -15 10
-25 -7 -7 -20 -12 -30 -12 -10 0 -18 -4 -18 -9 0 -5 -9 -11 -21 -14 -12 -3
-18 -10 -15 -15 8 -14 -18 -22 -67 -22 -23 0 -55 -7 -72 -16 -34 -18 -201 -54
-249 -54 -18 0 -38 6 -45 13 -10 10 -12 9 -9 -3 3 -14 -1 -15 -50 -18 -13 -1
-20 -6 -17 -12 3 -5 -12 -12 -34 -16 -31 -5 -38 -10 -34 -23 5 -13 3 -14 -8
-3 -16 14 -49 16 -49 2 0 -5 6 -10 13 -11 6 0 0 -5 -15 -10 -18 -7 -29 -20
-33 -39 -4 -16 -15 -48 -26 -71 -11 -22 -18 -48 -15 -56 4 -9 0 -21 -7 -27
-15 -12 -70 -156 -66 -172 2 -5 -4 -22 -13 -39 -20 -38 -98 -268 -98 -290 0
-12 5 -15 18 -10 9 4 55 16 102 27 47 10 112 26 145 34 33 8 83 20 110 26 28
5 73 16 100 24 119 33 325 48 325 23 0 -5 10 -8 23 -6 19 2 22 -3 22 -35 0
-27 -4 -38 -15 -39 -10 0 -11 -2 -2 -6 26 -10 10 -23 -30 -23 -46 0 -128 -32
-128 -50 0 -5 -10 -10 -22 -10 -37 0 -68 -12 -62 -22 4 -7 -8 -8 -35 -3 -27 4
-41 3 -41 -4 0 -6 -8 -11 -17 -11 -23 0 -83 -22 -83 -31 0 -4 -7 -10 -16 -13
-9 -4 -13 -2 -8 5 5 8 2 9 -11 2 -10 -6 -26 -8 -36 -6 -11 3 -19 1 -19 -5 0
-5 -24 -15 -52 -22 -29 -6 -75 -20 -103 -31 -27 -10 -77 -26 -110 -34 -36 -9
-45 -13 -22 -11 58 7 44 -9 -21 -22 -70 -14 -98 -33 -105 -69 -28 -141 -37
-198 -33 -208 2 -7 0 -18 -4 -26 -5 -8 -4 -19 3 -28 9 -11 9 -15 0 -18 -18 -7
-16 -113 2 -151 9 -18 28 -35 47 -41 44 -16 154 -13 211 4 27 8 52 14 55 13 4
-1 14 1 22 5 8 3 49 15 90 27 41 12 89 27 105 35 37 16 67 27 80 30 6 1 12 3
15 4 3 1 23 5 45 7 22 3 49 13 60 23 38 33 115 56 99 29 -5 -8 -2 -9 10 -5 26
10 59 -11 53 -34 -4 -13 0 -19 11 -19 13 0 12 -3 -4 -15 -14 -10 -15 -14 -4
-15 10 0 11 -3 3 -11 -8 -8 -17 -8 -31 0 -11 6 -23 11 -26 11 -11 0 -6 -19 7
-23 6 -2 1 -2 -11 0 -14 2 -21 0 -18 -6 4 -6 -6 -17 -21 -25 -35 -19 -16 -21
23 -2 36 17 74 29 74 23 0 -10 -96 -65 -123 -71 -24 -6 -27 -9 -17 -21 11 -13
7 -15 -19 -15 -20 0 -31 -5 -31 -14 0 -15 -75 -54 -123 -63 -18 -3 -38 -10
-45 -16 -9 -7 -16 -7 -23 0 -14 14 -64 -4 -97 -34 -27 -25 -42 -29 -42 -13 0
15 -16 12 -33 -5 -11 -10 -41 -15 -99 -17 -105 -2 -142 15 -241 116 -82 83
-134 164 -154 239 -16 63 -18 206 -4 305 l11 73 -35 43 c-33 40 -66 139 -51
154 4 3 33 9 66 13 70 8 90 21 90 59 0 15 7 33 15 40 8 7 17 28 20 49 12 68
33 146 60 216 14 39 30 84 35 100 4 17 20 64 34 105 42 117 42 117 10 123 -16
3 -42 -1 -59 -8 -29 -13 -29 -13 -5 -14 22 -1 23 -3 7 -12 -10 -6 -30 -8 -46
-4 -18 4 -35 0 -52 -13 -13 -10 -43 -26 -66 -36 -38 -17 -44 -17 -66 -3 -20
13 -46 56 -80 134 -21 47 9 70 165 127 57 21 121 46 143 56 22 9 64 23 94 30
37 9 55 18 58 31 6 22 25 24 51 8 15 -9 43 -7 125 10 58 11 118 21 132 21 15
0 35 5 46 11 11 5 52 14 92 20 40 5 110 16 157 23 92 15 289 20 255 7z m-685
-1211 c-36 -11 -50 -11 -50 0 0 6 17 10 38 9 33 -1 34 -2 12 -9z m497 -616
c-3 -3 -12 -4 -19 -1 -8 3 -5 6 6 6 11 1 17 -2 13 -5z m-44 -21 c-7 -2 -21 -2
-30 0 -10 3 -4 5 12 5 17 0 24 -2 18 -5z"/>
<path d="M2348 2673 c7 -3 16 -2 19 1 4 3 -2 6 -13 5 -11 0 -14 -3 -6 -6z"/>
<path d="M2305 2650 c3 -5 13 -10 21 -10 8 0 14 5 14 10 0 6 -9 10 -21 10 -11
0 -17 -4 -14 -10z"/>
<path d="M2275 2610 c-7 -12 12 -12 40 0 18 8 17 9 -7 9 -15 1 -30 -3 -33 -9z"/>
<path d="M2170 2600 c-12 -8 -9 -10 12 -10 15 0 30 5 33 10 8 13 -25 13 -45 0z"/>
<path d="M2085 2580 c-14 -7 -8 -8 20 -3 22 3 42 7 44 9 9 8 -45 2 -64 -6z"/>
<path d="M1765 2500 c-3 -5 -1 -10 4 -10 6 0 11 5 11 10 0 6 -2 10 -4 10 -3 0
-8 -4 -11 -10z"/>
<path d="M1440 1879 c0 -11 5 -17 10 -14 6 3 10 13 10 21 0 8 -4 14 -10 14 -5
0 -10 -9 -10 -21z"/>
<path d="M2050 1730 c-23 -7 -23 -8 -3 -9 12 -1 25 4 28 9 3 6 5 10 3 9 -2 -1
-14 -5 -28 -9z"/>
<path d="M1415 1500 c-3 -5 1 -10 9 -10 8 0 18 5 21 10 3 6 -1 10 -9 10 -8 0
-18 -4 -21 -10z"/>
<path d="M1960 876 c0 -9 7 -16 16 -16 9 0 14 5 12 12 -6 18 -28 21 -28 4z"/>
<path d="M5529 2611 c-29 -9 -91 -36 -134 -58 -75 -39 -292 -218 -318 -263
-10 -16 -22 -30 -26 -30 -5 0 -26 -35 -47 -77 -34 -67 -39 -86 -37 -138 2 -70
13 -103 56 -167 39 -57 61 -68 135 -68 53 0 84 6 262 46 36 8 113 18 173 21
96 5 107 4 107 -11 0 -21 -193 -216 -214 -216 -8 0 -16 -3 -18 -8 -6 -14 -92
-72 -107 -72 -9 0 -29 -12 -46 -26 -16 -14 -63 -41 -105 -60 -41 -20 -102 -50
-135 -67 -33 -17 -76 -31 -95 -31 -35 -1 -35 -1 -33 -45 1 -24 6 -47 11 -50 5
-3 15 -17 21 -30 11 -20 18 -22 52 -17 22 4 48 11 57 16 9 5 29 11 44 14 15 4
33 13 42 21 8 8 19 15 25 15 22 0 322 176 341 200 3 4 32 25 65 47 125 86 213
202 202 269 -7 43 -71 150 -99 165 -41 22 -287 5 -432 -30 -139 -33 -176 -37
-207 -21 -25 14 -24 42 5 113 52 125 173 249 356 365 101 63 219 82 303 47 20
-8 20 -7 6 -39 -9 -19 -8 -29 3 -45 l15 -21 27 21 c37 29 35 78 -5 141 -52 81
-80 98 -157 97 -37 0 -79 -4 -93 -8z"/>
<path d="M4540 2563 c-19 -2 -71 -11 -115 -19 -193 -36 -247 -44 -269 -38 -16
4 -25 0 -29 -10 -4 -9 -15 -16 -26 -16 -11 0 -33 -5 -48 -11 -15 -7 -41 -17
-58 -24 -16 -7 -53 -20 -81 -30 -28 -10 -62 -26 -75 -36 l-23 -17 24 -52 c32
-68 44 -73 100 -45 26 13 54 23 63 22 8 -1 16 3 16 8 0 14 44 24 58 12 9 -6
10 -15 3 -27 -19 -36 -100 -288 -100 -312 0 -13 -7 -34 -16 -46 -8 -12 -12
-22 -9 -22 3 0 1 -8 -4 -19 -7 -12 -27 -21 -57 -26 l-46 -7 7 -36 c4 -20 17
-51 30 -67 21 -28 22 -35 13 -90 -12 -77 -2 -179 22 -231 25 -52 83 -119 133
-155 34 -25 50 -29 103 -29 35 0 66 5 69 11 4 6 14 8 22 4 9 -3 24 2 33 10 10
9 37 18 60 21 50 6 120 32 120 45 0 5 9 9 21 9 11 0 17 4 14 10 -3 5 9 16 27
24 18 7 42 21 53 30 19 16 18 16 -17 2 -36 -14 -37 -14 -25 5 6 10 21 19 32
19 16 0 21 6 20 27 0 21 -6 28 -28 34 -30 8 -70 -2 -82 -20 -3 -6 -15 -11 -25
-11 -10 0 -74 -18 -142 -40 -201 -66 -301 -65 -313 4 -6 34 -3 106 5 106 3 0
6 24 6 53 2 71 21 137 40 137 8 0 12 5 9 10 -4 7 3 9 22 5 19 -5 24 -4 15 3
-11 7 -7 11 15 16 24 5 135 38 183 54 8 3 24 7 34 9 10 2 38 12 62 22 24 11
52 17 63 14 12 -3 21 -1 21 6 0 6 9 11 20 11 11 0 34 9 52 20 18 11 46 20 61
20 16 0 26 4 22 10 -3 6 -1 10 6 10 8 0 10 -27 5 -102 -9 -140 -10 -389 -2
-415 8 -24 61 -46 98 -41 32 4 40 76 16 136 -15 37 -17 64 -13 180 3 75 12
205 20 287 9 83 17 178 18 213 2 59 0 65 -27 88 -17 15 -38 24 -52 22 -23 -3
-24 -6 -28 -108 -3 -58 -8 -131 -12 -163 -6 -49 -9 -57 -23 -50 -9 4 -47 8
-86 7 -63 -1 -150 -18 -385 -75 -41 -10 -76 -17 -77 -15 -3 3 51 166 66 201 5
11 16 46 25 78 9 31 22 57 27 57 6 0 7 5 4 10 -4 6 1 24 9 42 9 17 16 37 16
45 0 7 7 16 15 19 8 4 12 10 9 15 -5 8 -1 9 21 9 3 0 22 7 43 15 20 9 72 21
116 26 43 5 97 16 120 24 22 8 52 15 66 15 20 0 22 2 10 11 -12 8 -9 9 13 5
15 -4 27 -2 27 3 0 5 12 13 26 18 18 6 28 17 30 34 4 43 -55 56 -186 42z m117
-69 c-3 -3 -12 -4 -19 -1 -8 3 -5 6 6 6 11 1 17 -2 13 -5z m-77 -34 c0 -5 -10
-10 -22 -10 -19 0 -20 2 -8 10 19 13 30 13 30 0z m-55 -10 c4 -6 -6 -10 -22
-10 -22 0 -25 2 -13 10 19 12 27 12 35 0z m-88 -1126 c-3 -3 -12 -4 -19 -1 -8
3 -5 6 6 6 11 1 17 -2 13 -5z"/>
<path d="M6357 2233 c-3 -5 -8 -53 -12 -108 -4 -55 -8 -111 -10 -124 -13 -79
-19 -208 -19 -363 1 -170 2 -179 25 -213 27 -40 71 -60 99 -45 10 6 27 10 36
10 28 0 124 71 160 118 l32 43 7 -30 c9 -41 59 -107 98 -131 82 -51 176 4 285
168 19 28 37 52 39 52 3 0 4 -35 3 -77 -1 -43 -2 -84 -1 -91 1 -17 50 -62 80
-73 33 -13 41 2 41 77 0 64 22 142 60 209 75 134 128 188 197 200 63 10 70 26
30 69 -19 20 -43 36 -53 36 -36 0 -99 -22 -116 -40 -9 -10 -21 -20 -25 -21
-11 -5 -58 -70 -66 -91 -11 -30 -37 -22 -37 11 0 22 -10 38 -37 60 -21 17 -46
31 -56 31 -16 0 -18 -7 -13 -55 2 -30 2 -55 0 -55 -3 0 -24 18 -47 40 -56 54
-107 70 -151 46 -25 -13 -38 -15 -60 -7 -36 14 -33 15 -62 -16 l-24 -26 -28
25 c-38 36 -105 68 -142 68 -40 0 -87 -20 -127 -54 l-33 -28 0 34 c0 18 7 91
16 161 16 123 16 129 -2 148 -17 19 -65 49 -78 49 -3 0 -7 -3 -9 -7z m315
-406 c3 -6 4 -22 2 -36 -6 -33 -54 -133 -68 -143 -6 -4 -8 -8 -5 -8 18 0 -143
-150 -161 -150 -18 0 -20 6 -20 60 0 45 4 62 15 66 8 3 20 25 26 48 27 101
115 190 176 178 16 -3 31 -10 35 -15z m362 -30 c16 -12 17 -18 7 -50 -18 -54
-102 -177 -150 -220 -48 -44 -106 -71 -129 -62 -33 13 17 207 72 280 21 28 32
34 50 29 14 -3 36 2 57 15 39 24 68 26 93 8z"/>
<path d="M5593 2013 c15 -2 37 -2 50 0 12 2 0 4 -28 4 -27 0 -38 -2 -22 -4z"/>
<path d="M6197 1913 c-4 -3 -7 -19 -7 -35 0 -35 -10 -35 -40 -3 -32 34 -75 33
-133 -6 -83 -55 -217 -234 -217 -291 0 -67 57 -153 123 -186 85 -42 117 -26
193 95 l49 77 8 -94 c10 -106 27 -141 67 -137 l25 2 6 160 c3 88 11 197 17
243 13 95 7 117 -38 155 -33 28 -42 32 -53 20z m-50 -155 c-14 -24 -37 -65
-52 -93 -15 -27 -37 -60 -48 -73 -12 -12 -22 -30 -23 -40 -5 -29 -61 -72 -95
-72 -32 0 -32 0 -26 46 10 90 170 273 240 274 l29 0 -25 -42z"/>
<path d="M4228 1773 c7 -3 16 -2 19 1 4 3 -2 6 -13 5 -11 0 -14 -3 -6 -6z"/>
<path d="M4518 1353 c7 -3 16 -2 19 1 4 3 -2 6 -13 5 -11 0 -14 -3 -6 -6z"/>
<path d="M6515 1069 c-11 -17 1 -21 15 -4 8 9 8 15 2 15 -6 0 -14 -5 -17 -11z"/>
<path d="M3853 1030 c-38 -15 -31 -57 12 -74 19 -8 35 -19 35 -25 0 -17 -20
-23 -35 -11 -8 6 -22 10 -31 8 -17 -3 -17 -4 0 -20 30 -31 106 -15 106 22 0
15 -30 40 -56 46 -13 3 -24 13 -24 21 0 12 8 14 35 9 42 -8 48 9 9 24 -14 6
-26 10 -27 9 -1 0 -12 -4 -24 -9z"/>
<path d="M4443 1030 c-72 -30 -45 -140 34 -140 36 0 73 38 73 75 0 49 -59 85
-107 65z m61 -36 c30 -30 13 -74 -29 -74 -42 0 -59 44 -29 74 8 9 22 16 29 16
7 0 21 -7 29 -16z"/>
<path d="M4957 1029 c-11 -7 -15 -17 -11 -33 3 -14 -1 -27 -10 -35 -19 -16
-21 -45 -3 -59 19 -17 119 -12 113 5 -3 7 -1 24 4 38 7 19 6 25 -4 25 -8 0
-16 -6 -19 -12 -3 -10 -8 -10 -17 -2 -9 9 -9 16 2 33 11 19 11 24 -6 37 -23
16 -25 17 -49 3z m33 -25 c0 -8 -4 -12 -10 -9 -5 3 -10 10 -10 16 0 5 5 9 10
9 6 0 10 -7 10 -16z m-1 -68 c9 -10 9 -16 1 -21 -16 -10 -40 2 -40 20 0 19 24
20 39 1z"/>
<path d="M6149 1022 c-29 -24 -20 -48 26 -68 19 -8 35 -18 35 -24 0 -17 -22
-22 -46 -9 -28 15 -42 6 -24 -16 16 -19 74 -20 90 0 19 23 7 49 -33 68 -46 21
-39 40 11 32 l37 -6 -24 20 c-29 26 -42 26 -72 3z"/>
<path d="M6466 1019 c-51 -40 -23 -129 42 -129 46 0 72 25 72 70 0 30 -6 43
-26 59 -15 12 -34 21 -44 21 -10 0 -29 -9 -44 -21z m73 -23 c7 -8 11 -27 9
-43 -3 -25 -7 -28 -38 -28 -31 0 -35 3 -38 28 -4 32 13 57 38 57 10 0 23 -6
29 -14z"/>
<path d="M4028 960 c-20 -55 -23 -70 -12 -70 8 0 17 7 20 15 4 9 19 15 40 15
24 0 34 -5 34 -15 0 -8 7 -15 15 -15 19 0 19 3 -7 78 -18 48 -27 62 -43 62
-16 0 -26 -15 -47 -70z m58 -6 c-5 -13 -10 -14 -18 -6 -6 6 -8 18 -4 28 5 13
10 14 18 6 6 -6 8 -18 4 -28z"/>
<path d="M4220 959 l0 -70 46 3 c55 4 77 26 57 58 -7 10 -10 26 -7 35 10 25
-15 45 -57 45 l-39 0 0 -71z m68 34 c2 -8 -5 -13 -17 -13 -12 0 -21 6 -21 16
0 18 31 15 38 -3z m12 -58 c0 -9 -9 -15 -25 -15 -16 0 -25 6 -25 15 0 9 9 15
25 15 16 0 25 -6 25 -15z"/>
<path d="M4630 960 c0 -56 3 -70 15 -70 10 0 15 10 15 30 0 38 10 38 32 0 9
-17 24 -30 33 -30 15 0 14 4 -4 33 -18 30 -18 34 -4 43 12 7 14 18 9 37 -6 24
-11 27 -51 27 l-45 0 0 -70z m70 36 c0 -15 -24 -28 -34 -19 -13 14 -5 33 14
33 11 0 20 -6 20 -14z"/>
<path d="M5250 960 l0 -70 40 0 c51 0 80 27 80 73 0 45 -26 67 -78 67 l-42 0
0 -70z m83 29 c5 -9 7 -28 3 -42 -5 -20 -13 -27 -31 -27 -23 0 -25 4 -25 46 0
41 2 45 21 42 12 -2 26 -10 32 -19z"/>
<path d="M5460 960 c0 -56 3 -70 15 -70 12 0 15 14 15 70 0 56 -3 70 -15 70
-12 0 -15 -14 -15 -70z"/>
<path d="M5570 1023 c0 -5 10 -36 22 -70 16 -43 28 -63 39 -63 18 0 20 4 50
88 17 48 17 53 2 50 -9 -2 -23 -22 -31 -46 -16 -49 -27 -47 -43 8 -7 22 -18
40 -26 40 -7 0 -13 -3 -13 -7z"/>
<path d="M5780 960 l0 -70 40 0 c42 0 56 16 18 22 -34 5 -37 38 -4 38 32 0 35
17 4 22 -34 5 -37 38 -4 38 14 0 26 5 26 10 0 6 -18 10 -40 10 l-40 0 0 -70z"/>
<path d="M5950 960 c0 -54 3 -70 14 -70 9 0 16 12 18 33 l4 32 19 -32 c11 -18
28 -33 38 -33 17 0 17 2 -3 30 -19 27 -20 31 -6 46 33 33 11 64 -46 64 l-38 0
0 -70z m66 39 c7 -12 -15 -31 -28 -23 -4 3 -8 12 -8 20 0 17 26 19 36 3z"/>
<path d="M6320 960 c0 -56 3 -70 15 -70 12 0 15 14 15 70 0 56 -3 70 -15 70
-12 0 -15 -14 -15 -70z"/>
<path d="M6670 960 c0 -54 3 -70 14 -70 11 0 16 14 18 48 l3 47 28 -47 c18
-31 35 -48 47 -48 18 0 20 7 20 70 0 56 -3 70 -15 70 -11 0 -15 -11 -15 -40 0
-22 -3 -40 -8 -40 -4 0 -18 18 -32 40 -14 22 -33 40 -42 40 -16 0 -18 -10 -18
-70z"/>
</g>
</svg>
