<svg version="1.1" id="Layer_1" xmlns="http://www.w3.org/2000/svg" xmlns:xlink="http://www.w3.org/1999/xlink" x="0px" y="0px"
	 width="100%" viewBox="0 0 287 341" enable-background="new 0 0 287 341" xml:space="preserve">
<path fill="#FDFEFE" opacity="1.000000" stroke="none" 
	d="
M288.000000,331.000000 
	C288.000000,334.660797 288.000000,338.321564 288.000000,342.000000 
	C193.158081,342.000000 98.316162,342.000000 3.474243,342.000000 
	C2.649480,342.000000 1.824717,342.000000 1.000000,342.000000 
	C1.000000,339.648651 1.000000,337.319061 1.335349,334.591766 
	C3.638614,336.330109 5.254617,339.320862 7.689274,340.323273 
	C9.533574,341.082611 12.725352,339.774048 14.726665,338.475250 
	C15.848246,337.747406 15.767764,335.167297 16.228880,333.421722 
	C13.525659,333.492096 12.247058,334.448578 10.867816,334.626984 
	C9.816776,334.762939 8.163205,334.243744 7.601552,333.440186 
	C5.589747,330.561951 7.391696,323.456665 9.736571,321.713837 
	C11.554043,323.158875 13.183733,324.454590 14.813423,325.750336 
	C15.288838,323.358551 16.575888,320.780975 16.079327,318.611694 
	C14.852792,313.253326 9.830857,312.373627 5.889874,316.616486 
	C4.073914,318.571564 2.618756,320.861755 1.000000,323.000000 
	C1.000000,215.717010 1.000000,108.434029 1.000000,1.075523 
	C96.571388,1.075523 192.142853,1.075523 288.000000,1.075523 
	C288.000000,108.687393 288.000000,216.375031 287.655273,324.429413 
	C285.808167,320.842346 283.659485,318.346954 279.113403,321.095337 
	C278.738312,321.322083 278.067078,321.542694 277.783661,321.365662 
	C272.534515,318.086975 273.319489,322.660156 273.100922,325.172394 
	C272.828888,328.299133 272.958496,331.493530 273.265564,334.624268 
	C273.419189,336.190460 274.352142,337.680206 274.932617,339.204498 
	C275.554108,339.193481 276.175629,339.182434 276.797119,339.171387 
	C277.765900,334.503479 278.734650,329.835571 279.703430,325.167633 
	C280.405609,325.265564 281.107758,325.363495 281.809937,325.461426 
	C281.809937,330.259613 281.809937,335.057831 281.809937,339.856049 
	C282.341248,339.954651 282.872559,340.053284 283.403870,340.151917 
	C284.935913,337.101257 286.467957,334.050629 288.000000,331.000000 
M187.573761,185.007614 
	C185.992462,207.563828 184.411163,230.120056 182.830612,252.665436 
	C151.013763,252.665436 119.675102,252.665436 87.991714,252.665436 
	C87.991714,248.421127 87.991714,244.658035 87.991714,241.813538 
	C83.714470,241.533340 79.868019,241.281357 75.831856,241.016953 
	C75.831856,255.335648 75.808205,270.152313 75.838890,284.968872 
	C75.866409,298.255707 82.254517,305.282196 95.511360,305.459991 
	C122.329041,305.819672 149.153656,305.903625 175.973419,305.751923 
	C187.427292,305.687164 195.209915,298.054504 195.068558,286.976196 
	C194.815887,267.173279 194.124741,247.372467 193.363831,227.580505 
	C192.704956,210.442596 191.610687,193.321426 190.953659,176.183472 
	C190.876312,174.165604 191.812546,171.576126 193.195755,170.126389 
	C199.472366,163.547729 202.153000,145.655701 197.418488,136.628098 
	C196.842453,143.819168 196.315155,150.401978 195.787857,156.984772 
	C195.335785,156.994690 194.883728,157.004608 194.431656,157.014526 
	C193.894974,148.829529 193.358292,140.644516 192.821594,132.459518 
	C192.515900,132.451477 192.210205,132.443436 191.904510,132.435410 
	C191.287201,140.592941 190.669907,148.750458 190.052597,156.907990 
	C189.569717,156.894043 189.086838,156.880081 188.603958,156.866119 
	C188.101669,148.698975 187.599380,140.531830 187.097092,132.364670 
	C186.782883,132.370819 186.468674,132.376968 186.154465,132.383102 
	C185.541122,140.596039 184.927765,148.808960 184.314407,157.021881 
	C183.912918,156.989334 183.511429,156.956787 183.109940,156.924240 
	C182.380814,149.758133 181.651703,142.592026 180.922577,135.425919 
	C180.366135,135.440964 179.809692,135.455994 179.253250,135.471024 
	C179.253250,142.256424 178.967529,149.057892 179.348312,155.821854 
	C179.627151,160.774872 180.580215,165.589981 184.627090,169.426331 
	C186.370468,171.079010 187.156830,174.076782 187.658997,176.606201 
	C188.134201,178.999832 187.667984,181.580353 187.573761,185.007614 
M179.785706,71.265503 
	C150.635086,71.202538 121.482742,70.940178 92.334900,71.194565 
	C83.245941,71.273888 75.961510,79.857925 76.092529,89.524055 
	C76.254761,101.493217 76.763176,113.464005 77.404587,125.418930 
	C78.501945,145.871857 79.741791,166.318161 81.109428,186.754684 
	C81.379097,190.784439 80.245987,193.414627 77.027069,196.060638 
	C66.021683,205.107315 65.846245,225.284515 76.353088,234.958481 
	C80.781036,239.035431 84.736961,238.948212 89.000359,234.679642 
	C99.535957,224.131256 98.805809,204.939743 87.333405,195.485886 
	C84.923843,193.500275 83.747536,191.536713 83.951218,188.350861 
	C85.523521,163.757248 86.965233,139.155289 88.477386,114.557739 
	C88.503578,114.131615 88.902351,113.728401 88.997208,113.553848 
	C120.334595,113.553848 151.447952,113.553848 183.057892,113.553848 
	C183.057892,117.672417 183.057892,121.425766 183.057892,125.032394 
	C187.450562,125.032394 191.336105,125.032394 195.386108,125.032394 
	C195.386108,112.782776 195.695175,100.956009 195.289764,89.153793 
	C194.956573,79.454155 190.012527,73.990471 179.785706,71.265503 
M172.002792,217.495331 
	C172.002792,192.406845 172.002792,167.318359 172.002792,142.251160 
	C147.693192,142.251160 123.943169,142.251160 100.141800,142.251160 
	C100.014946,144.760910 99.900749,147.020187 99.767609,149.654465 
	C98.441986,149.048660 97.557304,148.644363 96.045837,147.953629 
	C103.508484,176.018433 98.169342,204.095657 100.418655,231.712830 
	C124.322327,231.712830 148.056320,231.712830 172.002792,231.712830 
	C172.002792,227.113785 172.002792,222.802979 172.002792,217.495331 
M25.042124,42.320751 
	C25.282648,44.634018 25.417316,46.964294 25.785725,49.257011 
	C26.553160,54.032982 32.269623,58.224094 36.826576,56.675854 
	C42.117645,54.878185 47.322517,52.536304 52.087139,49.643814 
	C53.665546,48.685600 54.938698,44.749130 54.207760,43.160831 
	C53.481663,41.583031 49.996246,40.397408 47.833576,40.557941 
	C44.328472,40.818123 40.915428,42.318554 37.384762,43.317635 
	C35.881435,38.825336 36.936459,36.289242 41.397823,35.204773 
	C43.772552,34.627525 46.411552,33.784248 48.115635,32.189503 
	C49.753944,30.656301 50.340374,27.999107 51.389004,25.835800 
	C49.143559,24.932230 46.912354,23.356627 44.648777,23.308655 
	C42.246849,23.257753 39.814186,24.657064 37.299633,25.453232 
	C36.699001,21.186083 38.125019,18.915157 41.950649,17.618132 
	C45.373787,16.457565 48.823174,14.884206 51.674633,12.720319 
	C53.263771,11.514372 54.928112,8.089843 54.283741,6.814397 
	C53.370991,5.007726 50.346443,3.256228 48.245327,3.280615 
	C44.346687,3.325866 40.480778,4.774282 36.569252,5.454480 
	C30.525713,6.505427 26.965816,10.170475 26.412668,16.057877 
	C25.623034,24.462349 25.459026,32.925602 25.042124,42.320751 
M150.123901,16.780626 
	C150.282364,28.069815 150.274765,39.365948 150.746475,50.642033 
	C150.835403,52.767857 152.397263,55.475323 154.132965,56.618359 
	C155.004349,57.192219 157.794403,54.852608 160.008942,53.675228 
	C166.164780,58.183987 171.281784,58.267891 175.759735,53.503990 
	C181.736252,47.145859 184.047119,31.689177 180.205215,23.769600 
	C177.416794,18.021585 172.579056,16.452690 167.030899,19.603954 
	C165.285461,20.595335 163.695297,21.860138 162.080902,22.967674 
	C161.442078,17.807579 161.223145,12.964121 160.093613,8.343248 
	C159.603104,6.336622 157.239273,4.787916 155.726303,3.031229 
	C154.247452,4.843925 152.295395,6.455896 151.418228,8.523816 
	C150.476227,10.744572 150.543991,13.393645 150.123901,16.780626 
M130.896210,26.196026 
	C132.005493,27.534567 133.114777,28.873110 134.036240,29.985033 
	C128.292603,32.763828 123.103951,34.624126 118.660187,37.597630 
	C113.718224,40.904499 113.074760,45.512779 115.689705,50.259644 
	C118.358665,55.104568 122.991272,57.015320 128.326797,55.312061 
	C130.469971,54.627899 132.513657,53.632114 133.313965,53.304958 
	C136.182480,55.169777 138.209564,57.180035 140.562042,57.690353 
	C141.561508,57.907173 144.221771,55.118584 144.454788,53.460793 
	C145.927979,42.979118 146.110336,32.403915 141.061859,22.732172 
	C136.480591,13.955485 122.355919,13.616380 117.075035,22.021767 
	C116.040314,23.668688 116.574646,26.301397 116.385300,28.479445 
	C118.503372,28.486858 120.681610,28.810226 122.724220,28.421312 
	C125.249802,27.940443 127.662766,26.868139 130.896210,26.196026 
M189.764801,22.348305 
	C184.263535,31.862690 183.621719,41.665020 189.086868,51.258194 
	C194.346542,60.490677 205.556564,60.373798 210.742828,51.091702 
	C215.250092,43.024834 216.064194,34.309826 212.720627,25.582350 
	C208.454407,14.446533 198.169861,12.775764 189.764801,22.348305 
M111.408951,21.725952 
	C114.185310,17.347639 112.843956,14.229700 107.867325,14.051247 
	C101.869942,13.836191 97.189400,16.508503 94.273186,21.721762 
	C91.650032,26.411129 92.433464,30.891802 95.644371,35.223106 
	C101.534187,43.168053 101.358284,43.075642 92.946060,47.782616 
	C91.332062,48.685707 89.821495,51.422321 89.930328,53.211670 
	C90.011147,54.540474 92.633995,56.435650 94.394043,56.809322 
	C100.220284,58.046284 107.790451,53.326694 110.948463,47.026566 
	C113.588242,41.760296 112.565407,38.258404 106.802406,32.831753 
	C103.549316,29.768524 103.716667,26.755825 107.341164,24.180244 
	C108.422012,23.412189 109.615433,22.802544 111.408951,21.725952 
M217.796509,27.746851 
	C218.165176,35.386982 218.208282,43.065502 219.101944,50.643723 
	C219.368179,52.901386 222.019379,54.877808 223.577805,56.983089 
	C225.267105,54.795490 227.782120,52.830547 228.446503,50.366589 
	C229.375473,46.921467 228.834396,43.098068 229.082153,39.447365 
	C229.593140,31.917652 232.985336,29.509130 240.401291,30.710928 
	C242.091614,30.984854 244.697983,30.292742 245.656128,29.077873 
	C246.611450,27.866571 246.651627,25.179853 245.992874,23.598227 
	C244.371841,19.706160 240.631500,18.364193 236.889053,19.170845 
	C233.840683,19.827898 231.102554,21.924267 229.135361,22.921745 
	C227.033142,21.303228 224.883148,18.290628 222.817337,18.347290 
	C218.834106,18.456537 218.103867,22.334690 217.874786,25.824638 
	C217.852951,26.157093 217.828201,26.489361 217.796509,27.746851 
M59.928909,47.477104 
	C60.497265,49.552727 60.655392,51.885250 61.749172,53.631832 
	C62.846264,55.383709 64.876526,56.551205 66.497803,57.974819 
	C67.940834,56.165604 69.609871,54.484024 70.733498,52.494419 
	C71.313126,51.468067 70.963554,49.894150 70.964851,48.567574 
	C70.975845,37.287571 71.191246,26.000298 70.820061,14.732506 
	C70.724083,11.818947 69.243782,6.860064 67.584724,6.489671 
	C63.013260,5.469071 61.955799,10.188229 60.978333,13.562628 
	C57.824337,24.450855 58.090195,35.529793 59.928909,47.477104 
M117.669037,329.141998 
	C117.980957,331.751892 117.370087,335.386017 118.840118,336.710480 
	C120.646988,338.338379 124.306503,338.778687 126.951439,338.365143 
	C129.640335,337.944763 131.868530,337.134521 134.137299,339.289764 
	C134.690979,339.815765 135.873016,339.680359 137.788345,340.042114 
	C136.906479,337.542175 136.293503,335.804474 135.787537,334.370117 
	C136.648361,332.345062 137.446854,330.466675 138.245331,328.588257 
	C137.881653,328.339264 137.517975,328.090240 137.154297,327.841217 
	C135.451614,328.560730 133.748932,329.280243 131.929031,330.049286 
	C130.680923,328.205963 129.585754,326.588501 128.499390,324.984070 
	C130.953629,321.793762 133.863510,318.568909 130.063416,315.278107 
	C128.487244,313.913177 124.853699,313.171234 123.138741,314.054504 
	C118.367638,316.511871 120.537468,320.766357 121.788834,324.407318 
	C120.463684,325.851898 119.236115,327.190155 117.669037,329.141998 
M52.149536,328.797913 
	C52.265621,332.171814 52.381710,335.545715 52.497795,338.919647 
	C53.210442,338.924408 53.923092,338.929169 54.635738,338.933929 
	C57.167133,334.782623 57.313953,330.144928 56.529812,325.390167 
	C55.539089,319.382751 54.388962,318.921478 50.956448,321.182007 
	C45.800583,320.808533 42.135891,319.995270 38.738369,320.624573 
	C37.693733,320.818024 37.067825,324.921936 36.814350,327.295471 
	C36.534386,329.917084 36.570000,332.677429 37.106750,335.243774 
	C37.455441,336.910950 38.945934,338.339294 39.924862,339.874664 
	C40.537228,338.189606 41.406303,336.548065 41.700985,334.809143 
	C42.128578,332.285980 42.141357,329.692566 42.331059,327.129089 
	C42.838139,327.156525 43.345219,327.183929 43.852299,327.211334 
	C44.388470,331.477203 44.924641,335.743103 45.460808,340.008972 
	C46.157589,340.003418 46.854370,339.997833 47.551151,339.992249 
	C48.062111,337.676697 48.619518,335.370117 49.069702,333.042816 
	C49.446915,331.092712 49.698936,329.118439 50.006393,327.154846 
	C50.718548,327.407349 51.430706,327.659882 52.149536,328.797913 
M164.771652,334.255737 
	C168.725266,329.655151 170.531586,324.545502 167.886032,318.707886 
	C166.178452,314.939911 162.940109,313.479614 158.897781,314.115997 
	C155.072327,314.718292 152.520370,316.564087 152.557541,320.947876 
	C152.581345,323.752319 151.892654,326.589172 152.133484,329.358459 
	C152.408966,332.526215 153.360657,335.635193 154.018539,338.769714 
	C157.306808,337.547974 160.595856,336.328369 163.880722,335.097565 
	C164.025909,335.043182 164.133041,334.887146 164.771652,334.255737 
M74.116310,320.340759 
	C69.636459,324.682678 68.675896,332.020630 72.397682,336.546448 
	C73.443893,337.818634 75.645584,338.498810 77.410667,338.726501 
	C79.392570,338.982086 81.480263,338.417542 84.690117,338.090942 
	C84.690117,330.452667 84.738274,322.265808 84.601959,314.082031 
	C84.590614,313.401245 83.169022,312.090088 82.690460,312.210968 
	C81.774025,312.442535 80.579994,313.371552 80.364433,314.228363 
	C79.819672,316.393616 79.753578,318.679291 79.494736,320.925201 
	C77.705330,320.600372 76.283142,320.342194 74.116310,320.340759 
M100.592812,339.949493 
	C104.696053,335.825348 103.468002,323.743042 98.653595,320.949677 
	C95.373589,319.046600 92.478943,320.058075 90.105293,322.507111 
	C89.387024,323.248230 89.553909,324.847260 89.315338,326.053345 
	C90.353348,326.060089 91.403320,326.169128 92.426552,326.049438 
	C93.950851,325.871246 95.456291,325.531616 96.969749,325.260620 
	C97.082321,325.723450 97.194901,326.186279 97.307472,326.649109 
	C95.581062,327.409973 93.785172,328.046082 92.144211,328.960327 
	C89.556763,330.401917 87.168785,332.248383 88.728111,335.665314 
	C90.067818,338.600952 92.340546,339.657501 95.720291,338.500000 
	C96.809891,338.126801 98.431526,339.307037 100.592812,339.949493 
M206.176163,333.303040 
	C207.699158,332.118103 209.662170,331.212067 210.634460,329.678070 
	C211.866470,327.734344 213.068665,325.183594 212.806274,323.078796 
	C212.618027,321.568878 210.073547,319.381165 208.459610,319.271545 
	C206.533432,319.140656 203.971481,320.436371 202.580597,321.941650 
	C199.270966,325.523529 198.892822,332.369049 202.074295,335.735352 
	C203.678223,337.432434 206.895508,338.639526 209.191177,338.378510 
	C211.885590,338.072205 214.785614,336.221619 213.805878,331.954529 
	C211.326035,332.599182 209.047028,333.191650 206.176163,333.303040 
M22.957054,338.724823 
	C27.516060,340.730377 30.747454,340.016510 31.972775,335.573395 
	C32.964458,331.977417 32.776287,327.812836 32.062862,324.102112 
	C31.750212,322.475922 28.885048,320.381744 27.071491,320.271790 
	C25.247431,320.161133 22.534397,321.797302 21.533194,323.462830 
	C18.587090,328.363861 18.581541,333.503296 22.957054,338.724823 
M256.351135,325.972931 
	C256.220520,326.621216 256.052887,327.264587 255.965195,327.918610 
	C255.387009,332.231506 255.717789,336.469666 259.757965,338.913177 
	C261.206512,339.789185 264.142639,339.720825 265.583710,338.802612 
	C269.515930,336.297211 270.324890,331.842255 269.270782,327.798431 
	C268.534637,324.974426 266.430176,321.469818 263.990967,320.373169 
	C260.441742,318.777496 258.069366,322.010742 256.351135,325.972931 
M182.793015,330.739807 
	C183.971405,333.288086 184.929184,335.980103 186.445801,338.308014 
	C186.989243,339.142151 189.172882,339.751556 190.106003,339.336090 
	C193.441238,337.851227 197.633133,325.133820 196.347717,321.114960 
	C195.893646,321.185822 195.172974,321.090546 194.993835,321.358032 
	C192.929916,324.439636 190.948120,327.576233 188.683228,331.105286 
	C188.275162,329.975983 188.109940,329.024872 187.628479,328.277435 
	C186.078690,325.871490 184.412247,323.540741 182.790771,321.180969 
	C182.712357,324.116943 182.633942,327.052887 182.793015,330.739807 
M218.255905,337.969116 
	C219.659119,340.625336 221.210068,340.773621 222.149521,337.827271 
	C222.789688,335.819580 222.714096,333.579498 222.925095,331.440063 
	C223.229599,328.352814 223.810455,325.766022 228.038528,326.730896 
	C228.896912,326.926758 230.801178,325.848694 230.930771,325.126068 
	C231.109589,324.129059 230.221909,322.082458 229.507736,321.943726 
	C227.318604,321.518463 224.994308,321.789001 221.781387,321.789001 
	C221.829422,321.840698 220.902084,320.842773 219.935638,319.802765 
	C216.801285,323.551300 216.613327,325.545319 218.255905,337.969116 
M233.523956,325.937073 
	C234.924591,329.181671 239.897720,332.792267 232.580704,335.143677 
	C233.196106,336.423889 233.811508,337.704071 234.426895,338.984283 
	C236.874557,337.544922 239.942383,336.579956 241.540558,334.490723 
	C242.521744,333.208069 242.021454,329.579163 240.826263,328.111206 
	C238.704239,325.504852 238.545303,324.084442 241.368011,322.186829 
	C242.153488,321.658783 242.277023,320.146057 242.704239,319.085083 
	C241.503296,318.757904 240.174103,317.927826 239.124832,318.195465 
	C235.613495,319.090973 233.338715,321.293793 233.523956,325.937073 
M65.740562,320.056946 
	C64.698746,320.111328 63.157963,319.744415 62.697567,320.289703 
	C60.066898,323.405518 60.824158,335.491577 64.112450,339.431519 
	C67.916527,333.316010 66.957405,327.059296 65.740562,320.056946 
M177.940277,329.400574 
	C177.535049,325.896851 177.129807,322.393127 176.584396,317.677521 
	C171.151154,323.615875 171.052704,334.920807 176.106033,339.800507 
	C176.809799,336.156036 177.374359,333.232452 177.940277,329.400574 
M246.841690,325.805756 
	C247.074615,330.232361 245.720688,334.943359 248.848404,339.103088 
	C253.070801,335.031616 253.429871,323.416199 249.003525,318.217621 
	C248.173065,320.849609 247.533310,322.877197 246.841690,325.805756 
z"/>
<path fill="#0F6A84" opacity="1.000000" stroke="none" 
	d="
M1.000000,323.458069 
	C2.618756,320.861755 4.073914,318.571564 5.889874,316.616486 
	C9.830857,312.373627 14.852792,313.253326 16.079327,318.611694 
	C16.575888,320.780975 15.288838,323.358551 14.813423,325.750336 
	C13.183733,324.454590 11.554043,323.158875 9.736571,321.713837 
	C7.391696,323.456665 5.589747,330.561951 7.601552,333.440186 
	C8.163205,334.243744 9.816776,334.762939 10.867816,334.626984 
	C12.247058,334.448578 13.525659,333.492096 16.228880,333.421722 
	C15.767764,335.167297 15.848246,337.747406 14.726665,338.475250 
	C12.725352,339.774048 9.533574,341.082611 7.689274,340.323273 
	C5.254617,339.320862 3.638614,336.330109 1.335349,334.097046 
	C1.000000,330.638702 1.000000,327.277435 1.000000,323.458069 
z"/>
<path fill="#156B87" opacity="1.000000" stroke="none" 
	d="
M288.000000,330.571533 
	C286.467957,334.050629 284.935913,337.101257 283.403870,340.151917 
	C282.872559,340.053284 282.341248,339.954651 281.809937,339.856049 
	C281.809937,335.057831 281.809937,330.259613 281.809937,325.461426 
	C281.107758,325.363495 280.405609,325.265564 279.703430,325.167633 
	C278.734650,329.835571 277.765900,334.503479 276.797119,339.171387 
	C276.175629,339.182434 275.554108,339.193481 274.932617,339.204498 
	C274.352142,337.680206 273.419189,336.190460 273.265564,334.624268 
	C272.958496,331.493530 272.828888,328.299133 273.100922,325.172394 
	C273.319489,322.660156 272.534515,318.086975 277.783661,321.365662 
	C278.067078,321.542694 278.738312,321.322083 279.113403,321.095337 
	C283.659485,318.346954 285.808167,320.842346 287.655273,324.898071 
	C288.000000,326.714355 288.000000,328.428711 288.000000,330.571533 
z"/>
<path fill="#05687F" opacity="1.000000" stroke="none" 
	d="
M187.594788,184.543152 
	C187.667984,181.580353 188.134201,178.999832 187.658997,176.606201 
	C187.156830,174.076782 186.370468,171.079010 184.627090,169.426331 
	C180.580215,165.589981 179.627151,160.774872 179.348312,155.821854 
	C178.967529,149.057892 179.253250,142.256424 179.253250,135.471024 
	C179.809692,135.455994 180.366135,135.440964 180.922577,135.425919 
	C181.651703,142.592026 182.380814,149.758133 183.109940,156.924240 
	C183.511429,156.956787 183.912918,156.989334 184.314407,157.021881 
	C184.927765,148.808960 185.541122,140.596039 186.154465,132.383102 
	C186.468674,132.376968 186.782883,132.370819 187.097092,132.364670 
	C187.599380,140.531830 188.101669,148.698975 188.603958,156.866119 
	C189.086838,156.880081 189.569717,156.894043 190.052597,156.907990 
	C190.669907,148.750458 191.287201,140.592941 191.904510,132.435410 
	C192.210205,132.443436 192.515900,132.451477 192.821594,132.459518 
	C193.358292,140.644516 193.894974,148.829529 194.431656,157.014526 
	C194.883728,157.004608 195.335785,156.994690 195.787857,156.984772 
	C196.315155,150.401978 196.842453,143.819168 197.418488,136.628098 
	C202.153000,145.655701 199.472366,163.547729 193.195755,170.126389 
	C191.812546,171.576126 190.876312,174.165604 190.953659,176.183472 
	C191.610687,193.321426 192.704956,210.442596 193.363831,227.580505 
	C194.124741,247.372467 194.815887,267.173279 195.068558,286.976196 
	C195.209915,298.054504 187.427292,305.687164 175.973419,305.751923 
	C149.153656,305.903625 122.329041,305.819672 95.511360,305.459991 
	C82.254517,305.282196 75.866409,298.255707 75.838890,284.968872 
	C75.808205,270.152313 75.831856,255.335648 75.831856,241.016953 
	C79.868019,241.281357 83.714470,241.533340 87.991714,241.813538 
	C87.991714,244.658035 87.991714,248.421127 87.991714,252.665436 
	C119.675102,252.665436 151.013763,252.665436 182.830612,252.665436 
	C184.411163,230.120056 185.992462,207.563828 187.594788,184.543152 
M128.380447,289.166962 
	C134.684509,293.976196 142.182892,292.561127 145.000076,286.030579 
	C147.055557,281.265778 145.602844,276.099487 141.416733,273.287140 
	C136.955002,270.289612 131.469986,270.817841 127.824684,274.596130 
	C124.246300,278.305054 124.245171,283.328064 128.380447,289.166962 
z"/>
<path fill="#03677E" opacity="1.000000" stroke="none" 
	d="
M180.203659,71.357353 
	C190.012527,73.990471 194.956573,79.454155 195.289764,89.153793 
	C195.695175,100.956009 195.386108,112.782776 195.386108,125.032394 
	C191.336105,125.032394 187.450562,125.032394 183.057892,125.032394 
	C183.057892,121.425766 183.057892,117.672417 183.057892,113.553848 
	C151.447952,113.553848 120.334595,113.553848 88.997208,113.553848 
	C88.902351,113.728401 88.503578,114.131615 88.477386,114.557739 
	C86.965233,139.155289 85.523521,163.757248 83.951218,188.350861 
	C83.747536,191.536713 84.923843,193.500275 87.333405,195.485886 
	C98.805809,204.939743 99.535957,224.131256 89.000359,234.679642 
	C84.736961,238.948212 80.781036,239.035431 76.353088,234.958481 
	C65.846245,225.284515 66.021683,205.107315 77.027069,196.060638 
	C80.245987,193.414627 81.379097,190.784439 81.109428,186.754684 
	C79.741791,166.318161 78.501945,145.871857 77.404587,125.418930 
	C76.763176,113.464005 76.254761,101.493217 76.092529,89.524055 
	C75.961510,79.857925 83.245941,71.273888 92.334900,71.194565 
	C121.482742,70.940178 150.635086,71.202538 180.203659,71.357353 
M132.516968,84.130623 
	C129.199295,84.131371 125.851089,83.872391 122.578598,84.257248 
	C121.218018,84.417252 120.018990,85.951035 118.746498,86.860107 
	C119.998322,87.581505 121.237686,88.901619 122.503983,88.927971 
	C131.291992,89.110847 140.087799,89.122192 148.875122,88.923218 
	C150.238998,88.892334 151.572159,87.505203 152.919525,86.745255 
	C151.592682,85.874016 150.305099,84.331551 148.931992,84.251221 
	C143.807144,83.951401 138.654221,84.130959 132.516968,84.130623 
z"/>
<path fill="#030302" opacity="1.000000" stroke="none" 
	d="
M172.002792,217.993744 
	C172.002792,222.802979 172.002792,227.113785 172.002792,231.712830 
	C148.056320,231.712830 124.322327,231.712830 100.418655,231.712830 
	C98.169342,204.095657 103.508484,176.018433 96.045837,147.953629 
	C97.557304,148.644363 98.441986,149.048660 99.767609,149.654465 
	C99.900749,147.020187 100.014946,144.760910 100.141800,142.251160 
	C123.943169,142.251160 147.693192,142.251160 172.002792,142.251160 
	C172.002792,167.318359 172.002792,192.406845 172.002792,217.993744 
M116.791718,227.989532 
	C117.505257,227.983063 118.218788,227.976593 119.473717,228.633224 
	C125.990334,228.409714 132.506943,228.186188 139.811691,227.988861 
	C140.864578,227.980667 141.917465,227.972458 143.493881,228.637512 
	C150.213654,228.637512 156.933426,228.637512 164.518509,228.637512 
	C164.299011,224.492783 164.099991,220.734772 163.960861,216.141479 
	C164.291870,210.431946 164.622879,204.722427 165.524734,198.693634 
	C164.837906,197.149109 164.151077,195.604584 163.464249,194.060074 
	C163.872269,194.068695 164.280273,194.077316 164.688293,194.085938 
	C164.688293,190.837738 164.331650,187.539078 164.782181,184.354614 
	C165.298798,180.702927 165.704727,177.339813 162.921143,174.506714 
	C160.226257,176.912643 162.664978,182.108795 157.608871,182.313568 
	C157.608871,182.313568 157.370377,182.373611 157.827301,181.781891 
	C157.207993,180.834030 156.588684,179.886185 155.981400,178.175079 
	C154.063202,177.109253 152.144989,176.043427 149.461792,174.995758 
	C144.478256,174.955536 140.663025,173.168686 138.499649,168.315948 
	C138.033600,167.270584 136.437943,166.448059 135.200180,166.099152 
	C133.684967,165.672043 131.998764,165.851517 130.466400,165.772812 
	C129.759125,160.209442 129.914566,160.368973 133.506851,156.868546 
	C140.675323,149.883377 139.939865,150.130554 135.630737,145.060959 
	C128.675934,150.280792 119.743202,154.146088 123.388504,166.048965 
	C117.788063,165.249847 114.582214,166.674606 114.516045,171.940842 
	C108.854622,171.473389 107.397026,174.539520 108.064644,179.083740 
	C108.461113,181.782364 109.348984,184.408783 110.037659,187.511063 
	C110.037659,187.511063 110.149017,187.942245 110.055382,188.729736 
	C110.005966,189.785614 109.956543,190.841507 109.298508,192.099289 
	C108.521790,194.669098 107.745071,197.238922 106.382965,200.325180 
	C107.047333,207.347336 108.191132,214.364655 106.091942,221.371735 
	C105.868828,222.116486 106.578537,223.140671 107.008034,224.483994 
	C107.008034,224.483994 107.146233,224.936584 107.054543,225.777847 
	C107.912514,229.445099 110.485802,230.071045 116.791718,227.989532 
z"/>
<path fill="#076A80" opacity="1.000000" stroke="none" 
	d="
M25.034969,41.842247 
	C25.459026,32.925602 25.623034,24.462349 26.412668,16.057877 
	C26.965816,10.170475 30.525713,6.505427 36.569252,5.454480 
	C40.480778,4.774282 44.346687,3.325866 48.245327,3.280615 
	C50.346443,3.256228 53.370991,5.007726 54.283741,6.814397 
	C54.928112,8.089843 53.263771,11.514372 51.674633,12.720319 
	C48.823174,14.884206 45.373787,16.457565 41.950649,17.618132 
	C38.125019,18.915157 36.699001,21.186083 37.299633,25.453232 
	C39.814186,24.657064 42.246849,23.257753 44.648777,23.308655 
	C46.912354,23.356627 49.143559,24.932230 51.389000,25.835800 
	C50.340374,27.999107 49.753944,30.656301 48.115635,32.189503 
	C46.411552,33.784248 43.772552,34.627525 41.397823,35.204773 
	C36.936459,36.289242 35.881435,38.825336 37.384762,43.317635 
	C40.915428,42.318554 44.328472,40.818123 47.833576,40.557941 
	C49.996246,40.397408 53.481663,41.583031 54.207760,43.160831 
	C54.938698,44.749130 53.665546,48.685600 52.087139,49.643814 
	C47.322517,52.536304 42.117645,54.878185 36.826576,56.675854 
	C32.269623,58.224094 26.553160,54.032982 25.785725,49.257011 
	C25.417316,46.964294 25.282648,44.634018 25.034969,41.842247 
z"/>
<path fill="#076A80" opacity="1.000000" stroke="none" 
	d="
M150.147507,16.318218 
	C150.543991,13.393645 150.476227,10.744572 151.418228,8.523816 
	C152.295395,6.455896 154.247452,4.843925 155.726303,3.031226 
	C157.239273,4.787916 159.603104,6.336622 160.093613,8.343248 
	C161.223145,12.964121 161.442078,17.807579 162.080902,22.967674 
	C163.695297,21.860138 165.285461,20.595335 167.030899,19.603954 
	C172.579056,16.452690 177.416794,18.021585 180.205215,23.769600 
	C184.047119,31.689177 181.736252,47.145859 175.759735,53.503990 
	C171.281784,58.267891 166.164780,58.183987 160.008942,53.675228 
	C157.794403,54.852608 155.004349,57.192219 154.132965,56.618359 
	C152.397263,55.475323 150.835403,52.767857 150.746475,50.642033 
	C150.274765,39.365948 150.282364,28.069815 150.147507,16.318218 
M168.741013,44.511734 
	C169.805328,40.871719 171.193558,37.277260 171.716202,33.561066 
	C171.854446,32.578129 169.384659,30.299067 168.010132,30.210958 
	C164.232971,29.968843 160.484039,35.055424 160.718384,39.756050 
	C160.949326,44.388084 164.173874,45.173046 168.741013,44.511734 
z"/>
<path fill="#076A80" opacity="1.000000" stroke="none" 
	d="
M130.510300,26.123695 
	C127.662766,26.868139 125.249802,27.940443 122.724220,28.421312 
	C120.681610,28.810226 118.503372,28.486858 116.385300,28.479446 
	C116.574646,26.301397 116.040314,23.668688 117.075035,22.021767 
	C122.355919,13.616380 136.480591,13.955485 141.061859,22.732172 
	C146.110336,32.403915 145.927979,42.979118 144.454788,53.460793 
	C144.221771,55.118584 141.561508,57.907173 140.562042,57.690353 
	C138.209564,57.180035 136.182480,55.169777 133.313965,53.304958 
	C132.513657,53.632114 130.469971,54.627899 128.326797,55.312061 
	C122.991272,57.015320 118.358665,55.104568 115.689705,50.259644 
	C113.074760,45.512779 113.718224,40.904499 118.660187,37.597630 
	C123.103951,34.624126 128.292603,32.763828 134.036240,29.985033 
	C133.114777,28.873110 132.005493,27.534567 130.510300,26.123695 
M134.144455,43.123817 
	C134.055298,41.767757 133.966141,40.411697 133.853561,38.699490 
	C129.841187,39.929211 126.194038,40.504848 125.695000,46.680393 
	C128.909668,45.556225 131.331650,44.709259 134.144455,43.123817 
z"/>
<path fill="#076A80" opacity="1.000000" stroke="none" 
	d="
M189.964005,22.039272 
	C198.169861,12.775764 208.454407,14.446533 212.720627,25.582350 
	C216.064194,34.309826 215.250092,43.024834 210.742828,51.091702 
	C205.556564,60.373798 194.346542,60.490677 189.086868,51.258194 
	C183.621719,41.665020 184.263535,31.862690 189.964005,22.039272 
M204.323059,34.238491 
	C204.022766,32.952950 203.996109,31.504065 203.351410,30.424110 
	C202.583145,29.137156 201.284882,28.166592 200.216217,27.058950 
	C199.188446,28.238035 197.352280,29.367708 197.276657,30.604998 
	C196.990341,35.289097 197.064178,40.027443 197.493698,44.700413 
	C197.601227,45.870308 199.539429,46.871941 200.636246,47.950905 
	C201.659195,46.763622 203.293274,45.707127 203.581055,44.362507 
	C204.229538,41.332348 204.211609,38.159561 204.323059,34.238491 
z"/>
<path fill="#076A80" opacity="1.000000" stroke="none" 
	d="
M111.083115,21.923136 
	C109.615433,22.802544 108.422012,23.412189 107.341164,24.180244 
	C103.716667,26.755825 103.549316,29.768524 106.802406,32.831753 
	C112.565407,38.258404 113.588242,41.760296 110.948463,47.026566 
	C107.790451,53.326694 100.220284,58.046284 94.394043,56.809322 
	C92.633995,56.435650 90.011147,54.540474 89.930328,53.211670 
	C89.821495,51.422321 91.332062,48.685707 92.946060,47.782616 
	C101.358284,43.075642 101.534187,43.168053 95.644371,35.223106 
	C92.433464,30.891802 91.650032,26.411129 94.273186,21.721762 
	C97.189400,16.508503 101.869942,13.836191 107.867325,14.051247 
	C112.843956,14.229700 114.185310,17.347639 111.083115,21.923136 
z"/>
<path fill="#086A81" opacity="1.000000" stroke="none" 
	d="
M217.800659,27.284283 
	C217.828201,26.489361 217.852951,26.157093 217.874786,25.824638 
	C218.103867,22.334690 218.834106,18.456537 222.817337,18.347290 
	C224.883148,18.290628 227.033142,21.303228 229.135361,22.921745 
	C231.102554,21.924267 233.840683,19.827898 236.889053,19.170845 
	C240.631500,18.364193 244.371841,19.706160 245.992874,23.598227 
	C246.651627,25.179853 246.611450,27.866571 245.656128,29.077873 
	C244.697983,30.292742 242.091614,30.984854 240.401291,30.710928 
	C232.985336,29.509130 229.593140,31.917652 229.082153,39.447365 
	C228.834396,43.098068 229.375473,46.921467 228.446503,50.366589 
	C227.782120,52.830547 225.267105,54.795490 223.577805,56.983089 
	C222.019379,54.877808 219.368179,52.901386 219.101944,50.643723 
	C218.208282,43.065502 218.165176,35.386982 217.800659,27.284283 
z"/>
<path fill="#086A81" opacity="1.000000" stroke="none" 
	d="
M59.865013,47.052483 
	C58.090195,35.529793 57.824337,24.450855 60.978333,13.562628 
	C61.955799,10.188229 63.013260,5.469071 67.584724,6.489671 
	C69.243782,6.860064 70.724083,11.818947 70.820061,14.732506 
	C71.191246,26.000298 70.975845,37.287571 70.964851,48.567574 
	C70.963554,49.894150 71.313126,51.468067 70.733498,52.494419 
	C69.609871,54.484024 67.940834,56.165604 66.497803,57.974819 
	C64.876526,56.551205 62.846264,55.383709 61.749172,53.631832 
	C60.655392,51.885250 60.497265,49.552727 59.865013,47.052483 
z"/>
<path fill="#126B84" opacity="1.000000" stroke="none" 
	d="
M117.838791,328.835205 
	C119.236115,327.190155 120.463684,325.851898 121.788834,324.407318 
	C120.537468,320.766357 118.367638,316.511871 123.138741,314.054504 
	C124.853699,313.171234 128.487244,313.913177 130.063416,315.278107 
	C133.863510,318.568909 130.953629,321.793762 128.499390,324.984070 
	C129.585754,326.588501 130.680923,328.205963 131.929031,330.049286 
	C133.748932,329.280243 135.451614,328.560730 137.154297,327.841217 
	C137.517975,328.090240 137.881653,328.339264 138.245331,328.588257 
	C137.446854,330.466675 136.648361,332.345062 135.787537,334.370117 
	C136.293503,335.804474 136.906479,337.542175 137.788345,340.042114 
	C135.873016,339.680359 134.690979,339.815765 134.137299,339.289764 
	C131.868530,337.134521 129.640335,337.944763 126.951439,338.365143 
	C124.306503,338.778687 120.646988,338.338379 118.840118,336.710480 
	C117.370087,335.386017 117.980957,331.751892 117.838791,328.835205 
z"/>
<path fill="#106C88" opacity="1.000000" stroke="none" 
	d="
M52.146198,328.355164 
	C51.430706,327.659882 50.718548,327.407349 50.006393,327.154846 
	C49.698936,329.118439 49.446915,331.092712 49.069702,333.042816 
	C48.619518,335.370117 48.062111,337.676697 47.551151,339.992249 
	C46.854370,339.997833 46.157589,340.003418 45.460808,340.008972 
	C44.924641,335.743103 44.388470,331.477203 43.852299,327.211334 
	C43.345219,327.183929 42.838139,327.156525 42.331059,327.129089 
	C42.141357,329.692566 42.128578,332.285980 41.700985,334.809143 
	C41.406303,336.548065 40.537228,338.189606 39.924862,339.874664 
	C38.945934,338.339294 37.455441,336.910950 37.106750,335.243774 
	C36.570000,332.677429 36.534386,329.917084 36.814350,327.295471 
	C37.067825,324.921936 37.693733,320.818024 38.738369,320.624573 
	C42.135891,319.995270 45.800583,320.808533 50.956448,321.182007 
	C54.388962,318.921478 55.539089,319.382751 56.529812,325.390167 
	C57.313953,330.144928 57.167133,334.782623 54.635738,338.933929 
	C53.923092,338.929169 53.210442,338.924408 52.497795,338.919647 
	C52.381710,335.545715 52.265621,332.171814 52.146198,328.355164 
z"/>
<path fill="#106B85" opacity="1.000000" stroke="none" 
	d="
M164.514771,334.517090 
	C164.133041,334.887146 164.025909,335.043182 163.880722,335.097565 
	C160.595856,336.328369 157.306808,337.547974 154.018539,338.769714 
	C153.360657,335.635193 152.408966,332.526215 152.133484,329.358459 
	C151.892654,326.589172 152.581345,323.752319 152.557541,320.947876 
	C152.520370,316.564087 155.072327,314.718292 158.897781,314.115997 
	C162.940109,313.479614 166.178452,314.939911 167.886032,318.707886 
	C170.531586,324.545502 168.725266,329.655151 164.514771,334.517090 
M163.390167,323.892975 
	C161.986328,322.768188 160.582504,321.643402 158.120636,319.670868 
	C158.120636,324.887665 158.120636,328.318207 158.120636,331.748749 
	C158.663544,331.949402 159.206451,332.150024 159.749359,332.350647 
	C161.029449,329.773254 162.309555,327.195862 163.390167,323.892975 
z"/>
<path fill="#106E89" opacity="1.000000" stroke="none" 
	d="
M74.488632,320.212402 
	C76.283142,320.342194 77.705330,320.600372 79.494736,320.925201 
	C79.753578,318.679291 79.819672,316.393616 80.364433,314.228363 
	C80.579994,313.371552 81.774025,312.442535 82.690460,312.210968 
	C83.169022,312.090088 84.590614,313.401245 84.601959,314.082031 
	C84.738274,322.265808 84.690117,330.452667 84.690117,338.090942 
	C81.480263,338.417542 79.392570,338.982086 77.410667,338.726501 
	C75.645584,338.498810 73.443893,337.818634 72.397682,336.546448 
	C68.675896,332.020630 69.636459,324.682678 74.488632,320.212402 
M74.976120,327.910004 
	C75.171944,329.909302 75.367767,331.908630 75.580605,334.081696 
	C79.665665,333.445557 80.197960,331.247772 79.281616,328.615295 
	C78.643044,326.780853 77.537193,324.772552 74.976120,327.910004 
z"/>
<path fill="#106B85" opacity="1.000000" stroke="none" 
	d="
M100.201294,339.863068 
	C98.431526,339.307037 96.809891,338.126801 95.720291,338.500000 
	C92.340546,339.657501 90.067818,338.600952 88.728111,335.665314 
	C87.168785,332.248383 89.556763,330.401917 92.144211,328.960327 
	C93.785172,328.046082 95.581062,327.409973 97.307472,326.649109 
	C97.194901,326.186279 97.082321,325.723450 96.969749,325.260620 
	C95.456291,325.531616 93.950851,325.871246 92.426552,326.049438 
	C91.403320,326.169128 90.353348,326.060089 89.315338,326.053345 
	C89.553909,324.847260 89.387024,323.248230 90.105293,322.507111 
	C92.478943,320.058075 95.373589,319.046600 98.653595,320.949677 
	C103.468002,323.743042 104.696053,335.825348 100.201294,339.863068 
z"/>
<path fill="#146B84" opacity="1.000000" stroke="none" 
	d="
M206.472092,333.543579 
	C209.047028,333.191650 211.326035,332.599182 213.805878,331.954529 
	C214.785614,336.221619 211.885590,338.072205 209.191177,338.378510 
	C206.895508,338.639526 203.678223,337.432434 202.074295,335.735352 
	C198.892822,332.369049 199.270966,325.523529 202.580597,321.941650 
	C203.971481,320.436371 206.533432,319.140656 208.459610,319.271545 
	C210.073547,319.381165 212.618027,321.568878 212.806274,323.078796 
	C213.068665,325.183594 211.866470,327.734344 210.634460,329.678070 
	C209.662170,331.212067 207.699158,332.118103 206.472092,333.543579 
z"/>
<path fill="#0C6B85" opacity="1.000000" stroke="none" 
	d="
M22.679680,338.467407 
	C18.581541,333.503296 18.587090,328.363861 21.533194,323.462830 
	C22.534397,321.797302 25.247431,320.161133 27.071491,320.271790 
	C28.885048,320.381744 31.750212,322.475922 32.062862,324.102112 
	C32.776287,327.812836 32.964458,331.977417 31.972775,335.573395 
	C30.747454,340.016510 27.516060,340.730377 22.679680,338.467407 
M25.254364,333.688934 
	C26.217319,333.692535 27.921600,333.960175 28.028831,333.659058 
	C29.130997,330.564240 29.713097,327.431458 25.015064,325.132660 
	C25.015064,327.720825 25.015064,330.308960 25.254364,333.688934 
z"/>
<path fill="#0C6B85" opacity="1.000000" stroke="none" 
	d="
M256.492065,325.619293 
	C258.069366,322.010742 260.441742,318.777496 263.990967,320.373169 
	C266.430176,321.469818 268.534637,324.974426 269.270782,327.798431 
	C270.324890,331.842255 269.515930,336.297211 265.583710,338.802612 
	C264.142639,339.720825 261.206512,339.789185 259.757965,338.913177 
	C255.717789,336.469666 255.387009,332.231506 255.965195,327.918610 
	C256.052887,327.264587 256.220520,326.621216 256.492065,325.619293 
M264.682648,332.852264 
	C264.449066,330.230896 264.215515,327.609497 263.981964,324.988129 
	C263.085541,325.040833 262.189117,325.093567 261.292694,325.146271 
	C261.292694,327.885437 261.244843,330.627716 261.424500,333.355042 
	C261.434174,333.501892 263.354248,333.522827 264.682648,332.852264 
z"/>
<path fill="#126B84" opacity="1.000000" stroke="none" 
	d="
M182.674255,330.364319 
	C182.633942,327.052887 182.712357,324.116943 182.790771,321.180969 
	C184.412247,323.540741 186.078690,325.871490 187.628479,328.277435 
	C188.109940,329.024872 188.275162,329.975983 188.683228,331.105286 
	C190.948120,327.576233 192.929916,324.439636 194.993835,321.358032 
	C195.172974,321.090546 195.893646,321.185822 196.347717,321.114960 
	C197.633133,325.133820 193.441238,337.851227 190.106003,339.336090 
	C189.172882,339.751556 186.989243,339.142151 186.445801,338.308014 
	C184.929184,335.980103 183.971405,333.288086 182.674255,330.364319 
z"/>
<path fill="#106C88" opacity="1.000000" stroke="none" 
	d="
M218.145691,337.580994 
	C216.613327,325.545319 216.801285,323.551300 219.935638,319.802765 
	C220.902084,320.842773 221.829422,321.840698 221.781387,321.789001 
	C224.994308,321.789001 227.318604,321.518463 229.507736,321.943726 
	C230.221909,322.082458 231.109589,324.129059 230.930771,325.126068 
	C230.801178,325.848694 228.896912,326.926758 228.038528,326.730896 
	C223.810455,325.766022 223.229599,328.352814 222.925095,331.440063 
	C222.714096,333.579498 222.789688,335.819580 222.149521,337.827271 
	C221.210068,340.773621 219.659119,340.625336 218.145691,337.580994 
z"/>
<path fill="#126B84" opacity="1.000000" stroke="none" 
	d="
M233.444366,325.583252 
	C233.338715,321.293793 235.613495,319.090973 239.124832,318.195465 
	C240.174103,317.927826 241.503296,318.757904 242.704239,319.085083 
	C242.277023,320.146057 242.153488,321.658783 241.368011,322.186829 
	C238.545303,324.084442 238.704239,325.504852 240.826263,328.111206 
	C242.021454,329.579163 242.521744,333.208069 241.540558,334.490723 
	C239.942383,336.579956 236.874557,337.544922 234.426910,338.984283 
	C233.811508,337.704071 233.196106,336.423889 232.580688,335.143677 
	C239.897720,332.792267 234.924591,329.181671 233.444366,325.583252 
z"/>
<path fill="#20718B" opacity="1.000000" stroke="none" 
	d="
M65.889679,320.432434 
	C66.957405,327.059296 67.916527,333.316010 64.112450,339.431519 
	C60.824158,335.491577 60.066898,323.405518 62.697567,320.289703 
	C63.157963,319.744415 64.698746,320.111328 65.889679,320.432434 
z"/>
<path fill="#17718C" opacity="1.000000" stroke="none" 
	d="
M177.939606,329.854736 
	C177.374359,333.232452 176.809799,336.156036 176.106033,339.800507 
	C171.052704,334.920807 171.151154,323.615875 176.584396,317.677521 
	C177.129807,322.393127 177.535049,325.896851 177.939606,329.854736 
z"/>
<path fill="#0C6B85" opacity="1.000000" stroke="none" 
	d="
M246.867615,325.355286 
	C247.533310,322.877197 248.173065,320.849609 249.003525,318.217621 
	C253.429871,323.416199 253.070801,335.031616 248.848404,339.103088 
	C245.720688,334.943359 247.074615,330.232361 246.867615,325.355286 
z"/>
<path fill="#F8FBFC" opacity="1.000000" stroke="none" 
	d="
M128.100983,288.905212 
	C124.245171,283.328064 124.246300,278.305054 127.824684,274.596130 
	C131.469986,270.817841 136.955002,270.289612 141.416733,273.287140 
	C145.602844,276.099487 147.055557,281.265778 145.000076,286.030579 
	C142.182892,292.561127 134.684509,293.976196 128.100983,288.905212 
z"/>
<path fill="#F0F6F8" opacity="1.000000" stroke="none" 
	d="
M133.014404,84.130646 
	C138.654221,84.130959 143.807144,83.951401 148.931992,84.251221 
	C150.305099,84.331551 151.592682,85.874016 152.919525,86.745255 
	C151.572159,87.505203 150.238998,88.892334 148.875122,88.923218 
	C140.087799,89.122192 131.291992,89.110847 122.503983,88.927971 
	C121.237686,88.901619 119.998322,87.581505 118.746498,86.860107 
	C120.018990,85.951035 121.218018,84.417252 122.578598,84.257248 
	C125.851089,83.872391 129.199295,84.131371 133.014404,84.130646 
z"/>
<path fill="#474A51" opacity="1.000000" stroke="none" 
	d="
M155.969391,178.938324 
	C156.588684,179.886185 157.207993,180.834030 157.270935,182.054077 
	C156.148819,183.941254 155.074234,185.569611 155.116257,187.168640 
	C155.226089,191.348343 155.824188,195.515244 156.253677,199.956650 
	C157.201691,195.167633 158.229736,190.652512 158.901520,186.085007 
	C159.061523,184.997162 158.030807,183.734207 157.547775,182.551788 
	C162.664978,182.108795 160.226257,176.912643 162.921143,174.506714 
	C165.704727,177.339813 165.298798,180.702927 164.782181,184.354614 
	C164.331650,187.539078 164.688293,190.837738 164.688293,194.085938 
	C164.280273,194.077316 163.872269,194.068695 163.464249,194.060074 
	C164.151077,195.604584 164.837906,197.149109 164.861038,198.847946 
	C162.222198,200.447235 159.977615,201.638458 158.328079,203.390060 
	C154.912109,207.017365 148.281860,210.715012 142.844543,205.511200 
	C141.908218,204.746475 141.129623,204.258850 139.213959,203.059097 
	C139.213959,208.235367 137.382874,214.311356 139.609192,216.906250 
	C143.771393,221.757584 141.208160,224.427902 139.023560,227.962662 
	C132.506943,228.186188 125.990334,228.409714 119.317856,227.906754 
	C124.163010,226.786301 129.158798,226.229431 134.167313,226.068695 
	C136.585297,225.991058 138.414658,225.716110 138.878006,222.567230 
	C136.189529,220.954559 133.462646,219.734497 130.274323,218.307999 
	C129.332901,219.575836 128.080292,221.262741 126.664185,222.932037 
	C126.500679,222.914413 126.173660,222.949509 125.966995,222.594696 
	C120.196892,221.878418 114.633461,221.516953 108.699356,221.121033 
	C107.837616,222.069458 107.346558,223.052353 106.855499,224.035233 
	C106.578537,223.140671 105.868828,222.116486 106.091942,221.371735 
	C108.191132,214.364655 107.047333,207.347336 107.147095,200.118179 
	C118.137367,199.911179 128.363525,199.911179 138.849472,199.911179 
	C134.892212,190.751587 135.682083,188.955566 125.117958,189.113022 
	C120.034973,189.188782 114.976631,190.917313 109.907120,191.897385 
	C109.956543,190.841507 110.005966,189.785614 110.510529,188.348358 
	C114.646637,187.592926 118.327606,187.218857 122.442673,186.903992 
	C125.820137,186.958313 129.432999,188.069183 129.774872,183.058380 
	C133.369705,183.309402 136.565582,183.731140 139.761032,183.727997 
	C140.815781,183.726974 141.869461,182.629166 142.923630,182.032837 
	C142.040649,181.358795 141.184158,180.147415 140.270203,180.102371 
	C136.005096,179.892181 131.712891,180.180237 127.454628,179.909088 
	C125.874878,179.808502 124.361458,178.666229 123.090210,177.649643 
	C129.821243,177.300278 136.279846,177.300278 144.043228,177.300278 
	C139.477982,172.785095 112.812225,173.085037 110.305855,176.402023 
	C114.290062,176.937775 118.236122,177.468399 122.061340,178.401154 
	C118.100922,179.427490 114.261353,180.051712 110.952408,180.589645 
	C110.624565,182.857468 110.320244,184.962570 110.015923,187.067673 
	C109.348984,184.408783 108.461113,181.782364 108.064644,179.083740 
	C107.397026,174.539520 108.854622,171.473389 114.516045,171.940842 
	C114.582214,166.674606 117.788063,165.249847 123.388504,166.048965 
	C119.743202,154.146088 128.675934,150.280792 135.630737,145.060959 
	C139.939865,150.130554 140.675323,149.883377 133.506851,156.868546 
	C129.914566,160.368973 129.759125,160.209442 130.466400,165.772812 
	C131.998764,165.851517 133.684967,165.672043 135.200180,166.099152 
	C136.437943,166.448059 138.033600,167.270584 138.499649,168.315948 
	C140.663025,173.168686 144.478256,174.955536 149.790634,175.393646 
	C150.098282,176.870819 150.077103,177.950104 149.700500,178.990387 
	C145.065506,178.329727 145.475647,182.616913 145.523087,184.055008 
	C145.750092,190.939728 146.814667,197.796814 147.590881,204.746918 
	C149.384918,204.746918 150.980484,204.746918 153.297440,204.746918 
	C152.938187,200.588593 152.790665,196.679108 152.191360,192.840134 
	C151.874771,190.812256 150.410965,188.960236 150.112808,186.933548 
	C149.728638,184.322372 149.993546,181.615723 150.305069,179.195908 
	C150.856049,182.088181 151.080856,184.734756 151.305664,187.381317 
	C152.616013,185.486908 152.882965,183.537582 152.979507,181.579834 
	C153.077362,179.595337 153.084244,177.689545 155.969391,178.938324 
M112.213951,209.045914 
	C111.468491,209.204102 110.723022,209.362305 109.977562,209.520493 
	C111.143784,211.023346 112.493507,211.828568 113.894455,211.930603 
	C116.869240,212.147293 119.876976,212.121353 122.859711,211.969391 
	C127.191406,211.748734 131.512955,211.328873 135.982147,210.357361 
	C136.482849,208.739609 137.494354,206.913055 134.177307,207.911880 
	C132.181564,208.512817 129.917404,209.167648 127.967667,208.792084 
	C122.900002,207.815964 117.968834,207.992859 112.213951,209.045914 
M112.896461,202.993408 
	C111.432564,203.111832 109.968666,203.230270 108.504768,203.348694 
	C108.539108,203.868622 108.573448,204.388535 108.607788,204.908463 
	C118.304779,204.908463 128.001770,204.908463 137.698761,204.908463 
	C137.704468,204.270096 137.710159,203.631744 137.715866,202.993378 
	C129.747482,202.993378 121.779106,202.993378 112.896461,202.993408 
M127.498932,169.000000 
	C124.369431,169.000000 121.239929,169.000000 117.155075,169.000000 
	C120.894440,173.194580 135.372299,172.793655 136.997925,169.000000 
	C133.979828,169.000000 131.222153,169.000000 127.498932,169.000000 
M112.986778,214.003204 
	C111.710335,214.651245 110.433891,215.299286 109.157448,215.947342 
	C109.333656,216.451996 109.509865,216.956650 109.686073,217.461304 
	C113.889511,217.461304 118.092941,217.461304 122.397781,217.461304 
	C121.426033,211.420349 116.726418,215.001465 112.986778,214.003204 
M140.312195,187.092667 
	C139.572800,187.663025 138.107468,188.448868 138.203186,188.771347 
	C139.585236,193.427399 141.177002,198.021210 142.718491,202.629944 
	C143.362717,202.434006 144.006927,202.238068 144.651138,202.042145 
	C143.434601,197.207794 142.218063,192.373444 140.312195,187.092667 
M130.839554,155.598801 
	C131.157974,154.863480 131.476410,154.128159 131.940002,153.057587 
	C126.958664,154.140839 124.217178,156.378937 125.013130,161.326782 
	C125.271309,162.931717 125.662567,164.515259 126.237305,167.287018 
	C128.002914,162.404816 129.138138,159.265701 130.839554,155.598801 
z"/>
<path fill="#F1AC16" opacity="1.000000" stroke="none" 
	d="
M109.602814,191.998337 
	C114.976631,190.917313 120.034973,189.188782 125.117958,189.113022 
	C135.682083,188.955566 134.892212,190.751587 138.849472,199.911179 
	C128.363525,199.911179 118.137367,199.911179 107.439781,199.859955 
	C107.745071,197.238922 108.521790,194.669098 109.602814,191.998337 
z"/>
<path fill="#83D1F3" opacity="1.000000" stroke="none" 
	d="
M143.002274,205.788315 
	C148.281860,210.715012 154.912109,207.017365 158.328079,203.390060 
	C159.977615,201.638458 162.222198,200.447235 164.575623,199.007568 
	C164.622879,204.722427 164.291870,210.431946 163.615448,216.735443 
	C162.793045,219.211365 162.316071,221.093307 161.428558,222.983612 
	C158.317581,222.646362 155.617157,222.300735 152.948730,221.517822 
	C153.025436,212.295303 152.173889,211.435364 145.900543,213.744507 
	C144.836685,210.869690 143.919479,208.328995 143.002274,205.788315 
z"/>
<path fill="#57B7EB" opacity="1.000000" stroke="none" 
	d="
M142.844543,205.511200 
	C143.919479,208.328995 144.836685,210.869690 145.865814,214.123734 
	C146.199921,217.244934 145.814606,220.004333 146.914185,221.904404 
	C147.423508,222.784470 150.825912,221.990265 152.916718,221.955109 
	C155.617157,222.300735 158.317581,222.646362 161.485046,223.413147 
	C160.830872,224.555817 159.746109,225.821594 158.581833,225.899536 
	C154.669632,226.161362 150.718735,225.838913 146.805206,226.090652 
	C145.492188,226.175110 144.246704,227.309662 142.970352,227.964233 
	C141.917465,227.972458 140.864578,227.980667 139.417633,227.975769 
	C141.208160,224.427902 143.771393,221.757584 139.609192,216.906250 
	C137.382874,214.311356 139.213959,208.235367 139.213959,203.059097 
	C141.129623,204.258850 141.908218,204.746475 142.844543,205.511200 
z"/>
<path fill="#CC5144" opacity="1.000000" stroke="none" 
	d="
M122.008575,186.844788 
	C118.327606,187.218857 114.646637,187.592926 110.557343,187.954620 
	C110.149017,187.942245 110.037659,187.511063 110.026794,187.289368 
	C110.320244,184.962570 110.624565,182.857468 110.952408,180.589645 
	C114.261353,180.051712 118.100922,179.427490 122.219826,178.400055 
	C122.499161,177.996826 122.817780,177.999008 122.817780,177.999008 
	C124.361458,178.666229 125.874878,179.808502 127.454628,179.909088 
	C131.712891,180.180237 136.005096,179.892181 140.270203,180.102371 
	C141.184158,180.147415 142.040649,181.358795 142.923630,182.032837 
	C141.869461,182.629166 140.815781,183.726974 139.761032,183.727997 
	C136.565582,183.731140 133.369705,183.309402 129.296860,183.038940 
	C125.576004,183.024689 122.732285,183.024689 118.731255,183.024689 
	C120.294167,184.846436 121.151367,185.845612 122.008575,186.844788 
z"/>
<path fill="#E59730" opacity="1.000000" stroke="none" 
	d="
M138.839600,222.959854 
	C138.414658,225.716110 136.585297,225.991058 134.167313,226.068695 
	C129.158798,226.229431 124.163010,226.786301 119.047157,227.575211 
	C118.218788,227.976593 117.505257,227.983063 116.267471,227.631195 
	C112.877556,226.494095 110.011894,225.715347 107.146233,224.936584 
	C107.146233,224.936584 107.008034,224.483994 106.931763,224.259613 
	C107.346558,223.052353 107.837616,222.069458 108.896385,221.453552 
	C115.033951,222.196854 120.603806,222.573181 126.173660,222.949509 
	C126.173660,222.949509 126.500679,222.914413 127.135544,222.948547 
	C131.460129,222.975082 135.149872,222.967468 138.839600,222.959854 
z"/>
<path fill="#474A51" opacity="1.000000" stroke="none" 
	d="
M143.232117,228.300873 
	C144.246704,227.309662 145.492188,226.175110 146.805206,226.090652 
	C150.718735,225.838913 154.669632,226.161362 158.581833,225.899536 
	C159.746109,225.821594 160.830872,224.555817 161.895569,223.404785 
	C162.316071,221.093307 162.793045,219.211365 163.585495,217.153076 
	C164.099991,220.734772 164.299011,224.492783 164.518509,228.637512 
	C156.933426,228.637512 150.213654,228.637512 143.232117,228.300873 
z"/>
<path fill="#E59730" opacity="1.000000" stroke="none" 
	d="
M155.975403,178.556702 
	C153.084244,177.689545 153.077362,179.595337 152.979507,181.579834 
	C152.882965,183.537582 152.616013,185.486908 151.305664,187.381317 
	C151.080856,184.734756 150.856049,182.088181 150.333130,179.207123 
	C150.035034,178.972641 150.055893,179.029388 150.055908,179.029388 
	C150.077103,177.950104 150.098282,176.870819 150.173126,175.384567 
	C152.144989,176.043427 154.063202,177.109253 155.975403,178.556702 
z"/>
<path fill="#474A51" opacity="1.000000" stroke="none" 
	d="
M107.100388,225.357208 
	C110.011894,225.715347 112.877556,226.494095 115.909866,227.622635 
	C110.485802,230.071045 107.912514,229.445099 107.100388,225.357208 
z"/>
<path fill="#F5F9FA" opacity="1.000000" stroke="none" 
	d="
M168.381134,44.684582 
	C164.173874,45.173046 160.949326,44.388084 160.718384,39.756050 
	C160.484039,35.055424 164.232971,29.968843 168.010132,30.210958 
	C169.384659,30.299067 171.854446,32.578129 171.716202,33.561066 
	C171.193558,37.277260 169.805328,40.871719 168.381134,44.684582 
z"/>
<path fill="#F0F6F8" opacity="1.000000" stroke="none" 
	d="
M133.949051,43.493053 
	C131.331650,44.709259 128.909668,45.556225 125.695000,46.680393 
	C126.194038,40.504848 129.841187,39.929211 133.853561,38.699490 
	C133.966141,40.411697 134.055298,41.767757 133.949051,43.493053 
z"/>
<path fill="#F0F6F8" opacity="1.000000" stroke="none" 
	d="
M204.393951,34.641651 
	C204.211609,38.159561 204.229538,41.332348 203.581055,44.362507 
	C203.293274,45.707127 201.659195,46.763622 200.636246,47.950905 
	C199.539429,46.871941 197.601227,45.870308 197.493698,44.700413 
	C197.064178,40.027443 196.990341,35.289097 197.276657,30.604998 
	C197.352280,29.367708 199.188446,28.238035 200.216217,27.058952 
	C201.284882,28.166592 202.583145,29.137156 203.351410,30.424110 
	C203.996109,31.504065 204.022766,32.952950 204.393951,34.641651 
z"/>
<path fill="#F5F0EA" opacity="1.000000" stroke="none" 
	d="
M163.489914,324.255737 
	C162.309555,327.195862 161.029449,329.773254 159.749359,332.350647 
	C159.206451,332.150024 158.663544,331.949402 158.120636,331.748749 
	C158.120636,328.318207 158.120636,324.887665 158.120636,319.670868 
	C160.582504,321.643402 161.986328,322.768188 163.489914,324.255737 
z"/>
<path fill="#F5F0EA" opacity="1.000000" stroke="none" 
	d="
M75.061516,327.520752 
	C77.537193,324.772552 78.643044,326.780853 79.281616,328.615295 
	C80.197960,331.247772 79.665665,333.445557 75.580605,334.081696 
	C75.367767,331.908630 75.171944,329.909302 75.061516,327.520752 
z"/>
<path fill="#ECEAE3" opacity="1.000000" stroke="none" 
	d="
M25.134714,333.293030 
	C25.015064,330.308960 25.015064,327.720825 25.015064,325.132660 
	C29.713097,327.431458 29.130997,330.564240 28.028831,333.659058 
	C27.921600,333.960175 26.217319,333.692535 25.134714,333.293030 
z"/>
<path fill="#ECEAE3" opacity="1.000000" stroke="none" 
	d="
M264.533813,333.227295 
	C263.354248,333.522827 261.434174,333.501892 261.424500,333.355042 
	C261.244843,330.627716 261.292694,327.885437 261.292694,325.146271 
	C262.189117,325.093567 263.085541,325.040833 263.981964,324.988129 
	C264.215515,327.609497 264.449066,330.230896 264.533813,333.227295 
z"/>
<path fill="#F6B30E" opacity="1.000000" stroke="none" 
	d="
M150.006958,178.961426 
	C149.993546,181.615723 149.728638,184.322372 150.112808,186.933548 
	C150.410965,188.960236 151.874771,190.812256 152.191360,192.840134 
	C152.790665,196.679108 152.938187,200.588593 153.297440,204.746918 
	C150.980484,204.746918 149.384918,204.746918 147.590881,204.746918 
	C146.814667,197.796814 145.750092,190.939728 145.523087,184.055008 
	C145.475647,182.616913 145.065506,178.329727 149.700485,178.990387 
	C150.055893,179.029388 150.035034,178.972641 150.006958,178.961426 
z"/>
<path fill="#64BFEE" opacity="1.000000" stroke="none" 
	d="
M123.090210,177.649643 
	C122.817780,177.999008 122.499161,177.996826 122.340675,177.997925 
	C118.236122,177.468399 114.290062,176.937775 110.305855,176.402023 
	C112.812225,173.085037 139.477982,172.785095 144.043228,177.300278 
	C136.279846,177.300278 129.821243,177.300278 123.090210,177.649643 
z"/>
<path fill="#C1EF35" opacity="1.000000" stroke="none" 
	d="
M113.353592,202.993393 
	C121.779106,202.993378 129.747482,202.993378 137.715866,202.993378 
	C137.710159,203.631744 137.704468,204.270096 137.698761,204.908463 
	C128.001770,204.908463 118.304779,204.908463 108.607788,204.908463 
	C108.573448,204.388535 108.539108,203.868622 108.504768,203.348694 
	C109.968666,203.230270 111.432564,203.111832 113.353592,202.993393 
z"/>
<path fill="#F7998A" opacity="1.000000" stroke="none" 
	d="
M113.008209,209.161713 
	C117.968834,207.992859 122.900002,207.815964 127.967667,208.792084 
	C129.917404,209.167648 132.181564,208.512817 134.177307,207.911880 
	C137.494354,206.913055 136.482849,208.739609 135.454239,210.679840 
	C128.934509,211.003937 122.939209,211.114304 116.953529,210.923187 
	C115.621033,210.880630 114.322426,209.776886 113.008209,209.161713 
z"/>
<path fill="#57B7EB" opacity="1.000000" stroke="none" 
	d="
M127.981697,169.000000 
	C131.222153,169.000000 133.979828,169.000000 136.997925,169.000000 
	C135.372299,172.793655 120.894440,173.194580 117.155075,169.000000 
	C121.239929,169.000000 124.369431,169.000000 127.981697,169.000000 
z"/>
<path fill="#CC5144" opacity="1.000000" stroke="none" 
	d="
M113.422821,214.002258 
	C116.726418,215.001465 121.426033,211.420349 122.397781,217.461304 
	C118.092941,217.461304 113.889511,217.461304 109.686073,217.461304 
	C109.509865,216.956650 109.333656,216.451996 109.157448,215.947342 
	C110.433891,215.299286 111.710335,214.651245 113.422821,214.002258 
z"/>
<path fill="#F9CD07" opacity="1.000000" stroke="none" 
	d="
M140.656860,187.315887 
	C142.218063,192.373444 143.434601,197.207794 144.651138,202.042145 
	C144.006927,202.238068 143.362717,202.434006 142.718491,202.629944 
	C141.177002,198.021210 139.585236,193.427399 138.203186,188.771347 
	C138.107468,188.448868 139.572800,187.663025 140.656860,187.315887 
z"/>
<path fill="#FCBC04" opacity="1.000000" stroke="none" 
	d="
M130.556458,155.862701 
	C129.138138,159.265701 128.002914,162.404816 126.237305,167.287018 
	C125.662567,164.515259 125.271309,162.931717 125.013130,161.326782 
	C124.217178,156.378937 126.958664,154.140839 131.940002,153.057587 
	C131.476410,154.128159 131.157974,154.863480 130.556458,155.862701 
z"/>
<path fill="#F9CD07" opacity="1.000000" stroke="none" 
	d="
M157.578323,182.432678 
	C158.030807,183.734207 159.061523,184.997162 158.901520,186.085007 
	C158.229736,190.652512 157.201691,195.167633 156.253677,199.956650 
	C155.824188,195.515244 155.226089,191.348343 155.116257,187.168640 
	C155.074234,185.569611 156.148819,183.941254 157.042480,182.349945 
	C157.370377,182.373611 157.608871,182.313568 157.578323,182.432678 
z"/>
<path fill="#F8664F" opacity="1.000000" stroke="none" 
	d="
M122.442665,186.903992 
	C121.151367,185.845612 120.294167,184.846436 118.731255,183.024689 
	C122.732285,183.024689 125.576004,183.024689 128.897736,183.044128 
	C129.432999,188.069183 125.820137,186.958313 122.442665,186.903992 
z"/>
<path fill="#FCBC04" opacity="1.000000" stroke="none" 
	d="
M138.878006,222.567230 
	C135.149872,222.967468 131.460129,222.975082 127.299042,222.966156 
	C128.080292,221.262741 129.332901,219.575836 130.274323,218.307999 
	C133.462646,219.734497 136.189529,220.954559 138.878006,222.567230 
z"/>
<path fill="#FCBC04" opacity="1.000000" stroke="none" 
	d="
M125.966995,222.594696 
	C120.603806,222.573181 115.033951,222.196854 109.267059,221.488007 
	C114.633461,221.516953 120.196892,221.878418 125.966995,222.594696 
z"/>
<path fill="#F8664F" opacity="1.000000" stroke="none" 
	d="
M112.611084,209.103821 
	C114.322426,209.776886 115.621033,210.880630 116.953529,210.923187 
	C122.939209,211.114304 128.934509,211.003937 135.382568,210.998138 
	C131.512955,211.328873 127.191406,211.748734 122.859711,211.969391 
	C119.876976,212.121353 116.869240,212.147293 113.894455,211.930603 
	C112.493507,211.828568 111.143784,211.023346 109.977562,209.520493 
	C110.723022,209.362305 111.468491,209.204102 112.611084,209.103821 
z"/>
<path fill="#474A51" opacity="1.000000" stroke="none" 
	d="
M152.948730,221.517822 
	C150.825912,221.990265 147.423508,222.784470 146.914185,221.904404 
	C145.814606,220.004333 146.199921,217.244934 146.012451,214.457870 
	C152.173889,211.435364 153.025436,212.295303 152.948730,221.517822 
z"/>
</svg>