<?xml version="1.0" standalone="no"?>
<!DOCTYPE svg PUBLIC "-//W3C//DTD SVG 20010904//EN"
 "http://www.w3.org/TR/2001/REC-SVG-20010904/DTD/svg10.dtd">
<svg version="1.0" xmlns="http://www.w3.org/2000/svg"
 width="287.000000pt" height="341.000000pt" viewBox="0 0 287.000000 341.000000"
 preserveAspectRatio="xMidYMid meet">

<g transform="translate(0.000000,341.000000) scale(0.100000,-0.100000)"
fill="#000000" stroke="none">
<path d="M405 3375 c-89 -19 -112 -31 -129 -62 -32 -63 -44 -223 -28 -362 8
-63 40 -95 96 -95 45 0 183 68 191 95 8 23 -19 69 -39 69 -8 0 -42 -9 -75 -19
l-61 -19 -6 24 c-8 33 8 50 66 69 56 19 83 45 78 76 -5 37 -31 45 -87 27 l-51
-16 0 29 c0 26 8 33 80 69 85 43 107 67 91 99 -19 34 -36 36 -126 16z"/>
<path d="M1527 3375 c-26 -26 -32 -79 -32 -285 0 -199 7 -240 40 -240 8 0 20
9 28 20 14 20 14 20 52 0 57 -29 82 -25 125 18 45 44 63 100 64 192 1 79 -17
126 -56 146 -38 20 -68 12 -113 -27 l-35 -31 0 73 c0 51 -6 85 -18 108 -20 41
-34 48 -55 26z m181 -308 c5 -84 -43 -123 -98 -79 -46 37 7 137 69 130 23 -3
26 -8 29 -51z"/>
<path d="M633 3340 c-30 -31 -44 -85 -50 -195 -11 -199 37 -349 95 -292 13 14
16 49 16 238 1 215 -4 257 -31 266 -6 2 -20 -5 -30 -17z"/>
<path d="M1000 3262 c-42 -21 -80 -75 -80 -114 0 -33 12 -60 46 -101 38 -46
32 -73 -23 -99 -38 -18 -49 -29 -51 -50 -7 -59 89 -62 154 -6 76 67 84 129 24
188 -22 22 -40 46 -40 55 0 16 21 38 64 68 30 21 33 39 10 61 -20 21 -61 20
-104 -2z"/>
<path d="M1230 3249 c-39 -16 -80 -60 -80 -85 0 -36 28 -45 72 -23 61 31 108
21 108 -23 0 -12 -8 -18 -22 -18 -33 -1 -108 -37 -140 -67 -42 -40 -39 -94 6
-139 39 -39 63 -42 122 -15 l42 19 10 -23 c14 -31 50 -42 70 -21 36 36 23 266
-18 334 -11 17 -30 38 -44 47 -32 21 -93 28 -126 14z m108 -245 c3 -22 -31
-44 -68 -44 -31 0 -33 18 -5 46 30 30 69 29 73 -2z"/>
<path d="M1942 3243 c-49 -24 -84 -90 -90 -171 -6 -86 11 -144 53 -190 29 -32
40 -37 77 -37 25 0 55 8 71 18 86 56 104 271 30 351 -43 47 -87 56 -141 29z
m85 -130 c18 -45 12 -138 -11 -161 -36 -37 -70 21 -64 110 7 91 46 118 75 51z"/>
<path d="M2196 3225 c-25 -26 -29 -59 -23 -189 6 -128 16 -173 43 -183 34 -13
53 27 62 130 12 127 32 151 110 133 41 -10 62 6 62 44 0 35 -41 70 -81 70 -18
0 -41 -11 -61 -29 l-33 -30 -15 32 c-17 37 -41 45 -64 22z"/>
<path d="M859 2690 c-47 -25 -86 -71 -98 -118 -7 -24 -7 -88 -1 -177 4 -77 7
-142 4 -146 -2 -3 3 -96 11 -205 8 -110 18 -277 21 -372 l7 -173 -46 -47 c-62
-64 -81 -115 -75 -202 6 -82 40 -155 88 -187 41 -28 49 -28 90 0 49 32 84 106
88 188 5 87 -15 143 -74 200 l-44 43 0 86 c1 74 11 254 36 613 l7 97 474 0
473 0 0 -60 0 -60 60 0 60 0 0 198 c0 219 -9 259 -66 299 -56 40 -93 43 -544
43 -409 -1 -437 -2 -471 -20z m659 -137 l3 -23 -170 0 c-93 0 -172 4 -175 9
-4 5 -3 16 0 25 6 14 27 16 173 14 164 -3 166 -3 169 -25z"/>
<path d="M1295 2178 c-34 -13 -75 -52 -75 -74 0 -7 -4 -14 -10 -14 -5 0 -10
-20 -10 -44 0 -34 6 -52 25 -72 13 -14 30 -39 37 -55 14 -31 28 -38 28 -14 0
8 -6 15 -12 15 -9 0 -8 4 2 11 13 9 13 10 0 6 -11 -3 -18 9 -26 42 -6 25 -16
45 -22 44 -7 -2 -12 6 -12 17 0 20 10 37 38 63 68 64 85 71 144 56 43 -11 48
-16 48 -41 0 -15 -10 -37 -22 -49 -23 -21 -23 -21 -1 -10 12 6 23 16 25 22 3
8 9 6 20 -4 11 -12 16 -33 15 -71 -2 -39 1 -52 11 -49 18 7 15 -57 -4 -82 -15
-19 -15 -19 -10 10 l6 30 -11 -27 c-6 -16 -14 -28 -19 -28 -4 0 -11 -24 -14
-52 -4 -29 -10 -55 -14 -58 -4 -3 -16 -20 -26 -39 -18 -32 -18 -34 -1 -28 15
6 17 3 13 -23 -5 -34 6 -47 26 -31 11 9 15 -2 20 -60 4 -39 6 -72 4 -74 -2 -1
-20 0 -41 3 -32 4 -38 8 -34 23 3 11 1 22 -4 25 -5 3 -9 11 -8 17 5 38 -2 57
-21 57 -25 0 -27 -27 -2 -32 15 -3 14 -5 -3 -9 -16 -5 -21 -1 -22 14 -1 11 -7
25 -14 31 -8 7 -10 7 -6 0 16 -28 16 -68 -1 -81 -15 -13 -15 -14 -1 -10 14 5
15 2 5 -19 -11 -25 -24 -28 -63 -18 -20 6 -23 13 -23 62 0 65 21 98 51 82 13
-8 29 -4 61 12 42 22 42 23 16 28 -37 7 -68 50 -68 95 0 25 -4 35 -12 33 -8
-3 -15 -30 -18 -70 -3 -37 -7 -68 -10 -70 -23 -15 -81 -39 -107 -44 -25 -5
-33 -13 -38 -34 -3 -16 -12 -31 -20 -34 -17 -6 -22 -38 -31 -178 -3 -60 -10
-108 -16 -108 -5 0 -22 -13 -38 -28 -24 -24 -30 -40 -35 -98 -6 -62 -5 -72 15
-97 12 -15 31 -27 43 -27 29 0 94 23 109 38 16 16 27 15 63 -5 20 -11 63 -18
133 -21 88 -4 113 -1 169 18 l65 22 48 -26 c75 -41 130 -32 130 21 0 13 5 23
10 23 6 0 10 14 10 30 0 17 -4 30 -9 30 -6 0 -11 17 -13 37 -4 46 -28 58 -28
14 0 -31 -13 -63 -37 -89 -7 -7 -13 -20 -13 -28 0 -18 -48 -30 -63 -15 -9 9
-8 14 3 21 36 22 50 35 50 47 0 17 -15 16 -34 -2 -8 -8 -19 -15 -24 -15 -6 0
-12 -5 -14 -10 -2 -6 -29 -14 -61 -17 -31 -3 -57 -10 -57 -14 0 -5 -45 -9
-100 -9 -55 0 -100 4 -100 9 0 5 -25 11 -55 13 -30 3 -58 8 -62 12 -8 8 41 53
68 61 11 4 27 -2 41 -15 l23 -22 -40 7 c-30 5 -36 4 -25 -4 8 -6 30 -11 48
-11 17 0 32 -4 32 -10 0 -6 34 -10 81 -10 64 0 80 3 76 13 -12 33 36 53 120
53 35 -1 63 3 63 7 0 5 5 5 10 2 6 -3 10 -1 10 5 0 7 -22 10 -62 8 -52 -3 -63
0 -66 14 -3 13 8 17 60 22 83 7 88 8 81 19 -3 5 3 7 13 5 15 -3 18 -12 17 -48
l-1 -45 8 45 c8 46 -1 70 -25 70 -8 0 -16 38 -24 121 -13 128 -18 149 -32 149
-5 0 -9 6 -9 13 0 37 -26 67 -62 73 -21 4 -43 13 -49 20 -6 8 -17 14 -24 14
-18 0 -25 23 -25 80 0 64 14 100 39 100 20 0 24 8 36 67 12 59 -25 213 -52
213 -6 0 -14 13 -18 29 -4 18 -14 31 -28 35 -33 9 -98 6 -132 -6z m-95 -579
c0 -11 5 -17 10 -14 6 3 10 -1 10 -9 0 -9 -4 -16 -10 -16 -6 0 -10 -27 -10
-61 0 -41 -3 -58 -11 -53 -6 3 -16 0 -21 -7 -7 -11 -11 -11 -15 -1 -2 6 -8 12
-13 12 -12 0 11 -84 26 -93 8 -5 11 -19 7 -42 -4 -23 -2 -35 6 -35 21 0 11
-27 -14 -38 -32 -15 -48 -15 -80 0 -19 9 -25 19 -25 45 0 27 4 33 22 33 l21 0
-21 18 c-17 15 -20 24 -13 48 5 18 14 28 24 28 9 -1 18 4 21 11 3 8 -2 11 -15
8 -15 -4 -19 0 -19 21 0 16 6 26 14 26 9 0 14 9 14 23 -4 61 1 74 32 81 18 3
30 12 30 21 0 8 7 15 15 15 8 0 15 -9 15 -21z m333 2 c2 -11 15 -21 28 -23 18
-2 25 -13 36 -53 7 -27 13 -65 13 -82 0 -18 5 -33 10 -33 17 0 11 -38 -7 -43
-16 -3 -16 -5 2 -12 27 -11 35 -25 35 -60 0 -16 -4 -35 -8 -41 -11 -17 -47
-26 -76 -18 -24 6 -26 11 -26 58 0 29 -5 57 -11 63 -6 6 -14 52 -17 102 -2 50
-8 91 -12 91 -4 0 -10 7 -13 14 -4 10 -1 13 9 9 7 -3 14 0 14 6 0 6 -4 11 -10
11 -5 0 -10 7 -10 15 0 22 37 18 43 -4z m-153 -86 c-10 -27 -40 -33 -40 -7 0
24 7 31 30 29 14 -1 16 -6 10 -22z m-123 -55 c-4 -15 0 -20 16 -21 21 0 21 -1
2 -9 -32 -14 -52 -11 -57 8 -7 26 2 42 24 42 15 0 19 -5 15 -20z m-57 -56 c0
-8 5 -14 11 -14 6 0 9 -6 6 -13 -3 -7 3 -13 13 -13 10 0 16 5 14 11 -8 22 26
47 70 52 59 7 138 -16 131 -37 -3 -10 -1 -9 9 3 9 12 16 14 21 8 3 -6 2 -11
-3 -11 -16 0 -22 -29 -12 -55 5 -14 16 -25 24 -25 7 0 19 -13 25 -28 21 -50
-30 -133 -72 -116 -8 3 -22 -2 -31 -11 -9 -10 -24 -14 -35 -10 -10 3 -39 6
-64 7 -41 0 -46 3 -51 28 -3 16 -16 40 -30 55 -14 15 -23 32 -20 37 4 6 1 14
-6 18 -8 5 -10 15 -6 26 6 17 8 17 16 3 7 -12 15 -47 19 -81 1 -5 9 -8 19 -8
10 0 13 3 6 8 -12 7 -20 30 -28 75 -6 34 -23 57 -42 57 -14 0 -20 41 -8 53 10
9 24 -2 24 -19z m280 -44 c0 -5 8 -7 18 -4 10 4 13 3 6 -3 -6 -4 -14 -15 -17
-23 -4 -12 -6 -11 -6 3 -1 9 -5 17 -11 17 -5 0 -10 5 -10 10 0 6 5 10 10 10 6
0 10 -4 10 -10z m-415 -126 c18 -11 42 -15 87 -12 53 2 63 0 66 -14 2 -11 -3
-18 -12 -18 -8 0 -21 -9 -29 -20 -8 -12 -18 -20 -23 -19 -21 3 -28 -2 -14 -11
12 -8 12 -10 -2 -15 -9 -4 -28 1 -42 10 -28 18 -34 33 -13 32 6 0 29 1 50 1
59 3 43 22 -18 22 -55 0 -55 0 -55 -31 0 -30 30 -69 52 -69 15 0 8 -18 -9 -24
-11 -5 -22 -1 -30 10 -10 14 -13 15 -14 3 0 -8 -5 0 -11 16 -6 17 -16 33 -21
37 -22 13 -18 118 4 118 5 0 21 -7 34 -16z m660 -161 c-3 -18 -11 -33 -17 -33
-5 0 -8 7 -4 15 4 12 2 13 -14 3 -14 -9 -16 -14 -7 -20 7 -4 8 -8 1 -8 -5 0
-19 7 -30 15 -18 14 -18 14 9 15 23 0 27 4 27 28 0 15 5 34 10 42 8 11 9 7 5
-15 -4 -24 -3 -26 4 -10 5 11 11 34 12 50 2 25 3 24 6 -10 3 -21 2 -54 -2 -72z
m-731 79 c-3 -9 0 -28 6 -42 10 -24 10 -24 5 5 -4 22 -3 26 5 15 5 -8 10 -25
10 -37 0 -14 9 -24 27 -30 27 -9 27 -10 7 -21 -28 -15 -61 -5 -68 21 -8 30 -7
92 1 100 10 11 11 8 7 -11z"/>
<path d="M1080 1380 c0 -5 5 -10 10 -10 6 0 10 5 10 10 0 6 -4 10 -10 10 -5 0
-10 -4 -10 -10z"/>
<path d="M1070 1303 c0 -16 19 -37 26 -30 4 4 16 0 26 -10 10 -9 18 -12 18 -6
0 5 -11 19 -25 31 -25 22 -45 28 -45 15z"/>
<path d="M1553 1434 c-15 -16 -16 -24 -4 -24 8 0 24 30 19 35 -2 2 -9 -3 -15
-11z"/>
<path d="M1584 1268 c-10 -13 -12 -17 -4 -10 8 6 22 12 32 12 10 0 18 5 18 10
0 18 -26 11 -46 -12z"/>
<path d="M1260 1356 c0 -4 12 -5 26 -2 26 7 26 6 21 -31 -3 -21 -3 -31 -1 -21
8 25 32 30 39 7 4 -10 12 -19 18 -19 7 0 6 -4 -3 -10 -13 -8 -12 -10 3 -10 22
0 22 12 -3 40 -11 12 -22 31 -25 41 -5 14 -15 18 -41 16 -19 -1 -34 -6 -34
-11z"/>
<path d="M1390 1283 c1 -25 54 -60 65 -43 3 5 -3 10 -13 10 -11 0 -25 7 -32
15 -15 18 -7 19 23 4 21 -10 21 -10 3 5 -21 17 -46 21 -46 9z"/>
<path d="M1490 1285 c0 -5 5 -17 10 -25 5 -8 10 -10 10 -5 0 6 -5 17 -10 25
-5 8 -10 11 -10 5z"/>
<path d="M1474 1243 c3 -6 2 -22 -3 -35 -9 -21 -10 -21 -11 -3 l-1 20 -8 -20
c-10 -23 -4 -38 10 -29 19 11 31 56 18 68 -9 8 -10 8 -5 -1z"/>
<path d="M1030 1230 c-9 -6 -10 -10 -3 -10 6 0 15 5 18 10 8 12 4 12 -15 0z"/>
<path d="M1012 1054 c10 -10 20 -16 22 -13 3 3 -5 11 -17 18 -21 13 -21 12 -5
-5z"/>
<path d="M1847 1995 c-5 -76 -11 -143 -14 -148 -12 -20 -23 23 -23 98 -1 44
-4 98 -9 120 -6 33 -8 20 -14 -70 -8 -143 7 -222 51 -268 40 -41 40 -47 7
-497 -14 -184 -25 -336 -25 -337 0 -2 -214 -3 -475 -3 l-475 0 0 60 c0 33 -2
60 -4 60 -3 0 -16 -4 -31 -10 -19 -7 -34 -6 -56 5 l-29 16 0 -256 c0 -232 2
-259 19 -293 23 -44 56 -77 93 -91 36 -14 924 -16 959 -3 44 17 87 61 105 107
15 39 16 75 11 302 -3 142 -13 353 -21 468 -9 116 -16 264 -16 331 l0 121 30
26 c43 39 53 88 51 255 -1 106 -17 80 -24 -38 -5 -94 -10 -120 -22 -109 -2 3
-8 70 -13 149 l-8 145 -8 -130 c-13 -217 -26 -221 -41 -12 l-10 142 -8 -140z
m-425 -1321 c65 -63 17 -174 -77 -174 -35 0 -49 6 -74 31 -42 42 -44 103 -3
141 15 14 34 28 42 31 29 12 83 -3 112 -29z"/>
<path d="M1400 2098 c-11 -12 -20 -27 -20 -32 0 -6 6 -4 13 4 7 8 20 23 30 33
10 9 14 17 8 17 -6 0 -19 -10 -31 -22z"/>
<path d="M1295 2090 c-8 -25 1 -41 20 -34 8 4 12 11 9 16 -4 6 -10 5 -16 -3
-7 -10 -8 -5 -4 14 7 31 0 37 -9 7z"/>
<path d="M1329 2029 c-9 -6 0 -9 29 -9 31 0 42 -4 42 -15 0 -8 5 -15 10 -15
23 0 8 30 -17 36 -16 3 -33 7 -39 9 -6 2 -17 -1 -25 -6z"/>
<path d="M1458 2013 c5 -24 6 -25 12 -8 8 21 4 35 -9 35 -5 0 -6 -12 -3 -27z"/>
<path d="M1290 2006 c0 -8 5 -18 10 -21 6 -3 10 3 10 14 0 12 -4 21 -10 21 -5
0 -10 -6 -10 -14z"/>
<path d="M1321 1956 c-9 -11 -4 -14 29 -14 47 -1 93 -21 48 -22 -21 0 -25 -4
-21 -20 3 -11 12 -20 20 -20 9 0 13 -6 9 -15 -3 -8 -1 -15 4 -15 6 0 10 9 10
20 0 11 -4 20 -10 20 -21 0 -9 20 15 26 30 7 33 24 5 24 -11 0 -23 7 -26 15
-8 19 -67 20 -83 1z"/>
<path d="M1428 1953 c7 -3 16 -2 19 1 4 3 -2 6 -13 5 -11 0 -14 -3 -6 -6z"/>
<path d="M1465 1930 c-3 -5 -1 -10 4 -10 6 0 11 5 11 10 0 6 -2 10 -4 10 -3 0
-8 -4 -11 -10z"/>
<path d="M1304 1883 c-1 -21 0 -30 3 -20 2 9 11 17 19 17 8 0 14 -8 14 -17 0
-34 -12 -63 -26 -63 -8 0 -14 -4 -14 -10 0 -6 27 -10 60 -10 64 0 75 8 35 27
-14 6 -25 7 -25 2 0 -5 -6 -9 -12 -9 -9 0 -13 18 -13 57 0 50 -3 58 -20 61
-17 2 -20 -3 -21 -35z"/>
<path d="M1256 1863 c-6 -16 9 -43 25 -43 14 0 11 30 -5 45 -12 12 -15 12 -20
-2z"/>
<path d="M1331 1762 c-1 -7 -5 -10 -11 -7 -6 3 -7 -1 -3 -10 5 -13 7 -14 14
-3 7 10 9 10 9 1 0 -7 9 -13 20 -13 11 0 20 5 20 10 0 6 -9 10 -19 10 -11 0
-22 6 -24 13 -4 9 -6 9 -6 -1z"/>
<path d="M1255 1630 c-3 -5 -1 -10 4 -10 6 0 11 5 11 10 0 6 -2 10 -4 10 -3 0
-8 -4 -11 -10z"/>
<path d="M1290 1606 c0 -8 4 -17 9 -20 5 -4 7 3 4 14 -6 23 -13 26 -13 6z"/>
<path d="M1400 1605 c0 -8 5 -15 10 -15 6 0 10 7 10 15 0 8 -4 15 -10 15 -5 0
-10 -7 -10 -15z"/>
<path d="M1433 1553 c-18 -7 -16 -23 2 -23 8 0 15 7 15 15 0 8 -1 15 -2 14 -2
0 -9 -3 -15 -6z"/>
<path d="M1260 1540 c0 -5 7 -10 15 -10 8 0 15 5 15 10 0 6 -7 10 -15 10 -8 0
-15 -4 -15 -10z"/>
<path d="M1483 1139 c-18 -5 -33 -12 -33 -15 0 -4 7 -3 15 0 9 3 18 -1 21 -9
10 -25 32 -17 30 10 0 14 -1 25 -1 24 0 0 -15 -5 -32 -10z"/>
<path d="M1548 1143 c6 -2 18 -2 25 0 6 3 1 5 -13 5 -14 0 -19 -2 -12 -5z"/>
<path d="M1548 1123 c7 -3 16 -2 19 1 4 3 -2 6 -13 5 -11 0 -14 -3 -6 -6z"/>
<path d="M1190 1110 c0 -5 7 -10 15 -10 8 0 15 5 15 10 0 6 -7 10 -15 10 -8 0
-15 -4 -15 -10z"/>
<path d="M796 284 c-3 -9 -6 -31 -6 -50 0 -38 -2 -39 -29 -22 -41 26 -80 -54
-60 -125 12 -45 49 -68 74 -47 12 10 18 10 30 0 9 -7 18 -10 22 -7 11 11 12
241 1 255 -14 16 -25 15 -32 -4z m-12 -146 c13 -21 -2 -51 -28 -56 -13 -3 -16
5 -16 38 0 33 3 41 16 38 9 -2 22 -11 28 -20z"/>
<path d="M1218 278 c-22 -18 -26 -38 -17 -72 7 -23 4 -34 -16 -58 -57 -68 -6
-136 81 -108 27 9 38 9 56 -4 12 -9 26 -16 30 -16 12 0 9 35 -4 48 -9 9 -8 16
5 30 32 35 12 59 -23 27 -15 -13 -19 -12 -39 16 -20 27 -21 33 -8 47 27 32 28
52 2 78 -27 27 -44 30 -67 12z m46 -46 c8 -13 -11 -35 -23 -28 -16 10 -14 36
3 36 8 0 17 -4 20 -8z m0 -143 c-3 -5 -16 -9 -30 -9 -27 0 -33 27 -11 49 10
10 15 8 29 -10 10 -11 15 -25 12 -30z"/>
<path d="M2626 274 c-23 -22 -20 -37 4 -22 11 7 20 18 20 25 0 17 -5 16 -24
-3z"/>
<path d="M64 265 c-32 -22 -54 -77 -54 -137 0 -56 16 -90 51 -109 39 -21 105
27 84 61 -4 6 -14 5 -30 -2 -39 -18 -55 -4 -55 47 0 75 30 111 50 60 11 -30
26 -32 39 -7 19 35 -13 102 -48 102 -9 0 -26 -7 -37 -15z"/>
<path d="M615 271 c-3 -5 -1 -12 5 -16 12 -7 30 2 30 16 0 12 -27 12 -35 0z"/>
<path d="M1550 267 c-22 -11 -26 -22 -34 -86 -5 -44 -5 -88 0 -110 8 -32 13
-36 39 -34 64 5 120 72 120 145 0 42 -4 53 -28 74 -31 27 -60 30 -97 11z m72
-82 c10 -22 8 -30 -9 -53 -27 -37 -53 -41 -53 -9 0 13 3 39 6 56 8 39 39 42
56 6z"/>
<path d="M1735 269 c-4 -6 -5 -13 -2 -16 7 -7 27 6 27 18 0 12 -17 12 -25 -2z"/>
<path d="M2475 269 c-10 -14 -1 -21 19 -13 9 3 13 10 10 15 -7 12 -21 11 -29
-2z"/>
<path d="M2352 224 c-26 -18 -30 -75 -7 -94 22 -19 18 -39 -10 -52 -30 -13
-29 -42 1 -46 25 -4 70 30 77 58 3 11 -3 30 -14 44 -24 31 -24 44 3 65 40 33
-5 57 -50 25z"/>
<path d="M613 203 c-10 -35 -10 -132 0 -157 6 -15 10 -16 22 -6 12 10 15 32
13 98 -3 89 -20 120 -35 65z"/>
<path d="M1731 216 c-16 -19 -11 -178 6 -183 17 -6 28 40 28 114 0 67 -13 94
-34 69z"/>
<path d="M2025 206 c-47 -47 -42 -128 11 -162 23 -16 29 -16 52 -3 50 28 58
76 8 49 -14 -7 -33 -9 -43 -6 -16 7 -14 10 12 23 58 30 73 79 33 107 -31 22
-45 20 -73 -8z m55 -41 c0 -15 -26 -32 -36 -23 -2 3 -2 13 2 22 8 20 34 21 34
1z"/>
<path d="M2470 211 c-13 -24 -13 -151 0 -171 25 -40 51 73 36 155 -8 39 -20
45 -36 16z"/>
<path d="M220 202 c-23 -19 -37 -83 -26 -126 8 -33 48 -60 76 -51 51 16 68
128 25 170 -29 30 -45 31 -75 7z m56 -57 c8 -33 -3 -75 -20 -75 -17 0 -28 42
-20 75 8 32 32 32 40 0z"/>
<path d="M372 208 c-18 -18 -16 -149 3 -174 12 -16 16 -17 24 -4 6 8 8 33 5
55 -3 22 -1 46 4 54 18 25 32 0 32 -54 0 -30 5 -57 10 -60 14 -8 30 38 30 84
0 22 6 44 15 51 12 10 14 2 17 -56 5 -116 44 -84 42 34 -2 67 -23 95 -52 69
-17 -15 -19 -15 -35 0 -13 13 -21 14 -40 6 -15 -7 -28 -8 -34 -2 -5 5 -14 4
-21 -3z"/>
<path d="M910 207 c-27 -14 -36 -55 -10 -48 28 8 55 6 60 -3 3 -6 -10 -14 -27
-18 -42 -11 -69 -49 -54 -77 14 -25 45 -35 70 -22 14 8 22 7 31 -4 19 -23 40
0 40 44 0 55 -18 109 -43 126 -26 18 -35 18 -67 2z m58 -109 c-3 -7 -15 -15
-28 -16 -21 -3 -22 -2 -11 12 16 19 44 21 39 4z"/>
<path d="M2177 213 c-11 -10 -8 -166 3 -183 14 -23 29 -1 36 55 8 62 20 78 51
70 28 -7 42 17 23 40 -16 19 -39 19 -61 -1 -16 -14 -18 -14 -24 5 -6 21 -16
26 -28 14z"/>
<path d="M2580 200 c-39 -39 -39 -130 1 -163 29 -23 45 -22 74 8 20 19 25 34
25 73 0 84 -54 128 -100 82z m56 -54 c9 -36 1 -71 -16 -71 -16 0 -26 54 -16
81 8 22 25 17 32 -10z"/>
<path d="M2732 208 c-15 -15 -16 -132 -1 -159 17 -33 39 -5 39 50 0 51 12 77
30 66 8 -5 9 -26 5 -70 -5 -40 -3 -65 4 -69 17 -11 42 39 48 96 4 43 2 57 -15
78 -18 22 -22 23 -48 11 -20 -9 -30 -9 -32 -2 -5 14 -15 14 -30 -1z"/>
<path d="M1810 177 c0 -46 27 -121 52 -143 19 -18 20 -18 38 4 11 13 28 48 39
78 40 105 18 127 -34 33 l-29 -54 -13 44 c-21 73 -53 96 -53 38z"/>
</g>
</svg>
