<?xml version="1.0" standalone="no"?>
<!DOCTYPE svg PUBLIC "-//W3C//DTD SVG 20010904//EN"
 "http://www.w3.org/TR/2001/REC-SVG-20010904/DTD/svg10.dtd">
<svg version="1.0" xmlns="http://www.w3.org/2000/svg"
 width="500.000000pt" height="500.000000pt" viewBox="0 0 500.000000 500.000000"
 preserveAspectRatio="xMidYMid meet">

<g transform="translate(0.000000,500.000000) scale(0.100000,-0.100000)"
fill="#000000" stroke="none">
<path d="M0 2500 l0 -2500 2500 0 2500 0 0 2500 0 2500 -2500 0 -2500 0 0
-2500z m3059 1876 c321 -66 500 -175 637 -387 25 -38 54 -91 65 -117 19 -46
21 -47 89 -64 78 -19 220 -82 277 -124 275 -201 374 -472 389 -1064 7 -272 -7
-617 -32 -775 -41 -254 -147 -456 -314 -592 -78 -64 -217 -136 -294 -154 -54
-12 -56 -14 -67 -53 -46 -182 -148 -335 -299 -451 -200 -154 -414 -203 -930
-212 -560 -10 -844 23 -1048 124 -218 107 -384 312 -440 541 -17 71 -18 72
-61 89 -58 22 -179 101 -237 155 -155 143 -242 339 -290 653 -16 101 -19 181
-19 505 0 415 8 510 61 720 70 278 254 502 491 594 l69 28 29 66 c32 76 103
188 154 246 78 86 206 167 339 216 67 24 265 68 377 84 17 2 230 3 475 2 444
-2 445 -2 579 -30z"/>
<path d="M2165 4114 c-343 -22 -541 -83 -667 -206 l-63 -61 113 -13 c373 -41
620 -229 747 -569 26 -69 59 -227 76 -364 l12 -93 241 5 c432 8 650 68 792
219 107 113 143 210 151 407 l6 134 -79 -6 c-157 -13 -327 -75 -450 -163 -41
-30 -77 -54 -79 -54 -3 0 -41 48 -85 107 -77 102 -80 108 -63 125 37 36 236
147 320 178 90 33 246 70 296 70 15 0 27 6 27 12 0 22 -114 122 -176 155 -154
82 -358 113 -769 118 -159 1 -317 1 -350 -1z"/>
<path d="M1334 3556 c-14 -35 4 -240 26 -311 61 -196 206 -322 433 -380 97
-24 274 -51 282 -43 9 8 -24 228 -46 308 -40 150 -126 274 -241 348 -92 59
-179 83 -325 89 -109 5 -123 4 -129 -11z"/>
<path d="M3837 3407 c-12 -243 -86 -431 -231 -585 -203 -217 -524 -312 -1053
-312 l-163 0 0 -122 c-1 -379 -49 -676 -137 -853 -129 -257 -352 -416 -645
-459 -58 -9 -136 -16 -172 -16 l-67 0 32 -60 c46 -86 143 -174 244 -221 176
-82 404 -105 925 -96 424 8 527 22 685 97 97 46 136 74 193 143 44 52 87 125
79 133 -2 2 -44 9 -93 15 -101 13 -225 46 -329 90 -99 41 -237 127 -229 142 4
7 39 58 77 114 l69 101 56 -35 c127 -82 282 -137 418 -149 l74 -7 0 49 c-1
157 -80 371 -193 517 -16 21 -26 42 -21 46 7 6 128 98 200 153 27 20 172 -232
224 -391 16 -51 38 -146 47 -212 l16 -118 59 31 c156 83 256 266 295 541 21
146 24 817 5 980 -35 291 -138 489 -300 575 l-59 32 -6 -123z"/>
<path d="M989 3399 c-103 -107 -151 -225 -186 -459 -26 -170 -26 -814 0 -980
37 -241 87 -360 196 -470 l65 -65 8 55 c26 178 85 335 190 502 l30 47 106 -71
c59 -39 110 -74 114 -77 4 -4 -4 -23 -17 -44 -88 -128 -165 -351 -165 -474 l0
-33 103 0 c257 0 449 110 546 312 71 150 99 319 108 644 l6 231 -74 7 c-109
10 -307 52 -391 82 -167 61 -294 154 -399 295 -92 124 -142 263 -164 454 l-12
110 -64 -66z"/>
</g>
</svg>
