<?xml version="1.0" standalone="no"?>
<!DOCTYPE svg PUBLIC "-//W3C//DTD SVG 20010904//EN"
 "http://www.w3.org/TR/2001/REC-SVG-20010904/DTD/svg10.dtd">
<svg version="1.0" xmlns="http://www.w3.org/2000/svg"
 width="287.000000pt" height="341.000000pt" viewBox="0 0 287.000000 341.000000"
 preserveAspectRatio="xMidYMid meet">

<g transform="translate(0.000000,341.000000) scale(0.100000,-0.100000)"
fill="#000000" stroke="none">
<path d="M405 3375 c-89 -19 -112 -31 -129 -62 -32 -63 -44 -223 -28 -362 8
-63 40 -95 96 -95 45 0 183 68 191 95 8 23 -19 69 -39 69 -8 0 -42 -9 -75 -19
l-61 -19 -6 24 c-8 33 8 50 66 69 56 19 83 45 78 76 -5 37 -31 45 -87 27 l-51
-16 0 29 c0 26 8 33 80 69 85 43 107 67 91 99 -19 34 -36 36 -126 16z"/>
<path d="M1527 3375 c-26 -26 -32 -79 -32 -285 0 -199 7 -240 40 -240 8 0 20
9 28 20 14 20 14 20 52 0 57 -29 82 -25 125 18 45 44 63 100 64 192 1 79 -17
126 -56 146 -38 20 -68 12 -113 -27 l-35 -31 0 73 c0 51 -6 85 -18 108 -20 41
-34 48 -55 26z m181 -308 c5 -84 -43 -123 -98 -79 -46 37 7 137 69 130 23 -3
26 -8 29 -51z"/>
<path d="M633 3340 c-30 -31 -44 -85 -50 -195 -11 -199 37 -349 95 -292 13 14
16 49 16 238 1 215 -4 257 -31 266 -6 2 -20 -5 -30 -17z"/>
<path d="M1000 3262 c-42 -21 -80 -75 -80 -114 0 -33 12 -60 46 -101 38 -46
32 -73 -23 -99 -38 -18 -49 -29 -51 -50 -7 -59 89 -62 154 -6 76 67 84 129 24
188 -22 22 -40 46 -40 55 0 16 21 38 64 68 30 21 33 39 10 61 -20 21 -61 20
-104 -2z"/>
<path d="M1230 3249 c-39 -16 -80 -60 -80 -85 0 -36 28 -45 72 -23 61 31 108
21 108 -23 0 -12 -8 -18 -22 -18 -33 -1 -108 -37 -140 -67 -42 -40 -39 -94 6
-139 39 -39 63 -42 122 -15 l42 19 10 -23 c14 -31 50 -42 70 -21 36 36 23 266
-18 334 -11 17 -30 38 -44 47 -32 21 -93 28 -126 14z m108 -245 c3 -22 -31
-44 -68 -44 -31 0 -33 18 -5 46 30 30 69 29 73 -2z"/>
<path d="M1942 3243 c-49 -24 -84 -90 -90 -171 -6 -86 11 -144 53 -190 29 -32
40 -37 77 -37 25 0 55 8 71 18 86 56 104 271 30 351 -43 47 -87 56 -141 29z
m85 -130 c18 -45 12 -138 -11 -161 -36 -37 -70 21 -64 110 7 91 46 118 75 51z"/>
<path d="M2196 3225 c-25 -26 -29 -59 -23 -189 6 -128 16 -173 43 -183 34 -13
53 27 62 130 12 127 32 151 110 133 41 -10 62 6 62 44 0 35 -41 70 -81 70 -18
0 -41 -11 -61 -29 l-33 -30 -15 32 c-17 37 -41 45 -64 22z"/>
<path d="M859 2690 c-47 -25 -86 -71 -98 -118 -7 -24 -7 -88 -1 -177 4 -77 7
-142 4 -146 -2 -3 3 -96 11 -205 8 -110 18 -277 21 -372 l7 -173 -46 -47 c-62
-64 -81 -115 -75 -202 6 -82 40 -155 88 -187 41 -28 49 -28 90 0 49 32 84 106
88 188 5 87 -15 143 -74 200 l-44 43 0 86 c1 74 11 254 36 613 l7 97 474 0
473 0 0 -60 0 -60 60 0 60 0 0 198 c0 219 -9 259 -66 299 -56 40 -93 43 -544
43 -409 -1 -437 -2 -471 -20z m659 -137 l3 -23 -170 0 c-93 0 -172 4 -175 9
-4 5 -3 16 0 25 6 14 27 16 173 14 164 -3 166 -3 169 -25z"/>
<path d="M1847 1995 c-5 -76 -11 -143 -14 -148 -12 -20 -23 23 -23 98 -1 44
-4 98 -9 120 -6 33 -8 20 -14 -70 -8 -143 7 -222 51 -268 40 -41 40 -47 7
-497 -14 -184 -25 -336 -25 -337 0 -2 -214 -3 -475 -3 l-475 0 0 60 c0 33 -2
60 -4 60 -3 0 -16 -4 -31 -10 -19 -7 -34 -6 -56 5 l-29 16 0 -256 c0 -232 2
-259 19 -293 23 -44 56 -77 93 -91 36 -14 924 -16 959 -3 44 17 87 61 105 107
15 39 16 75 11 302 -3 142 -13 353 -21 468 -9 116 -16 264 -16 331 l0 121 30
26 c43 39 53 88 51 255 -1 106 -17 80 -24 -38 -5 -94 -10 -120 -22 -109 -2 3
-8 70 -13 149 l-8 145 -8 -130 c-13 -217 -26 -221 -41 -12 l-10 142 -8 -140z
m-425 -1321 c65 -63 17 -174 -77 -174 -35 0 -49 6 -74 31 -42 42 -44 103 -3
141 15 14 34 28 42 31 29 12 83 -3 112 -29z"/>
<path d="M796 284 c-3 -9 -6 -31 -6 -50 0 -38 -2 -39 -29 -22 -41 26 -80 -54
-60 -125 12 -45 49 -68 74 -47 12 10 18 10 30 0 9 -7 18 -10 22 -7 11 11 12
241 1 255 -14 16 -25 15 -32 -4z m-12 -146 c13 -21 -2 -51 -28 -56 -13 -3 -16
5 -16 38 0 33 3 41 16 38 9 -2 22 -11 28 -20z"/>
<path d="M1218 278 c-22 -18 -26 -38 -17 -72 7 -23 4 -34 -16 -58 -57 -68 -6
-136 81 -108 27 9 38 9 56 -4 12 -9 26 -16 30 -16 12 0 9 35 -4 48 -9 9 -8 16
5 30 32 35 12 59 -23 27 -15 -13 -19 -12 -39 16 -20 27 -21 33 -8 47 27 32 28
52 2 78 -27 27 -44 30 -67 12z m46 -46 c8 -13 -11 -35 -23 -28 -16 10 -14 36
3 36 8 0 17 -4 20 -8z m0 -143 c-3 -5 -16 -9 -30 -9 -27 0 -33 27 -11 49 10
10 15 8 29 -10 10 -11 15 -25 12 -30z"/>
<path d="M2626 274 c-23 -22 -20 -37 4 -22 11 7 20 18 20 25 0 17 -5 16 -24
-3z"/>
<path d="M64 265 c-32 -22 -54 -77 -54 -137 0 -56 16 -90 51 -109 39 -21 105
27 84 61 -4 6 -14 5 -30 -2 -39 -18 -55 -4 -55 47 0 75 30 111 50 60 11 -30
26 -32 39 -7 19 35 -13 102 -48 102 -9 0 -26 -7 -37 -15z"/>
<path d="M615 271 c-3 -5 -1 -12 5 -16 12 -7 30 2 30 16 0 12 -27 12 -35 0z"/>
<path d="M1550 267 c-22 -11 -26 -22 -34 -86 -5 -44 -5 -88 0 -110 8 -32 13
-36 39 -34 64 5 120 72 120 145 0 42 -4 53 -28 74 -31 27 -60 30 -97 11z m72
-82 c10 -22 8 -30 -9 -53 -27 -37 -53 -41 -53 -9 0 13 3 39 6 56 8 39 39 42
56 6z"/>
<path d="M1735 269 c-4 -6 -5 -13 -2 -16 7 -7 27 6 27 18 0 12 -17 12 -25 -2z"/>
<path d="M2475 269 c-10 -14 -1 -21 19 -13 9 3 13 10 10 15 -7 12 -21 11 -29
-2z"/>
<path d="M2352 224 c-26 -18 -30 -75 -7 -94 22 -19 18 -39 -10 -52 -30 -13
-29 -42 1 -46 25 -4 70 30 77 58 3 11 -3 30 -14 44 -24 31 -24 44 3 65 40 33
-5 57 -50 25z"/>
<path d="M613 203 c-10 -35 -10 -132 0 -157 6 -15 10 -16 22 -6 12 10 15 32
13 98 -3 89 -20 120 -35 65z"/>
<path d="M1731 216 c-16 -19 -11 -178 6 -183 17 -6 28 40 28 114 0 67 -13 94
-34 69z"/>
<path d="M2025 206 c-47 -47 -42 -128 11 -162 23 -16 29 -16 52 -3 50 28 58
76 8 49 -14 -7 -33 -9 -43 -6 -16 7 -14 10 12 23 58 30 73 79 33 107 -31 22
-45 20 -73 -8z m55 -41 c0 -15 -26 -32 -36 -23 -2 3 -2 13 2 22 8 20 34 21 34
1z"/>
<path d="M2470 211 c-13 -24 -13 -151 0 -171 25 -40 51 73 36 155 -8 39 -20
45 -36 16z"/>
<path d="M220 202 c-23 -19 -37 -83 -26 -126 8 -33 48 -60 76 -51 51 16 68
128 25 170 -29 30 -45 31 -75 7z m56 -57 c8 -33 -3 -75 -20 -75 -17 0 -28 42
-20 75 8 32 32 32 40 0z"/>
<path d="M372 208 c-18 -18 -16 -149 3 -174 12 -16 16 -17 24 -4 6 8 8 33 5
55 -3 22 -1 46 4 54 18 25 32 0 32 -54 0 -30 5 -57 10 -60 14 -8 30 38 30 84
0 22 6 44 15 51 12 10 14 2 17 -56 5 -116 44 -84 42 34 -2 67 -23 95 -52 69
-17 -15 -19 -15 -35 0 -13 13 -21 14 -40 6 -15 -7 -28 -8 -34 -2 -5 5 -14 4
-21 -3z"/>
<path d="M910 207 c-27 -14 -36 -55 -10 -48 28 8 55 6 60 -3 3 -6 -10 -14 -27
-18 -42 -11 -69 -49 -54 -77 14 -25 45 -35 70 -22 14 8 22 7 31 -4 19 -23 40
0 40 44 0 55 -18 109 -43 126 -26 18 -35 18 -67 2z m58 -109 c-3 -7 -15 -15
-28 -16 -21 -3 -22 -2 -11 12 16 19 44 21 39 4z"/>
<path d="M2177 213 c-11 -10 -8 -166 3 -183 14 -23 29 -1 36 55 8 62 20 78 51
70 28 -7 42 17 23 40 -16 19 -39 19 -61 -1 -16 -14 -18 -14 -24 5 -6 21 -16
26 -28 14z"/>
<path d="M2580 200 c-39 -39 -39 -130 1 -163 29 -23 45 -22 74 8 20 19 25 34
25 73 0 84 -54 128 -100 82z m56 -54 c9 -36 1 -71 -16 -71 -16 0 -26 54 -16
81 8 22 25 17 32 -10z"/>
<path d="M2732 208 c-15 -15 -16 -132 -1 -159 17 -33 39 -5 39 50 0 51 12 77
30 66 8 -5 9 -26 5 -70 -5 -40 -3 -65 4 -69 17 -11 42 39 48 96 4 43 2 57 -15
78 -18 22 -22 23 -48 11 -20 -9 -30 -9 -32 -2 -5 14 -15 14 -30 -1z"/>
<path d="M1810 177 c0 -46 27 -121 52 -143 19 -18 20 -18 38 4 11 13 28 48 39
78 40 105 18 127 -34 33 l-29 -54 -13 44 c-21 73 -53 96 -53 38z"/>
</g>
</svg>
