<?xml version="1.0" standalone="no"?>
<!DOCTYPE svg PUBLIC "-//W3C//DTD SVG 20010904//EN"
 "http://www.w3.org/TR/2001/REC-SVG-20010904/DTD/svg10.dtd">
<svg version="1.0" xmlns="http://www.w3.org/2000/svg"
 width="760.000000pt" height="363.000000pt" viewBox="0 0 760.000000 363.000000"
 preserveAspectRatio="xMidYMid meet">

<g transform="translate(0.000000,363.000000) scale(0.100000,-0.100000)"
fill="#000000" stroke="none">
<path d="M1580 3593 c-505 -77 -943 -355 -1223 -776 -141 -212 -241 -476 -279
-732 -20 -140 -15 -425 10 -567 110 -610 526 -1117 1105 -1347 306 -122 677
-151 1016 -81 343 72 702 278 935 537 228 253 380 561 439 886 31 174 31 471
-1 639 -91 482 -358 889 -761 1160 -167 112 -390 210 -575 253 -195 45 -477
57 -666 28z m470 -203 c352 -55 618 -185 869 -425 274 -262 436 -603 473 -998
58 -620 -280 -1230 -842 -1521 -575 -297 -1281 -206 -1760 227 -462 417 -633
1076 -433 1667 78 232 201 428 383 610 240 239 511 376 875 439 71 12 357 13
435 1z"/>
<path d="M1610 3335 c-304 -45 -612 -199 -826 -412 -219 -218 -366 -483 -424
-766 -78 -377 -22 -747 162 -1072 228 -402 633 -680 1093 -751 178 -27 418
-15 593 30 181 47 304 103 472 215 133 88 293 241 382 366 260 367 348 828
239 1259 -138 546 -563 970 -1106 1104 -171 43 -406 53 -585 27z m855 -494
c-17 -7 -15 -9 15 -16 50 -11 70 -45 28 -45 l-23 -1 23 -12 c17 -10 20 -15 10
-25 -7 -7 -20 -12 -30 -12 -10 0 -18 -4 -18 -9 0 -5 -9 -11 -21 -14 -12 -3
-18 -10 -15 -15 8 -14 -18 -22 -67 -22 -23 0 -55 -7 -72 -16 -34 -18 -201 -54
-249 -54 -18 0 -38 6 -45 13 -10 10 -12 9 -9 -3 3 -14 -1 -15 -50 -18 -13 -1
-20 -6 -17 -12 3 -5 -12 -12 -34 -16 -31 -5 -38 -10 -34 -23 5 -13 3 -14 -8
-3 -16 14 -49 16 -49 2 0 -5 6 -10 13 -11 6 0 0 -5 -15 -10 -18 -7 -29 -20
-33 -39 -4 -16 -15 -48 -26 -71 -11 -22 -18 -48 -15 -56 4 -9 0 -21 -7 -27
-15 -12 -70 -156 -66 -172 2 -5 -4 -22 -13 -39 -20 -38 -98 -268 -98 -290 0
-12 5 -15 18 -10 9 4 55 16 102 27 47 10 112 26 145 34 33 8 83 20 110 26 28
5 73 16 100 24 119 33 325 48 325 23 0 -5 10 -8 23 -6 19 2 22 -3 22 -35 0
-27 -4 -38 -15 -39 -10 0 -11 -2 -2 -6 26 -10 10 -23 -30 -23 -46 0 -128 -32
-128 -50 0 -5 -10 -10 -22 -10 -37 0 -68 -12 -62 -22 4 -7 -8 -8 -35 -3 -27 4
-41 3 -41 -4 0 -6 -8 -11 -17 -11 -23 0 -83 -22 -83 -31 0 -4 -7 -10 -16 -13
-9 -4 -13 -2 -8 5 5 8 2 9 -11 2 -10 -6 -26 -8 -36 -6 -11 3 -19 1 -19 -5 0
-5 -24 -15 -52 -22 -29 -6 -75 -20 -103 -31 -27 -10 -77 -26 -110 -34 -36 -9
-45 -13 -22 -11 58 7 44 -9 -21 -22 -70 -14 -98 -33 -105 -69 -28 -141 -37
-198 -33 -208 2 -7 0 -18 -4 -26 -5 -8 -4 -19 3 -28 9 -11 9 -15 0 -18 -18 -7
-16 -113 2 -151 9 -18 28 -35 47 -41 44 -16 154 -13 211 4 27 8 52 14 55 13 4
-1 14 1 22 5 8 3 49 15 90 27 41 12 89 27 105 35 37 16 67 27 80 30 6 1 12 3
15 4 3 1 23 5 45 7 22 3 49 13 60 23 38 33 115 56 99 29 -5 -8 -2 -9 10 -5 26
10 59 -11 53 -34 -4 -13 0 -19 11 -19 13 0 12 -3 -4 -15 -14 -10 -15 -14 -4
-15 10 0 11 -3 3 -11 -8 -8 -17 -8 -31 0 -11 6 -23 11 -26 11 -11 0 -6 -19 7
-23 6 -2 1 -2 -11 0 -14 2 -21 0 -18 -6 4 -6 -6 -17 -21 -25 -35 -19 -16 -21
23 -2 36 17 74 29 74 23 0 -10 -96 -65 -123 -71 -24 -6 -27 -9 -17 -21 11 -13
7 -15 -19 -15 -20 0 -31 -5 -31 -14 0 -15 -75 -54 -123 -63 -18 -3 -38 -10
-45 -16 -9 -7 -16 -7 -23 0 -14 14 -64 -4 -97 -34 -27 -25 -42 -29 -42 -13 0
15 -16 12 -33 -5 -11 -10 -41 -15 -99 -17 -105 -2 -142 15 -241 116 -82 83
-134 164 -154 239 -16 63 -18 206 -4 305 l11 73 -35 43 c-33 40 -66 139 -51
154 4 3 33 9 66 13 70 8 90 21 90 59 0 15 7 33 15 40 8 7 17 28 20 49 12 68
33 146 60 216 14 39 30 84 35 100 4 17 20 64 34 105 42 117 42 117 10 123 -16
3 -42 -1 -59 -8 -29 -13 -29 -13 -5 -14 22 -1 23 -3 7 -12 -10 -6 -30 -8 -46
-4 -18 4 -35 0 -52 -13 -13 -10 -43 -26 -66 -36 -38 -17 -44 -17 -66 -3 -20
13 -46 56 -80 134 -21 47 9 70 165 127 57 21 121 46 143 56 22 9 64 23 94 30
37 9 55 18 58 31 6 22 25 24 51 8 15 -9 43 -7 125 10 58 11 118 21 132 21 15
0 35 5 46 11 11 5 52 14 92 20 40 5 110 16 157 23 92 15 289 20 255 7z m-685
-1211 c-36 -11 -50 -11 -50 0 0 6 17 10 38 9 33 -1 34 -2 12 -9z m497 -616
c-3 -3 -12 -4 -19 -1 -8 3 -5 6 6 6 11 1 17 -2 13 -5z m-44 -21 c-7 -2 -21 -2
-30 0 -10 3 -4 5 12 5 17 0 24 -2 18 -5z"/>
<path d="M2428 2753 c7 -3 16 -2 19 1 4 3 -2 6 -13 5 -11 0 -14 -3 -6 -6z"/>
<path d="M2385 2730 c3 -5 13 -10 21 -10 8 0 14 5 14 10 0 6 -9 10 -21 10 -11
0 -17 -4 -14 -10z"/>
<path d="M2355 2690 c-7 -12 12 -12 40 0 18 8 17 9 -7 9 -15 1 -30 -3 -33 -9z"/>
<path d="M2250 2680 c-12 -8 -9 -10 12 -10 15 0 30 5 33 10 8 13 -25 13 -45 0z"/>
<path d="M2165 2660 c-14 -7 -8 -8 20 -3 22 3 42 7 44 9 9 8 -45 2 -64 -6z"/>
<path d="M1845 2580 c-3 -5 -1 -10 4 -10 6 0 11 5 11 10 0 6 -2 10 -4 10 -3 0
-8 -4 -11 -10z"/>
<path d="M1520 1959 c0 -11 5 -17 10 -14 6 3 10 13 10 21 0 8 -4 14 -10 14 -5
0 -10 -9 -10 -21z"/>
<path d="M2130 1810 c-23 -7 -23 -8 -3 -9 12 -1 25 4 28 9 3 6 5 10 3 9 -2 -1
-14 -5 -28 -9z"/>
<path d="M1495 1580 c-3 -5 1 -10 9 -10 8 0 18 5 21 10 3 6 -1 10 -9 10 -8 0
-18 -4 -21 -10z"/>
<path d="M2040 956 c0 -9 7 -16 16 -16 17 0 14 22 -4 28 -7 2 -12 -3 -12 -12z"/>
<path d="M5635 2520 c-75 -15 -207 -88 -310 -170 -101 -81 -215 -195 -215
-216 0 -6 -7 -17 -15 -24 -8 -7 -15 -21 -15 -31 0 -11 -4 -19 -9 -19 -4 0 -14
-19 -20 -43 -10 -33 -10 -58 -1 -107 13 -74 21 -90 67 -147 32 -39 39 -42 97
-48 52 -6 85 -2 187 23 68 17 136 33 150 36 24 4 186 9 217 7 26 -2 9 -29 -72
-113 -85 -88 -208 -180 -258 -192 -16 -3 -28 -11 -28 -16 0 -6 -7 -10 -16 -10
-8 0 -13 -4 -10 -8 9 -14 -291 -152 -331 -152 l-36 0 7 -47 c3 -26 13 -51 21
-56 8 -4 15 -14 15 -21 0 -24 32 -27 84 -10 60 19 214 93 306 148 60 36 95 58
217 143 71 49 189 171 209 215 15 34 16 46 5 86 -15 57 -66 130 -106 152 -26
15 -45 16 -135 9 -58 -5 -121 -6 -140 -4 -30 4 -31 3 -10 -4 24 -9 24 -9 3
-10 -12 -1 -82 -14 -155 -30 -95 -22 -143 -28 -168 -22 -33 7 -35 9 -33 48 3
70 94 218 179 293 194 170 370 241 480 195 28 -12 35 -19 29 -32 -16 -38 -16
-50 -1 -62 13 -11 20 -11 41 3 40 26 34 80 -15 154 -58 86 -104 104 -215 82z"/>
<path d="M4570 2460 c-58 -10 -145 -26 -195 -35 -101 -20 -122 -22 -147 -11
-13 6 -18 4 -18 -7 0 -9 -13 -18 -31 -22 -54 -12 -230 -82 -257 -102 l-27 -20
25 -48 c36 -69 50 -75 107 -45 26 14 56 23 66 22 11 -2 16 1 13 6 -8 13 17 22
41 16 17 -5 15 -17 -35 -172 -30 -92 -58 -180 -64 -197 -5 -16 -10 -35 -12
-41 -5 -26 -29 -43 -64 -46 -36 -3 -37 -4 -34 -37 1 -19 13 -49 26 -66 21 -28
23 -35 14 -90 -14 -96 -1 -193 32 -251 37 -63 114 -142 156 -160 39 -17 134
-19 134 -3 0 5 8 9 18 8 9 -2 31 4 47 13 17 8 50 18 74 22 48 7 101 31 101 46
0 6 10 10 22 10 12 0 19 3 15 6 -3 4 17 18 44 32 37 18 47 27 37 33 -7 5 -17
9 -23 9 -5 0 -3 -5 5 -10 9 -6 10 -10 3 -10 -6 0 -19 -3 -29 -7 -16 -6 -16 -4
2 15 12 13 28 20 36 17 11 -4 15 2 15 25 0 29 -7 34 -36 31 -7 -2 -10 2 -6 8
10 17 -7 13 -44 -10 -18 -11 -52 -24 -75 -29 -22 -4 -64 -17 -93 -28 -172 -66
-297 -76 -329 -27 -16 24 -18 122 -2 131 5 3 5 10 2 16 -4 5 -1 44 6 85 11 62
17 77 36 85 13 6 21 15 18 19 -3 5 10 6 28 4 26 -4 29 -3 13 4 -20 9 -20 10 1
10 24 1 151 38 176 52 10 5 26 9 36 9 10 0 38 9 61 21 24 11 52 18 62 16 11
-3 19 -1 19 4 0 5 7 9 15 9 9 0 33 9 55 20 22 11 51 20 65 20 15 0 24 4 20 10
-3 6 0 10 9 10 20 0 23 -16 14 -79 -13 -95 -12 -430 2 -446 20 -24 90 -39 106
-23 23 24 18 122 -8 154 -5 7 -6 61 -4 120 8 168 18 328 22 335 1 3 6 50 10
105 3 54 8 102 11 107 8 14 -18 77 -37 87 -10 6 -31 10 -47 10 l-28 0 0 -83
c-1 -107 -15 -263 -24 -250 -12 20 -76 30 -136 22 -55 -7 -85 -14 -185 -39
-78 -20 -232 -51 -236 -48 -2 2 13 49 32 103 19 55 44 128 55 162 11 34 24 65
29 68 6 4 8 10 5 15 -6 9 32 99 50 116 7 7 28 16 48 19 20 4 34 11 31 16 -5 8
33 14 65 9 22 -3 142 22 178 37 18 7 46 13 63 13 16 0 30 4 30 8 0 4 14 16 32
27 29 17 30 19 12 26 -18 7 -18 8 -1 8 26 1 15 25 -13 29 -18 3 -20 6 -9 13
23 14 -84 8 -201 -11z m87 -96 c-3 -3 -12 -4 -19 -1 -8 3 -5 6 6 6 11 1 17 -2
13 -5z m-57 -14 c-20 -13 -33 -13 -25 0 3 6 14 10 23 10 15 0 15 -2 2 -10z
m-90 -1120 c0 -5 -4 -10 -10 -10 -5 0 -10 5 -10 10 0 6 5 10 10 10 6 0 10 -4
10 -10z"/>
<path d="M6425 2033 c-3 -60 -8 -119 -10 -133 -20 -132 -28 -363 -16 -473 9
-93 23 -121 70 -139 26 -9 131 9 131 23 0 4 19 19 43 34 23 15 55 45 71 68
l30 40 12 -36 c30 -87 115 -155 178 -143 56 11 149 102 233 232 11 16 12 3 11
-75 l-2 -94 38 -34 c24 -22 45 -33 59 -31 20 3 23 10 28 83 3 44 13 99 21 122
22 55 80 163 89 163 3 0 12 12 18 28 16 37 98 92 139 92 28 0 32 3 32 28 0 60
-76 91 -147 60 -28 -12 -103 -82 -103 -96 0 -4 -11 -20 -24 -37 -26 -32 -28
-30 -40 27 -6 28 -48 64 -81 70 -18 3 -20 -3 -19 -55 l0 -57 -35 33 c-20 19
-47 41 -61 51 -31 21 -89 21 -119 0 -17 -12 -26 -13 -34 -5 -20 20 -55 12 -75
-16 l-21 -28 -33 31 c-48 46 -90 64 -147 64 -41 0 -57 -6 -95 -35 -26 -19 -49
-35 -52 -35 -5 0 2 123 12 195 19 142 20 130 -22 159 -66 45 -71 41 -79 -81z
m324 -302 c12 -21 4 -54 -28 -121 -23 -48 -45 -78 -119 -153 -83 -86 -102 -86
-102 3 0 40 4 59 14 63 7 3 21 30 31 60 28 90 105 167 167 167 16 0 31 -7 37
-19z m365 -27 c9 -3 16 -14 16 -23 0 -32 -48 -117 -107 -191 -63 -78 -122
-120 -168 -120 l-28 0 6 58 c8 77 35 151 75 207 28 40 37 46 58 41 17 -5 33 0
51 14 25 20 66 26 97 14z"/>
<path d="M6274 1803 c-12 -55 -13 -55 -46 -24 -18 17 -39 31 -47 31 -60 0
-188 -117 -264 -242 -33 -54 -38 -69 -34 -107 9 -83 106 -182 181 -184 44 -1
78 28 139 122 l42 65 8 -94 c9 -100 28 -140 69 -140 24 0 27 18 32 190 2 80 9
183 15 229 11 78 10 85 -10 117 -11 19 -34 41 -50 49 -28 15 -29 15 -35 -12z
m-30 -101 c3 -5 -17 -46 -44 -91 -28 -45 -50 -85 -50 -89 0 -4 -12 -18 -25
-31 -14 -12 -23 -27 -20 -31 3 -4 -13 -24 -36 -45 -75 -67 -112 -27 -68 74 12
28 24 51 28 51 3 0 26 25 50 55 61 77 149 133 165 107z"/>
<path d="M4298 1673 c7 -3 16 -2 19 1 4 3 -2 6 -13 5 -11 0 -14 -3 -6 -6z"/>
</g>
</svg>
