<?xml version="1.0" standalone="no"?>
<!DOCTYPE svg PUBLIC "-//W3C//DTD SVG 20010904//EN"
 "http://www.w3.org/TR/2001/REC-SVG-20010904/DTD/svg10.dtd">
<svg version="1.0" xmlns="http://www.w3.org/2000/svg"
 width="954.000000pt" height="960.000000pt" viewBox="0 0 954.000000 960.000000"
 preserveAspectRatio="xMidYMid meet">

<g transform="translate(0.000000,960.000000) scale(0.100000,-0.100000)"
fill="#000000" stroke="none">
<path d="M4443 8338 c-32 -57 -61 -111 -65 -120 -4 -10 -12 -18 -17 -18 -5 0
-47 52 -93 116 l-83 116 -40 -84 c-22 -46 -57 -121 -78 -166 -22 -45 -43 -82
-47 -82 -5 0 -20 15 -35 33 -15 17 -44 50 -64 72 -20 22 -60 68 -90 103 -30
35 -57 59 -61 55 -4 -4 -27 -65 -50 -135 -24 -71 -46 -128 -50 -128 -3 0 -49
43 -104 95 -54 52 -102 95 -107 95 -4 0 -12 -24 -18 -52 -28 -134 -75 -298
-85 -298 -6 1 -56 37 -111 81 -123 98 -174 134 -181 127 -3 -3 -12 -64 -21
-134 -9 -71 -19 -133 -23 -137 -4 -5 -60 26 -125 68 -64 42 -119 75 -121 73
-1 -2 -8 -84 -13 -182 -6 -98 -12 -180 -14 -183 -3 -2 -77 31 -166 75 -89 43
-164 75 -167 70 -6 -9 3 -189 12 -245 3 -23 1 -33 -8 -33 -7 1 -69 23 -138 50
-69 26 -127 47 -128 45 -2 -2 9 -83 24 -179 15 -97 24 -179 21 -183 -4 -3 -84
15 -179 40 -95 26 -174 44 -176 42 -2 -2 12 -63 32 -136 35 -130 37 -152 13
-144 -25 9 -259 46 -263 42 -3 -2 23 -79 56 -171 34 -92 59 -170 56 -174 -2
-4 -84 -2 -182 5 -97 7 -179 11 -181 9 -2 -2 24 -60 59 -129 34 -70 60 -128
57 -131 -2 -3 -64 -6 -136 -7 -72 -1 -136 -5 -141 -8 -5 -3 33 -76 84 -161 51
-85 90 -158 86 -161 -4 -4 -68 -14 -142 -23 -196 -25 -210 -28 -210 -38 0 -6
36 -57 80 -114 44 -57 80 -107 80 -111 0 -5 -61 -22 -135 -38 -75 -15 -138
-31 -139 -34 -2 -3 21 -33 51 -66 124 -135 183 -203 183 -211 0 -5 -73 -33
-162 -63 -90 -30 -167 -58 -173 -63 -7 -6 -4 -14 8 -22 38 -28 197 -170 197
-176 0 -3 -56 -30 -125 -59 -69 -30 -128 -57 -130 -61 -3 -5 60 -57 140 -115
80 -59 145 -111 145 -115 0 -4 -10 -12 -22 -18 -13 -7 -36 -20 -53 -30 -16 -9
-76 -44 -132 -76 -57 -32 -103 -62 -103 -66 0 -5 54 -39 120 -77 66 -37 120
-70 120 -74 0 -3 -52 -41 -115 -85 -63 -43 -114 -83 -115 -87 0 -4 21 -17 47
-28 106 -45 283 -133 281 -139 -3 -7 -168 -155 -233 -207 -23 -20 -35 -36 -30
-41 6 -5 62 -26 125 -47 63 -21 122 -41 130 -46 11 -5 -10 -33 -89 -113 -69
-70 -99 -107 -90 -110 8 -3 88 -23 178 -45 90 -22 166 -43 169 -45 5 -6 -8
-24 -135 -188 -45 -59 -79 -109 -75 -112 4 -3 66 -12 137 -22 72 -9 133 -19
137 -23 4 -3 -27 -59 -67 -123 -41 -65 -75 -120 -75 -123 0 -3 22 -5 49 -5
l49 0 36 76 c43 91 112 198 154 237 33 32 34 26 -19 145 -82 180 -170 489
-213 742 -22 128 -46 412 -46 536 0 1015 468 1987 1261 2615 504 399 1075 633
1717 704 288 32 679 18 967 -36 940 -173 1768 -752 2260 -1581 69 -116 179
-336 220 -443 31 -79 32 -80 71 -85 38 -5 39 -6 42 -46 2 -27 -2 -45 -13 -54
-27 -22 -16 -29 24 -13 33 13 43 13 67 2 33 -16 43 -54 24 -90 -11 -20 -10
-21 15 -15 50 13 99 -40 76 -83 -6 -10 -31 -43 -56 -72 -24 -29 -42 -55 -39
-58 3 -3 34 -6 69 -6 75 0 109 -24 120 -83 10 -58 15 -72 28 -72 7 0 52 34
100 76 79 68 97 94 64 94 -23 0 -248 83 -245 91 2 4 45 51 97 104 51 53 90
100 85 104 -5 5 -83 27 -174 49 -90 22 -166 44 -168 50 -2 6 44 72 102 147
100 129 117 155 99 155 -31 0 -260 34 -266 40 -4 4 27 60 68 126 l77 119 -89
7 c-48 3 -130 7 -181 8 -51 2 -95 6 -97 11 -3 4 30 80 73 169 43 89 75 163 70
166 -4 3 -66 0 -139 -6 -72 -7 -133 -9 -136 -6 -3 3 4 32 16 63 56 147 75 202
71 206 -3 3 -83 -7 -177 -21 -95 -14 -176 -23 -179 -19 -4 4 12 78 36 164 23
87 43 165 44 173 1 19 -6 18 -152 -20 -68 -18 -124 -31 -126 -29 -2 2 7 64 20
138 13 73 21 137 19 141 -3 4 -81 -21 -174 -55 -94 -34 -171 -59 -173 -54 -2
5 2 87 8 181 7 95 10 176 8 179 -2 4 -58 -20 -124 -52 -66 -33 -124 -59 -129
-59 -5 0 -12 63 -16 141 -6 122 -9 140 -23 134 -8 -3 -78 -44 -154 -90 -76
-47 -142 -85 -147 -85 -5 0 -11 21 -14 48 -10 95 -38 297 -42 310 -3 9 -29 -6
-77 -45 -100 -80 -145 -113 -156 -113 -5 0 -22 61 -38 135 -16 74 -33 135 -39
135 -5 -1 -39 -28 -74 -61 -35 -32 -95 -87 -132 -120 l-69 -61 -11 29 c-6 15
-34 95 -61 177 l-51 149 -41 -44 c-23 -24 -65 -72 -95 -107 -29 -34 -57 -62
-61 -62 -4 0 -31 55 -60 123 -29 67 -56 126 -60 130 -4 5 -54 -56 -112 -134
-57 -78 -109 -144 -115 -146 -6 -2 -51 66 -99 152 -49 85 -92 155 -96 155 -4
0 -33 -46 -65 -102z"/>
<path d="M4340 7944 c-145 -10 -286 -27 -295 -35 -5 -5 5 -9 27 -9 49 0 171
-26 237 -51 43 -16 87 -20 235 -25 438 -12 775 -79 1148 -230 397 -161 722
-378 1038 -694 319 -319 540 -649 700 -1048 20 -51 40 -94 43 -95 3 -1 26 11
52 27 54 35 54 32 -6 169 -91 208 -170 355 -284 527 -134 202 -223 309 -419
505 -153 152 -187 184 -286 261 -488 381 -1067 617 -1680 683 -105 12 -424 21
-510 15z"/>
<path d="M3740 7859 c-194 -52 -394 -118 -500 -165 -419 -185 -708 -377 -1009
-669 -429 -417 -713 -892 -880 -1470 -168 -583 -157 -1268 28 -1855 59 -187
136 -380 151 -380 18 0 100 40 100 49 0 5 -13 38 -29 73 -64 144 -141 385
-180 568 -47 222 -64 394 -65 645 -2 430 57 756 204 1145 327 861 1049 1560
1910 1851 117 39 129 45 180 98 31 31 83 71 115 88 62 34 52 43 -25 22z"/>
<path d="M3884 7792 c-116 -41 -199 -116 -251 -228 -24 -52 -28 -71 -28 -154
0 -90 21 -187 46 -214 16 -18 9 -42 -21 -71 -44 -42 -65 -120 -51 -186 13 -57
34 -104 64 -136 26 -29 116 -63 167 -63 37 0 157 22 191 35 22 8 25 -4 40
-124 l13 -100 -25 -19 -24 -20 24 -49 c24 -48 51 -128 51 -150 0 -6 -37 -24
-82 -38 -108 -36 -301 -128 -408 -195 -74 -46 -195 -134 -297 -216 -30 -24
-32 -25 -68 -10 -104 44 -357 68 -492 47 -99 -16 -228 -54 -273 -82 l-35 -22
34 -26 c115 -88 185 -177 235 -301 66 -161 62 -281 -17 -555 -105 -364 -129
-513 -108 -675 15 -122 52 -252 96 -341 34 -67 118 -193 136 -204 15 -10 10
11 -10 36 -35 46 -98 174 -124 254 -66 201 -51 431 37 577 17 28 35 50 41 47
5 -2 11 -26 12 -54 8 -179 16 -252 38 -342 42 -175 163 -457 192 -451 36 7 36
32 0 128 -66 177 -82 278 -82 510 0 162 4 223 18 289 93 422 299 772 557 945
83 56 110 69 194 95 81 25 106 26 175 5 108 -32 178 -129 191 -268 4 -47 17
-103 30 -134 12 -29 20 -55 17 -59 -4 -3 -28 1 -54 10 -121 39 -267 43 -397
10 -217 -54 -439 -258 -565 -517 -103 -211 -134 -462 -86 -691 23 -108 67
-247 81 -252 7 -3 41 15 76 39 73 52 265 160 323 183 33 13 45 25 67 73 15 31
45 81 68 110 22 29 40 54 40 55 0 3 -212 9 -375 10 -77 1 -103 -3 -180 -31
-49 -17 -93 -28 -97 -24 -11 11 78 186 122 242 194 250 399 392 733 506 134
46 136 46 134 -18 -1 -81 46 -154 120 -185 32 -13 38 -12 78 7 25 12 73 26
109 31 83 11 168 43 301 113 95 50 113 56 166 56 109 0 284 52 320 96 11 13 6
13 -30 -2 -44 -17 -68 -11 -39 10 11 8 15 20 11 34 -4 15 -1 22 10 22 27 0
183 86 247 136 35 27 99 69 144 92 143 77 242 175 321 317 15 28 54 122 87
210 33 88 73 178 89 200 37 52 88 85 137 92 35 5 42 2 57 -21 15 -22 17 -41
12 -109 -10 -139 -87 -337 -196 -502 -57 -86 -233 -266 -321 -328 -97 -68
-304 -167 -495 -237 -542 -199 -677 -269 -828 -430 -43 -45 -95 -114 -117
-154 -46 -81 -102 -247 -120 -354 -11 -66 -10 -78 5 -113 10 -21 21 -39 25
-39 4 0 10 32 13 71 6 68 52 255 67 272 4 4 10 -54 14 -129 7 -136 6 -138 -18
-172 -30 -42 -25 -54 18 -51 17 2 43 -5 59 -15 36 -24 44 -14 18 22 -25 35
-26 42 -7 42 36 0 110 -115 136 -211 6 -21 13 -39 16 -39 3 0 16 12 29 27 l23
28 -45 65 c-25 36 -70 90 -100 121 -71 73 -53 89 24 23 60 -52 107 -110 129
-161 16 -37 34 -43 34 -13 0 47 -98 170 -200 252 l-45 36 0 168 c0 112 4 181
13 205 15 43 116 158 128 146 5 -4 3 -17 -4 -27 -38 -62 8 -120 155 -194 49
-24 113 -63 143 -86 64 -47 197 -176 212 -203 7 -15 13 -16 21 -8 19 19 13
309 -7 404 -19 86 -72 219 -111 279 -14 21 -23 42 -21 47 9 13 237 113 391
171 211 79 456 207 574 300 59 47 191 194 237 266 92 144 170 331 203 489 16
81 -12 166 -62 184 -12 4 -89 6 -172 4 -82 -3 -195 0 -250 6 -81 8 -611 108
-623 117 -2 1 0 10 6 20 6 11 5 32 -4 62 -23 77 -19 98 31 150 26 27 45 55 45
69 0 31 -64 73 -112 73 -30 0 -38 4 -38 18 0 31 29 106 53 136 l23 29 64 -22
c206 -72 343 -4 396 194 39 146 -13 304 -139 421 -66 61 -196 129 -276 144
-124 23 -298 2 -421 -51 l-48 -21 -64 42 c-83 53 -233 126 -328 157 -102 34
-290 42 -366 15z m386 -97 c198 -63 456 -223 571 -355 29 -33 54 -58 57 -55 9
8 -69 117 -125 176 -65 68 -68 65 108 81 97 9 142 9 191 0 175 -33 327 -176
357 -338 41 -216 -186 -344 -410 -230 -39 20 -74 35 -76 32 -2 -2 14 -19 36
-36 l40 -33 -17 -26 c-24 -35 -72 -145 -72 -165 0 -9 -12 -18 -27 -22 -85 -20
-202 -59 -310 -103 -129 -53 -238 -78 -363 -83 l-75 -3 -6 60 c-7 77 -21 119
-75 229 -24 49 -44 91 -44 95 0 3 46 6 103 6 119 1 202 25 279 81 42 32 88 82
88 98 0 3 -29 -10 -63 -29 -247 -136 -506 -120 -660 38 -28 29 -62 76 -76 107
-22 47 -26 69 -26 150 0 82 4 103 27 153 44 93 138 170 243 198 61 17 235 3
325 -26z m730 -1112 c0 -3 -8 -15 -17 -25 -10 -12 -18 -42 -21 -79 -4 -55 -7
-63 -36 -80 -27 -16 -51 -19 -184 -19 -165 0 -381 -20 -526 -49 -50 -10 -92
-18 -93 -17 -1 1 -5 31 -9 67 l-6 66 118 -4 c145 -6 284 20 524 96 140 45 250
64 250 44z m80 -299 c74 -8 203 -26 285 -39 182 -28 402 -48 501 -44 40 2 76
0 80 -4 4 -4 -8 -24 -28 -45 -38 -40 -60 -80 -128 -236 -102 -233 -236 -387
-478 -549 -185 -124 -357 -151 -567 -91 -61 17 -104 67 -137 156 -11 32 -23
58 -26 58 -12 0 10 -159 28 -208 11 -29 20 -65 20 -81 0 -45 -20 -54 -103 -49
-111 7 -189 48 -292 153 -74 74 -84 89 -91 131 -16 107 14 245 77 351 52 88
189 220 283 273 98 55 267 111 404 135 150 26 111 38 -148 43 -167 3 -241 0
-330 -13 -324 -47 -591 -147 -877 -329 -136 -86 -230 -165 -315 -262 -274
-316 -400 -685 -401 -1171 -1 -173 -9 -220 -21 -120 -21 179 11 535 65 722 26
89 84 245 109 295 10 20 16 40 13 44 -4 3 -35 6 -70 6 -37 0 -62 4 -58 9 6 11
84 37 135 45 41 7 71 43 48 57 -7 5 -61 9 -120 9 -63 0 -108 4 -108 10 0 16
98 38 198 45 69 5 95 11 99 22 3 8 0 19 -7 23 -19 12 -157 29 -260 34 -86 3
-115 19 -63 33 43 12 282 8 329 -5 46 -13 74 -8 74 14 0 18 -29 29 -145 59
-120 30 -235 42 -245 24 -7 -10 -11 -10 -24 0 -10 8 -45 12 -108 10 -51 -1
-91 2 -90 7 7 16 114 34 224 38 115 3 224 -10 370 -46 l87 -21 53 45 c459 388
1039 541 1758 462z m-283 -1609 c18 -39 40 -102 48 -140 22 -106 18 -294 -6
-279 -5 3 -9 22 -9 42 0 40 -24 183 -40 241 -19 70 -59 190 -70 211 -6 11 -8
26 -4 32 10 16 41 -24 81 -107z m-118 10 c13 -33 26 -87 28 -120 5 -63 -17
-190 -32 -190 -5 0 -8 25 -6 57 3 66 -16 206 -35 262 -18 50 -18 58 3 54 11
-2 27 -26 42 -63z m-109 -23 c18 -67 4 -179 -25 -189 -8 -2 -13 180 -6 230 2
19 21 -6 31 -41z m-106 -8 c12 -31 5 -90 -14 -121 -11 -18 -22 -33 -26 -33 -5
0 2 87 12 143 6 30 19 35 28 11z"/>
<path d="M5490 6095 c0 -16 9 -19 34 -9 25 9 19 24 -9 24 -16 0 -25 -6 -25
-15z"/>
<path d="M5103 6075 c-76 -33 -93 -129 -34 -188 25 -26 40 -31 89 -35 84 -6
141 27 156 91 8 36 0 34 -19 -3 -32 -62 -120 -88 -185 -55 -36 19 -50 43 -50
89 0 53 34 85 105 101 l60 13 -45 1 c-25 0 -60 -6 -77 -14z"/>
<path d="M5207 6000 c-7 -25 -52 -27 -66 -2 -9 15 -12 15 -21 2 -29 -44 1 -90
58 -90 49 0 82 24 82 59 0 46 -42 71 -53 31z"/>
<path d="M5320 5644 c-47 -24 -121 -55 -165 -70 -177 -59 -265 -106 -265 -144
0 -29 75 -87 131 -100 28 -7 70 -9 101 -5 65 8 213 78 229 107 12 23 16 25
-86 -38 -33 -20 -126 -44 -172 -44 -76 0 -143 39 -143 85 0 29 29 48 122 81
187 66 302 119 334 155 24 27 11 23 -86 -27z"/>
<path d="M4527 7759 c6 -8 36 -27 65 -43 l55 -29 93 26 c51 15 95 29 97 31 5
5 -81 14 -212 22 -93 6 -108 5 -98 -7z"/>
<path d="M5380 7631 c0 -5 4 -11 9 -13 30 -11 111 -92 146 -148 98 -153 119
-311 60 -462 -5 -13 14 -27 96 -69 120 -61 313 -188 425 -279 105 -86 305
-286 383 -385 215 -271 377 -589 468 -917 21 -76 43 -138 49 -138 13 0 173 95
192 114 11 10 11 19 3 34 -6 11 -11 47 -11 80 0 76 28 116 139 203 45 34 81
63 81 64 0 2 -11 31 -24 66 -21 57 -39 97 -103 238 -73 162 -251 439 -397 621
-79 97 -320 338 -416 416 -313 253 -636 432 -1000 555 -94 32 -100 33 -100 20z"/>
<path d="M3475 7594 c-225 -87 -359 -150 -530 -249 -464 -268 -860 -669 -1132
-1145 -378 -662 -495 -1453 -327 -2208 30 -136 118 -409 172 -532 l37 -84 50
-14 c28 -8 65 -25 83 -39 64 -48 110 -188 99 -298 -5 -51 -3 -59 30 -107 28
-41 103 -143 130 -177 2 -3 17 3 34 13 59 35 178 15 266 -45 51 -36 78 -97 71
-164 l-5 -45 46 1 c78 2 130 -36 144 -107 3 -17 -1 -62 -8 -99 -18 -85 -25
-76 143 -189 158 -105 200 -129 387 -221 292 -142 592 -232 935 -280 159 -23
508 -31 667 -16 626 59 1180 280 1671 667 125 99 388 362 484 484 350 446 560
927 644 1472 14 96 14 108 -2 178 -10 41 -22 80 -26 86 -5 7 -26 10 -51 7 -23
-3 -62 0 -87 6 -24 5 -46 8 -48 6 -12 -12 -44 -173 -57 -285 -13 -119 -17
-134 -40 -156 -44 -41 -119 -53 -201 -33 -63 16 -73 4 -128 -159 -93 -270
-279 -602 -456 -812 -159 -189 -370 -376 -569 -505 l-103 -67 6 -39 c20 -127
26 -247 17 -377 -5 -78 -12 -146 -16 -151 -12 -20 -77 -11 -141 20 -53 25
-185 115 -204 139 -19 24 -194 170 -203 170 -7 0 -33 -7 -59 -14 -148 -45
-393 -83 -603 -92 -299 -14 -717 55 -977 161 -34 14 -67 25 -74 25 -7 0 -22
-20 -32 -43 -71 -160 -316 -120 -410 68 -21 41 -52 173 -52 222 0 22 -10 35
-45 59 -24 17 -98 76 -163 132 -469 400 -773 965 -857 1597 -19 143 -22 477
-6 610 49 388 156 702 349 1025 176 294 376 514 677 746 86 66 241 159 399
239 79 40 79 40 97 98 9 32 25 67 34 77 18 20 18 22 -10 145 -19 78 -14 189
10 259 8 23 15 44 15 49 0 11 -31 7 -75 -9z m-164 -295 c20 -10 20 -11 3 -30
-10 -11 -30 -19 -49 -19 -33 0 -75 -23 -63 -35 4 -4 30 -2 59 4 43 10 56 9 75
-4 28 -18 31 -51 8 -83 -24 -35 -110 -74 -155 -70 -36 3 -39 1 -61 -41 -41
-76 -134 -107 -183 -61 -45 42 -45 115 -2 162 73 79 166 75 197 -8 9 -23 11
-24 32 -10 13 8 35 14 50 14 32 -1 84 30 72 42 -5 4 -38 3 -73 -3 -58 -10 -64
-10 -77 8 -8 10 -14 26 -14 36 0 27 40 70 84 90 47 21 69 23 97 8z m-418 -273
c8 -21 -25 -46 -60 -46 -46 0 -61 -66 -25 -111 24 -29 48 -20 67 25 15 35 42
53 57 38 14 -14 -12 -75 -45 -104 -70 -62 -157 -18 -157 81 0 53 17 84 64 112
37 22 92 25 99 5z m-199 -132 c26 -10 0 -43 -50 -64 -25 -11 -44 -26 -44 -35
0 -19 -2 -20 63 10 60 28 79 26 96 -11 28 -62 -79 -175 -148 -157 -12 3 -21 8
-21 12 1 16 29 41 47 41 21 0 73 42 73 60 0 15 -16 12 -60 -10 -51 -26 -86
-26 -100 1 -21 39 13 103 74 140 33 20 45 22 70 13z m-216 -97 c4 -18 -23 -57
-39 -57 -15 0 -20 39 -7 60 15 24 41 22 46 -3z m82 -127 l51 -84 -24 -23 -23
-23 -39 65 c-22 36 -43 65 -47 65 -4 0 -15 -11 -24 -25 -20 -31 -13 -63 28
-122 29 -43 29 -45 12 -64 -9 -10 -20 -19 -24 -19 -3 0 -32 36 -64 80 -50 71
-55 82 -44 100 7 11 21 20 30 20 10 0 18 7 18 15 0 18 79 107 91 103 4 -2 31
-41 59 -88z m-183 -157 c15 -20 41 -50 57 -67 l29 -30 -32 -26 c-17 -15 -31
-33 -31 -42 0 -23 -46 -68 -71 -68 -29 0 -59 27 -59 53 0 10 14 46 31 78 18
33 29 62 26 65 -10 11 -37 -4 -43 -23 -10 -34 -37 -83 -45 -83 -5 0 -12 12
-15 26 -11 44 39 130 86 147 30 11 40 6 67 -30z m-157 -179 c47 -52 86 -101
88 -107 1 -7 -4 -21 -12 -32 -17 -23 -9 -29 -101 75 -57 65 -53 39 12 -66 40
-64 43 -75 33 -96 -7 -12 -14 -25 -16 -26 -1 -2 -39 15 -84 38 -81 43 -112 49
-67 14 13 -11 45 -38 71 -61 43 -38 46 -44 35 -65 -6 -13 -13 -25 -15 -27 -4
-5 -59 43 -147 126 l-67 65 22 39 c12 21 26 39 32 39 5 0 38 -16 74 -35 35
-20 67 -34 70 -31 2 3 -15 38 -38 78 -24 40 -43 77 -43 84 0 19 44 84 57 84 6
0 50 -43 96 -96z m-314 -454 c9 -27 17 -35 35 -35 17 0 24 6 24 20 0 11 5 29
12 40 11 20 12 19 37 -4 20 -19 29 -22 38 -13 18 18 35 14 42 -10 4 -16 0 -28
-14 -40 -11 -9 -20 -27 -20 -40 0 -134 -142 -207 -180 -92 -11 32 -14 35 -42
29 -62 -14 -87 49 -48 125 23 45 45 61 80 57 19 -1 28 -11 36 -37z m-76 -308
c0 -9 -11 -30 -25 -46 -25 -29 -34 -66 -16 -66 5 0 19 16 31 36 12 19 33 42
46 51 22 14 26 14 48 0 54 -36 36 -156 -31 -205 -21 -15 -25 -23 -16 -33 39
-48 12 -169 -43 -189 -40 -16 -91 -2 -119 32 -20 24 -25 40 -25 89 0 50 4 63
28 91 24 25 36 31 67 30 20 -1 43 -6 50 -12 14 -11 25 -3 25 18 0 8 11 27 25
44 23 28 34 78 17 78 -4 0 -25 -22 -45 -50 -26 -35 -44 -50 -61 -50 -49 0 -67
60 -39 135 24 64 83 98 83 47z m-103 -453 l122 -52 -6 -76 c-7 -94 -27 -121
-86 -121 -50 0 -92 25 -112 66 -19 40 -19 61 0 98 21 40 20 42 -25 60 -31 12
-40 21 -40 39 0 23 7 37 19 37 3 0 61 -23 128 -51z m-6 -260 c11 -5 39 -13 62
-18 39 -6 42 -9 39 -36 -1 -17 -3 -37 -3 -45 -1 -8 2 -29 6 -46 5 -25 2 -36
-20 -62 l-26 -32 25 -33 c35 -45 35 -105 2 -144 -21 -24 -31 -28 -72 -27 -41
1 -52 6 -80 37 -43 47 -53 99 -28 147 12 21 28 36 42 38 18 3 22 -1 22 -26 0
-16 -7 -35 -15 -42 -38 -31 12 -94 69 -88 25 2 32 8 34 29 2 14 -4 31 -12 39
-9 7 -16 28 -16 47 0 24 -7 40 -22 53 -18 14 -23 31 -26 84 -4 56 -7 66 -23
66 -14 0 -19 -7 -19 -29 0 -17 5 -33 10 -36 16 -10 12 -65 -5 -65 -25 0 -49
49 -49 100 0 83 46 121 105 89z m-39 -461 c1 -7 2 -39 2 -70 1 -68 18 -77 27
-15 11 69 25 89 61 85 19 -2 38 -13 50 -28 24 -33 34 -120 19 -158 -11 -26 -9
-34 13 -66 48 -71 43 -135 -14 -174 -77 -52 -170 16 -170 123 0 48 13 70 49
85 47 19 57 9 70 -74 8 -50 17 -76 26 -76 13 0 25 21 25 44 0 7 -9 23 -20 36
-21 24 -23 40 -24 149 -1 73 -21 96 -31 34 -13 -86 -60 -119 -104 -72 -34 37
-40 139 -9 176 13 17 27 17 30 1z m104 -477 c16 -16 38 -57 50 -93 l21 -63 57
-3 c50 -3 57 -6 62 -28 4 -14 5 -27 3 -29 -7 -6 -72 -14 -176 -21 l-102 -7
-11 28 c-30 79 -49 177 -39 203 13 34 26 42 70 42 26 0 43 -8 65 -29z m4299
-1491 c11 -21 25 -31 50 -36 40 -7 44 -23 15 -49 -14 -13 -20 -31 -20 -61 l0
-44 -35 17 c-33 16 -37 16 -70 0 l-35 -17 0 43 c0 26 -8 51 -20 67 -26 33 -25
40 5 40 24 0 75 42 75 61 0 20 20 7 35 -21z m-2340 -400 c11 -21 25 -31 50
-36 40 -7 44 -23 15 -49 -14 -13 -20 -31 -20 -61 l0 -44 -35 17 c-30 14 -38
15 -62 3 -16 -8 -31 -16 -35 -18 -5 -2 -8 16 -8 40 0 27 -8 52 -20 68 -26 34
-25 37 15 44 24 5 40 16 52 36 22 37 29 37 48 0z m1418 -25 c14 -28 22 -35 46
-35 41 0 48 -17 20 -46 -18 -19 -23 -34 -20 -64 3 -45 1 -46 -39 -25 -23 12
-34 13 -57 3 -43 -18 -48 -16 -45 23 2 27 -3 44 -22 66 -29 34 -25 43 16 43
22 0 33 8 49 35 12 19 24 35 28 35 4 0 15 -16 24 -35z m-951 -39 c13 -26 25
-35 52 -40 42 -8 43 -12 14 -43 -16 -17 -21 -34 -19 -64 2 -38 1 -40 -21 -33
-29 11 -78 10 -100 0 -16 -7 -18 -3 -18 30 0 28 -8 48 -26 69 l-26 30 42 9
c33 7 45 16 58 43 9 18 19 33 22 33 3 0 14 -15 22 -34z m463 -25 c10 -20 25
-32 47 -36 50 -11 52 -15 23 -45 -23 -24 -26 -34 -21 -63 8 -43 0 -50 -37 -31
-27 15 -33 15 -63 0 -38 -17 -47 -10 -42 34 2 18 -6 40 -20 59 -24 33 -22 35
25 45 22 5 35 16 43 37 16 37 26 37 45 0z"/>
<path d="M3010 7117 c-20 -10 -26 -21 -28 -57 -3 -45 13 -70 45 -70 44 0 71
91 37 124 -19 19 -22 19 -54 3z"/>
<path d="M2333 6395 c-13 -27 -14 -38 -5 -47 22 -22 46 16 43 65 -2 28 -20 20
-38 -18z"/>
<path d="M1827 5844 c-4 -4 -7 -16 -7 -26 0 -14 6 -19 23 -16 14 2 22 10 22
23 0 20 -25 32 -38 19z"/>
<path d="M1947 5777 c-31 -13 -34 -43 -4 -61 25 -16 51 4 55 43 4 34 -4 36
-51 18z"/>
<path d="M1730 5281 c-15 -29 -12 -45 11 -75 35 -45 99 -31 99 21 0 55 -87 97
-110 54z"/>
<path d="M1692 5028 c-20 -20 -13 -55 14 -77 33 -26 70 -27 84 -2 15 29 13 39
-15 66 -26 27 -64 32 -83 13z"/>
<path d="M1738 4775 c-3 -3 -2 -20 1 -38 8 -37 34 -43 39 -9 5 32 -23 64 -40
47z"/>
<path d="M1720 4099 c-9 -16 -8 -26 5 -45 25 -39 45 -31 34 14 -5 20 -9 40 -9
45 0 15 -20 6 -30 -14z"/>
<path d="M1706 3873 c-3 -10 0 -40 7 -68 12 -44 17 -50 41 -53 44 -5 52 10 32
63 -16 40 -47 75 -68 75 -3 0 -9 -8 -12 -17z"/>
<path d="M3365 6897 c-528 -279 -941 -729 -1158 -1262 -129 -317 -189 -620
-189 -955 0 -660 244 -1261 708 -1739 119 -123 144 -138 144 -87 0 16 -15 36
-46 61 -73 61 -248 269 -342 410 -655 977 -514 2294 332 3108 168 162 424 344
603 428 63 30 72 37 73 62 0 15 -5 27 -12 27 -7 0 -58 -24 -113 -53z"/>
<path d="M5550 6919 c-7 -11 -10 -22 -8 -23 2 -2 44 -24 94 -50 116 -59 307
-184 409 -267 425 -345 722 -817 845 -1346 9 -42 16 -53 31 -53 29 0 33 24 15
98 -93 377 -293 760 -544 1041 -181 203 -364 359 -567 484 -83 51 -246 137
-259 137 -3 0 -10 -9 -16 -21z"/>
<path d="M7580 5749 c-105 -69 -158 -112 -153 -125 2 -7 -12 -28 -34 -46 -94
-81 -103 -93 -103 -141 0 -25 -5 -47 -11 -49 -7 -2 -7 -12 2 -30 15 -35 6 -47
-83 -104 -130 -84 -261 -141 -408 -180 -192 -50 -529 -42 -908 22 -221 38
-260 37 -292 -3 -43 -55 -8 -110 90 -141 48 -15 103 -17 420 -17 410 0 482 8
685 72 127 40 358 150 460 218 39 26 75 49 81 52 6 2 28 -7 49 -21 53 -36 108
-35 166 4 77 52 309 284 296 296 -5 6 -86 -49 -250 -168 -47 -34 -61 -40 -75
-32 -37 24 -24 44 114 177 77 75 133 136 127 140 -6 4 -55 -25 -109 -63 -55
-38 -122 -86 -151 -106 -59 -41 -87 -42 -91 -2 -3 28 3 35 144 169 95 91 110
109 93 108 -8 0 -34 -14 -59 -30z m-1826 -682 c10 -7 17 -22 15 -33 -6 -26
-73 -32 -100 -8 -42 38 36 77 85 41z"/>
<path d="M6291 5404 c-12 -15 -27 -48 -35 -73 -23 -78 -49 -211 -43 -217 3 -4
50 -7 104 -8 l98 -1 28 80 c32 94 30 135 -10 177 -27 29 -92 68 -112 68 -5 0
-19 -12 -30 -26z"/>
<path d="M7768 5288 c-20 -15 -58 -109 -58 -142 0 -50 85 -115 151 -116 21 0
30 9 53 59 31 64 30 83 -10 131 -51 59 -109 89 -136 68z"/>
<path d="M7299 5192 c-34 -27 -213 -129 -241 -138 -19 -6 -7 -11 59 -29 45
-12 89 -27 98 -35 14 -11 20 -9 48 18 38 37 94 62 139 62 18 0 65 -11 103 -24
39 -14 71 -23 73 -21 2 2 -2 40 -9 85 -11 77 -13 81 -33 74 -54 -18 -123 -16
-164 5 -50 25 -44 25 -73 3z"/>
<path d="M8033 5085 c-3 -9 -3 -18 0 -21 9 -9 27 6 27 22 0 19 -19 18 -27 -1z"/>
<path d="M8164 5011 c-84 -38 -141 -136 -163 -281 -16 -99 -35 -163 -66 -216
-46 -79 -95 -80 -116 -2 -12 48 -1 151 32 280 10 42 19 87 19 100 0 29 -29 58
-87 87 -51 26 -89 27 -101 4 -18 -35 -37 -220 -36 -353 0 -169 18 -236 75
-293 39 -39 40 -39 104 -35 59 4 68 7 104 42 22 22 49 61 61 88 19 44 40 57
40 24 0 -8 17 -31 38 -53 61 -63 162 -81 231 -42 32 18 48 36 96 104 13 19 14
18 29 -17 26 -62 77 -105 141 -118 68 -14 109 -3 152 43 36 37 89 139 110 210
17 56 6 80 -35 75 -19 -2 -29 -15 -47 -60 -54 -133 -121 -174 -160 -98 -27 51
-15 154 36 308 31 93 14 118 -128 198 -39 22 -58 10 -67 -41 l-7 -34 -39 39
c-60 60 -140 75 -216 41z m206 -153 c37 -60 20 -220 -35 -327 -32 -63 -50 -81
-84 -81 -67 0 -87 95 -52 245 24 103 35 129 70 168 35 39 75 37 101 -5z"/>
<path d="M7359 4945 c-14 -7 -38 -32 -54 -54 -32 -47 -95 -200 -115 -278 -8
-29 -18 -53 -22 -53 -9 0 -2 100 13 189 17 105 14 125 -28 148 -45 25 -103 36
-122 24 -15 -10 -29 -165 -30 -328 -2 -222 -84 -407 -206 -464 -58 -27 -99
-25 -124 7 -36 46 -37 66 -5 89 130 92 198 206 199 335 0 136 -46 210 -132
210 -139 0 -240 -156 -263 -404 -18 -192 -66 -327 -118 -334 -18 -3 -26 5 -39
35 -38 88 -24 537 22 735 7 31 10 59 7 62 -3 3 -44 6 -92 6 l-86 0 -17 -172
c-27 -285 -30 -339 -18 -454 10 -92 10 -120 -4 -184 -21 -98 -57 -176 -85
-185 -29 -9 -41 4 -51 61 -10 50 -8 75 17 264 21 154 17 191 -19 208 -15 7
-50 14 -77 14 -40 1 -55 -3 -76 -23 -49 -46 -113 -208 -150 -379 -10 -47 -20
-76 -24 -68 -4 7 -1 80 7 162 13 143 13 150 -5 168 -21 21 -109 34 -131 19
-17 -11 -30 -152 -31 -346 -1 -252 -75 -474 -137 -412 -24 24 -23 176 1 349
10 70 16 138 12 151 -7 29 -49 47 -106 47 -46 0 -58 -14 -66 -74 -7 -49 -14
-55 -34 -31 -16 19 -82 20 -118 1 -104 -55 -182 -227 -202 -448 -21 -227 -64
-360 -145 -447 -77 -83 -145 -95 -178 -31 -16 30 -18 53 -14 165 8 203 56 355
113 355 17 0 27 -8 35 -26 9 -26 10 -26 30 -8 39 35 10 140 -46 166 -55 25
-156 -36 -208 -125 -41 -71 -76 -182 -87 -279 -24 -214 -32 -264 -52 -324 -22
-67 -57 -110 -82 -101 -30 12 -38 82 -26 211 6 67 16 143 21 170 5 27 9 71 9
98 0 47 -2 50 -35 64 -50 21 -112 19 -124 -5 -30 -56 -42 -471 -17 -588 21
-97 57 -143 112 -143 79 0 136 61 180 192 l27 81 18 -24 c10 -13 19 -27 19
-30 0 -14 70 -39 109 -39 73 0 164 49 233 125 27 29 108 184 108 206 0 6 5 20
11 31 10 19 12 19 29 -10 26 -42 73 -65 113 -57 81 17 140 86 184 214 l21 64
17 -34 c29 -56 45 -69 87 -69 45 0 73 13 106 47 29 31 66 105 82 163 l13 45 7
-30 c5 -16 11 -42 14 -57 8 -35 55 -52 106 -38 l37 10 6 105 c8 131 39 309 77
440 27 93 56 175 63 175 2 0 3 -66 3 -147 0 -157 13 -241 47 -308 28 -55 45
-66 94 -62 54 6 106 44 134 100 27 51 69 174 69 199 0 26 17 22 24 -6 9 -37
77 -106 111 -112 61 -10 114 44 157 159 11 31 23 57 27 57 3 0 14 -14 23 -30
27 -47 74 -70 143 -70 145 1 267 89 336 242 14 32 29 28 29 -7 0 -63 52 -102
125 -93 30 3 30 4 37 78 15 170 76 399 139 520 l28 55 1 -83 c0 -95 -2 -93 97
-95 l67 -2 7 35 c5 19 17 76 29 127 28 125 15 154 -84 187 -59 19 -73 19 -107
1z m-569 -345 c12 -80 -24 -182 -88 -249 -55 -58 -66 -54 -58 17 8 72 34 179
52 214 35 68 85 78 94 18z m-1623 -760 c7 -14 13 -61 13 -107 0 -163 -38 -335
-86 -393 -55 -65 -79 -27 -78 125 1 167 37 336 82 388 21 24 54 18 69 -13z"/>
<path d="M3760 4898 c-188 -83 -343 -182 -459 -293 -76 -73 -141 -152 -141
-172 0 -4 33 24 73 63 83 81 152 139 252 210 80 57 270 174 283 174 5 0 15 7
22 15 14 17 5 18 -30 3z"/>
<path d="M3743 4806 c-143 -77 -291 -212 -362 -330 -41 -69 -36 -83 9 -24 75
98 222 229 415 372 35 26 2 17 -62 -18z"/>
<path d="M3800 4758 c-90 -60 -192 -166 -240 -250 -22 -39 -39 -75 -38 -80 2
-5 31 26 65 69 62 79 134 156 236 251 31 28 52 52 48 52 -4 0 -36 -19 -71 -42z"/>
<path d="M3868 4711 c-58 -52 -119 -131 -157 -207 -52 -103 -35 -102 35 2 36
55 92 132 125 172 66 80 65 92 -3 33z"/>
<path d="M3947 4678 c-72 -89 -113 -175 -105 -215 3 -12 11 -3 25 29 12 25 41
79 65 120 68 116 73 138 15 66z"/>
<path d="M8010 4264 c-25 -30 -97 -64 -150 -71 l-54 -8 -27 -135 c-36 -185
-71 -314 -125 -471 -239 -686 -691 -1269 -1303 -1680 -170 -113 -446 -258
-623 -327 -730 -283 -1531 -306 -2264 -64 -274 90 -533 213 -744 351 -47 31
-88 57 -91 59 -4 2 -4 -17 -2 -42 10 -84 -40 -223 -96 -267 -41 -32 -19 -30
57 6 40 19 77 35 82 35 6 0 10 -55 10 -138 0 -76 3 -141 6 -145 4 -3 18 2 33
12 85 59 285 171 291 164 4 -4 15 -73 24 -153 21 -171 26 -200 36 -200 4 0 57
38 118 85 91 70 112 82 116 67 6 -18 56 -250 56 -258 0 -18 40 13 152 117 72
66 134 117 138 112 3 -4 30 -80 60 -168 29 -88 56 -163 60 -168 3 -4 31 21 61
55 29 35 68 79 86 98 18 19 33 38 33 43 0 4 6 7 14 7 8 0 20 -16 26 -36 25
-74 101 -227 109 -218 5 5 54 71 109 147 56 75 105 137 109 137 5 0 48 -70 96
-155 49 -85 92 -155 95 -155 4 0 16 17 28 38 79 139 117 202 125 202 4 0 43
-52 86 -114 48 -70 82 -111 87 -106 5 5 42 78 81 162 39 84 76 153 82 153 5 0
62 -60 127 -132 65 -73 119 -133 121 -133 2 0 22 57 45 127 24 71 47 132 51
138 6 6 47 -29 109 -90 62 -61 103 -96 109 -90 4 6 26 82 47 170 21 88 41 164
45 169 8 9 40 -13 187 -127 55 -42 105 -77 110 -77 5 0 15 42 21 93 6 50 14
114 18 140 4 35 9 47 20 43 7 -3 63 -37 124 -76 62 -39 113 -69 115 -68 1 2 6
83 10 181 4 98 11 180 15 183 4 2 80 -31 168 -76 88 -44 162 -76 164 -72 2 4
0 67 -4 141 -5 74 -7 136 -5 139 3 2 64 -18 136 -46 72 -27 132 -47 134 -43 2
3 -9 85 -23 181 -18 114 -23 176 -16 177 5 2 84 -17 175 -41 91 -24 168 -42
171 -40 4 2 -8 61 -27 132 -19 70 -33 132 -32 138 2 7 43 3 123 -12 141 -27
155 -28 155 -11 0 6 -25 81 -55 164 -30 84 -55 158 -55 164 0 12 154 8 303 -8
41 -4 57 -2 57 6 0 7 -26 66 -59 131 -32 66 -56 122 -53 125 3 3 65 5 138 5
75 0 135 4 139 10 3 5 -35 77 -85 160 -49 83 -90 155 -90 159 0 4 66 15 148
25 191 23 212 26 212 37 0 9 -72 106 -137 183 -18 22 -30 43 -26 47 5 4 68 19
141 35 86 18 132 31 130 39 -2 7 -42 54 -90 106 -127 138 -148 163 -140 170 4
3 79 30 167 59 88 30 164 57 168 61 5 3 -39 46 -97 95 -57 49 -105 94 -105
100 -1 6 41 28 92 49 50 21 94 40 97 42 9 8 -24 21 -65 28 -23 3 -51 12 -61
20 -25 19 -39 19 -54 -1z"/>
<path d="M7616 4158 c-103 -585 -332 -1079 -702 -1519 -175 -207 -438 -445
-624 -565 -25 -16 -47 -31 -50 -34 -22 -24 -255 -154 -390 -219 -647 -306
-1411 -381 -2111 -206 -364 91 -751 267 -1034 470 -44 32 -85 59 -91 62 -10 4
-44 -68 -44 -93 0 -20 35 -50 135 -116 542 -355 1153 -537 1800 -538 623 -1
1230 176 1758 511 145 92 319 224 422 321 28 25 63 56 79 69 15 12 80 79 143
148 372 408 617 853 767 1396 26 94 66 296 66 330 0 14 -16 29 -50 48 -28 15
-52 27 -54 27 -2 0 -11 -42 -20 -92z"/>
<path d="M3654 4000 c-76 -15 -200 -70 -329 -145 -255 -149 -413 -292 -486
-440 -39 -78 -43 -95 -46 -173 -4 -100 8 -137 46 -137 20 0 39 21 97 107 188
280 367 448 586 553 199 96 319 27 304 -175 -14 -193 -128 -366 -329 -499
-130 -86 -132 -85 -97 47 15 59 51 171 80 250 46 127 50 145 41 175 -13 39
-44 71 -84 86 -25 10 -31 8 -53 -16 -38 -41 -114 -298 -165 -563 -12 -63 -27
-119 -33 -123 -6 -4 -33 -5 -59 -2 -39 5 -53 2 -77 -15 -30 -21 -80 -96 -80
-119 0 -24 71 -44 135 -38 l60 6 0 -147 c0 -158 8 -199 52 -265 36 -53 83 -79
135 -75 34 2 45 8 57 30 13 23 13 34 3 70 -53 181 -63 237 -65 342 l-2 110 80
44 c202 111 321 215 417 362 103 160 148 298 148 458 0 236 -115 336 -336 292z"/>
<path d="M6842 3912 c-6 -5 -30 -55 -53 -112 -180 -464 -517 -885 -918 -1146
-77 -50 -90 -63 -91 -86 0 -16 3 -28 8 -28 14 0 123 70 209 135 404 305 688
686 864 1158 16 43 29 80 29 83 0 7 -34 4 -48 -4z"/>
<path d="M4121 3783 c-37 -71 -54 -220 -27 -242 22 -18 77 -31 103 -25 28 7
40 27 63 110 17 59 17 65 2 96 -32 62 -120 100 -141 61z"/>
<path d="M3649 3673 c-10 -26 -12 -27 -23 -10 -25 34 -35 18 -16 -25 11 -24
20 -51 20 -60 0 -23 15 -31 37 -19 10 5 26 12 36 15 12 4 17 16 17 40 0 77
-49 117 -71 59z"/>
<path d="M5796 3610 c-3 -18 -6 -49 -6 -70 0 -102 -44 -164 -127 -176 -26 -3
-56 -8 -67 -10 -10 -2 -43 -27 -72 -56 -67 -66 -154 -119 -261 -160 -70 -27
-83 -35 -83 -54 0 -13 4 -25 8 -28 12 -7 130 36 221 83 46 23 86 39 90 36 3
-4 -15 -26 -42 -50 -48 -44 -125 -76 -214 -90 l-43 -7 0 -72 c0 -77 -19 -159
-45 -191 -15 -19 -16 -17 -8 25 16 92 8 172 -23 229 l-28 53 -51 -8 c-27 -4
-68 -7 -89 -6 -27 1 -43 -4 -52 -16 -24 -31 -16 -48 34 -71 124 -58 175 -155
142 -270 -18 -63 -58 -74 -150 -42 -83 29 -339 98 -345 93 -2 -3 0 -13 5 -23
17 -32 -8 -31 -31 1 -37 50 -72 34 -44 -19 36 -70 6 -60 -47 16 -16 24 -35 42
-41 40 -18 -6 -10 -45 23 -115 35 -74 20 -78 -28 -6 -38 55 -49 63 -58 39 -4
-9 13 -56 39 -110 26 -52 42 -95 37 -95 -8 0 -81 111 -93 143 -3 9 -13 17 -22
17 -8 0 -15 -8 -15 -17 0 -36 157 -283 179 -283 4 0 12 26 19 58 16 75 49 130
92 154 31 18 48 19 163 14 142 -7 148 -4 95 51 -35 36 -26 42 33 21 85 -28
174 -102 412 -341 243 -245 346 -329 418 -344 43 -8 49 5 49 122 0 201 -43
399 -127 585 -54 118 -57 130 -58 205 0 73 3 85 36 145 48 88 102 216 139 331
34 104 62 266 51 288 -6 9 -10 3 -15 -19z"/>
<path d="M4630 3322 c0 -24 48 -48 64 -32 8 8 5 17 -13 31 -29 24 -51 24 -51
1z"/>
<path d="M1633 3239 c-74 -29 -156 -120 -220 -245 -49 -96 -123 -297 -123
-336 0 -28 -42 -39 -170 -43 -112 -4 -116 -5 -138 -32 -19 -23 -22 -38 -20
-88 3 -57 5 -61 38 -78 29 -15 54 -18 143 -15 l107 3 0 -81 c0 -80 21 -232 40
-288 6 -16 8 -31 5 -34 -3 -3 -35 6 -72 21 -97 37 -140 47 -204 47 -46 0 -59
-4 -79 -25 -19 -20 -22 -32 -18 -73 7 -73 47 -133 124 -188 82 -59 186 -96
286 -102 103 -6 145 3 179 39 l28 30 93 -29 c260 -83 404 -112 557 -112 147 0
197 15 261 79 69 70 89 164 51 246 -35 79 -78 83 -112 12 -26 -52 -87 -100
-157 -122 -85 -28 -277 -16 -467 28 -232 54 -227 52 -242 117 -32 134 -63 349
-63 430 l0 88 78 58 c109 82 166 146 212 239 48 99 62 156 63 265 2 174 -58
237 -180 189z m97 -134 c26 -67 -47 -233 -145 -329 -53 -53 -60 -57 -63 -37
-6 40 79 266 132 350 31 48 61 54 76 16z m-468 -1237 c43 -18 78 -38 78 -44 0
-18 -63 -44 -104 -44 -41 0 -101 22 -128 47 -18 16 -24 63 -10 77 13 14 84 -2
164 -36z"/>
<path d="M4620 3192 c1 -35 2 -36 15 -18 19 25 19 42 0 50 -12 4 -15 -3 -15
-32z"/>
<path d="M5217 3190 c-30 -46 -18 -52 34 -17 19 13 43 26 54 31 16 6 17 9 5
16 -34 22 -66 11 -93 -30z"/>
<path d="M3780 2996 c-10 -13 0 -21 59 -50 39 -20 73 -36 76 -36 3 0 5 9 5 19
0 13 -18 30 -54 50 -61 35 -69 37 -86 17z"/>
<path d="M1882 2814 c-23 -72 -17 -112 16 -99 9 3 35 9 59 12 54 7 54 19 3 84
-22 28 -40 55 -40 60 0 5 -4 9 -8 9 -4 0 -18 -30 -30 -66z"/>
<path d="M2165 2635 c-3 -14 -7 -36 -10 -50 l-6 -26 -29 29 c-60 60 -169 50
-243 -23 -89 -86 -133 -226 -125 -399 3 -75 9 -103 31 -149 39 -79 74 -101
165 -106 l73 -3 49 50 c26 27 54 66 61 86 13 37 29 48 29 21 0 -24 42 -82 74
-100 38 -23 116 -14 156 17 84 65 185 418 120 418 -20 0 -39 -33 -53 -99 -28
-121 -79 -201 -120 -185 -42 16 -48 115 -16 280 33 176 34 192 14 214 -20 22
-96 50 -137 50 -21 0 -29 -6 -33 -25z m-75 -145 c40 -22 50 -114 26 -242 -39
-200 -128 -297 -173 -189 -37 87 20 356 88 419 26 25 33 26 59 12z"/>
<path d="M1658 2497 c-37 -32 -53 -57 -70 -105 -25 -70 -19 -86 26 -74 26 7
32 16 53 91 13 46 31 94 40 107 23 36 4 29 -49 -19z"/>
<path d="M3520 2437 c1 -45 13 -56 106 -91 433 -166 931 -205 1389 -110 200
42 223 52 170 76 -20 9 -45 7 -122 -10 -177 -40 -285 -53 -478 -59 -357 -11
-691 49 -997 178 -44 18 -68 24 -68 16z"/>
</g>
</svg>
