<?xml version="1.0" standalone="no"?>
<!DOCTYPE svg PUBLIC "-//W3C//DTD SVG 20010904//EN"
 "http://www.w3.org/TR/2001/REC-SVG-20010904/DTD/svg10.dtd">
<svg version="1.0" xmlns="http://www.w3.org/2000/svg"
 width="512.000000pt" height="512.000000pt" viewBox="0 0 512.000000 512.000000"
 preserveAspectRatio="xMidYMid meet">

<g transform="translate(0.000000,512.000000) scale(0.100000,-0.100000)"
fill="#000000" stroke="none">
<path d="M2509 4341 c-24 -19 -24 -22 -27 -244 -3 -225 -3 -225 21 -253 33
-38 81 -38 114 0 24 28 24 28 21 253 -3 222 -3 225 -27 244 -13 10 -36 19 -51
19 -15 0 -38 -9 -51 -19z"/>
<path d="M1753 4220 c-26 -11 -43 -39 -43 -73 0 -40 140 -410 162 -429 36 -32
98 -15 118 32 11 27 8 36 -132 423 -6 15 -23 34 -39 42 -32 17 -35 17 -66 5z"/>
<path d="M3299 4215 c-15 -8 -31 -27 -37 -42 -141 -388 -143 -396 -132 -424
24 -56 107 -63 134 -11 29 57 146 387 146 413 0 56 -61 92 -111 64z"/>
<path d="M1057 3818 c-24 -19 -36 -59 -25 -87 8 -24 245 -313 276 -338 24 -20
79 -16 102 7 12 12 20 33 20 53 0 26 -22 58 -126 182 -69 83 -136 160 -150
173 -28 24 -71 29 -97 10z"/>
<path d="M3961 3803 c-17 -16 -84 -93 -150 -173 -100 -120 -121 -150 -121
-177 0 -20 8 -41 20 -53 23 -23 78 -27 101 -7 31 25 269 315 278 339 11 29 -8
82 -34 92 -34 12 -65 5 -94 -21z"/>
<path d="M2133 3270 c-17 -7 -72 -109 -215 -395 l-193 -385 -185 0 c-143 0
-190 -3 -205 -14 -11 -8 -105 -186 -210 -395 l-190 -381 -183 0 c-109 0 -191
-4 -203 -10 -26 -14 -429 -820 -429 -858 0 -17 10 -37 23 -50 l23 -22 2395 0
2396 0 21 23 c12 13 22 35 22 50 0 37 -404 843 -429 857 -12 6 -94 10 -203 10
l-183 0 -190 381 c-105 209 -199 387 -210 395 -15 11 -62 14 -205 14 l-185 0
-193 385 c-158 316 -197 387 -218 395 -32 13 -821 12 -851 0z m932 -460 c85
-170 155 -312 155 -315 0 -3 -297 -5 -660 -5 -363 0 -660 2 -660 5 0 3 70 145
155 315 l155 310 350 0 350 0 155 -310z m787 -785 c86 -170 158 -313 158 -317
0 -5 -297 -8 -660 -8 -363 0 -660 2 -660 5 0 8 301 609 312 623 8 9 86 12 351
10 l340 -3 159 -310z m-1577 -5 c85 -170 155 -312 155 -315 0 -3 -297 -5 -660
-5 l-660 0 157 315 158 315 347 0 348 0 155 -310z m545 305 c0 -10 -255 -515
-260 -515 -5 0 -260 505 -260 515 0 3 117 5 260 5 143 0 260 -2 260 -5z
m-1337 -1090 c86 -173 157 -317 157 -320 0 -3 -297 -5 -660 -5 l-660 0 160
320 160 320 343 0 342 0 158 -315z m547 305 c0 -13 -253 -520 -260 -520 -7 0
-260 507 -260 520 0 6 94 10 260 10 166 0 260 -4 260 -10z m1032 -305 c86
-170 157 -313 158 -317 0 -5 -297 -8 -660 -8 -363 0 -660 2 -660 5 0 8 301
609 312 623 8 9 87 12 352 10 l341 -3 157 -310z m548 305 c0 -13 -253 -520
-260 -520 -9 1 -268 518 -262 524 10 11 522 7 522 -4z m1030 -310 l160 -320
-660 0 c-363 0 -660 2 -660 5 0 3 71 147 157 320 l158 315 342 0 343 0 160
-320z"/>
<path d="M545 3205 c-27 -26 -33 -71 -12 -98 19 -26 378 -227 404 -227 36 0
60 16 71 48 20 58 2 76 -203 193 -104 60 -200 109 -212 109 -13 0 -35 -11 -48
-25z"/>
<path d="M4315 3121 c-205 -118 -223 -136 -203 -193 12 -32 35 -48 73 -48 28
0 381 199 403 227 32 43 -7 123 -60 123 -13 0 -109 -49 -213 -109z"/>
<path d="M275 2465 c-44 -43 -22 -116 38 -130 68 -15 376 -65 404 -65 46 0 75
31 71 77 -5 58 -29 68 -255 108 -112 19 -210 35 -218 35 -9 0 -27 -11 -40 -25z"/>
<path d="M4575 2453 c-213 -38 -238 -49 -243 -106 -4 -46 25 -77 71 -77 28 0
336 50 404 65 60 14 82 87 38 130 -30 31 -34 31 -270 -12z"/>
</g>
</svg>
