<?xml version="1.0" standalone="no"?>
<!DOCTYPE svg PUBLIC "-//W3C//DTD SVG 20010904//EN"
 "http://www.w3.org/TR/2001/REC-SVG-20010904/DTD/svg10.dtd">
<svg version="1.0" xmlns="http://www.w3.org/2000/svg"
 width="512.000000pt" height="512.000000pt" viewBox="0 0 512.000000 512.000000"
 preserveAspectRatio="xMidYMid meet">

<g transform="translate(0.000000,512.000000) scale(0.100000,-0.100000)"
fill="#000000" stroke="none">
<path d="M2511 5106 c-49 -27 -50 -39 -51 -384 0 -261 3 -328 14 -351 35 -66
137 -66 172 0 19 37 21 653 2 694 -22 48 -88 68 -137 41z"/>
<path d="M1511 4906 c-47 -26 -63 -84 -37 -134 24 -46 428 -440 459 -447 76
-19 141 46 122 123 -7 30 -401 434 -447 458 -33 17 -66 17 -97 0z"/>
<path d="M3505 4901 c-54 -34 -433 -424 -440 -453 -19 -77 46 -142 123 -123
30 7 434 401 458 447 26 50 10 109 -37 134 -38 19 -68 18 -104 -5z"/>
<path d="M853 3907 c-29 -16 -842 -1034 -849 -1063 -4 -13 -3 -35 0 -49 7 -27
2461 -2749 2504 -2777 34 -23 70 -23 104 0 43 28 2497 2750 2504 2777 3 14 4
36 0 49 -7 29 -820 1047 -849 1063 -32 18 -3382 18 -3414 0z m900 -236 c-15
-26 -122 -206 -238 -399 l-210 -351 -498 -1 -499 0 44 54 c24 30 167 210 318
400 l275 345 418 0 419 1 -29 -49z m1589 -349 l238 -397 -510 -3 c-281 -1
-739 -1 -1020 0 l-510 3 238 397 237 397 545 0 545 0 237 -397z m1108 52 c151
-190 294 -370 318 -400 l44 -54 -499 0 -498 1 -210 351 c-115 193 -223 373
-238 399 l-29 49 419 -1 418 0 275 -345z m-2698 -1691 c252 -570 457 -1038
455 -1039 -2 -2 -1761 1938 -1841 2031 l-38 45 483 0 484 0 457 -1037z m1848
1030 c0 -13 -1034 -2353 -1040 -2353 -6 0 -1040 2340 -1040 2353 0 4 468 7
1040 7 572 0 1040 -3 1040 -7z m1153 -37 c-85 -99 -1838 -2034 -1840 -2032 -2
1 203 469 455 1039 l457 1037 483 0 484 0 -39 -44z"/>
<path d="M1968 2504 c-34 -18 -48 -43 -48 -84 0 -42 15 -67 50 -85 42 -22 797
-22 839 -1 66 35 66 137 0 172 -42 21 -802 20 -841 -2z"/>
<path d="M3111 2506 c-87 -48 -50 -186 49 -186 51 0 100 49 100 99 0 75 -83
124 -149 87z"/>
</g>
</svg>
