<?xml version="1.0" standalone="no"?>
<!DOCTYPE svg PUBLIC "-//W3C//DTD SVG 20010904//EN"
 "http://www.w3.org/TR/2001/REC-SVG-20010904/DTD/svg10.dtd">
<svg version="1.0" xmlns="http://www.w3.org/2000/svg"
 width="500.000000pt" height="500.000000pt" viewBox="0 0 500.000000 500.000000"
 preserveAspectRatio="xMidYMid meet">

<g transform="translate(0.000000,500.000000) scale(0.100000,-0.100000)"
fill="#000000" stroke="none">
<path d="M0 2500 l0 -2500 2500 0 2500 0 0 2500 0 2500 -2500 0 -2500 0 0
-2500z m2299 1631 c15 -10 12 -31 -15 -103 l-18 -46 39 -76 c50 -98 50 -137 2
-233 -41 -80 -46 -124 -21 -177 35 -73 -23 -92 -63 -21 -34 59 -30 115 12 204
42 87 44 130 10 189 -41 71 -48 115 -31 175 25 84 50 110 85 88z m269 -8 c7
-11 4 -29 -9 -57 -27 -59 -23 -99 16 -179 19 -39 35 -85 35 -101 0 -17 -18
-69 -40 -116 -44 -94 -47 -117 -24 -161 22 -43 15 -74 -16 -74 -20 0 -30 10
-48 45 -31 60 -26 116 21 211 21 41 37 84 37 96 0 13 -16 52 -35 89 -41 78
-45 135 -14 204 27 61 58 78 77 43z m266 11 c17 -6 22 -49 7 -58 -4 -3 -14
-26 -21 -51 -12 -43 -11 -47 25 -120 48 -98 48 -139 1 -233 -40 -79 -45 -123
-20 -176 20 -41 13 -69 -17 -64 -36 5 -62 51 -67 116 -4 52 0 67 32 130 45 89
46 127 6 196 -38 68 -46 119 -25 176 18 52 42 90 54 90 5 0 16 -3 25 -6z m368
-854 c15 -18 18 -33 14 -60 -7 -44 -29 -60 -82 -60 l-41 0 -7 -60 c-14 -119
-60 -221 -141 -308 -30 -33 -55 -64 -55 -70 0 -5 36 -123 81 -261 54 -168 79
-260 75 -276 -7 -28 -49 -44 -75 -28 -9 5 -49 110 -96 251 -44 132 -83 244
-87 247 -4 4 -31 -2 -60 -13 -29 -11 -72 -23 -95 -27 l-43 -7 0 -139 c0 -126
-2 -141 -20 -159 -24 -24 -48 -25 -78 -4 -21 14 -22 22 -22 159 l0 145 -27 6
c-52 11 -98 27 -135 45 -20 10 -39 16 -41 11 -3 -4 -37 -110 -77 -237 -40
-126 -79 -242 -87 -257 -18 -37 -65 -39 -88 -4 -16 23 -12 37 69 289 47 146
86 271 86 279 0 8 -12 25 -26 39 -72 65 -137 205 -150 322 l-7 57 -58 0 c-48
0 -60 4 -73 22 -32 45 -15 103 34 121 8 3 302 5 653 4 l639 -2 20 -25z m-1567
-1075 c0 -20 -8 -20 -504 -23 -306 -1 -509 2 -514 7 -5 5 -7 17 -4 25 6 15 60
16 514 14 500 -3 508 -3 508 -23z m2750 0 c0 -20 -8 -20 -504 -23 -306 -1
-509 2 -514 7 -5 5 -7 17 -4 25 6 15 60 16 514 14 500 -3 508 -3 508 -23z
m-3748 -215 c64 -39 86 -136 49 -217 -18 -41 -18 -42 3 -76 17 -27 21 -50 21
-111 0 -72 -2 -78 -32 -112 -37 -39 -81 -53 -170 -54 -96 0 -88 -26 -88 301
l0 289 93 0 c74 0 98 -4 124 -20z m333 -225 l5 -240 70 -5 70 -5 3 -41 c3 -36
0 -42 -20 -48 -30 -8 -182 -8 -202 0 -14 5 -16 40 -16 288 0 156 3 286 7 290
4 4 23 6 43 4 l35 -3 5 -240z m528 233 c5 -7 28 -125 51 -263 23 -137 44 -262
47 -277 4 -23 1 -27 -25 -33 -53 -11 -67 0 -77 62 -10 65 -29 82 -71 67 -23
-8 -29 -17 -38 -64 -9 -45 -14 -55 -35 -60 -14 -3 -36 -4 -48 -2 -20 4 -23 9
-19 32 3 14 25 139 48 276 23 137 46 255 52 262 5 6 31 12 57 12 26 0 52 -6
58 -12z m502 -26 c29 -29 40 -49 45 -85 10 -65 3 -77 -45 -77 -37 0 -40 2 -40
28 0 47 -22 77 -55 77 -46 0 -55 -29 -55 -185 0 -74 5 -152 10 -172 24 -86
100 -45 100 53 0 27 3 29 40 29 34 0 41 -4 46 -25 13 -53 -6 -117 -46 -157
-33 -33 -44 -38 -85 -38 -56 0 -108 28 -130 70 -22 43 -22 408 0 451 23 43 71
69 129 69 43 0 53 -4 86 -38z m298 -2 c9 -122 27 -129 77 -30 l35 70 45 0 c25
0 45 -5 45 -10 0 -6 -25 -60 -55 -120 l-55 -109 65 -160 c36 -88 65 -164 65
-170 0 -15 -37 -23 -70 -16 -25 6 -33 17 -66 100 -20 52 -43 96 -51 99 -21 8
-33 -36 -33 -119 0 -41 -3 -76 -7 -78 -5 -3 -23 -2 -40 0 l-33 5 0 282 c0 156
3 286 7 290 4 4 21 6 38 4 27 -3 30 -7 33 -38z m613 25 c44 -23 69 -71 69
-132 l0 -53 -45 0 -45 0 0 39 c0 65 -52 95 -84 49 -13 -18 -16 -53 -16 -175 0
-175 7 -203 48 -203 40 0 52 17 52 71 0 57 -7 79 -26 79 -10 0 -14 13 -14 45
l0 46 63 -3 62 -3 3 -120 c3 -137 -9 -169 -71 -198 -44 -21 -80 -21 -124 0
-67 32 -73 53 -73 279 0 193 1 202 23 235 12 18 34 39 47 46 34 17 95 16 131
-2z m482 -5 c16 -8 35 -26 43 -41 19 -38 19 -205 -1 -239 -20 -36 -18 -70 11
-177 28 -104 26 -113 -26 -113 -39 0 -47 10 -65 80 -9 36 -21 82 -26 103 -7
26 -15 37 -29 37 -28 0 -33 -15 -39 -120 l-6 -95 -28 -3 c-51 -6 -57 8 -57
143 0 115 -1 123 -22 137 l-22 15 22 12 c21 11 22 18 22 124 0 168 -5 160 104
155 50 -3 104 -11 119 -18z m335 -117 c2 -122 4 -133 23 -144 l21 -11 -21 -14
c-19 -14 -21 -25 -21 -139 0 -116 -1 -125 -21 -135 -11 -7 -32 -9 -45 -6 -24
6 -24 7 -24 136 0 119 -2 130 -20 140 -11 6 -20 15 -20 20 0 5 9 12 20 15 19
6 20 15 20 141 l0 135 43 -3 42 -3 3 -132z m302 3 c0 -126 1 -135 20 -141 11
-3 20 -10 20 -15 0 -5 -9 -14 -20 -20 -17 -9 -20 -21 -20 -80 0 -98 1 -100 74
-100 35 0 67 -5 74 -12 19 -19 15 -66 -7 -78 -28 -14 -204 -13 -219 2 -8 8
-12 53 -12 134 0 114 -2 124 -21 138 l-21 14 21 14 c20 12 21 21 21 139 0 69
3 129 7 132 3 4 24 7 45 7 l38 0 0 -134z m408 -3 c2 -121 4 -132 22 -138 26
-8 25 -21 0 -35 -19 -10 -21 -19 -18 -93 l3 -82 70 -5 70 -5 3 -41 c3 -36 0
-42 -20 -48 -30 -8 -182 -8 -202 0 -13 5 -16 27 -16 135 0 118 -2 129 -20 139
-11 6 -20 15 -20 20 0 5 9 12 20 15 19 6 20 15 20 134 0 70 3 131 7 135 4 4
23 6 43 4 l35 -3 3 -132z m-63 -697 c11 -8 16 -19 12 -30 -6 -15 -151 -16
-1887 -16 -1736 0 -1881 1 -1887 16 -17 45 -79 44 1887 44 1546 0 1859 -2
1875 -14z"/>
<path d="M520 1901 c-5 -11 -10 -34 -10 -51 0 -44 17 -70 45 -70 50 0 73 82
35 120 -25 25 -56 26 -70 1z"/>
<path d="M531 1681 c-16 -10 -27 -97 -17 -135 5 -21 13 -26 35 -26 35 0 57 20
66 59 7 31 -17 101 -34 101 -5 0 -15 2 -23 5 -7 3 -19 1 -27 -4z"/>
<path d="M1426 1743 c-17 -58 -17 -90 -2 -96 35 -14 48 3 41 52 -4 25 -9 49
-12 54 -8 13 -21 8 -27 -10z"/>
<path d="M3275 1908 c-3 -8 -5 -50 -3 -94 3 -76 4 -79 28 -82 48 -5 65 19 65
92 0 72 -6 83 -53 92 -23 5 -33 2 -37 -8z"/>
</g>
</svg>
