<?xml version="1.0" encoding="UTF-8"?>
<svg width="700pt" height="700pt" version="1.1" viewBox="0 0 700 700" xmlns="http://www.w3.org/2000/svg" xmlns:xlink="http://www.w3.org/1999/xlink">
 <defs>
  <symbol id="w" overflow="visible">
   <path d="m3.6562-0.21875c-0.1875 0.09375-0.38672 0.16797-0.59375 0.21875-0.19922 0.050781-0.40625 0.078125-0.625 0.078125-0.66797 0-1.1992-0.17969-1.5938-0.54688-0.38672-0.375-0.57812-0.87891-0.57812-1.5156 0-0.64453 0.19141-1.1484 0.57812-1.5156 0.39453-0.375 0.92578-0.5625 1.5938-0.5625 0.21875 0 0.42578 0.027344 0.625 0.078125 0.20703 0.054687 0.40625 0.125 0.59375 0.21875v0.82812c-0.1875-0.125-0.375-0.21875-0.5625-0.28125-0.17969-0.0625-0.37109-0.09375-0.57812-0.09375-0.36719 0-0.65625 0.12109-0.875 0.35938-0.21094 0.23047-0.3125 0.55469-0.3125 0.96875 0 0.40625 0.10156 0.73047 0.3125 0.96875 0.21875 0.23047 0.50781 0.34375 0.875 0.34375 0.20703 0 0.39844-0.023437 0.57812-0.078125 0.1875-0.0625 0.375-0.16016 0.5625-0.29688z"/>
  </symbol>
  <symbol id="d" overflow="visible">
   <path d="m2.6875-2.1719c-0.085938-0.039063-0.16797-0.070313-0.25-0.09375-0.085938-0.019531-0.16797-0.03125-0.25-0.03125-0.25 0-0.44531 0.085937-0.57812 0.25-0.125 0.15625-0.1875 0.38281-0.1875 0.67188v1.375h-0.96875v-2.9844h0.96875v0.48438c0.11328-0.19531 0.25-0.33594 0.40625-0.42188 0.16406-0.09375 0.35938-0.14062 0.57812-0.14062h0.10938c0.039063 0 0.09375 0.007812 0.15625 0.015625z"/>
  </symbol>
  <symbol id="a" overflow="visible">
   <path d="m3.4375-1.5v0.26562h-2.2344c0.03125 0.23047 0.11328 0.40234 0.25 0.51562 0.13281 0.10547 0.32812 0.15625 0.57812 0.15625 0.20703 0 0.41406-0.023438 0.625-0.078125 0.20703-0.0625 0.42188-0.15625 0.64062-0.28125v0.73438c-0.21875 0.09375-0.44531 0.16406-0.67188 0.20312-0.23047 0.039062-0.45312 0.0625-0.67188 0.0625-0.54297 0-0.96484-0.13281-1.2656-0.40625-0.30469-0.28125-0.45312-0.67188-0.45312-1.1719 0-0.47656 0.14453-0.85938 0.4375-1.1406 0.30078-0.28125 0.70703-0.42188 1.2188-0.42188 0.46875 0 0.84375 0.14062 1.125 0.42188s0.42188 0.66406 0.42188 1.1406zm-0.96875-0.32812c0-0.17578-0.058594-0.31641-0.17188-0.42188-0.10547-0.11328-0.24219-0.17188-0.40625-0.17188-0.1875 0-0.33984 0.054687-0.45312 0.15625-0.11719 0.10547-0.1875 0.25-0.21875 0.4375z"/>
  </symbol>
  <symbol id="o" overflow="visible">
   <path d="m1.7969-1.3438c-0.19922 0-0.35156 0.039062-0.45312 0.10938-0.09375 0.0625-0.14062 0.16406-0.14062 0.29688 0 0.11719 0.035156 0.21094 0.10938 0.28125 0.082031 0.0625 0.19531 0.09375 0.34375 0.09375 0.17578 0 0.32812-0.0625 0.45312-0.1875s0.1875-0.28516 0.1875-0.48438v-0.10938zm1.4688-0.35938v1.7031h-0.96875v-0.4375c-0.125 0.17969-0.27344 0.30859-0.4375 0.39062-0.15625 0.082031-0.35156 0.125-0.57812 0.125-0.3125 0-0.57031-0.085938-0.76562-0.26562-0.1875-0.1875-0.28125-0.42188-0.28125-0.70312 0-0.35156 0.11719-0.61328 0.35938-0.78125 0.23828-0.16406 0.61719-0.25 1.1406-0.25h0.5625v-0.0625c0-0.15625-0.0625-0.26562-0.1875-0.32812-0.11719-0.070312-0.29688-0.10938-0.54688-0.10938-0.21094 0-0.40234 0.023437-0.57812 0.0625-0.17969 0.042969-0.33984 0.10156-0.48438 0.17188v-0.71875c0.19531-0.050781 0.39844-0.085938 0.60938-0.10938 0.20703-0.03125 0.41406-0.046875 0.625-0.046875 0.53906 0 0.92969 0.10938 1.1719 0.32812 0.23828 0.21094 0.35938 0.55469 0.35938 1.0312z"/>
  </symbol>
  <symbol id="c" overflow="visible">
   <path d="m1.5-3.8438v0.85938h0.98438v0.67188h-0.98438v1.2812c0 0.13672 0.023438 0.23047 0.078125 0.28125 0.0625 0.042969 0.17578 0.0625 0.34375 0.0625h0.48438v0.6875h-0.8125c-0.38672 0-0.65625-0.078125-0.8125-0.23438s-0.23438-0.42188-0.23438-0.79688v-1.2812h-0.46875v-0.67188h0.46875v-0.85938z"/>
  </symbol>
  <symbol id="n" overflow="visible">
   <path d="m2.5-2.5469v-1.6094h0.95312v4.1562h-0.95312v-0.4375c-0.13672 0.17969-0.28125 0.30859-0.4375 0.39062-0.15625 0.082031-0.33984 0.125-0.54688 0.125-0.375 0-0.68359-0.14453-0.92188-0.4375-0.23047-0.28906-0.34375-0.67188-0.34375-1.1406 0-0.45703 0.11328-0.83203 0.34375-1.125 0.23828-0.28906 0.54688-0.4375 0.92188-0.4375 0.19531 0 0.375 0.042969 0.53125 0.125 0.16406 0.085938 0.31641 0.21484 0.45312 0.39062zm-0.64062 1.9375c0.20703 0 0.36328-0.070313 0.46875-0.21875 0.11328-0.15625 0.17188-0.37891 0.17188-0.67188 0-0.28125-0.058594-0.49219-0.17188-0.64062-0.10547-0.15625-0.26172-0.23438-0.46875-0.23438-0.19922 0-0.35547 0.078125-0.46875 0.23438-0.10547 0.14844-0.15625 0.35938-0.15625 0.64062 0 0.29297 0.050781 0.51562 0.15625 0.67188 0.11328 0.14844 0.26953 0.21875 0.46875 0.21875z"/>
  </symbol>
  <symbol id="m" overflow="visible">
   <path d="m2.0469-0.60938c0.20703 0 0.36328-0.070313 0.46875-0.21875 0.11328-0.15625 0.17188-0.37891 0.17188-0.67188 0-0.28125-0.058594-0.49219-0.17188-0.64062-0.10547-0.15625-0.26172-0.23438-0.46875-0.23438-0.19922 0-0.35547 0.078125-0.46875 0.23438-0.10547 0.14844-0.15625 0.35938-0.15625 0.64062 0 0.29297 0.050781 0.51562 0.15625 0.67188 0.11328 0.14844 0.26953 0.21875 0.46875 0.21875zm-0.625-1.9375c0.125-0.17578 0.26562-0.30469 0.42188-0.39062 0.16406-0.082031 0.35156-0.125 0.5625-0.125 0.36328 0 0.66406 0.14844 0.90625 0.4375 0.23828 0.29297 0.35938 0.66797 0.35938 1.125 0 0.46875-0.12109 0.85156-0.35938 1.1406-0.24219 0.29297-0.54297 0.4375-0.90625 0.4375-0.21094 0-0.39844-0.042969-0.5625-0.125-0.15625-0.082031-0.29688-0.21094-0.42188-0.39062v0.4375h-0.96875v-4.1562h0.96875z"/>
  </symbol>
  <symbol id="l" overflow="visible">
   <path d="m0.0625-2.9844h0.95312l0.8125 2.0156 0.6875-2.0156h0.95312l-1.2656 3.2656c-0.125 0.33203-0.27344 0.56641-0.4375 0.70312-0.16797 0.13281-0.39062 0.20312-0.67188 0.20312h-0.54688v-0.64062h0.29688c0.16406 0 0.28516-0.027344 0.35938-0.078125 0.070313-0.054688 0.12891-0.14062 0.17188-0.26562l0.03125-0.09375z"/>
  </symbol>
  <symbol id="k" overflow="visible">
   <path d="m0.5-3.9844h1.0312v1.4531l1.4844-1.4531h1.1875l-1.9219 1.8906 2.125 2.0938h-1.2969l-1.5781-1.5625v1.5625h-1.0312z"/>
  </symbol>
  <symbol id="b" overflow="visible">
   <path d="m1.875-2.375c-0.21094 0-0.37109 0.078125-0.48438 0.23438-0.10547 0.14844-0.15625 0.35938-0.15625 0.64062 0 0.29297 0.050781 0.51562 0.15625 0.67188 0.11328 0.14844 0.27344 0.21875 0.48438 0.21875 0.20703 0 0.36719-0.070313 0.48438-0.21875 0.11328-0.15625 0.17188-0.37891 0.17188-0.67188 0-0.28125-0.058594-0.49219-0.17188-0.64062-0.11719-0.15625-0.27734-0.23438-0.48438-0.23438zm0-0.6875c0.51953 0 0.92188 0.14062 1.2031 0.42188 0.28906 0.27344 0.4375 0.65234 0.4375 1.1406 0 0.5-0.14844 0.89062-0.4375 1.1719-0.28125 0.27344-0.68359 0.40625-1.2031 0.40625-0.51172 0-0.91406-0.13281-1.2031-0.40625-0.29297-0.28125-0.4375-0.67188-0.4375-1.1719 0-0.48828 0.14453-0.86719 0.4375-1.1406 0.28906-0.28125 0.69141-0.42188 1.2031-0.42188z"/>
  </symbol>
  <symbol id="e" overflow="visible">
   <path d="m3.2344-2.5c0.11328-0.17578 0.25391-0.3125 0.42188-0.40625 0.16406-0.10156 0.35156-0.15625 0.5625-0.15625 0.33203 0 0.58594 0.10938 0.76562 0.32812 0.1875 0.21094 0.28125 0.51172 0.28125 0.90625v1.8281h-0.96875v-1.5625c0.007813-0.019531 0.015625-0.039062 0.015625-0.0625v-0.10938c0-0.21875-0.03125-0.375-0.09375-0.46875s-0.16406-0.14062-0.29688-0.14062c-0.1875 0-0.33594 0.078125-0.4375 0.23438-0.09375 0.14844-0.14062 0.35938-0.14062 0.64062v1.4688h-0.96875v-1.5625c0-0.33203-0.03125-0.54688-0.09375-0.64062-0.054688-0.09375-0.15234-0.14062-0.29688-0.14062-0.17969 0-0.32031 0.078125-0.42188 0.23438-0.09375 0.14844-0.14062 0.35938-0.14062 0.64062v1.4688h-0.96875v-2.9844h0.96875v0.4375c0.11328-0.17578 0.24219-0.30469 0.39062-0.39062 0.15625-0.082031 0.32812-0.125 0.51562-0.125 0.20703 0 0.39062 0.054688 0.54688 0.15625 0.15625 0.09375 0.27344 0.23047 0.35938 0.40625z"/>
  </symbol>
  <symbol id="v" overflow="visible">
   <path d="m0.45312-4.1562h0.96875v2.2656l1.0938-1.0938h1.1094l-1.4531 1.3594 1.5625 1.625h-1.1562l-1.1562-1.25v1.25h-0.96875z"/>
  </symbol>
  <symbol id="j" overflow="visible">
   <path d="m0.45312-2.9844h0.96875v2.9844h-0.96875zm0-1.1719h0.96875v0.78125h-0.96875z"/>
  </symbol>
  <symbol id="i" overflow="visible">
   <path d="m0.5-3.9844h1.1562l1.4375 2.7344v-2.7344h0.98438v3.9844h-1.1562l-1.4375-2.7344v2.7344h-0.98438z"/>
  </symbol>
  <symbol id="h" overflow="visible">
   <path d="m3.4688-1.8281v1.8281h-0.96875v-1.3906c0-0.25781-0.007812-0.4375-0.015625-0.53125-0.011719-0.10156-0.03125-0.17578-0.0625-0.21875-0.03125-0.0625-0.085937-0.10938-0.15625-0.14062-0.0625-0.039062-0.13281-0.0625-0.20312-0.0625-0.21094 0-0.37109 0.078125-0.48438 0.23438-0.10547 0.15625-0.15625 0.37109-0.15625 0.64062v1.4688h-0.96875v-2.9844h0.96875v0.4375c0.13281-0.17578 0.28516-0.30469 0.45312-0.39062 0.16406-0.082031 0.34375-0.125 0.53125-0.125 0.34375 0 0.60156 0.10938 0.78125 0.32812 0.1875 0.21094 0.28125 0.51172 0.28125 0.90625z"/>
  </symbol>
  <symbol id="g" overflow="visible">
   <path d="m1.4219-0.4375v1.5781h-0.96875v-4.125h0.96875v0.4375c0.125-0.17578 0.26562-0.30469 0.42188-0.39062 0.16406-0.082031 0.35156-0.125 0.5625-0.125 0.36328 0 0.66406 0.14844 0.90625 0.4375 0.23828 0.29297 0.35938 0.66797 0.35938 1.125 0 0.46875-0.12109 0.85156-0.35938 1.1406-0.24219 0.29297-0.54297 0.4375-0.90625 0.4375-0.21094 0-0.39844-0.042969-0.5625-0.125-0.15625-0.082031-0.29688-0.21094-0.42188-0.39062zm0.625-1.9375c-0.19922 0-0.35547 0.078125-0.46875 0.23438-0.10547 0.14844-0.15625 0.35938-0.15625 0.64062 0 0.29297 0.050781 0.51562 0.15625 0.67188 0.11328 0.14844 0.26953 0.21875 0.46875 0.21875 0.20703 0 0.36328-0.070313 0.46875-0.21875 0.11328-0.15625 0.17188-0.37891 0.17188-0.67188 0-0.28125-0.058594-0.49219-0.17188-0.64062-0.10547-0.15625-0.26172-0.23438-0.46875-0.23438z"/>
  </symbol>
  <symbol id="u" overflow="visible">
   <path d="m2.7969-2.8906v0.71875c-0.21094-0.082031-0.40625-0.14453-0.59375-0.1875-0.1875-0.039063-0.37109-0.0625-0.54688-0.0625-0.17969 0-0.3125 0.023437-0.40625 0.0625-0.085938 0.042969-0.125 0.10938-0.125 0.20312 0 0.085938 0.03125 0.14844 0.09375 0.1875 0.070312 0.042969 0.19531 0.074219 0.375 0.09375l0.15625 0.015625c0.48828 0.0625 0.81641 0.16797 0.98438 0.3125 0.17578 0.13672 0.26562 0.35938 0.26562 0.67188s-0.12109 0.55469-0.35938 0.71875c-0.23047 0.15625-0.57812 0.23438-1.0469 0.23438-0.19922 0-0.40625-0.015625-0.625-0.046875-0.21094-0.03125-0.42188-0.078125-0.64062-0.14062v-0.71875c0.1875 0.085937 0.37891 0.15234 0.57812 0.20312 0.20703 0.042969 0.41406 0.0625 0.625 0.0625 0.1875 0 0.32812-0.023438 0.42188-0.078125 0.09375-0.050781 0.14062-0.125 0.14062-0.21875s-0.039062-0.16016-0.10938-0.20312c-0.0625-0.039062-0.1875-0.070312-0.375-0.09375l-0.17188-0.015625c-0.42969-0.050781-0.73047-0.14844-0.90625-0.29688-0.16797-0.14453-0.25-0.36328-0.25-0.65625 0-0.32031 0.10938-0.55469 0.32812-0.70312 0.21875-0.15625 0.55078-0.23438 1-0.23438 0.17578 0 0.35938 0.015625 0.54688 0.046875 0.19531 0.023437 0.41016 0.0625 0.64062 0.125z"/>
  </symbol>
  <symbol id="f" overflow="visible">
   <path d="m0.42188-1.1719v-1.8125h0.96875v0.29688 0.60938 0.48438c0 0.24219 0.003906 0.41797 0.015625 0.53125 0.007812 0.10547 0.03125 0.17969 0.0625 0.21875 0.039062 0.0625 0.09375 0.11719 0.15625 0.15625 0.0625 0.03125 0.13281 0.046875 0.21875 0.046875 0.19531 0 0.35156-0.078125 0.46875-0.23438 0.11328-0.15625 0.17188-0.36719 0.17188-0.64062v-1.4688h0.95312v2.9844h-0.95312v-0.4375c-0.14844 0.17969-0.30469 0.30859-0.46875 0.39062-0.15625 0.082031-0.33594 0.125-0.53125 0.125-0.34375 0-0.60938-0.10156-0.79688-0.3125-0.17969-0.21875-0.26562-0.53125-0.26562-0.9375z"/>
  </symbol>
  <symbol id="t" overflow="visible">
   <path d="m2.4219-4.1562v0.625h-0.51562c-0.13672 0-0.23438 0.027344-0.29688 0.078125-0.054687 0.054687-0.078125 0.13672-0.078125 0.25v0.21875h0.82812v0.67188h-0.82812v2.3125h-0.95312v-2.3125h-0.46875v-0.67188h0.46875v-0.21875c0-0.32031 0.085937-0.5625 0.26562-0.71875 0.1875-0.15625 0.47266-0.23438 0.85938-0.23438z"/>
  </symbol>
  <symbol id="s" overflow="visible">
   <path d="m3.4688-1.8281v1.8281h-0.96875v-1.3906c0-0.25781-0.007812-0.4375-0.015625-0.53125-0.011719-0.10156-0.03125-0.17578-0.0625-0.21875-0.03125-0.0625-0.085937-0.10938-0.15625-0.14062-0.0625-0.039062-0.13281-0.0625-0.20312-0.0625-0.21094 0-0.37109 0.078125-0.48438 0.23438-0.10547 0.15625-0.15625 0.37109-0.15625 0.64062v1.4688h-0.96875v-4.1562h0.96875v1.6094c0.13281-0.17578 0.28516-0.30469 0.45312-0.39062 0.16406-0.082031 0.34375-0.125 0.53125-0.125 0.34375 0 0.60156 0.10938 0.78125 0.32812 0.1875 0.21094 0.28125 0.51172 0.28125 0.90625z"/>
  </symbol>
  <symbol id="r" overflow="visible">
   <path d="m0.5-3.9844h1.7031c0.50781 0 0.89844 0.11719 1.1719 0.34375 0.26953 0.21875 0.40625 0.53906 0.40625 0.95312 0 0.41797-0.13672 0.74219-0.40625 0.96875-0.27344 0.21875-0.66406 0.32812-1.1719 0.32812h-0.67188v1.3906h-1.0312zm1.0312 0.75v1.1094h0.5625c0.19531 0 0.34766-0.046875 0.45312-0.14062 0.11328-0.10156 0.17188-0.24219 0.17188-0.42188 0-0.17578-0.058594-0.3125-0.17188-0.40625-0.10547-0.09375-0.25781-0.14062-0.45312-0.14062z"/>
  </symbol>
  <symbol id="q" overflow="visible">
   <path d="m0.45312-2.9844h0.96875v2.9375c0 0.39453-0.10156 0.69531-0.29688 0.90625-0.1875 0.21875-0.46484 0.32812-0.82812 0.32812h-0.48438v-0.64062h0.17188c0.17578 0 0.29688-0.042969 0.35938-0.125 0.070312-0.074219 0.10938-0.23047 0.10938-0.46875zm0-1.1719h0.96875v0.78125h-0.96875z"/>
  </symbol>
  <symbol id="p" overflow="visible">
   <path d="m2.875-2.8906v0.76562c-0.125-0.082031-0.25781-0.14453-0.39062-0.1875-0.13672-0.039062-0.27344-0.0625-0.40625-0.0625-0.27344 0-0.48047 0.078125-0.625 0.23438-0.14844 0.15625-0.21875 0.37109-0.21875 0.64062 0 0.28125 0.070313 0.5 0.21875 0.65625 0.14453 0.15625 0.35156 0.23438 0.625 0.23438 0.14453 0 0.28516-0.019531 0.42188-0.0625 0.13281-0.039063 0.25781-0.10938 0.375-0.20312v0.78125c-0.14844 0.0625-0.29688 0.10156-0.45312 0.125-0.15625 0.03125-0.3125 0.046875-0.46875 0.046875-0.54297 0-0.96484-0.13281-1.2656-0.40625-0.30469-0.28125-0.45312-0.67188-0.45312-1.1719 0-0.48828 0.14844-0.86719 0.45312-1.1406 0.30078-0.28125 0.72266-0.42188 1.2656-0.42188 0.15625 0 0.3125 0.015625 0.46875 0.046875 0.15625 0.023437 0.30469 0.0625 0.45312 0.125z"/>
  </symbol>
 </defs>
 <g>
  <path d="m328.43 138.42c0.28125 0.089844 0.58594 0.0625 0.84375-0.078125 0.26172-0.14062 0.45312-0.375 0.53516-0.66016 0.082031-0.28125 0.046875-0.58594-0.097656-0.84375-0.14453-0.25391-0.38672-0.44141-0.67188-0.51953-15.809-4.5352-32.824-1.6953-46.305 7.7266-0.24609 0.16406-0.41406 0.41797-0.46875 0.71094-0.054687 0.28906 0.011719 0.58984 0.17969 0.82813 0.17188 0.24219 0.42969 0.40625 0.72266 0.45312 0.29297 0.046876 0.58984-0.027343 0.82812-0.20312 12.977-8.9453 29.254-11.664 44.434-7.4141z"/>
  <path d="m337.19 215.05c1.707 0.92969 3.6211 1.4258 5.5664 1.4414 1.5273 0.007812 3.0391-0.33984 4.4102-1.0156 0.54297-0.26953 0.75781-0.92969 0.48828-1.4688-0.27344-0.53906-0.92969-0.75781-1.4727-0.48438-2.5781 1.0625-5.5 0.91406-7.957-0.40234-2.4609-1.3203-4.1992-3.668-4.7422-6.4062-0.48047-3.9141 2.5078-8.1602 6.6602-9.4727 3.1758-0.92188 5.4141-3.7539 5.5781-7.0547l0.64453-16.102c0.027343-0.60547-0.44531-1.1133-1.0469-1.1367-0.60547-0.027344-1.1133 0.44531-1.1406 1.0469l-0.63281 16.094c-0.13672 2.3789-1.7656 4.4062-4.0586 5.0547-5.1953 1.6406-8.7852 6.8359-8.1719 11.828 0.53516 3.4844 2.7266 6.4961 5.875 8.0781z"/>
  <path d="m375.41 233.16c-0.30469-0.51953-0.97656-0.69141-1.4961-0.38672-16.133 9.2617-35.836 9.8047-52.449 1.4375-0.25781-0.14453-0.5625-0.17578-0.84766-0.089843-0.28125 0.085937-0.51562 0.28125-0.65234 0.54297-0.13672 0.26172-0.16016 0.57031-0.066406 0.84766 0.089844 0.28125 0.29297 0.51172 0.55859 0.64063 17.285 8.7031 37.785 8.1445 54.566-1.4922 0.51953-0.30859 0.69531-0.97656 0.38672-1.5z"/>
  <path d="m366.06 137.8c7.5586-2.6719 15.703-3.2305 23.555-1.6172 7.8555 1.6133 15.117 5.3359 21.012 10.77 0.44141 0.41406 1.1328 0.39453 1.5469-0.042969 0.41406-0.44141 0.39453-1.1328-0.042969-1.5469-6.1914-5.707-13.824-9.6211-22.074-11.316-8.25-1.6914-16.805-1.1055-24.746 1.6992-0.55469 0.21875-0.83203 0.83594-0.625 1.3945 0.20312 0.55859 0.81641 0.85156 1.3789 0.66016z"/>
  <path d="m392.97 178.41c0 7.3711-3.3359 13.344-7.4492 13.344-4.1172 0-7.4531-5.9727-7.4531-13.344 0-7.3672 3.3359-13.344 7.4531-13.344 4.1133 0 7.4492 5.9766 7.4492 13.344"/>
  <path d="m314.22 178.41c0 7.3711-3.3359 13.344-7.4531 13.344-4.1172 0-7.4531-5.9727-7.4531-13.344 0-7.3672 3.3359-13.344 7.4531-13.344 4.1172 0 7.4531 5.9766 7.4531 13.344"/>
  <path d="m431.46 210.29c0.0625 0.011719 0.12891 0.015625 0.19531 0.015625 0.52734 0 0.98047-0.37891 1.0742-0.90234 0.81641-4.0273 2.8633-7.707 5.8555-10.527 2.9883-2.8242 6.7812-4.6484 10.852-5.2305 0.59766-0.074219 1.0234-0.61719 0.95312-1.2148s-0.61328-1.0234-1.2109-0.95703c-4.5312 0.64844-8.7539 2.6797-12.086 5.8203-3.3281 3.1445-5.6055 7.2383-6.5156 11.727-0.050781 0.28516 0.011719 0.57812 0.17969 0.81641 0.16406 0.23828 0.41797 0.40234 0.70313 0.45312z"/>
  <path d="m250.78 191.48c-0.28906-0.035156-0.57812 0.042969-0.80859 0.22266-0.23047 0.17969-0.375 0.44531-0.41016 0.73438-0.035156 0.28906 0.046875 0.57812 0.22656 0.80859 0.17969 0.22656 0.44531 0.375 0.73438 0.40625 4.0703 0.58203 7.8633 2.4062 10.855 5.2305 2.9922 2.8203 5.0352 6.5 5.8516 10.527 0.09375 0.52344 0.54688 0.90234 1.0781 0.90234 0.0625 0 0.12891-0.003906 0.19141-0.015625 0.28516-0.050781 0.53906-0.21484 0.70703-0.45312 0.16406-0.23828 0.23047-0.53125 0.17969-0.81641-0.91016-4.4883-3.1875-8.582-6.5195-11.727-3.332-3.1406-7.5508-5.1719-12.086-5.8203z"/>
  <path d="m353.8 476.57c0 5.0742-7.6094 5.0742-7.6094 0 0-5.0703 7.6094-5.0703 7.6094 0"/>
  <path d="m353.8 449.91c0 5.0703-7.6094 5.0703-7.6094 0 0-5.0742 7.6094-5.0742 7.6094 0"/>
  <path d="m498.48 462.11c0.17188-0.042969 0.34766-0.066406 0.52344-0.066406 1.0078 0 1.8828 0.6875 2.125 1.6641 6.4062 26.078 10.812 52.609 13.18 79.363h98.352-0.003906c0-0.12109-0.019532-0.23828-0.054688-0.35156-16.617-49.238-45.754-93.312-84.547-127.89-31.727-28.34-68.875-49.934-109.2-63.484-2.0938-0.69141-4.125-1.5508-6.082-2.5703-1.9688-2.7617-4.0859-5.418-6.3438-7.9492-3.6641-4.1562-7.6875-7.9805-12.02-11.43-2.3555-5.1992-3.5664-10.844-3.5547-16.551v-22.277c2.3945-1.9648 4.6602-4.0781 6.793-6.3242 11.836-12.457 21.449-30.516 28.559-53.68 7.043 0.73828 14.152-0.62109 20.43-3.9062 9.7773-5.2617 16.219-15.453 16.406-25.988 0.19531-11.059-6.9141-21.656-16.91-25.211v0.003907c-2.457-0.85547-5.043-1.2695-7.6445-1.2266 12.129-17.105 17.293-34.332 16.188-53.953 8.2578-6.8789 13.367-13.477 16.066-20.703v-0.003906c0.90625-2.1953 1.3125-4.5625 1.1836-6.9336-0.19141-2.5977-1.6367-4.9375-3.875-6.2656-2.5469-1.3555-5.4805-0.80859-8.2578-0.13281l-2.0547 0.49219c4.9336-8.0312 8.1953-16.98 9.582-26.305 2.9531-20.594-5.8945-33.59-14.371-38.469-10.609-6.1133-23.461-3.4688-32.387-0.1875v0.003906c-6.0312 2.3594-11.922 5.0625-17.645 8.0938-8.6523 4.3867-17.586 8.9023-27.148 10.75-11.66 2.2422-23.887 0.44922-35.711-1.2812-13.211-1.9453-26.883-3.9492-39.922-0.37109h0.003907c-13.961 4.0273-25.5 13.895-31.645 27.062l-2.3086-20.867c-0.42578-3.8164-2.2188-4.5508-3.25-4.6484-0.95312-0.10938-2.7344 0.1875-4.0703 3.3047l0.003907-0.003906c-3.3008 7.8867-4.3086 16.547-2.9062 24.98-1.957-2.1758-3.9805-4.3203-6.0391-6.3984-2.6484-2.7031-5.3711-3.4688-7.2852-2.0469-1.0156 0.74219-2.0781 2.3516-1.3789 5.7656 1.4336 6.6641 4.9805 12.691 10.117 17.172l-0.066406 0.097657c-9.3398 13.758-13.703 31.652-12.305 50.41 1.0391 13.695 5.1094 28.109 12.098 42.875-4.3164 2.332-7.918 5.8008-10.41 10.031-2.4922 4.2305-3.7812 9.0586-3.7305 13.969 0.1875 10.531 6.6289 20.727 16.406 25.988v-0.003906c6.7539 3.5391 14.453 4.8438 21.996 3.7305 7.3828 23.34 16.93 41.508 28.406 54.008 1.75 1.8945 3.543 3.6602 5.3828 5.293v23.156h-0.003906c0.011718 5.707-1.1992 11.352-3.5547 16.551-6.9805 5.5898-13.16 12.109-18.363 19.379-1.957 1.0195-3.9883 1.8789-6.082 2.5703-40.324 13.551-77.473 35.145-109.2 63.484-38.793 34.578-67.93 78.652-84.547 127.89-0.035156 0.11328-0.054688 0.23047-0.054688 0.35156h98.352-0.003907c2.3672-26.754 6.7734-53.285 13.18-79.363 0.24219-0.97656 1.1172-1.6641 2.125-1.6641 0.17188 0 0.34375 0.023437 0.51172 0.066406 0.56641 0.13672 1.0508 0.49219 1.3555 0.98828 0.30078 0.5 0.39062 1.0938 0.25391 1.6602-6.3164 25.734-10.676 51.914-13.039 78.312h319.84c-2.3633-26.398-6.7227-52.578-13.039-78.312-0.28906-1.1719 0.42578-2.3594 1.5977-2.6484zm-193.09-179.2c-11.406-12.414-20.891-30.613-28.219-54.074-0.14453-0.45703-0.5625-0.76563-1.0391-0.76563-0.058594-0.003906-0.11719 0-0.17578 0.007813-7.3594 1.2852-14.934 0.10547-21.559-3.3438-9.0898-4.8906-15.07-14.352-15.246-24.105-0.1875-10.141 6.3125-19.863 15.445-23.109v-0.003906c3.1016-1.0703 6.418-1.3867 9.668-0.91797 0.46094 0.066406 0.91016-0.16797 1.125-0.58203 11.102-21.645 19.469-40.949 24.148-64.434 38.488 19.992 84.906 26.062 127.8 16.723 1.3438 19.547 4.332 29.465 18.078 47.773l0.003906 0.003906c0.23438 0.30859 0.61328 0.47266 0.99609 0.42578 3.0352-0.33203 6.1055 0.011719 8.9883 1.0078 9.1328 3.25 15.629 12.973 15.445 23.109-0.17578 9.7578-6.1562 19.219-15.246 24.105v0.003906c-6.1641 3.2031-13.16 4.4453-20.051 3.5625-0.52734-0.0625-1.0234 0.25781-1.1797 0.76562-7.043 23.254-16.57 41.312-28.316 53.672-12.863 13.562-28.613 20.43-46.789 20.43-16.781 0-31.547-6.8125-43.883-20.254zm2.0234 47.766v-0.003906c0.023438-0.039063 0.046875-0.078125 0.066406-0.11719 2.5508-5.5547 3.8672-11.598 3.8594-17.711v-21.262c8.3164 7.0078 18.426 11.559 29.184 13.137 14.668 8.4062 31.418 12.484 48.309 11.758 0.40625 4.8711 1.6562 9.6328 3.6953 14.078 0.019531 0.039062 0.039062 0.078124 0.0625 0.11719 2.3711 5.1367 5.7383 9.7461 9.9102 13.562 0.89062 0.80469 1.3008 2.0156 1.082 3.1953-5.9805 33.078-25.371 62.215-53.578 80.5-28.203-18.293-47.598-47.422-53.594-80.5-0.21875-1.1797 0.19141-2.3906 1.082-3.1953 4.1797-3.8125 7.5508-8.4258 9.9219-13.562zm42.59 154.07c-3.3086 0-6.293-1.9922-7.5586-5.0508-1.2656-3.0586-0.56641-6.5742 1.7734-8.9141s5.8594-3.043 8.9141-1.7734c3.0586 1.2656 5.0508 4.2461 5.0508 7.5586-0.007813 4.5117-3.6641 8.1719-8.1797 8.1797zm8.1797 18.484c0 3.3086-1.9922 6.293-5.0508 7.5586-3.0547 1.2656-6.5742 0.56641-8.9141-1.7734-2.3398-2.3398-3.0391-5.8594-1.7734-8.9141 1.2656-3.0586 4.25-5.0508 7.5586-5.0508 4.5156 0.007812 8.1719 3.6641 8.1797 8.1797zm-8.1797-45.148c-3.3047-0.003907-6.2852-1.9961-7.5508-5.0508-1.2617-3.0547-0.5625-6.5703 1.7734-8.9062 2.3398-2.3398 5.8555-3.0391 8.9102-1.7734 3.0547 1.2617 5.0469 4.2422 5.0469 7.5469-0.003907 4.5156-3.6641 8.1758-8.1797 8.1836zm62.805-0.26172c-4.0234-6.2578-19.742-27.574-48.441-30.023l-0.003906-0.003906c0.14844 0.28906 0.22266 0.60938 0.21875 0.92969v92.914c0 3.6875-2.9844 6.6797-6.6719 6.6836l-15.805-0.023438v0.003907c-3.6797-0.019532-6.6641-3-6.6797-6.6836v-92.895c-0.003906-0.32031 0.070313-0.64062 0.21875-0.92969-28.699 2.4609-44.418 23.766-48.441 30.023-25.758-50.707-13.387-86.438 1.6523-107.56h-0.003906c4.0508-5.668 8.6953-10.887 13.859-15.562-1.8789 2.918-4.1289 5.5781-6.6953 7.918-1.4453 1.3164-2.1133 3.2812-1.7617 5.207 5.8789 32.414 24.41 61.16 51.508 79.898-2.1641-0.15234-4.2539-0.19531-6.3008-0.14062v-0.003906c0.21875 0.34375 0.33594 0.74219 0.33984 1.1484v92.895c0.007813 1.2734 1.043 2.3047 2.3164 2.3086l15.773 0.023437v-0.003906c0.61328 0.007812 1.207-0.23438 1.6406-0.66797 0.4375-0.43359 0.67969-1.0234 0.67578-1.6406v-92.914c0.003906-0.40234 0.11719-0.79297 0.32812-1.1367-0.54688-0.011719-1.082-0.03125-1.6289-0.03125-1.5195 0-3.0742 0.054687-4.6602 0.16406 27.102-18.734 45.629-47.48 51.496-79.898 0.35156-1.9219-0.3125-3.8867-1.75-5.207-2.5664-2.3398-4.8164-5-6.6953-7.918 2.6367 2.3789 5.1406 4.9062 7.4922 7.5664 2.2656 2.5469 4.3906 5.2188 6.3672 7.9961 15.039 21.121 27.41 56.855 1.6523 107.56z"/>
  <path d="m353.8 503.23c0 5.0703-7.6094 5.0703-7.6094 0 0-5.0742 7.6094-5.0742 7.6094 0"/>
  <use x="70" y="576.40625" xlink:href="#w"/>
  <use x="74.011719" y="576.40625" xlink:href="#d"/>
  <use x="76.710938" y="576.40625" xlink:href="#a"/>
  <use x="80.417969" y="576.40625" xlink:href="#o"/>
  <use x="84.109375" y="576.40625" xlink:href="#c"/>
  <use x="86.722656" y="576.40625" xlink:href="#a"/>
  <use x="90.433594" y="576.40625" xlink:href="#n"/>
  <use x="96.25" y="576.40625" xlink:href="#m"/>
  <use x="100.167969" y="576.40625" xlink:href="#l"/>
  <use x="105.636719" y="576.40625" xlink:href="#k"/>
  <use x="109.871094" y="576.40625" xlink:href="#b"/>
  <use x="113.628906" y="576.40625" xlink:href="#e"/>
  <use x="119.328125" y="576.40625" xlink:href="#v"/>
  <use x="122.964844" y="576.40625" xlink:href="#d"/>
  <use x="125.664062" y="576.40625" xlink:href="#j"/>
  <use x="127.535156" y="576.40625" xlink:href="#c"/>
  <use x="132.054688" y="576.40625" xlink:href="#i"/>
  <use x="136.632812" y="576.40625" xlink:href="#b"/>
  <use x="140.390625" y="576.40625" xlink:href="#a"/>
  <use x="144.097656" y="576.40625" xlink:href="#h"/>
  <use x="147.992188" y="576.40625" xlink:href="#g"/>
  <use x="151.90625" y="576.40625" xlink:href="#b"/>
  <use x="155.664062" y="576.40625" xlink:href="#a"/>
  <use x="159.371094" y="576.40625" xlink:href="#e"/>
  <use x="165.070312" y="576.40625" xlink:href="#g"/>
  <use x="168.984375" y="576.40625" xlink:href="#j"/>
  <use x="170.859375" y="576.40625" xlink:href="#u"/>
  <use x="174.113281" y="576.40625" xlink:href="#f"/>
  <use x="178.007812" y="576.40625" xlink:href="#c"/>
  <use x="70" y="581.875" xlink:href="#t"/>
  <use x="72.378906" y="581.875" xlink:href="#d"/>
  <use x="75.078125" y="581.875" xlink:href="#b"/>
  <use x="78.832031" y="581.875" xlink:href="#e"/>
  <use x="86.4375" y="581.875" xlink:href="#c"/>
  <use x="89.050781" y="581.875" xlink:href="#s"/>
  <use x="92.941406" y="581.875" xlink:href="#a"/>
  <use x="98.554688" y="581.875" xlink:href="#i"/>
  <use x="103.132812" y="581.875" xlink:href="#b"/>
  <use x="106.890625" y="581.875" xlink:href="#f"/>
  <use x="110.785156" y="581.875" xlink:href="#h"/>
  <use x="116.582031" y="581.875" xlink:href="#r"/>
  <use x="120.589844" y="581.875" xlink:href="#d"/>
  <use x="123.285156" y="581.875" xlink:href="#b"/>
  <use x="127.042969" y="581.875" xlink:href="#q"/>
  <use x="128.917969" y="581.875" xlink:href="#a"/>
  <use x="132.625" y="581.875" xlink:href="#p"/>
  <use x="135.867188" y="581.875" xlink:href="#c"/>
 </g>
</svg>
