<?xml version="1.0" standalone="no"?>
<!DOCTYPE svg PUBLIC "-//W3C//DTD SVG 20010904//EN"
 "http://www.w3.org/TR/2001/REC-SVG-20010904/DTD/svg10.dtd">
<svg version="1.0" xmlns="http://www.w3.org/2000/svg"
 width="512.000000pt" height="512.000000pt" viewBox="0 0 512.000000 512.000000"
 preserveAspectRatio="xMidYMid meet">

<g transform="translate(0.000000,512.000000) scale(0.100000,-0.100000)"
fill="#000000" stroke="none">
<path d="M2330 5110 c-494 -48 -950 -230 -1350 -538 -195 -150 -448 -432 -594
-662 -63 -99 -186 -351 -230 -471 -49 -134 -102 -340 -128 -499 -31 -195 -31
-565 0 -760 45 -276 116 -498 237 -745 132 -269 269 -460 489 -681 221 -220
412 -357 681 -489 247 -121 469 -192 745 -237 195 -31 565 -31 760 0 276 45
498 116 745 237 269 132 460 269 681 489 220 221 357 412 489 681 88 179 132
296 180 476 63 240 78 371 78 649 0 278 -15 409 -78 649 -48 180 -92 297 -180
476 -132 269 -269 460 -489 681 -221 220 -412 357 -681 489 -246 121 -474 193
-740 235 -147 23 -475 34 -615 20z m550 -226 c339 -49 662 -168 950 -352 253
-161 541 -449 702 -702 144 -226 262 -507 317 -757 41 -185 53 -302 53 -513 0
-275 -29 -467 -108 -713 -120 -371 -300 -663 -579 -942 -279 -279 -571 -459
-942 -579 -246 -79 -438 -108 -713 -108 -275 0 -467 29 -713 108 -371 120
-663 300 -942 579 -374 373 -589 803 -670 1340 -23 151 -23 479 0 630 54 355
169 667 353 955 161 253 449 541 702 702 475 303 1045 429 1590 352z"/>
<path d="M2400 4473 c-474 -50 -872 -236 -1195 -558 -337 -338 -529 -767 -561
-1252 -8 -114 3 -162 43 -188 29 -20 81 -22 112 -6 41 22 50 52 60 193 31 433
198 803 497 1102 299 299 669 466 1102 497 89 6 144 14 159 24 69 45 57 158
-19 184 -29 10 -121 12 -198 4z"/>
<path d="M4340 2656 c-58 -19 -69 -45 -79 -197 -31 -433 -198 -804 -497 -1103
-299 -299 -669 -466 -1102 -497 -141 -10 -171 -19 -193 -60 -16 -31 -14 -83 6
-112 26 -40 74 -51 188 -43 485 32 914 224 1252 561 337 338 529 767 561 1252
5 67 3 111 -5 135 -19 57 -73 83 -131 64z"/>
</g>
</svg>
