<?xml version="1.0" encoding="utf-8"?>
<!-- Generator: Adobe Illustrator 19.2.1, SVG Export Plug-In . SVG Version: 6.00 Build 0)  -->
<svg version="1.1" id="layer" xmlns="http://www.w3.org/2000/svg" xmlns:xlink="http://www.w3.org/1999/xlink" x="0px" y="0px"
	 viewBox="0 0 652 652" style="enable-background:new 0 0 652 652;" xml:space="preserve">
<style type="text/css">
	.st0{fill:#231F20;}
	.st1{fill:none;stroke:#231F20;stroke-width:1.7305;stroke-miterlimit:10;}
	.st2{fill:none;stroke:#231F20;stroke-width:0.8653;stroke-miterlimit:10;}
	.st3{fill-rule:evenodd;clip-rule:evenodd;fill:#231F20;}
	.st4{clip-path:url(#SVGID_2_);fill:url(#SVGID_3_);}
	.st5{clip-path:url(#SVGID_5_);fill:url(#SVGID_6_);}
	.st6{clip-path:url(#SVGID_8_);fill:url(#SVGID_9_);}
	.st7{clip-path:url(#SVGID_11_);fill:url(#SVGID_12_);}
	.st8{clip-path:url(#SVGID_14_);fill:url(#SVGID_15_);}
	.st9{clip-path:url(#SVGID_17_);fill:url(#SVGID_18_);}
	.st10{clip-path:url(#SVGID_20_);fill:url(#SVGID_21_);}
	.st11{clip-path:url(#SVGID_23_);fill:url(#SVGID_24_);}
	.st12{clip-path:url(#SVGID_26_);fill:url(#SVGID_27_);}
	.st13{clip-path:url(#SVGID_29_);fill:url(#SVGID_30_);}
	.st14{clip-path:url(#SVGID_32_);fill:url(#SVGID_33_);}
	.st15{clip-path:url(#SVGID_35_);fill:url(#SVGID_36_);}
	.st16{clip-path:url(#SVGID_38_);fill:url(#SVGID_39_);}
	.st17{clip-path:url(#SVGID_41_);fill:url(#SVGID_42_);}
	.st18{clip-path:url(#SVGID_44_);fill:url(#SVGID_45_);}
	.st19{clip-path:url(#SVGID_47_);fill:url(#SVGID_48_);}
	.st20{clip-path:url(#SVGID_50_);fill:url(#SVGID_51_);}
	.st21{clip-path:url(#SVGID_53_);fill:url(#SVGID_54_);}
	.st22{clip-path:url(#SVGID_56_);fill:url(#SVGID_57_);}
	.st23{clip-path:url(#SVGID_59_);fill:url(#SVGID_60_);}
	.st24{clip-path:url(#SVGID_62_);fill:url(#SVGID_63_);}
	.st25{clip-path:url(#SVGID_65_);fill:url(#SVGID_66_);}
	.st26{clip-path:url(#SVGID_68_);fill:url(#SVGID_69_);}
	.st27{clip-path:url(#SVGID_71_);fill:url(#SVGID_72_);}
	.st28{clip-path:url(#SVGID_74_);fill:url(#SVGID_75_);}
	.st29{clip-path:url(#SVGID_77_);fill:url(#SVGID_78_);}
	.st30{clip-path:url(#SVGID_80_);fill:url(#SVGID_81_);}
	.st31{clip-path:url(#SVGID_83_);fill:url(#SVGID_84_);}
	.st32{clip-path:url(#SVGID_86_);fill:url(#SVGID_87_);}
	.st33{clip-path:url(#SVGID_89_);fill:url(#SVGID_90_);}
	.st34{clip-path:url(#SVGID_92_);fill:url(#SVGID_93_);}
	.st35{clip-path:url(#SVGID_95_);fill:url(#SVGID_96_);}
	.st36{clip-path:url(#SVGID_98_);fill:url(#SVGID_99_);}
	.st37{clip-path:url(#SVGID_101_);fill:url(#SVGID_102_);}
	.st38{clip-path:url(#SVGID_104_);fill:url(#SVGID_105_);}
	.st39{clip-path:url(#SVGID_107_);fill:url(#SVGID_108_);}
	.st40{clip-path:url(#SVGID_110_);fill:url(#SVGID_111_);}
	.st41{clip-path:url(#SVGID_113_);fill:url(#SVGID_114_);}
	.st42{clip-path:url(#SVGID_116_);fill:url(#SVGID_117_);}
	.st43{clip-path:url(#SVGID_119_);fill:url(#SVGID_120_);}
	.st44{clip-path:url(#SVGID_122_);fill:url(#SVGID_123_);}
	.st45{clip-path:url(#SVGID_125_);fill:url(#SVGID_126_);}
	.st46{clip-path:url(#SVGID_128_);fill:url(#SVGID_129_);}
	.st47{clip-path:url(#SVGID_131_);fill:url(#SVGID_132_);}
	.st48{clip-path:url(#SVGID_134_);fill:url(#SVGID_135_);}
	.st49{clip-path:url(#SVGID_137_);fill:url(#SVGID_138_);}
	.st50{clip-path:url(#SVGID_140_);fill:url(#SVGID_141_);}
	.st51{clip-path:url(#SVGID_143_);fill:url(#SVGID_144_);}
	.st52{clip-path:url(#SVGID_146_);fill:url(#SVGID_147_);}
	.st53{clip-path:url(#SVGID_149_);fill:url(#SVGID_150_);}
</style>
<g>
	<path class="st0" d="M145.8,324.2h-2.5l-0.6-2.4c-0.4-1.6-0.8-2.9-1.3-4.1c-0.5-1.1-1.2-2.1-2.1-2.8c-0.9-0.7-2.2-1.2-3.8-1.6
		c-1.6-0.4-3.8-0.5-6.5-0.5h-15.5v50.1c0,2.9,0.1,5.3,0.4,7.1c0.3,1.8,0.8,3.2,1.6,4.3c0.8,1,1.9,1.7,3.4,2c1.5,0.3,3.5,0.5,5.9,0.5
		v2.5H92.7v-2.5c2.4,0,4.4-0.2,5.9-0.5c1.5-0.3,2.6-1,3.4-2c0.8-1,1.3-2.4,1.6-4.3c0.3-1.8,0.4-4.2,0.4-7.1v-50.1H88.5
		c-2.7,0-4.8,0.2-6.5,0.5c-1.6,0.4-2.9,0.9-3.8,1.6c-1,0.7-1.7,1.6-2.1,2.8c-0.5,1.1-0.9,2.5-1.3,4.1l-0.6,2.4h-2.5l1.1-16h71.9
		L145.8,324.2z"/>
	<path class="st0" d="M196.8,355.4c1.7-0.3,3-0.7,3.9-1.3c0.9-0.6,1.7-1.4,2.1-2.3c0.5-1,0.9-2.1,1.2-3.6l0.6-2.4h2.4l-0.9,14.3
		h-44.3v-2.4c2,0,3.6-0.2,4.8-0.5c1.2-0.3,2.2-1,2.8-2c0.7-1,1.1-2.4,1.4-4.3c0.2-1.8,0.4-4.2,0.4-7.1v-19c0-3-0.1-5.4-0.4-7.2
		c-0.2-1.8-0.7-3.2-1.4-4.1c-0.7-1-1.6-1.6-2.8-2c-1.2-0.3-2.8-0.5-4.8-0.5v-2.4h26.2h15.3l0.9,14.2h-2.5l-0.6-2.4
		c-0.3-1.3-0.7-2.5-1.1-3.5c-0.4-1-1.1-1.8-2.1-2.4c-0.9-0.6-2.2-1-3.9-1.3c-1.7-0.3-3.8-0.4-6.5-0.4h-7.9v17.7h0.7
		c3,0,5.3-0.1,7-0.4c1.7-0.2,3-0.7,3.8-1.4c0.8-0.7,1.4-1.6,1.6-2.8c0.2-1.2,0.4-2.8,0.4-4.8h2.4v23.1H193c0-2-0.1-3.6-0.4-4.8
		c-0.2-1.2-0.8-2.2-1.6-2.8c-0.8-0.7-2.1-1.1-3.8-1.4c-1.7-0.2-4-0.4-7-0.4h-0.7v6.9c0,2.9,0.1,5.3,0.4,7.1c0.2,1.8,0.7,3.2,1.4,4.2
		c0.7,1,1.6,1.6,2.8,2c1.2,0.3,2.8,0.5,4.8,0.5h1.4C192.9,355.8,195.1,355.7,196.8,355.4"/>
	<path class="st0" d="M266.9,346.8c2.4,2.8,4.9,5.2,7.6,7.3c2.7,2.1,5.4,3.3,8.3,3.7v2.4h-15.2l-16.1-22h-3.3v5.8
		c0,2.9,0.1,5.3,0.4,7.1c0.2,1.8,0.7,3.2,1.4,4.3c0.7,1,1.6,1.7,2.8,2s2.8,0.5,4.8,0.5v2.4h-27.1v-2.4c2,0,3.6-0.2,4.8-0.5
		c1.2-0.3,2.2-1,2.8-2c0.7-1,1.1-2.4,1.4-4.3c0.2-1.8,0.4-4.2,0.4-7.1v-19c0-3-0.1-5.4-0.4-7.2c-0.2-1.8-0.7-3.2-1.4-4.1
		c-0.7-1-1.6-1.6-2.8-2c-1.2-0.3-2.8-0.5-4.8-0.5v-2.4H255c6.2,0,10.9,1.4,14.1,4.1c3.2,2.8,4.9,6.3,4.9,10.5c0,3.6-1.3,6.8-3.8,9.4
		c-2.5,2.6-6,4.3-10.5,4.9L266.9,346.8z M262.3,316.3c-1.6-2.1-4-3.1-7.3-3.1h-6.8v20.6h6.8c3.3,0,5.8-1,7.3-3
		c1.6-2,2.4-4.4,2.4-7.2C264.7,320.8,263.9,318.3,262.3,316.3"/>
	<path class="st0" d="M336.9,346.8c2.4,2.8,4.9,5.2,7.6,7.3c2.7,2.1,5.4,3.3,8.3,3.7v2.4h-15.2l-16.1-22h-3.3v5.8
		c0,2.9,0.1,5.3,0.4,7.1c0.2,1.8,0.7,3.2,1.4,4.3c0.7,1,1.6,1.7,2.8,2c1.2,0.3,2.8,0.5,4.8,0.5v2.4h-27.1v-2.4c2,0,3.6-0.2,4.8-0.5
		c1.2-0.3,2.2-1,2.8-2c0.7-1,1.1-2.4,1.4-4.3c0.2-1.8,0.4-4.2,0.4-7.1v-19c0-3-0.1-5.4-0.4-7.2c-0.2-1.8-0.7-3.2-1.4-4.1
		c-0.7-1-1.6-1.6-2.8-2c-1.2-0.3-2.8-0.5-4.8-0.5v-2.4h24.5c6.2,0,10.9,1.4,14.1,4.1c3.2,2.8,4.9,6.3,4.9,10.5
		c0,3.6-1.3,6.8-3.8,9.4c-2.5,2.6-6,4.3-10.5,4.9L336.9,346.8z M332.3,316.3c-1.6-2.1-4-3.1-7.3-3.1h-6.8v20.6h6.8
		c3.3,0,5.8-1,7.3-3c1.6-2,2.4-4.4,2.4-7.2C334.6,320.8,333.9,318.3,332.3,316.3"/>
	<path class="st0" d="M381.3,348.7c-0.7,1.7-1.2,3.2-1.5,4.3c-0.3,1.1-0.3,2.1,0.1,2.8c0.4,0.7,1.2,1.2,2.4,1.5
		c1.2,0.3,3,0.4,5.4,0.4v2.5h-22.4v-2.5c1.8,0,3.3-0.1,4.4-0.4c1.1-0.2,2.1-0.7,3-1.5c0.8-0.8,1.6-1.8,2.3-3.1
		c0.7-1.3,1.5-3.1,2.5-5.3l17.4-40.5h1.7l17.4,40.5c0.9,2.2,1.8,4,2.5,5.3c0.7,1.3,1.5,2.4,2.4,3.1c0.8,0.8,1.8,1.2,2.8,1.5
		s2.3,0.4,3.9,0.4v2.5H399v-2.5c4.3,0,6.8-0.6,7.5-1.9c0.7-1.3,0.4-3.6-1.1-7.1l-2.4-5.4h-19.4L381.3,348.7z M393.3,320.8l-7.8,18.1
		h15.6L393.3,320.8z"/>
	<path class="st0" d="M483.1,360.2c-0.2-1.1-0.6-2.3-0.9-3.4c-0.4-1.2-0.8-2-1.2-2.4c-1.8,2.2-4.2,4.1-7,5.6
		c-2.9,1.5-5.7,2.3-8.6,2.3c-3.7,0-7.2-0.7-10.4-2.2c-3.2-1.5-6.1-3.4-8.5-5.9c-2.5-2.5-4.4-5.4-5.7-8.8c-1.4-3.4-2.1-7-2.1-10.8
		c0-3.8,0.7-7.3,2.1-10.7c1.4-3.3,3.3-6.2,5.7-8.8c2.4-2.5,5.3-4.5,8.5-6c3.2-1.5,6.7-2.2,10.4-2.2c2.8,0,5.7,0.7,8.6,2.2
		c2.9,1.5,5.2,3.3,7,5.6c0.4-0.5,0.8-1.3,1.2-2.5c0.4-1.2,0.7-2.3,0.9-3.3h2.3v20.5H483c-1.1-5.5-3.2-9.9-6.2-13.2
		c-3-3.2-6.9-4.9-11.4-4.9c-3.3,0-6.1,0.7-8.3,2.2c-2.2,1.5-4,3.3-5.3,5.6c-1.3,2.3-2.2,4.8-2.8,7.5c-0.6,2.7-0.8,5.3-0.8,7.8
		c0,2.5,0.3,5.2,0.8,7.9c0.6,2.7,1.5,5.2,2.8,7.5c1.3,2.2,3.1,4.1,5.3,5.6c2.2,1.5,5,2.2,8.3,2.2c4.6,0,8.4-1.6,11.4-4.9
		c3-3.2,5.1-7.6,6.2-13.1h2.4v20.6H483.1z"/>
	<path class="st0" d="M510.1,376.8c2.4,0,4.4-0.2,5.9-0.5c1.5-0.3,2.6-1,3.4-2c0.8-1,1.3-2.4,1.5-4.3c0.2-1.8,0.4-4.2,0.4-7.1v-38.5
		c0-3-0.1-5.4-0.4-7.2c-0.2-1.8-0.8-3.2-1.5-4.1c-0.8-1-1.9-1.6-3.4-2c-1.5-0.3-3.5-0.5-5.9-0.5v-2.5h54l1.1,15.6h-2.5l-0.6-2.4
		c-0.4-1.6-0.8-2.9-1.3-4c-0.5-1.1-1.2-2-2.1-2.7c-0.9-0.7-2.2-1.2-3.8-1.6c-1.6-0.4-3.7-0.5-6.5-0.5h-17.5v26.9h5.9
		c3,0,5.4-0.1,7.2-0.4c1.8-0.2,3.2-0.8,4.1-1.6c1-0.8,1.6-2,2-3.5c0.3-1.5,0.5-3.5,0.5-5.9h2.5v27.1h-2.5c0-2.5-0.2-4.5-0.5-6
		c-0.3-1.5-1-2.6-2-3.4c-1-0.8-2.4-1.4-4.1-1.6c-1.8-0.2-4.2-0.4-7.2-0.4h-5.9v17.3c0,2.9,0.1,5.3,0.4,7.1c0.2,1.8,0.8,3.2,1.5,4.2
		c0.8,1,1.9,1.6,3.4,2c1.5,0.3,3.5,0.5,5.9,0.5h10.2c2.8,0,5-0.2,6.6-0.5c1.6-0.4,2.9-0.9,3.9-1.6s1.6-1.6,2.1-2.8
		c0.4-1.1,0.8-2.5,1.2-4.1l0.6-2.4h2.5l-0.9,15.8h-58V376.8z"/>
	<path class="st0" d="M187.3,386.3h7c3.5,0,6.4,2.7,6.4,6.3c0,2.9-1.7,5.3-4.3,6.1l5.3,9.4h-1.8l-5.1-9.2c-0.2,0-0.6,0-0.7,0h-5.2
		v9.2h-1.6V386.3z M194.2,397.5c2.8,0,4.9-2.1,4.9-4.9c0-2.7-2.1-4.8-4.8-4.8h-5.3v9.7H194.2z"/>
	<polygon class="st0" points="215.2,386.3 227.2,386.3 227.2,387.8 216.9,387.8 216.9,395.8 226.6,395.8 226.6,397.3 216.9,397.3 
		216.9,406.6 227.4,406.6 227.4,408.1 215.2,408.1 	"/>
	<path class="st0" d="M241.4,402.6c1.1,2.7,3.1,4.4,6.1,4.4c3.9,0,5-2.5,5-4.4c0-2.9-1.8-3.9-5.2-5.4c-3.3-1.4-5.6-2.7-5.6-6.1
		c0-3,2.4-5.2,5.6-5.2c2.6,0,4.5,1.1,5.6,3.2l-1.4,0.7c-0.9-1.6-2.2-2.4-4.2-2.4c-2.3,0-4,1.5-4,3.6c0,2.6,1.9,3.5,4.8,4.8
		c4,1.8,6.1,3.1,6.1,6.8c0,3.4-2.4,5.9-6.6,5.9c-3.4,0-6.2-1.7-7.6-5.2L241.4,402.6z"/>
	<polygon class="st0" points="271.4,387.8 265.1,387.8 265.1,386.3 279.4,386.3 279.4,387.8 273,387.8 273,408.1 271.4,408.1 	"/>
	<path class="st0" d="M297.1,386.3h1.3l9,21.9h-1.8l-2.4-6h-10.9l-2.4,6h-1.8L297.1,386.3z M302.6,400.7l-4.8-11.9l-4.8,11.9H302.6z
		"/>
	<path class="st0" d="M319.6,386.3h1.6v14.5c0,4.1,2.4,6.3,6.1,6.3c3.8,0,6.1-2.2,6.1-6.3v-14.5h1.6v14.6c0,5-3.2,7.6-7.8,7.6
		c-4.5,0-7.8-2.7-7.8-7.6V386.3z"/>
	<path class="st0" d="M350.4,386.3h7c3.5,0,6.4,2.7,6.4,6.3c0,2.9-1.7,5.3-4.3,6.1l5.3,9.4H363l-5.1-9.2c-0.2,0-0.6,0-0.7,0h-5.2
		v9.2h-1.6V386.3z M357.3,397.5c2.8,0,4.9-2.1,4.9-4.9c0-2.7-2.1-4.8-4.8-4.8h-5.3v9.7H357.3z"/>
	<path class="st0" d="M384.9,386.3h1.3l9,21.9h-1.8l-2.4-6H380l-2.4,6h-1.8L384.9,386.3z M390.3,400.7l-4.8-11.9l-4.8,11.9H390.3z"
		/>
	<polygon class="st0" points="408.7,386.3 410.1,386.3 424,405.2 424,386.3 425.6,386.3 425.6,408.1 424.3,408.1 410.3,389.1 
		410.3,408.1 408.7,408.1 	"/>
	<polygon class="st0" points="445.4,387.8 439.1,387.8 439.1,386.3 453.4,386.3 453.4,387.8 447.1,387.8 447.1,408.1 445.4,408.1 	
		"/>
	<polyline class="st1" points="252.5,449.6 21,449.6 21,265.1 621,265.1 621,449.6 393.5,449.6 	"/>
	<polyline class="st2" points="252.5,443.4 27.2,443.4 27.2,271.7 614.6,271.7 614.6,443.4 393.5,443.4 	"/>
	<path class="st3" d="M344.9,446.6c0.4,0,0.7-0.3,1.1-0.8c0.4-0.5,0.4-1,0.2-1.4c-0.4-0.8-0.1-1.4,0.9-2c1-0.6,2.1-0.9,3.3-0.9
		c0.9,0,1.9,0.2,3,0.6c1.1,0.4,2.1,1,3,1.8c0.9,0.8,1.7,1.8,2.3,3c0.6,1.2,1,2.6,1,4.1v0.4h-0.2c-5.1,0-9.9-0.7-14.6-2.1
		c-4.6-1.4-9.2-3.1-13.6-5c3.8-2.4,7.7-4.5,11.5-6.3c3.9-1.8,7.9-2.6,12.1-2.6c1.3,0,2.8,0.2,4.3,0.6c1.5,0.4,2.9,1,4.1,1.8
		c1.2,0.8,2.3,1.8,3.1,3c0.8,1.2,1.2,2.6,1.2,4.2c0,1.8-0.7,3.2-2,4.4c-1.3,1.2-2.9,1.8-4.8,2v-0.2c0-3.2-1-5.8-3-7.9
		c-2-2.1-4.5-3.1-7.5-3.1c-0.6,0-1.3,0.1-2.1,0.3c-0.8,0.2-1.5,0.5-2.1,0.9s-1.2,0.9-1.6,1.4c-0.4,0.6-0.6,1.3-0.6,2.1
		c0,0.3,0.1,0.6,0.2,1C344.3,446.4,344.5,446.6,344.9,446.6 M349.7,458.6c-4.2,0-8.5-0.9-13-2.8c-4.5-1.8-9.1-3.9-13.7-6
		c0.8-0.5,1.6-1,2.4-1.6c0.8-0.5,1.6-1.1,2.4-1.6c4.7,2.2,9.6,4,14.6,5.5c5,1.5,10.2,2.3,15.7,2.3h0.7c-0.8,1.4-2.1,2.5-3.8,3.1
		C353.3,458.2,351.6,458.6,349.7,458.6 M308.5,443.5c1-0.5,1.9-1,2.8-1.5c0.9-0.5,1.8-1,2.7-1.5c2,0.9,4.1,1.9,6.2,2.9
		c2.1,1,4.2,2,6.4,2.9c-0.8,0.5-1.6,1-2.3,1.5c-0.8,0.5-1.6,1-2.3,1.5c-2.3-1.1-4.5-2.1-6.7-3.1C313,445.2,310.8,444.3,308.5,443.5
		 M295.2,440.8c-1,0-2,0.2-3.1,0.6c-1.1,0.4-2.1,1-3.1,1.8c-1,0.8-1.7,1.8-2.4,2.9c-0.6,1.1-1,2.5-1,4v0.1h-1.1c-1,0-2-0.1-3.1-0.4
		c-1.1-0.3-2.1-0.6-3.1-1.1c-1-0.5-1.7-1.2-2.4-2c-0.6-0.8-1-1.7-1-2.7c0-1.6,0.5-3,1.5-4.2c1-1.2,2.2-2.2,3.7-3.1
		c1.4-0.8,3-1.4,4.7-1.8c1.7-0.4,3.2-0.6,4.7-0.6c4,0,7.9,0.5,11.6,1.5c3.7,1,7.4,2.3,11.1,3.9c-0.9,0.5-1.8,1-2.8,1.6
		c-0.9,0.5-1.9,1.1-2.9,1.6c-2-0.7-3.9-1.2-5.8-1.6C299,441,297.1,440.8,295.2,440.8 M298.8,459.1c3.6,0,7.1-0.7,10.5-2.1
		c3.4-1.4,6.8-3,10.2-5c4.7,2.2,9.4,4.2,14.3,6c4.9,1.8,9.7,2.8,14.4,2.8c1.1,0,2.3-0.1,3.5-0.3c1.2-0.2,2.4-0.6,3.5-1.1
		c1.1-0.5,2.1-1.2,3.1-2c0.9-0.8,1.6-1.9,2-3.1c2.5-0.4,4.5-1.5,6-3.2c1.6-1.7,2.3-3.8,2.3-6.2c0-1.8-0.4-3.3-1.2-4.7
		c-0.8-1.4-1.9-2.5-3.2-3.4c-1.3-0.9-2.8-1.6-4.4-2c-1.6-0.5-3.2-0.7-4.9-0.7c-4.4,0-8.7,1-12.7,3c-4,2-8,4.3-12.1,7
		c-2.1-0.9-4.2-1.9-6.2-2.9c-2-1-4.1-2-6.1-2.9c3.8-2.2,7.4-4.1,10.8-5.7c3.4-1.6,6.5-2.4,9.3-2.4c1,0,2.2,0.3,3.6,0.8
		c1.4,0.5,2.5,1.2,3.2,2.1c0.2,0.3,0.4,0.3,0.6,0.1c0.2-0.2,0.2-0.3,0.1-0.5c-0.7-1.3-1.8-2.2-3.2-2.8c-1.4-0.6-2.8-0.9-4.2-0.9
		c-3.2,0-6.7,0.9-10.4,2.6c-3.7,1.7-7.5,3.8-11.4,6.1c-3.9-1.7-7.8-3.1-11.6-4.2c-3.9-1.1-7.9-1.7-12.1-1.7c-2,0-4.2,0.3-6.4,0.8
		c-2.2,0.5-4.2,1.4-5.9,2.5c-1.8,1.1-3.2,2.4-4.3,3.9c-1.1,1.5-1.7,3.2-1.7,5c0,1.4,0.3,2.6,1,3.6c0.7,1,1.5,1.8,2.6,2.4
		c1.1,0.6,2.2,1.1,3.4,1.3c1.2,0.2,2.4,0.4,3.5,0.4h1.2c0.5,2.4,2,4.3,4.5,5.6C292.8,458.4,295.6,459.1,298.8,459.1 M304.7,445.5
		c2.2,0.8,4.4,1.6,6.7,2.6c2.3,1,4.6,2.1,7,3.3c-3.1,1.8-6.3,3.4-9.5,4.7c-3.2,1.3-6.5,1.9-9.9,1.9c-1.3,0-2.6-0.1-3.9-0.4
		c-1.3-0.2-2.5-0.7-3.6-1.2c-1.1-0.5-2-1.2-2.9-2.1c-0.8-0.8-1.4-1.8-1.6-2.9c3-0.2,5.9-0.9,8.8-2
		C298.8,448.3,301.8,447,304.7,445.5 M286.8,450.1v-0.3c0-1.2,0.2-2.2,0.7-3c0.5-0.8,1.1-1.4,1.9-2c0.8-0.5,1.6-0.9,2.5-1.1
		s1.8-0.4,2.6-0.4c1.3,0,2.6,0.1,4,0.4c1.4,0.3,2.8,0.7,4.3,1.1c-2.7,1.3-5.4,2.5-8,3.5C292.2,449.4,289.5,450,286.8,450.1"/>
</g>
<g>
	<defs>
		<path id="SVGID_1_" d="M244.6,190.4c-0.2,0-0.1,0.2,0,0.3c0.4,0.4,0.4,1.1,0.3,1.6c-0.1,0.3,0.7,0.6,0.8,0.4
			c0.3-0.7,0.1-1.5-0.5-2.1C245,190.5,244.8,190.4,244.6,190.4C244.6,190.4,244.6,190.4,244.6,190.4"/>
	</defs>
	<clipPath id="SVGID_2_">
		<use xlink:href="#SVGID_1_"  style="overflow:visible;"/>
	</clipPath>
	
		<linearGradient id="SVGID_3_" gradientUnits="userSpaceOnUse" x1="387.7178" y1="1122.3076" x2="390.6509" y2="1122.3076" gradientTransform="matrix(-0.3998 0.2038 0.2308 0.3531 141.6664 -283.8914)">
		<stop  offset="0" style="stop-color:#53721A"/>
		<stop  offset="3.749342e-002" style="stop-color:#59791F"/>
		<stop  offset="9.209317e-002" style="stop-color:#698C2D"/>
		<stop  offset="0.1568" style="stop-color:#84AC43"/>
		<stop  offset="0.1779" style="stop-color:#8EB84C"/>
		<stop  offset="0.5215" style="stop-color:#A6B421"/>
		<stop  offset="1" style="stop-color:#0D3A17"/>
	</linearGradient>
	<polygon class="st4" points="247.1,192.3 244.7,193.5 243.1,191 245.5,189.8 	"/>
</g>
<g>
	<defs>
		<path id="SVGID_4_" d="M242.5,191.8c0,0.2,0.1,0.4,0.1,0.5c0,0.2,0.2,0.3,0.4,0.4c0.1,0,0.5,0.1,0.4-0.1c0-0.2-0.1-0.4-0.1-0.5
			c0-0.2-0.2-0.3-0.4-0.4c0,0-0.2,0-0.2,0C242.6,191.7,242.5,191.7,242.5,191.8"/>
	</defs>
	<clipPath id="SVGID_5_">
		<use xlink:href="#SVGID_4_"  style="overflow:visible;"/>
	</clipPath>
	
		<linearGradient id="SVGID_6_" gradientUnits="userSpaceOnUse" x1="611.7132" y1="1358.9281" x2="614.6462" y2="1358.9281" gradientTransform="matrix(-0.2508 0.1279 0.1448 0.2215 200.0016 -187.1128)">
		<stop  offset="0" style="stop-color:#53721A"/>
		<stop  offset="3.749342e-002" style="stop-color:#59791F"/>
		<stop  offset="9.209317e-002" style="stop-color:#698C2D"/>
		<stop  offset="0.1568" style="stop-color:#84AC43"/>
		<stop  offset="0.1779" style="stop-color:#8EB84C"/>
		<stop  offset="0.5215" style="stop-color:#A6B421"/>
		<stop  offset="1" style="stop-color:#0D3A17"/>
	</linearGradient>
	<polygon class="st5" points="244,192.6 242.7,193.2 241.9,192 243.2,191.3 	"/>
</g>
<g>
	<defs>
		<path id="SVGID_7_" d="M235.3,188.5l-1.8,1.5l-0.5,1.5l-1.1,0.7l0.3,1.7c0,0-2.2-1.2-3.6-1.1c-0.6,0-1.3-0.2-1.9-0.4
			c-0.9-0.3-1.4-0.7-0.7-0.2c1.1,0.9,0.2,1.6,0.3,3.1c0.1,1.4,1.6,3.2,1.6,3.2l-1.3,0.8l1.8,2.2l-0.7,1.3l1.4,0.7l-0.6,0.4l1.6,2.2
			l0.9,1.2l1-0.2l0.8,1.1l2.1-0.2l1.2,1.5l2.6-1.5c0,0,0.3,0.4,0.5,0.7c0.2,0.3,1.6-1.1,2.6-2c0.3-0.3,0.2-0.7,0-1.2l1.4,1.8
			l1.5-0.9l2.2-0.1l0.8-1.6l1-1.5l0-1.6l1.8-1.7l-3.7-1.4l2.7-2.5l-0.6-1.1l-1.6-5.3l-2.3,1.9l-1.5-2l-0.9,0.7l-1.2-1.6L241,189
			l-1.3-1.8l-0.8,0.5l-3.1-2.6L235.3,188.5z"/>
	</defs>
	<clipPath id="SVGID_8_">
		<use xlink:href="#SVGID_7_"  style="overflow:visible;"/>
	</clipPath>
	
		<linearGradient id="SVGID_9_" gradientUnits="userSpaceOnUse" x1="7.2763" y1="747.5489" x2="10.2094" y2="747.5489" gradientTransform="matrix(-7.1632 -4.9752 -5.6332 6.3264 4511.6963 -4488.4756)">
		<stop  offset="0" style="stop-color:#5D7D1F"/>
		<stop  offset="0.1047" style="stop-color:#6C8827"/>
		<stop  offset="0.3698" style="stop-color:#8D9F38"/>
		<stop  offset="0.5153" style="stop-color:#99A83E"/>
		<stop  offset="0.5863" style="stop-color:#94A73E"/>
		<stop  offset="0.6658" style="stop-color:#87A23D"/>
		<stop  offset="0.7492" style="stop-color:#719B3C"/>
		<stop  offset="0.8356" style="stop-color:#51913A"/>
		<stop  offset="0.9231" style="stop-color:#298437"/>
		<stop  offset="1" style="stop-color:#007735"/>
	</linearGradient>
	<polygon class="st6" points="240.9,220.3 211.9,200.1 234.9,174.3 263.9,194.4 	"/>
</g>
<g>
	<defs>
		<path id="SVGID_10_" d="M235.6,189.8c-0.2,0.7-0.4,1.3-0.7,1.9c0-0.1-0.1-0.1-0.1-0.2c-0.1-0.2-0.9-0.4-0.8-0.1
			c0.2,0.3,0.4,0.6,0.6,0.9c0,0,0,0,0,0.1c0,0.1,0.1,0.2,0.3,0.3c0.5,0.6,1,1.2,1.6,1.8c0.1,0.1,0.4,0.2,0.6,0.2c0,0.3,0,0.6,0,0.9
			c0.1,0.9,0.5,1.6,1.1,2.3c-0.1,0.1,0.1,0.3,0.3,0.4c1.5,2.1,1.9,4.7,2.7,7c-0.1,0.1-0.1,0.3,0.2,0.4c0.1,0.2,0.2,0.4,0.2,0.5
			c0.1,0.2,0.8,0.3,0.8,0.2c0,0,0-0.1,0-0.1c1.1,1.2,1.5,3.3,2,4.6l0.5,0.1c0,0,0,0,0,0h0c0,0,0.1-0.1,0.1-0.2
			c0.1-0.1,0.2-0.2,0.1-0.2c-0.7-1.8-1.1-4.3-3.1-5.3c-0.4-0.9-0.6-1.9-0.9-2.9c0.2,0.1,0.5,0.2,0.6,0.1c0.7-0.8,1.3-1.7,2.4-2.1
			c0,0-0.1-0.2-0.3-0.2c0.1,0,0.2,0,0.2,0c0-0.1,0-0.1,0-0.2c0.6-0.2,1.2-0.4,1.7-0.5c0.3-0.1-0.4-0.4-0.6-0.4
			c-0.3,0.1-0.7,0.2-1,0.3c0.1-0.5,0.3-0.9,0.6-1.4c0.1-0.2-0.7-0.5-0.8-0.3c-0.4,0.6-0.6,1.3-0.8,2c0,0,0,0,0,0c-0.1,0,0,0.1,0,0.1
			c0,0,0,0.1,0,0.1c0,0.1,0.1,0.2,0.3,0.2c0,0-0.1,0-0.1,0c-1.1,0.4-1.7,1.2-2.4,2c-0.3-1-0.7-2-1.2-2.9c-0.2-0.4-0.5-0.8-0.8-1.2
			l3-3.3c0.1,0,0.2,0.1,0.2,0.1c1.2,0.1,2.4,0.1,3.6-0.2c0.1,0-0.2-0.2-0.2-0.2c-0.1-0.1-0.3-0.1-0.5-0.1c-0.9,0.2-1.9,0.2-2.9,0.2
			l0.2-0.3c0.2-0.3-0.5-0.6-0.7-0.4l-3.2,3.6c-0.2-0.4-0.4-0.7-0.5-1.1c-0.4-1.2,0-2.6-0.3-3.8c0-0.2-0.8-0.4-0.8-0.2
			c0.1,0.7,0.1,1.4,0.1,2.1c-0.6-0.6-1.1-1.2-1.6-1.8c0.4-0.8,0.7-1.6,0.9-2.4c0-0.2-0.4-0.4-0.6-0.4
			C235.7,189.8,235.6,189.8,235.6,189.8"/>
	</defs>
	<clipPath id="SVGID_11_">
		<use xlink:href="#SVGID_10_"  style="overflow:visible;"/>
	</clipPath>
	
		<linearGradient id="SVGID_12_" gradientUnits="userSpaceOnUse" x1="66.0125" y1="761.8812" x2="68.9456" y2="761.8812" gradientTransform="matrix(-3.3393 2.2077 2.4998 2.9492 -1437.316 -2196.7766)">
		<stop  offset="0" style="stop-color:#53721A"/>
		<stop  offset="3.749342e-002" style="stop-color:#59791F"/>
		<stop  offset="9.209317e-002" style="stop-color:#698C2D"/>
		<stop  offset="0.1568" style="stop-color:#84AC43"/>
		<stop  offset="0.1779" style="stop-color:#8EB84C"/>
		<stop  offset="0.5215" style="stop-color:#A6B421"/>
		<stop  offset="1" style="stop-color:#0D3A17"/>
	</linearGradient>
	<polygon class="st7" points="257.6,203.4 238.2,216.2 222.3,197.4 241.6,184.6 	"/>
</g>
<g>
	<defs>
		<path id="SVGID_13_" d="M246.1,200.5c-0.5,0,0.1,0.5,0.4,0.6c1,0,1.9,0.2,2.9,0.2c0.5,0-0.1-0.5-0.4-0.6
			C248.1,200.7,247.1,200.5,246.1,200.5L246.1,200.5z"/>
	</defs>
	<clipPath id="SVGID_14_">
		<use xlink:href="#SVGID_13_"  style="overflow:visible;"/>
	</clipPath>
	
		<linearGradient id="SVGID_15_" gradientUnits="userSpaceOnUse" x1="188.8495" y1="911.0478" x2="191.7825" y2="911.0478" gradientTransform="matrix(-0.8777 0.4475 0.5067 0.7752 -46.8399 -590.4783)">
		<stop  offset="0" style="stop-color:#53721A"/>
		<stop  offset="3.749342e-002" style="stop-color:#59791F"/>
		<stop  offset="9.209317e-002" style="stop-color:#698C2D"/>
		<stop  offset="0.1568" style="stop-color:#84AC43"/>
		<stop  offset="0.1779" style="stop-color:#8EB84C"/>
		<stop  offset="0.5215" style="stop-color:#A6B421"/>
		<stop  offset="1" style="stop-color:#0D3A17"/>
	</linearGradient>
	<polygon class="st8" points="250.4,201.1 246.7,203 245.2,200.7 248.9,198.8 	"/>
</g>
<g>
	<defs>
		<path id="SVGID_16_" d="M229.7,201.6c-0.4,0.3,0.4,0.4,0.7,0.2c0.6-0.4,1.2-0.6,2-0.5c0.2,0,0.5,0,0.6-0.1
			c0.1-0.1-0.1-0.3-0.2-0.3c-0.2,0-0.5,0-0.7,0C231.3,200.9,230.5,201.1,229.7,201.6"/>
	</defs>
	<clipPath id="SVGID_17_">
		<use xlink:href="#SVGID_16_"  style="overflow:visible;"/>
	</clipPath>
	
		<linearGradient id="SVGID_18_" gradientUnits="userSpaceOnUse" x1="357.2711" y1="782.8127" x2="360.2042" y2="782.8127" gradientTransform="matrix(-0.3137 0.609 0.6896 0.2771 -196.0351 -233.9828)">
		<stop  offset="0" style="stop-color:#53721A"/>
		<stop  offset="3.749342e-002" style="stop-color:#59791F"/>
		<stop  offset="9.209317e-002" style="stop-color:#698C2D"/>
		<stop  offset="0.1568" style="stop-color:#84AC43"/>
		<stop  offset="0.1779" style="stop-color:#8EB84C"/>
		<stop  offset="0.5215" style="stop-color:#A6B421"/>
		<stop  offset="1" style="stop-color:#0D3A17"/>
	</linearGradient>
	<polygon class="st9" points="233.6,201.1 232.5,203.3 228.8,201.8 229.9,199.6 	"/>
</g>
<g>
	<defs>
		<path id="SVGID_19_" d="M228,198.1c1.3,0.5,2.4,1.1,3.4,2.1c-0.6,0-1.2,0-1.8,0c-0.6,0-0.5,0.5,0.1,0.5c3.5-0.1,7.6,0.5,10.5,2.3
			c0.3,0.2,1.2-0.1,0.8-0.3c-2.4-1.5-5.5-2.2-8.5-2.4c0,0,0.1-0.1,0-0.2c-1-1-2.3-1.8-3.7-2.3c0,0-0.1,0-0.2,0
			C228.1,197.7,227.6,197.9,228,198.1"/>
	</defs>
	<clipPath id="SVGID_20_">
		<use xlink:href="#SVGID_19_"  style="overflow:visible;"/>
	</clipPath>
	
		<linearGradient id="SVGID_21_" gradientUnits="userSpaceOnUse" x1="272.9647" y1="769.4811" x2="275.8978" y2="769.4811" gradientTransform="matrix(-0.4163 0.8082 0.9151 0.3677 -355.797 -303.5875)">
		<stop  offset="0" style="stop-color:#53721A"/>
		<stop  offset="3.749342e-002" style="stop-color:#59791F"/>
		<stop  offset="9.209317e-002" style="stop-color:#698C2D"/>
		<stop  offset="0.1568" style="stop-color:#84AC43"/>
		<stop  offset="0.1779" style="stop-color:#8EB84C"/>
		<stop  offset="0.5215" style="stop-color:#A6B421"/>
		<stop  offset="1" style="stop-color:#0D3A17"/>
	</linearGradient>
	<polygon class="st10" points="243.6,198.6 239,207.7 225.3,202.2 229.9,193.1 	"/>
</g>
<g>
	<defs>
		<path id="SVGID_22_" d="M160.5,196.1l-2.1,1.7l-0.6,1.8l-1.2,0.8l0.3,2c0,0-2.5-1.4-4.2-1.3c-0.7,0-1.5-0.2-2.2-0.5
			c-1-0.4-1.6-0.8-0.8-0.2c1.3,1,0.3,1.9,0.4,3.5c0.1,1.6,1.9,3.7,1.9,3.7l-1.5,0.9l2.1,2.5l-0.8,1.5l1.7,0.8l-0.7,0.4l1.9,2.5
			l1,1.3l1.2-0.2l0.9,1.2l2.4-0.3l1.3,1.8l3-1.8c0,0,0.3,0.4,0.6,0.8c0.3,0.4,1.9-1.2,3-2.3c0.3-0.3,0.3-0.8,0-1.4l1.6,2.1l1.7-1
			l2.5-0.1l0.9-1.9l1.2-1.7l0-1.9l2-2l-4.3-1.6l3.1-2.9l-0.7-1.3l-1.8-6.1l-2.7,2.2l-1.7-2.3l-1,0.8l-1.4-1.9l-0.5,0.5l-1.5-2.1
			l-0.9,0.5l-3.5-3L160.5,196.1z"/>
	</defs>
	<clipPath id="SVGID_23_">
		<use xlink:href="#SVGID_22_"  style="overflow:visible;"/>
	</clipPath>
	
		<linearGradient id="SVGID_24_" gradientUnits="userSpaceOnUse" x1="12.1235" y1="747.4836" x2="15.0566" y2="747.4836" gradientTransform="matrix(-8.2779 -5.7494 -6.5099 7.3109 5142.1348 -5180.355)">
		<stop  offset="0" style="stop-color:#5D7D1F"/>
		<stop  offset="0.1047" style="stop-color:#6C8827"/>
		<stop  offset="0.3698" style="stop-color:#8D9F38"/>
		<stop  offset="0.5153" style="stop-color:#99A83E"/>
		<stop  offset="0.5863" style="stop-color:#94A73E"/>
		<stop  offset="0.6658" style="stop-color:#87A23D"/>
		<stop  offset="0.7492" style="stop-color:#719B3C"/>
		<stop  offset="0.8356" style="stop-color:#51913A"/>
		<stop  offset="0.9231" style="stop-color:#298437"/>
		<stop  offset="1" style="stop-color:#007735"/>
	</linearGradient>
	<polygon class="st11" points="167,232.8 133.5,209.6 160.1,179.7 193.6,203 	"/>
</g>
<g>
	<defs>
		<path id="SVGID_25_" d="M171.5,222.2L171.5,222.2C171.5,222.2,171.5,222.2,171.5,222.2 M160.9,197.6c-0.2,0.8-0.5,1.5-0.8,2.2
			c0-0.1-0.1-0.2-0.1-0.2c-0.1-0.2-1.1-0.4-0.9-0.1c0.2,0.4,0.4,0.7,0.7,1.1c0,0,0,0,0,0.1c-0.1,0.1,0.1,0.2,0.3,0.3
			c0.6,0.7,1.2,1.4,1.8,2.1c0.1,0.1,0.4,0.2,0.7,0.2c0,0.3,0,0.7,0,1c0.1,1,0.6,1.9,1.2,2.7c-0.1,0.1,0.1,0.3,0.3,0.4
			c1.7,2.4,2.1,5.4,3.2,8.1c-0.1,0.1-0.1,0.3,0.2,0.4c0.1,0.2,0.2,0.4,0.3,0.6c0.1,0.2,1,0.4,0.9,0.3c0,0,0-0.1,0-0.1
			c1.3,1.4,1.7,3.8,2.3,5.3l0.5,0.1c0,0,0.1-0.1,0.1-0.2c0.1-0.1,0.2-0.2,0.1-0.2c-0.8-2.1-1.3-4.9-3.6-6.1
			c-0.4-1.1-0.7-2.2-1.1-3.3c0.2,0.1,0.6,0.3,0.7,0.2c0.8-0.9,1.5-2,2.8-2.4c0.1,0-0.2-0.2-0.4-0.3c0.1,0,0.3,0,0.3,0
			c0-0.1,0-0.1,0-0.2c0.7-0.3,1.3-0.4,2-0.6c0.3-0.1-0.5-0.5-0.7-0.4c-0.4,0.1-0.8,0.2-1.1,0.3c0.2-0.5,0.4-1.1,0.7-1.6
			c0.1-0.2-0.8-0.6-0.9-0.3c-0.4,0.7-0.7,1.5-0.9,2.3c0,0,0,0,0,0c-0.1,0-0.1,0.1,0,0.2c0,0,0,0.1,0,0.1c0,0.1,0.1,0.2,0.3,0.3
			c0,0-0.1,0-0.1,0c-1.2,0.4-2,1.4-2.8,2.3c-0.4-1.1-0.8-2.3-1.4-3.3c-0.3-0.5-0.6-1-0.9-1.4l3.4-3.9c0.1,0,0.2,0.1,0.2,0.1
			c1.4,0.1,2.8,0.2,4.2-0.2c0.2,0-0.2-0.3-0.2-0.3c-0.2-0.1-0.4-0.2-0.6-0.1c-1.1,0.3-2.2,0.3-3.3,0.2l0.3-0.3
			c0.3-0.3-0.6-0.7-0.8-0.4l-3.7,4.1c-0.2-0.4-0.5-0.9-0.6-1.3c-0.4-1.4,0-3-0.3-4.4c0-0.2-1-0.5-0.9-0.3c0.2,0.8,0.2,1.6,0.2,2.4
			c-0.6-0.7-1.3-1.4-1.8-2.1c0.4-0.9,0.8-1.9,1-2.8c0-0.2-0.5-0.4-0.7-0.4C161,197.6,160.9,197.6,160.9,197.6"/>
	</defs>
	<clipPath id="SVGID_26_">
		<use xlink:href="#SVGID_25_"  style="overflow:visible;"/>
	</clipPath>
	
		<linearGradient id="SVGID_27_" gradientUnits="userSpaceOnUse" x1="68.6168" y1="751.6161" x2="71.5498" y2="751.6161" gradientTransform="matrix(-3.8589 2.5512 2.8887 3.4081 -1732.6123 -2531.9575)">
		<stop  offset="0" style="stop-color:#53721A"/>
		<stop  offset="3.749342e-002" style="stop-color:#59791F"/>
		<stop  offset="9.209317e-002" style="stop-color:#698C2D"/>
		<stop  offset="0.1568" style="stop-color:#84AC43"/>
		<stop  offset="0.1779" style="stop-color:#8EB84C"/>
		<stop  offset="0.5215" style="stop-color:#A6B421"/>
		<stop  offset="1" style="stop-color:#0D3A17"/>
	</linearGradient>
	<polygon class="st12" points="186.3,213.4 163.9,228.1 145.5,206.4 167.9,191.7 	"/>
</g>
<g>
	<defs>
		<path id="SVGID_28_" d="M151.5,207.2c1.5,0.6,2.8,1.3,3.9,2.4c-0.7,0-1.4,0-2.1,0c-0.7,0-0.6,0.6,0.1,0.6
			c4.1-0.2,8.8,0.5,12.1,2.6c0.3,0.2,1.4-0.1,0.9-0.4c-2.8-1.7-6.4-2.6-9.9-2.8c0.1-0.1,0.1-0.1,0-0.2c-1.2-1.2-2.7-2-4.3-2.7
			c-0.1,0-0.1,0-0.2,0C151.6,206.8,151,207,151.5,207.2"/>
	</defs>
	<clipPath id="SVGID_29_">
		<use xlink:href="#SVGID_28_"  style="overflow:visible;"/>
	</clipPath>
	
		<linearGradient id="SVGID_30_" gradientUnits="userSpaceOnUse" x1="262.1749" y1="725.5979" x2="265.1079" y2="725.5979" gradientTransform="matrix(-0.4765 0.9356 1.0593 0.4208 -484.4458 -341.3101)">
		<stop  offset="0" style="stop-color:#53721A"/>
		<stop  offset="3.749342e-002" style="stop-color:#59791F"/>
		<stop  offset="9.209317e-002" style="stop-color:#698C2D"/>
		<stop  offset="0.1568" style="stop-color:#84AC43"/>
		<stop  offset="0.1779" style="stop-color:#8EB84C"/>
		<stop  offset="0.5215" style="stop-color:#A6B421"/>
		<stop  offset="1" style="stop-color:#0D3A17"/>
	</linearGradient>
	<polygon class="st13" points="169.6,207.8 164.2,218.3 148.4,212 153.7,201.5 	"/>
</g>
<g>
	<defs>
		<path id="SVGID_31_" d="M214.4,252.6c2.6-1.9,5.1-3.7,8.1-5.1c2.9-1.4,6-2.4,9.2-3.3c6-1.7,12.1-3.1,18-4.9
			c3.1-0.9,6.1-1.9,9.2-2.9c-4.8,3.8-9.6,7.6-15,10.8c-5.8,3.4-12.4,5.9-19.1,7.8c-6.7,2-13.8,3.7-20.9,4.7
			C207.5,257.5,210.9,255.1,214.4,252.6 M296.7,216.8c6.9-0.9,13.9,0,20.8,0.9c-12.2,1.9-23.9,5.3-35.5,9.1c-4.9,1.6-9.7,3.3-14.5,5
			C276,225.2,285.2,218.4,296.7,216.8 M253.4,204.7c-3.9,0-7.1,1.8-9.2,4.7c-2.3,3.1-2.4,7-0.3,10.2c1.7,2.5,4.8,4,7.9,4.8
			c6.9,1.8,14.2,1.2,21.2,1.1c-3.8,2.7-7.5,5.6-11,8.5c-5.9,2-11.8,4-17.8,5.6c0.8-0.5,0.9-1.5-0.5-1.3c-12.3,1.3-25.2,6.6-37.7,4.1
			c-4.3-0.9-10.3-2.3-11.3-6.8c-0.5-2.5,1.7-5.3,4.7-3.8c2.1,1,0.2,3.7-1,4.5c-1.4,1,0.8,1.6,1.7,1c1.7-1.3,3.1-3,2.7-5.1
			c-0.5-2.2-3.9-2.6-5.9-2.3c-2.6,0.4-4.3,2.1-4.9,4.3c-0.7,2.5,1,4.8,3,6.3c2.4,1.8,5.8,2.6,8.8,3.2c3.8,0.8,7.7,1,11.6,0.7
			c9.3-0.6,18.2-3.5,27.5-4.5c-0.4,0.1-0.8,0.2-1.2,0.3c-5.8,1.5-11.6,2.8-17.1,4.9c-5.7,2.1-10.2,5.5-14.9,8.8
			c-3.1,2.2-6.3,4.3-9.7,6.3c-0.1,0-0.1,0-0.2,0c-0.5,0-1,0.1-1.5,0.2c-2.5,0.2-4.9,0.3-7.4,0.3c-8.7-0.1-17-2.6-21.6-9.4
			c-3.6-5.4-5.2-12.3-4.1-18.5c1.1-6.2,6.1-11.9,13.8-11.2c4.3,0.4,7.6,3.1,6.8,7c-0.3,1.7-1.4,3.3-2.7,4.6c-0.3,0.3-0.6,0.6-1,0.8
			c0.1-0.1-0.1-0.1-0.5-0.6c-0.8-1.2-0.7-2.7-0.4-4c0.2-1-3.3-0.4-3.5,0.5c-0.4,1.8-0.5,4.1,1.3,5.4c1.2,0.9,3.5,0.3,4.7-0.2
			c3.4-1.6,5.7-5.2,5.8-8.6c0.1-3.8-4.1-5.7-7.8-6.3c-4-0.7-8.5,0.3-12,2c-13.6,6.7-9.5,27.5,0.8,35.1c4.9,3.6,11.4,4.8,17.9,4.9
			c-8.8,1.9-17.6,3.9-26.4,2.1c-4.3-0.9-10.3-2.3-11.3-6.8c-0.5-2.5,1.7-5.3,4.7-3.8c2.1,1,0.2,3.7-1,4.5c-1.4,1,0.8,1.7,1.7,1
			c1.7-1.3,3.1-3,2.7-5.1c-0.5-2.2-3.9-2.6-5.9-2.3c-2.6,0.4-4.3,2.1-4.9,4.3c-0.7,2.5,1,4.8,3,6.3c2.4,1.8,5.8,2.6,8.8,3.3
			c3.8,0.8,7.7,1,11.6,0.7c8.3-0.5,16.3-2.9,24.5-4.1c-1.2,0.6-2.5,1.2-3.8,1.7c-5.4,2.2-11.2,4-15.8,7.3c-3.7,2.7-9.7,8.9-4.2,12.6
			c4,2.7,11.7,2.6,15.6-0.1c1.7-1.2,3.4-3,3.4-5c0-2.2-2.8-3-4.8-3.1c-1.9,0-4.2,0.7-5.3,2.1c-1.5,1.8,2.8,2.1,3.8,2.1
			c1.1,0,2.8-1.4,1-1.4c-0.4,0-2.9,0-2.1-0.8c0.6-0.6,1.8-0.6,2.6-0.5c3.3,0.6,2.1,3.4,0.6,5c-3.1,3.2-11,2.7-13.8-0.7
			c-1.6-2,0.2-4.6,1.5-6.3c1.8-2.2,4.1-3.9,6.7-5.3c5.4-2.9,11.5-4.6,17.1-7.3c0.8-0.4,1.6-0.8,2.4-1.3c6-0.7,12.1-1.8,18-3.3
			c5.1-0.5,12.9,0.2,13.5,5.1c0.3,2.4-1.9,4.8-3.9,6.1c-2.9,1.9-4.9,0.3-5.1-2.5c0-0.4-1.8-0.1-1.8,0.4c0.2,2.9,2.1,4.2,5.2,3.5
			c3.1-0.7,5.9-3.2,7-5.8c2.5-6.1-5.9-7.6-12.3-7.5c3.9-1.1,7.7-2.2,11.4-3.6c9.2-3.3,16.9-8.2,24.3-13.7c-0.8,2.2-1.2,4.5-1.4,6.8
			c-0.3,4.4,0.1,9.1,1.4,13.3c2.6,8.4,12.2,16.9,22.8,15.9c8.5-0.9,13.5-11.1,9.6-17.6c-2.8-4.6-12.8-7.1-14.5-0.4
			c-0.4,1.7,0.2,3.5,1.7,4.5c2,1.4,5,0.2,6.7-0.9c1.5-0.9-0.8-1.5-1.7-0.9c-2,1.3-3.6,0.7-4-1.5c-0.4-2,0.9-4.1,3.3-3.9
			c4.5,0.3,6.9,4.4,7.1,8c0.1,3.7-1.7,8-5.2,10.2c-4.2,2.5-10.3-0.1-13.8-2.3c-4.5-2.8-7.6-7.2-9.2-11.8c-1.3-3.9-1.6-8.3-1.4-12.3
			c0.1-3.6,0.9-7.5,3.1-10.6c0.8-0.6,1.6-1.3,2.4-2c1.8-0.6,3.6-1.2,5.4-1.9c17.2-6.2,34.6-12.1,53.1-14.4c0,0,0,0,0,0
			c1.1,0.1,2.1,0.3,3.2,0.4c0.8,0.1,1.8-0.1,2.5-0.6c0.6-0.4,0.4-0.8-0.3-0.9c-13.3-1.3-26.3-4.1-39.3,0.1
			c-5.2,1.7-9.9,4.2-14.3,7.1c-4.7,0.1-9.4,0.4-14.2,0c-5-0.4-10.7-1.6-13.6-5.6c-1.6-2.2-1.9-4.9-1.1-7.4c0.5-1.5,1.4-2.8,2.5-4
			c1.7-1.8,3.7-2.2,6.1-1.7c2.6,0.5,4.8,2.8,3.2,5.1c-0.6,0.9-1.6,1.2-2.6,0.7c-1.2-0.6-0.9-2.2-0.6-3.1c0.1-0.4-2.4-0.1-2.6,0.4
			c-0.8,2.5,0.4,4.1,3.4,3.9c2.2-0.1,5.3-1.3,5.6-3.5c0.4-3.4-3.9-4.5-6.9-4.6C253.5,204.7,253.5,204.7,253.4,204.7"/>
	</defs>
	<clipPath id="SVGID_32_">
		<use xlink:href="#SVGID_31_"  style="overflow:visible;"/>
	</clipPath>
	
		<linearGradient id="SVGID_33_" gradientUnits="userSpaceOnUse" x1="18.067" y1="717.3612" x2="21.0001" y2="717.3612" gradientTransform="matrix(61.541 0 0 -54.3516 -963.7712 39235.3398)">
		<stop  offset="0" style="stop-color:#53721A"/>
		<stop  offset="0.1671" style="stop-color:#567621"/>
		<stop  offset="0.3988" style="stop-color:#5F8033"/>
		<stop  offset="1" style="stop-color:#0D3A17"/>
	</linearGradient>
	<rect x="147.6" y="204.7" class="st14" width="181.2" height="81.8"/>
</g>
<g>
	<defs>
		<path id="SVGID_34_" d="M245.3,229.3l-5.2-1.9l-1.4,1.3l-7.2,4.8l4.2,1.7l-2.2,2.9l1.6,0.6l-1.8,2.3l0.9,0.2l-2,2.6l1.1,0.7
			l-2.2,5l5.4-1.2l3.3,1.3l2.6-0.2l1.7,0.9l2.5-1.3c0,0-0.6,3.2,0.3,4.9c0.9,1.7-0.2,5.3,0.5,3.4c0.7-1.9,2.4-1.2,4.5-2
			c2.1-0.8,4-3.7,4-3.7l1.9,1.1l2.4-3.3l2.3,0.1l0.3-2.1l0.9,0.5l2.4-3.1l1.3-1.7l-0.8-1.1l1.2-1.6l-1.5-2.4l1.7-2.2l-3.8-2.3
			c0,0,0.4-0.6,0.8-1c0.3-0.4-2.5-1.3-4.4-2c-0.6-0.2-1.2,0.1-1.8,0.6l2.1-2.7l-2.1-1.3l-1.3-2.5l-3-0.1l-2.8-0.4l-2.5,0.9l-3.6-1.2
			L245.3,229.3z"/>
	</defs>
	<clipPath id="SVGID_35_">
		<use xlink:href="#SVGID_34_"  style="overflow:visible;"/>
	</clipPath>
	
		<linearGradient id="SVGID_36_" gradientUnits="userSpaceOnUse" x1="40.5581" y1="724.1625" x2="43.4912" y2="724.1625" gradientTransform="matrix(-3.6751 11.2407 12.7276 3.2457 -8812.6641 -2581.959)">
		<stop  offset="0" style="stop-color:#5D7D1F"/>
		<stop  offset="0.1047" style="stop-color:#6C8827"/>
		<stop  offset="0.3698" style="stop-color:#8D9F38"/>
		<stop  offset="0.5153" style="stop-color:#99A83E"/>
		<stop  offset="0.5863" style="stop-color:#94A73E"/>
		<stop  offset="0.6658" style="stop-color:#87A23D"/>
		<stop  offset="0.7492" style="stop-color:#719B3C"/>
		<stop  offset="0.8356" style="stop-color:#51913A"/>
		<stop  offset="0.9231" style="stop-color:#298437"/>
		<stop  offset="1" style="stop-color:#007735"/>
	</linearGradient>
	<polygon class="st15" points="278.5,226.9 265,268 220.4,256.7 233.9,215.5 	"/>
</g>
<g>
	<defs>
		<path id="SVGID_37_" d="M265.7,224.9C265.7,224.9,265.7,224.9,265.7,224.9L265.7,224.9z M265.1,224.8c-2.4,1.8-5.9,3.7-6.4,6.6
			c-1.2,0.9-2.6,1.8-3.9,2.7c0.1-0.3,0.1-0.8-0.1-0.8c-1.6-0.4-3.3-0.6-4.5-1.8c0,0-0.2,0.3-0.2,0.6c0-0.2-0.1-0.3-0.2-0.2
			c-0.1,0-0.2,0-0.3,0.1c-0.6-0.6-1.2-1.2-1.8-1.8c-0.3-0.3-0.5,0.7-0.3,0.9c0.3,0.3,0.6,0.7,1,1c-0.8,0.1-1.6,0.1-2.4,0
			c-0.3,0-0.4,1.1,0,1.1c1.2,0.1,2.3,0,3.4-0.2c0,0,0,0,0,0c0.1,0.1,0.1,0,0.2-0.1c0,0,0.1,0,0.1,0c0.1,0,0.2-0.2,0.2-0.4
			c0,0,0,0.1,0.1,0.1c1.1,1.1,2.8,1.4,4.4,1.8c-1.3,0.9-2.6,1.9-3.8,3c-0.5,0.5-1,1.1-1.5,1.6l-6.7-1.7c0-0.1,0-0.2,0-0.3
			c-0.5-1.5-1.1-3-2.2-4.2c-0.1-0.2-0.2,0.3-0.2,0.4c0,0.2,0,0.5,0.1,0.7c0.9,1,1.4,2.1,1.9,3.3l-0.5-0.1c-0.5-0.1-0.6,0.9-0.2,1
			l7.2,1.8c-0.4,0.5-0.9,0.9-1.5,1.2c-1.7,1.1-3.9,1.4-5.7,2.5c-0.3,0.2-0.2,1.2,0.1,1c1-0.6,2-0.9,3.1-1.3c-0.6,1-1.2,2-2,2.9
			c-1.4,0-2.8,0.1-4.2,0.3c-0.4,0.1-0.3,1.1,0,1.1c1.1-0.2,2.2-0.2,3.3-0.3c-0.1,0.1-0.2,0.2-0.3,0.3c-0.3,0.2-0.1,1.3,0.3,0.9
			c0.4-0.4,0.8-0.8,1.1-1.2c0,0,0.1,0,0.1,0c0.2,0,0.3-0.2,0.3-0.5c0.7-0.9,1.3-1.9,1.9-2.9c0.1-0.2,0.1-0.6,0-0.8
			c0.5-0.2,0.9-0.3,1.4-0.5c1.3-0.6,2.2-1.5,3-2.5c0.2,0,0.4-0.2,0.4-0.5c2.4-2.9,6.1-4.8,9.2-7.1c0.2,0.1,0.4-0.1,0.5-0.4
			c0.2-0.2,0.5-0.4,0.7-0.6c0.3-0.2,0.1-1.2-0.1-1.1c0,0-0.1,0.1-0.1,0.1c1.2-2,4.3-3.6,5.9-4.9l-0.1-0.6c0,0-0.2,0-0.3-0.1
			C265.3,224.8,265.2,224.8,265.1,224.8C265.1,224.8,265.1,224.8,265.1,224.8"/>
	</defs>
	<clipPath id="SVGID_38_">
		<use xlink:href="#SVGID_37_"  style="overflow:visible;"/>
	</clipPath>
	
		<linearGradient id="SVGID_39_" gradientUnits="userSpaceOnUse" x1="35.2586" y1="678.3033" x2="38.1917" y2="678.3033" gradientTransform="matrix(5.1921 2.7668 3.1328 -4.5856 -2066.8286 3243.9512)">
		<stop  offset="0" style="stop-color:#53721A"/>
		<stop  offset="3.749342e-002" style="stop-color:#59791F"/>
		<stop  offset="9.209317e-002" style="stop-color:#698C2D"/>
		<stop  offset="0.1568" style="stop-color:#84AC43"/>
		<stop  offset="0.1779" style="stop-color:#8EB84C"/>
		<stop  offset="0.5215" style="stop-color:#A6B421"/>
		<stop  offset="1" style="stop-color:#0D3A17"/>
	</linearGradient>
	<polygon class="st16" points="245.4,213.9 277.8,231.2 258.4,259.6 225.9,242.3 	"/>
</g>
<g>
	<defs>
		<path id="SVGID_40_" d="M255.7,234c-2.2,3.3-3,7.3-2.9,11.2c-0.1-0.1-0.2-0.1-0.3,0c-1.6,1.5-2.6,3.2-3.3,5.1
			c-0.2,0.4,0.4,1.4,0.7,0.8c0.7-1.7,1.5-3.3,2.9-4.6c0.1,0.8,0.1,1.6,0.3,2.3c0.1,0.7,0.9,0.6,0.8-0.1c-0.7-4.5-0.2-9.8,2.4-13.7
			c0.2-0.3-0.1-1.1-0.4-1.1C255.9,233.8,255.8,233.9,255.7,234"/>
	</defs>
	<clipPath id="SVGID_41_">
		<use xlink:href="#SVGID_40_"  style="overflow:visible;"/>
	</clipPath>
	
		<linearGradient id="SVGID_42_" gradientUnits="userSpaceOnUse" x1="51.5287" y1="527.7419" x2="54.4617" y2="527.7419" gradientTransform="matrix(1.3788 0.4273 0.4838 -1.2177 -74.3953 863.1343)">
		<stop  offset="0" style="stop-color:#53721A"/>
		<stop  offset="3.749342e-002" style="stop-color:#59791F"/>
		<stop  offset="9.209317e-002" style="stop-color:#698C2D"/>
		<stop  offset="0.1568" style="stop-color:#84AC43"/>
		<stop  offset="0.1779" style="stop-color:#8EB84C"/>
		<stop  offset="0.5215" style="stop-color:#A6B421"/>
		<stop  offset="1" style="stop-color:#0D3A17"/>
	</linearGradient>
	<polygon class="st17" points="249.9,231.8 262.9,235.8 255.8,253.8 242.8,249.8 	"/>
</g>
<g>
	<defs>
		<path id="SVGID_43_" d="M166.3,264l-3-2.1l-1.2,0.6l-5.8,1.9l2.4,1.9l-2.1,1.5l0.9,0.7l-1.7,1.2l0.6,0.3l-1.9,1.3l0.6,0.7
			l-2.6,2.9l3.8,0.2l1.8,1.4l1.8,0.3l0.9,0.9l1.9-0.4c0,0-1.1,2-0.9,3.3c0.2,1.3-1.3,3.4-0.4,2.4c0.6-0.7,1.2-0.6,2-0.6
			c0.4,0,0.9,0.1,1.4,0c1.6-0.2,3.4-1.7,3.4-1.7l1,1.1l2.3-1.8l1.5,0.5l0.7-1.3l0.5,0.5l2.3-1.6l1.2-0.9l-0.3-0.9l1.1-0.8l-0.5-1.8
			l1.6-1.2l-2-2.2c0,0,0.4-0.3,0.7-0.5c0.3-0.2-1.3-1.3-2.4-2.1c-0.3-0.2-0.8-0.1-1.3,0.1l2-1.4l-1.1-1.2l-0.3-1.9l-1.9-0.6
			l-1.8-0.8l-1.8,0.1l-2.1-1.4L166.3,264z"/>
	</defs>
	<clipPath id="SVGID_44_">
		<use xlink:href="#SVGID_43_"  style="overflow:visible;"/>
	</clipPath>
	
		<linearGradient id="SVGID_45_" gradientUnits="userSpaceOnUse" x1="53.5281" y1="730.3176" x2="56.4612" y2="730.3176" gradientTransform="matrix(-4.9474 6.759 7.653 4.3694 -5150.9038 -3290.6716)">
		<stop  offset="0" style="stop-color:#5D7D1F"/>
		<stop  offset="0.1047" style="stop-color:#6C8827"/>
		<stop  offset="0.3698" style="stop-color:#8D9F38"/>
		<stop  offset="0.5153" style="stop-color:#99A83E"/>
		<stop  offset="0.5863" style="stop-color:#94A73E"/>
		<stop  offset="0.6658" style="stop-color:#87A23D"/>
		<stop  offset="0.7492" style="stop-color:#719B3C"/>
		<stop  offset="0.8356" style="stop-color:#51913A"/>
		<stop  offset="0.9231" style="stop-color:#298437"/>
		<stop  offset="1" style="stop-color:#007735"/>
	</linearGradient>
	<polygon class="st18" points="191.7,267.5 171.6,295 140.3,277.1 160.4,249.6 	"/>
</g>
<g>
	<defs>
		<path id="SVGID_46_" d="M180.7,264.7C180.7,264.7,180.7,264.7,180.7,264.7L180.7,264.7z M180.4,264.5c-2,0.8-4.7,1.4-5.7,3.2
			c-1,0.4-2.1,0.7-3.1,1.1c0.1-0.2,0.2-0.5,0.1-0.6c-1-0.5-2-1-2.6-1.9c0,0-0.2,0.1-0.3,0.3c0-0.1,0-0.2-0.1-0.2c-0.1,0-0.2,0-0.2,0
			c-0.3-0.5-0.5-1-0.8-1.5c-0.1-0.3-0.5,0.4-0.4,0.6c0.1,0.3,0.3,0.6,0.4,0.8c-0.5-0.1-1.1-0.2-1.6-0.4c-0.2-0.1-0.5,0.6-0.3,0.7
			c0.7,0.3,1.5,0.4,2.3,0.5c0,0,0,0,0,0c0,0.1,0.1,0,0.1,0c0,0,0.1,0,0.1,0c0.1,0,0.2-0.1,0.3-0.2c0,0,0,0,0,0.1
			c0.5,0.9,1.6,1.4,2.5,1.9c-1.1,0.4-2.2,0.8-3.1,1.3c-0.4,0.2-0.9,0.5-1.3,0.8l-4-2.3c0-0.1,0.1-0.1,0.1-0.2c0-1.1-0.1-2.2-0.5-3.2
			c-0.1-0.1-0.2,0.2-0.2,0.2c-0.1,0.1-0.1,0.3-0.1,0.5c0.4,0.8,0.5,1.6,0.5,2.5l-0.3-0.2c-0.3-0.2-0.6,0.5-0.4,0.7l4.3,2.5
			c-0.4,0.2-0.8,0.4-1.2,0.6c-1.4,0.4-2.9,0.3-4.3,0.6c-0.2,0.1-0.4,0.8-0.2,0.7c0.8-0.2,1.5-0.3,2.3-0.3c-0.6,0.5-1.3,1.1-1.9,1.6
			c-0.9-0.2-1.9-0.5-2.8-0.6c-0.3,0-0.5,0.7-0.3,0.7c0.8,0.1,1.5,0.2,2.2,0.4c-0.1,0-0.1,0.1-0.2,0.1c-0.2,0.1-0.3,0.8,0,0.7
			c0.3-0.2,0.7-0.4,1-0.6c0,0,0,0,0.1,0c0.1,0,0.2-0.1,0.3-0.3c0.7-0.5,1.3-1,1.9-1.6c0.1-0.1,0.2-0.4,0.1-0.5c0.3,0,0.7-0.1,1-0.1
			c1-0.1,1.8-0.6,2.5-1.1c0.2,0.1,0.3-0.1,0.4-0.3c2.2-1.5,5.1-2.1,7.7-3.1c0.1,0.1,0.3,0,0.4-0.2c0.2-0.1,0.4-0.2,0.6-0.3
			c0.2-0.1,0.3-0.8,0.2-0.7c0,0-0.1,0-0.1,0c1.2-1.1,3.6-1.6,5-2.2l0-0.4c0,0-0.1,0-0.2-0.1C180.5,264.5,180.4,264.5,180.4,264.5
			C180.4,264.5,180.4,264.5,180.4,264.5"/>
	</defs>
	<clipPath id="SVGID_47_">
		<use xlink:href="#SVGID_46_"  style="overflow:visible;"/>
	</clipPath>
	
		<linearGradient id="SVGID_48_" gradientUnits="userSpaceOnUse" x1="55.7174" y1="654.4263" x2="58.6504" y2="654.4263" gradientTransform="matrix(2.7975 2.7326 3.0941 -2.4707 -2017.5416 1729.1588)">
		<stop  offset="0" style="stop-color:#53721A"/>
		<stop  offset="3.749342e-002" style="stop-color:#59791F"/>
		<stop  offset="9.209317e-002" style="stop-color:#698C2D"/>
		<stop  offset="0.1568" style="stop-color:#84AC43"/>
		<stop  offset="0.1779" style="stop-color:#8EB84C"/>
		<stop  offset="0.5215" style="stop-color:#A6B421"/>
		<stop  offset="1" style="stop-color:#0D3A17"/>
	</linearGradient>
	<polygon class="st19" points="170.2,254.2 187.3,270.9 167.9,286.3 150.9,269.7 	"/>
</g>
<g>
	<defs>
		<path id="SVGID_49_" d="M172.1,268.9c-2.2,1.8-3.6,4.3-4.4,6.9c0-0.1-0.1-0.1-0.2,0c-1.4,0.7-2.4,1.6-3.3,2.8
			c-0.2,0.2,0,1,0.3,0.6c0.8-1,1.7-1.9,3-2.5c-0.1,0.5-0.3,1.1-0.4,1.6c-0.1,0.5,0.5,0.6,0.6,0.1c0.6-3.1,2.1-6.5,4.7-8.6
			c0.2-0.2,0.2-0.8-0.1-0.8C172.2,268.8,172.2,268.8,172.1,268.9"/>
	</defs>
	<clipPath id="SVGID_50_">
		<use xlink:href="#SVGID_49_"  style="overflow:visible;"/>
	</clipPath>
	
		<linearGradient id="SVGID_51_" gradientUnits="userSpaceOnUse" x1="114.4366" y1="413.6056" x2="117.3696" y2="413.6056" gradientTransform="matrix(0.8122 0.5233 0.5925 -0.7173 -170.2656 510.6308)">
		<stop  offset="0" style="stop-color:#53721A"/>
		<stop  offset="3.749342e-002" style="stop-color:#59791F"/>
		<stop  offset="9.209317e-002" style="stop-color:#698C2D"/>
		<stop  offset="0.1568" style="stop-color:#84AC43"/>
		<stop  offset="0.1779" style="stop-color:#8EB84C"/>
		<stop  offset="0.5215" style="stop-color:#A6B421"/>
		<stop  offset="1" style="stop-color:#0D3A17"/>
	</linearGradient>
	<polygon class="st20" points="167,265.2 178.3,272.5 169.6,283.1 158.2,275.8 	"/>
</g>
<g>
	<defs>
		<path id="SVGID_52_" d="M201.5,251.3l-5.2-1.9l-1.4,1.3l-7.2,4.8l4.2,1.7l-2.2,2.9l1.6,0.6l-1.8,2.3l0.9,0.2l-2,2.6l1.1,0.7
			l-2.2,5l5.4-1.2l3.3,1.3l2.6-0.2l1.7,0.9l2.5-1.3c0,0-0.6,3.2,0.3,4.9c0.9,1.7-0.2,5.3,0.5,3.4c0.7-1.9,2.4-1.2,4.5-2
			c2.1-0.8,4-3.7,4-3.7l1.9,1.1l2.4-3.3l2.3,0.1l0.3-2.1l0.9,0.5l2.4-3.1l1.3-1.7l-0.8-1.1l1.2-1.6l-1.5-2.4l1.7-2.2l-3.8-2.3
			c0,0,0.4-0.6,0.8-1c0.3-0.4-2.5-1.3-4.4-2c-0.6-0.2-1.2,0.1-1.8,0.6l2.1-2.7l-2.1-1.3l-1.3-2.5l-3-0.1l-2.8-0.4l-2.5,0.9l-3.6-1.2
			L201.5,251.3z"/>
	</defs>
	<clipPath id="SVGID_53_">
		<use xlink:href="#SVGID_52_"  style="overflow:visible;"/>
	</clipPath>
	
		<linearGradient id="SVGID_54_" gradientUnits="userSpaceOnUse" x1="42.3516" y1="722.41" x2="45.2846" y2="722.41" gradientTransform="matrix(-3.6751 11.2407 12.7276 3.2457 -8827.5889 -2574.4663)">
		<stop  offset="0" style="stop-color:#5D7D1F"/>
		<stop  offset="0.1047" style="stop-color:#6C8827"/>
		<stop  offset="0.3698" style="stop-color:#8D9F38"/>
		<stop  offset="0.5153" style="stop-color:#99A83E"/>
		<stop  offset="0.5863" style="stop-color:#94A73E"/>
		<stop  offset="0.6658" style="stop-color:#87A23D"/>
		<stop  offset="0.7492" style="stop-color:#719B3C"/>
		<stop  offset="0.8356" style="stop-color:#51913A"/>
		<stop  offset="0.9231" style="stop-color:#298437"/>
		<stop  offset="1" style="stop-color:#007735"/>
	</linearGradient>
	<polygon class="st21" points="234.7,248.8 221.2,290 176.6,278.6 190,237.4 	"/>
</g>
<g>
	<defs>
		<path id="SVGID_55_" d="M221.9,246.9C221.9,246.9,221.9,246.9,221.9,246.9L221.9,246.9z M221.3,246.8c-2.4,1.8-5.9,3.7-6.4,6.6
			c-1.2,0.9-2.6,1.8-3.9,2.7c0.1-0.3,0.1-0.8-0.1-0.8c-1.6-0.4-3.3-0.6-4.5-1.8c0,0-0.2,0.3-0.2,0.6c0-0.2-0.1-0.3-0.2-0.2
			c-0.1,0-0.2,0-0.3,0.1c-0.6-0.6-1.2-1.2-1.8-1.8c-0.3-0.3-0.5,0.7-0.3,0.9c0.3,0.3,0.6,0.7,1,1c-0.8,0.1-1.6,0.1-2.4,0
			c-0.3,0-0.4,1.1,0,1.1c1.2,0.1,2.3,0,3.4-0.2c0,0,0,0,0,0c0.1,0.1,0.1,0,0.2-0.1c0,0,0.1,0,0.1,0c0.1,0,0.2-0.2,0.2-0.4
			c0,0,0,0.1,0.1,0.1c1.1,1.1,2.8,1.4,4.4,1.7c-1.3,0.9-2.6,1.9-3.8,3c-0.5,0.5-1,1.1-1.5,1.6l-6.7-1.7c0-0.1,0-0.2,0-0.3
			c-0.5-1.5-1.1-3-2.3-4.2c-0.1-0.1-0.2,0.3-0.2,0.4c0,0.2,0,0.5,0.1,0.7c0.9,1,1.4,2.1,1.9,3.3l-0.5-0.1c-0.5-0.1-0.6,0.9-0.2,1
			l7.2,1.8c-0.4,0.5-0.9,0.9-1.5,1.2c-1.7,1.1-3.9,1.4-5.7,2.5c-0.3,0.2-0.2,1.2,0.1,1c1-0.6,2-0.9,3.1-1.3c-0.6,1-1.2,2-2,2.9
			c-1.4,0-2.8,0.1-4.2,0.3c-0.4,0.1-0.3,1.1,0,1.1c1.1-0.2,2.2-0.2,3.3-0.3c-0.1,0.1-0.2,0.2-0.3,0.3c-0.3,0.2-0.1,1.3,0.3,0.9
			c0.4-0.4,0.8-0.8,1.1-1.2c0,0,0.1,0,0.1,0c0.2,0,0.3-0.2,0.3-0.5c0.7-0.9,1.3-1.9,1.9-2.9c0.1-0.2,0.1-0.6,0-0.8
			c0.5-0.2,0.9-0.3,1.4-0.5c1.3-0.6,2.2-1.5,3-2.5c0.2,0,0.4-0.2,0.4-0.5c2.4-2.9,6.1-4.8,9.2-7.1c0.2,0.1,0.4-0.1,0.5-0.4
			c0.2-0.2,0.5-0.4,0.7-0.6c0.3-0.2,0.1-1.2-0.1-1.1c0,0-0.1,0.1-0.1,0.1c1.2-2,4.3-3.6,5.9-4.9l-0.1-0.6c0,0-0.2,0-0.3-0.1
			C221.5,246.8,221.3,246.8,221.3,246.8C221.3,246.8,221.3,246.8,221.3,246.8"/>
	</defs>
	<clipPath id="SVGID_56_">
		<use xlink:href="#SVGID_55_"  style="overflow:visible;"/>
	</clipPath>
	
		<linearGradient id="SVGID_57_" gradientUnits="userSpaceOnUse" x1="32.5745" y1="673.5284" x2="35.5076" y2="673.5284" gradientTransform="matrix(5.1922 2.7669 3.1329 -4.5856 -2081.8037 3251.4746)">
		<stop  offset="0" style="stop-color:#53721A"/>
		<stop  offset="3.749342e-002" style="stop-color:#59791F"/>
		<stop  offset="9.209317e-002" style="stop-color:#698C2D"/>
		<stop  offset="0.1568" style="stop-color:#84AC43"/>
		<stop  offset="0.1779" style="stop-color:#8EB84C"/>
		<stop  offset="0.5215" style="stop-color:#A6B421"/>
		<stop  offset="1" style="stop-color:#0D3A17"/>
	</linearGradient>
	<polygon class="st22" points="201.5,235.8 234,253.1 214.6,281.6 182.1,264.3 	"/>
</g>
<g>
	<defs>
		<path id="SVGID_58_" d="M211.9,255.9c-2.2,3.3-3,7.3-2.9,11.2c-0.1-0.1-0.2-0.1-0.3,0c-1.6,1.5-2.6,3.2-3.3,5.1
			c-0.2,0.4,0.4,1.4,0.7,0.8c0.7-1.7,1.5-3.3,2.9-4.6c0,0.8,0.1,1.6,0.3,2.3c0.1,0.7,0.9,0.6,0.8-0.1c-0.7-4.5-0.2-9.8,2.4-13.7
			c0.2-0.3-0.1-1.1-0.4-1.1C212,255.8,211.9,255.8,211.9,255.9"/>
	</defs>
	<clipPath id="SVGID_59_">
		<use xlink:href="#SVGID_58_"  style="overflow:visible;"/>
	</clipPath>
	
		<linearGradient id="SVGID_60_" gradientUnits="userSpaceOnUse" x1="36.5819" y1="510.6176" x2="39.515" y2="510.6176" gradientTransform="matrix(1.3788 0.4273 0.4838 -1.2177 -89.3484 870.6322)">
		<stop  offset="0" style="stop-color:#53721A"/>
		<stop  offset="3.749342e-002" style="stop-color:#59791F"/>
		<stop  offset="9.209317e-002" style="stop-color:#698C2D"/>
		<stop  offset="0.1568" style="stop-color:#84AC43"/>
		<stop  offset="0.1779" style="stop-color:#8EB84C"/>
		<stop  offset="0.5215" style="stop-color:#A6B421"/>
		<stop  offset="1" style="stop-color:#0D3A17"/>
	</linearGradient>
	<polygon class="st23" points="206.1,253.7 219.1,257.7 211.9,275.7 198.9,271.7 	"/>
</g>
<g>
	<defs>
		<path id="SVGID_61_" d="M269.2,271c0,0-0.3-0.4-0.6-0.7c-0.3-0.3-1.5,1.2-2.4,2.1c-0.3,0.3-0.2,0.7,0.1,1.2l-1.6-1.7l-1.4,1
			l-2.1,0.3l-0.7,1.7l-0.9,1.6l0.1,1.6l-1.6,1.8l3.8,1.1l-2.4,2.7l0.7,1.1l2.1,5.2l2.1-2.1l1.7,1.9l0.8-0.8l1.4,1.5l0.4-0.5l1.5,1.7
			l0.7-0.5l3.3,2.3l0.2-3.4l1.6-1.6l0.3-1.6l1-0.8l-0.4-1.7c0,0,2.3,1,3.7,0.8c0.6-0.1,1.4,0.1,2,0.3c0.9,0.3,1.4,0.5,0.7,0.1
			c-1.2-0.8-0.4-1.6-0.6-3c-0.2-1.4-1.9-3-1.9-3l1.2-0.9l-2-2.1l0.5-1.3l-1.5-0.6l0.6-0.4l-1.8-2l-1-1.1l-1,0.2l-0.9-1l-2.1,0.4
			l-1.3-1.5L269.2,271z"/>
	</defs>
	<clipPath id="SVGID_62_">
		<use xlink:href="#SVGID_61_"  style="overflow:visible;"/>
	</clipPath>
	
		<linearGradient id="SVGID_63_" gradientUnits="userSpaceOnUse" x1="34.2998" y1="691.0836" x2="37.2329" y2="691.0836" gradientTransform="matrix(7.6257 4.4064 4.9893 -6.7348 -3449.6045 4777.9834)">
		<stop  offset="0" style="stop-color:#5D7D1F"/>
		<stop  offset="0.1047" style="stop-color:#6C8827"/>
		<stop  offset="0.3698" style="stop-color:#8D9F38"/>
		<stop  offset="0.5153" style="stop-color:#99A83E"/>
		<stop  offset="0.5863" style="stop-color:#94A73E"/>
		<stop  offset="0.6658" style="stop-color:#87A23D"/>
		<stop  offset="0.7492" style="stop-color:#719B3C"/>
		<stop  offset="0.8356" style="stop-color:#51913A"/>
		<stop  offset="0.9231" style="stop-color:#298437"/>
		<stop  offset="1" style="stop-color:#007735"/>
	</linearGradient>
	<polygon class="st24" points="266,258.7 296.7,276.5 276.4,303.9 245.7,286.1 	"/>
</g>
<g>
	<defs>
		<path id="SVGID_64_" d="M262.8,268.4c-0.1,0.1-0.1,0.2-0.1,0.2c0.9,1.7,1.5,4.2,3.6,5.1c0.4,0.9,0.8,1.8,1.2,2.8
			c-0.2-0.1-0.6-0.2-0.6-0.1c-0.6,0.8-1.2,1.8-2.2,2.3c0,0,0.2,0.1,0.4,0.2c-0.1,0-0.2,0-0.2,0.1c0,0.1,0,0.1,0,0.2
			c-0.5,0.3-1.1,0.5-1.7,0.7c-0.3,0.1,0.5,0.4,0.6,0.3c0.3-0.1,0.6-0.2,0.9-0.3c-0.1,0.5-0.2,0.9-0.5,1.4c-0.1,0.2,0.7,0.4,0.8,0.2
			c0.3-0.7,0.5-1.3,0.6-2c0,0,0,0,0,0c0.1,0,0-0.1,0-0.1c0,0,0-0.1,0-0.1c0-0.1-0.1-0.2-0.3-0.2c0,0,0.1,0,0.1,0
			c1-0.4,1.6-1.4,2.2-2.2c0.4,1,0.9,1.9,1.4,2.8c0.3,0.4,0.6,0.8,0.9,1.2l-2.6,3.6c-0.1,0-0.2,0-0.2,0c-1.2,0-2.4,0.1-3.6,0.5
			c-0.1,0,0.2,0.2,0.2,0.2c0.1,0.1,0.4,0.1,0.5,0.1c0.9-0.3,1.9-0.4,2.8-0.4l-0.2,0.3c-0.2,0.3,0.6,0.5,0.7,0.3l2.8-3.8
			c0.2,0.3,0.5,0.7,0.6,1.1c0.5,1.2,0.3,2.6,0.7,3.8c0.1,0.2,0.9,0.3,0.8,0.2c-0.2-0.7-0.3-1.4-0.4-2.1c0.6,0.6,1.2,1.1,1.8,1.7
			c-0.3,0.8-0.5,1.6-0.6,2.5c0,0.2,0.8,0.4,0.8,0.2c0.1-0.7,0.3-1.3,0.5-2c0,0.1,0.1,0.1,0.1,0.2c0.1,0.2,1,0.3,0.8,0
			c-0.2-0.3-0.4-0.6-0.7-0.9c0,0,0,0,0-0.1c0-0.1-0.1-0.2-0.3-0.3c-0.5-0.6-1.1-1.1-1.7-1.7c-0.1-0.1-0.4-0.2-0.6-0.1
			c0-0.3-0.1-0.6-0.1-0.9c-0.2-0.9-0.7-1.6-1.3-2.2c0.1-0.1-0.1-0.3-0.3-0.3c-1.7-2-2.3-4.5-3.4-6.8c0.1-0.1,0-0.3-0.2-0.4
			c-0.1-0.2-0.2-0.4-0.3-0.5c-0.1-0.2-0.9-0.3-0.8-0.2c0,0,0,0,0,0.1c-1.2-1.1-1.8-3.2-2.5-4.4l-0.5,0
			C262.9,268.2,262.9,268.3,262.8,268.4 M262.9,268.2L262.9,268.2C262.9,268.2,262.9,268.2,262.9,268.2
			C262.9,268.2,262.9,268.2,262.9,268.2"/>
	</defs>
	<clipPath id="SVGID_65_">
		<use xlink:href="#SVGID_64_"  style="overflow:visible;"/>
	</clipPath>
	
		<linearGradient id="SVGID_66_" gradientUnits="userSpaceOnUse" x1="-37.9095" y1="672.8321" x2="-34.9764" y2="672.8321" gradientTransform="matrix(3.1095 -2.4558 -2.7806 -2.7462 2251.3901 2038.3844)">
		<stop  offset="0" style="stop-color:#53721A"/>
		<stop  offset="3.749342e-002" style="stop-color:#59791F"/>
		<stop  offset="9.209317e-002" style="stop-color:#698C2D"/>
		<stop  offset="0.1568" style="stop-color:#84AC43"/>
		<stop  offset="0.1779" style="stop-color:#8EB84C"/>
		<stop  offset="0.5215" style="stop-color:#A6B421"/>
		<stop  offset="1" style="stop-color:#0D3A17"/>
	</linearGradient>
	<polygon class="st25" points="251.1,277.4 269.9,262.5 287.3,279.7 268.5,294.6 	"/>
</g>
<g>
	<defs>
		<path id="SVGID_67_" d="M267.6,275.9c2,1.9,4.9,3.2,7.8,4c-0.1,0-0.1,0.1,0,0.1c0.8,1.2,1.8,2.1,3.1,3c0.3,0.2,1.2,0,0.7-0.3
			c-1.1-0.7-2.1-1.6-2.8-2.6c0.6,0.1,1.2,0.2,1.8,0.3c0.6,0.1,0.6-0.4,0.1-0.5c-3.5-0.5-7.3-1.8-9.7-4.2c-0.1-0.1-0.3-0.1-0.5-0.1
			C267.7,275.6,267.4,275.7,267.6,275.9"/>
	</defs>
	<clipPath id="SVGID_68_">
		<use xlink:href="#SVGID_67_"  style="overflow:visible;"/>
	</clipPath>
	
		<linearGradient id="SVGID_69_" gradientUnits="userSpaceOnUse" x1="-250.3477" y1="567.5922" x2="-247.4147" y2="567.5922" gradientTransform="matrix(0.5968 -0.7143 -0.8088 -0.5271 881.6753 400.0903)">
		<stop  offset="0" style="stop-color:#53721A"/>
		<stop  offset="3.749342e-002" style="stop-color:#59791F"/>
		<stop  offset="9.209317e-002" style="stop-color:#698C2D"/>
		<stop  offset="0.1568" style="stop-color:#84AC43"/>
		<stop  offset="0.1779" style="stop-color:#8EB84C"/>
		<stop  offset="0.5215" style="stop-color:#A6B421"/>
		<stop  offset="1" style="stop-color:#0D3A17"/>
	</linearGradient>
	<polygon class="st26" points="263.4,280.4 271.7,270.4 283.7,278.2 275.3,288.2 	"/>
</g>
<g>
	<defs>
		<path id="SVGID_70_" d="M297.3,220.6l-2.7-0.7l0.2,3.8l-3.9-1.1l-0.9,1l-5,3.8l3.2,1.1l-1.5,2.2l1.2,0.4l-1.2,1.8l0.7,0.1l-1.3,2
			l0.9,0.5l-1.3,3.8l3.9-1.1l2.5,0.8l1.9-0.3l1.3,0.5l1.8-1c0,0-0.3,2.4,0.5,3.6c0.8,1.2,0.2,3.9,0.6,2.5c0.4-1.4,1.7-1,3.2-1.7
			c1.5-0.7,2.7-2.9,2.7-2.9l1.5,0.7l1.5-2.5l1.7,0l0.1-1.5l0.7,0.3l1.6-2.4l0.9-1.3l-0.6-0.8l0.8-1.2l-1.2-1.7l1.1-1.7l-2.9-1.5
			c0,0,0.3-0.4,0.5-0.8c0.2-0.3-1.9-0.9-3.3-1.3c-0.4-0.1-0.9,0.1-1.3,0.5l1.4-2l-1.6-0.8l-1.1-1.8l-2.2,0.1l-2.1-0.2L297.3,220.6z"
			/>
	</defs>
	<clipPath id="SVGID_71_">
		<use xlink:href="#SVGID_70_"  style="overflow:visible;"/>
	</clipPath>
	
		<linearGradient id="SVGID_72_" gradientUnits="userSpaceOnUse" x1="47.1562" y1="725.9525" x2="50.0892" y2="725.9525" gradientTransform="matrix(-2.0303 8.39 9.4998 1.7931 -6499.1201 -1477.7358)">
		<stop  offset="0" style="stop-color:#5D7D1F"/>
		<stop  offset="0.1047" style="stop-color:#6C8827"/>
		<stop  offset="0.3698" style="stop-color:#8D9F38"/>
		<stop  offset="0.5153" style="stop-color:#99A83E"/>
		<stop  offset="0.5863" style="stop-color:#94A73E"/>
		<stop  offset="0.6658" style="stop-color:#87A23D"/>
		<stop  offset="0.7492" style="stop-color:#719B3C"/>
		<stop  offset="0.8356" style="stop-color:#51913A"/>
		<stop  offset="0.9231" style="stop-color:#298437"/>
		<stop  offset="1" style="stop-color:#007735"/>
	</linearGradient>
	<polygon class="st27" points="317.8,221 310.7,250.5 279,244.5 286.1,215 	"/>
</g>
<g>
	<defs>
		<path id="SVGID_73_" d="M309.5,219.6C309.5,219.6,309.5,219.6,309.5,219.6L309.5,219.6z M309.1,219.5c-1.6,1.4-4.1,3-4.3,5.1
			c-0.9,0.7-1.8,1.4-2.7,2.1c0-0.2,0-0.6-0.1-0.6c-1.2-0.2-2.5-0.3-3.4-1.1c0,0-0.1,0.2-0.1,0.4c0-0.1-0.1-0.2-0.2-0.2
			c-0.1,0-0.2,0-0.2,0.1c-0.5-0.4-0.9-0.8-1.4-1.2c-0.2-0.2-0.3,0.6-0.1,0.7c0.3,0.2,0.5,0.5,0.8,0.7c-0.6,0.1-1.2,0.2-1.8,0.1
			c-0.2,0-0.2,0.8,0,0.8c0.9,0,1.7-0.1,2.5-0.3c0,0,0,0,0,0c0.1,0,0.1,0,0.1-0.1c0,0,0.1,0,0.1,0c0.1,0,0.2-0.2,0.2-0.3
			c0,0,0,0,0,0.1c0.9,0.7,2.1,0.9,3.3,1.1c-0.9,0.7-1.8,1.5-2.6,2.3c-0.3,0.4-0.7,0.8-1,1.2l-5-0.9c0-0.1,0-0.2,0-0.2
			c-0.5-1.1-1-2.1-1.9-3c-0.1-0.1-0.2,0.3-0.2,0.3c0,0.1,0,0.4,0.1,0.5c0.7,0.7,1.2,1.5,1.6,2.3l-0.4-0.1c-0.4-0.1-0.4,0.7-0.1,0.8
			l5.3,1c-0.3,0.3-0.6,0.7-1,1c-1.2,0.9-2.8,1.2-4,2.1c-0.2,0.1,0,0.9,0.1,0.8c0.7-0.5,1.4-0.8,2.2-1.1c-0.4,0.7-0.8,1.5-1.3,2.2
			c-1,0.1-2.1,0.2-3.1,0.4c-0.3,0.1-0.2,0.8,0,0.8c0.8-0.2,1.6-0.3,2.4-0.4c-0.1,0.1-0.1,0.1-0.2,0.2c-0.2,0.2,0,1,0.3,0.7
			c0.3-0.3,0.5-0.6,0.7-0.9c0,0,0,0,0.1,0c0.1,0,0.2-0.2,0.2-0.4c0.5-0.7,0.8-1.4,1.2-2.2c0.1-0.1,0-0.4-0.1-0.6
			c0.3-0.1,0.6-0.3,1-0.4c0.9-0.5,1.5-1.2,2-2c0.2,0,0.3-0.2,0.3-0.4c1.6-2.2,4.2-3.8,6.3-5.6c0.2,0,0.3-0.1,0.3-0.3
			c0.2-0.1,0.3-0.3,0.5-0.5c0.2-0.2,0-0.9-0.1-0.8c0,0,0,0-0.1,0.1c0.8-1.5,2.9-2.8,4-3.9l-0.1-0.4c0,0-0.1,0-0.2,0
			C309.2,219.5,309.1,219.5,309.1,219.5C309,219.5,309,219.5,309.1,219.5"/>
	</defs>
	<clipPath id="SVGID_74_">
		<use xlink:href="#SVGID_73_"  style="overflow:visible;"/>
	</clipPath>
	
		<linearGradient id="SVGID_75_" gradientUnits="userSpaceOnUse" x1="42.8023" y1="665.4126" x2="45.7354" y2="665.4126" gradientTransform="matrix(3.9599 1.7869 2.0233 -3.4973 -1223.8256 2475.8718)">
		<stop  offset="0" style="stop-color:#53721A"/>
		<stop  offset="3.749342e-002" style="stop-color:#59791F"/>
		<stop  offset="9.209317e-002" style="stop-color:#698C2D"/>
		<stop  offset="0.1568" style="stop-color:#84AC43"/>
		<stop  offset="0.1779" style="stop-color:#8EB84C"/>
		<stop  offset="0.5215" style="stop-color:#A6B421"/>
		<stop  offset="1" style="stop-color:#0D3A17"/>
	</linearGradient>
	<polygon class="st28" points="294.4,212.6 318.1,223.4 305.6,245 281.9,234.3 	"/>
</g>
<g>
	<defs>
		<path id="SVGID_76_" d="M302.7,226.7c-1.4,2.5-1.7,5.5-1.5,8.4c-0.1,0-0.1,0-0.2,0c-1.1,1.1-1.7,2.4-2.1,3.9
			c-0.1,0.3,0.4,1,0.6,0.5c0.4-1.3,0.9-2.5,1.9-3.5c0.1,0.6,0.2,1.1,0.3,1.7c0.1,0.5,0.7,0.4,0.6-0.1c-0.8-3.2-0.7-7.1,0.9-10.1
			c0.1-0.2-0.1-0.8-0.4-0.8C302.8,226.5,302.8,226.6,302.7,226.7"/>
	</defs>
	<clipPath id="SVGID_77_">
		<use xlink:href="#SVGID_76_"  style="overflow:visible;"/>
	</clipPath>
	
		<linearGradient id="SVGID_78_" gradientUnits="userSpaceOnUse" x1="71.268" y1="468.986" x2="74.2011" y2="468.986" gradientTransform="matrix(1.0337 0.2497 0.2828 -0.9129 94.1973 643.4417)">
		<stop  offset="0" style="stop-color:#53721A"/>
		<stop  offset="3.749342e-002" style="stop-color:#59791F"/>
		<stop  offset="9.209317e-002" style="stop-color:#698C2D"/>
		<stop  offset="0.1568" style="stop-color:#84AC43"/>
		<stop  offset="0.1779" style="stop-color:#8EB84C"/>
		<stop  offset="0.5215" style="stop-color:#A6B421"/>
		<stop  offset="1" style="stop-color:#0D3A17"/>
	</linearGradient>
	<polygon class="st29" points="299.2,225.5 307.2,227.5 303.1,240.9 295,239 	"/>
</g>
<g>
	<defs>
		<path id="SVGID_79_" d="M407.2,187.7l-0.8-0.5l-1.3,1.8l-0.4-0.5l-1.2,1.6l-0.8-0.7l-1.5,2l-2.3-1.9l-1.6,5.3l-0.6,1.1l2.7,2.5
			l-3.7,1.4l1.8,1.7l0,1.6l1,1.5l0.8,1.6l2.2,0.1l1.5,0.9l1.4-1.8c-0.2,0.5-0.2,0.9,0,1.2c1,0.9,2.3,2.3,2.6,2
			c0.2-0.3,0.5-0.7,0.5-0.7l2.6,1.5l1.2-1.5l2.1,0.2l0.8-1.1l1,0.2l0.9-1.2l1.6-2.2l-0.6-0.4l1.4-0.7l-0.7-1.3l1.8-2.2l-1.3-0.8
			c0,0,1.6-1.8,1.6-3.2c0.1-1.4-0.8-2.2,0.3-3.1c0.7-0.5,0.1-0.2-0.7,0.2c-0.6,0.2-1.3,0.5-1.9,0.4c-1.5-0.1-3.6,1.1-3.6,1.1
			l0.3-1.7l-1.1-0.7l-0.5-1.5l-1.8-1.5l-0.5-3.3L407.2,187.7z"/>
	</defs>
	<clipPath id="SVGID_80_">
		<use xlink:href="#SVGID_79_"  style="overflow:visible;"/>
	</clipPath>
	
		<linearGradient id="SVGID_81_" gradientUnits="userSpaceOnUse" x1="6.6482" y1="747.0548" x2="9.5812" y2="747.0548" gradientTransform="matrix(7.1632 -4.9752 5.6332 6.3264 -3858.2876 -4488.4727)">
		<stop  offset="0" style="stop-color:#5D7D1F"/>
		<stop  offset="0.1047" style="stop-color:#6C8827"/>
		<stop  offset="0.3698" style="stop-color:#8D9F38"/>
		<stop  offset="0.5153" style="stop-color:#99A83E"/>
		<stop  offset="0.5863" style="stop-color:#94A73E"/>
		<stop  offset="0.6658" style="stop-color:#87A23D"/>
		<stop  offset="0.7492" style="stop-color:#719B3C"/>
		<stop  offset="0.8356" style="stop-color:#51913A"/>
		<stop  offset="0.9231" style="stop-color:#298437"/>
		<stop  offset="1" style="stop-color:#007735"/>
	</linearGradient>
	<polygon class="st30" points="405.2,220.3 434.2,200.2 411.2,174.3 382.2,194.4 	"/>
</g>
<g>
	<defs>
		<path id="SVGID_82_" d="M401.4,211.1C401.4,211.1,401.4,211.1,401.4,211.1L401.4,211.1z M409.8,190.1c0.2,0.8,0.5,1.7,0.9,2.4
			c-0.5,0.6-1,1.2-1.6,1.8c0-0.7,0-1.4,0.1-2.1c0-0.2-0.7,0-0.8,0.2c-0.3,1.3,0.1,2.6-0.3,3.8c-0.1,0.4-0.3,0.8-0.5,1.1l-3.2-3.6
			c-0.2-0.2-0.9,0.1-0.7,0.4l0.2,0.3c-1,0.1-1.9,0.1-2.9-0.2c-0.2,0-0.4,0-0.5,0.1c0,0-0.4,0.2-0.2,0.2c1.2,0.3,2.4,0.3,3.6,0.2
			c0,0,0.1,0,0.2-0.1l3,3.3c-0.3,0.4-0.5,0.8-0.8,1.2c-0.5,0.9-0.9,1.9-1.2,2.9c-0.7-0.8-1.3-1.7-2.4-2c0,0,0,0-0.1,0
			c0.1-0.1,0.3-0.2,0.2-0.2c0,0,0-0.1,0-0.1c0.1,0,0.1-0.1,0-0.1c0,0,0,0,0,0c-0.1-0.7-0.4-1.3-0.7-2c-0.1-0.2-0.9,0.1-0.8,0.3
			c0.3,0.4,0.5,0.9,0.6,1.4c-0.3-0.1-0.7-0.2-1-0.3c-0.2-0.1-0.9,0.3-0.6,0.4c0.6,0.2,1.2,0.3,1.7,0.5c0,0.1,0,0.1,0,0.2
			c0,0.1,0.1,0.1,0.2,0c-0.2,0.1-0.4,0.2-0.3,0.2c1.1,0.4,1.7,1.3,2.4,2.1c0.1,0.1,0.4,0,0.6-0.1c-0.3,1-0.6,1.9-0.9,2.9
			c-2,1-2.4,3.5-3.1,5.3c0,0,0,0.1,0.1,0.2c0.1,0.1,0.1,0.1,0.1,0.2l0.5-0.1c0.5-1.3,0.9-3.4,2-4.6c0,0,0,0.1,0,0.1
			c-0.1,0.1,0.7,0,0.8-0.2c0.1-0.2,0.2-0.4,0.2-0.5c0.2-0.1,0.2-0.3,0.1-0.4c0.9-2.3,1.3-4.9,2.7-7c0.2-0.1,0.3-0.2,0.3-0.4
			c0.5-0.7,1-1.4,1.1-2.3c0-0.3,0-0.6,0-0.9c0.2,0,0.5-0.1,0.6-0.2c0.5-0.6,1.1-1.2,1.6-1.8c0.2-0.1,0.3-0.2,0.3-0.3c0,0,0,0,0-0.1
			c0.2-0.3,0.4-0.6,0.6-0.9c0.2-0.3-0.6-0.1-0.8,0.1c0,0.1-0.1,0.1-0.1,0.2c-0.3-0.6-0.5-1.3-0.7-1.9c0,0-0.1-0.1-0.1-0.1
			C410.2,189.8,409.7,189.9,409.8,190.1"/>
	</defs>
	<clipPath id="SVGID_83_">
		<use xlink:href="#SVGID_82_"  style="overflow:visible;"/>
	</clipPath>
	
		<linearGradient id="SVGID_84_" gradientUnits="userSpaceOnUse" x1="64.6148" y1="762.9275" x2="67.5479" y2="762.9275" gradientTransform="matrix(3.3393 2.2077 -2.4998 2.9492 2090.7271 -2196.7834)">
		<stop  offset="0" style="stop-color:#53721A"/>
		<stop  offset="3.749342e-002" style="stop-color:#59791F"/>
		<stop  offset="9.209317e-002" style="stop-color:#698C2D"/>
		<stop  offset="0.1568" style="stop-color:#84AC43"/>
		<stop  offset="0.1779" style="stop-color:#8EB84C"/>
		<stop  offset="0.5215" style="stop-color:#A6B421"/>
		<stop  offset="1" style="stop-color:#0D3A17"/>
	</linearGradient>
	<polygon class="st31" points="388.6,203.4 407.9,216.2 423.8,197.4 404.5,184.6 	"/>
</g>
<g>
	<defs>
		<path id="SVGID_85_" d="M400,200.5c-1,0-1.9,0.2-2.9,0.2c-0.3,0-1,0.6-0.4,0.6c1,0,1.9-0.2,2.9-0.2
			C399.9,201.1,400.5,200.5,400,200.5L400,200.5z"/>
	</defs>
	<clipPath id="SVGID_86_">
		<use xlink:href="#SVGID_85_"  style="overflow:visible;"/>
	</clipPath>
	
		<linearGradient id="SVGID_87_" gradientUnits="userSpaceOnUse" x1="182.6214" y1="914.6332" x2="185.5545" y2="914.6332" gradientTransform="matrix(0.8777 0.4476 -0.5068 0.7752 700.2573 -590.4976)">
		<stop  offset="0" style="stop-color:#53721A"/>
		<stop  offset="3.749342e-002" style="stop-color:#59791F"/>
		<stop  offset="9.209317e-002" style="stop-color:#698C2D"/>
		<stop  offset="0.1568" style="stop-color:#84AC43"/>
		<stop  offset="0.1779" style="stop-color:#8EB84C"/>
		<stop  offset="0.5215" style="stop-color:#A6B421"/>
		<stop  offset="1" style="stop-color:#0D3A17"/>
	</linearGradient>
	<polygon class="st32" points="395.8,201.1 399.4,203 400.9,200.7 397.2,198.8 	"/>
</g>
<g>
	<defs>
		<path id="SVGID_88_" d="M413.3,201c-0.1,0-0.3,0.1-0.2,0.3c0.2,0.1,0.4,0.2,0.6,0.1c0.8-0.1,1.4,0.1,2,0.5c0.3,0.2,1.1,0,0.7-0.2
			c-0.7-0.5-1.5-0.7-2.4-0.7C413.8,200.9,413.5,200.9,413.3,201"/>
	</defs>
	<clipPath id="SVGID_89_">
		<use xlink:href="#SVGID_88_"  style="overflow:visible;"/>
	</clipPath>
	
		<linearGradient id="SVGID_90_" gradientUnits="userSpaceOnUse" x1="353.2906" y1="791.562" x2="356.2237" y2="791.562" gradientTransform="matrix(0.3137 0.609 -0.6896 0.2771 849.4411 -233.983)">
		<stop  offset="0" style="stop-color:#53721A"/>
		<stop  offset="3.749342e-002" style="stop-color:#59791F"/>
		<stop  offset="9.209317e-002" style="stop-color:#698C2D"/>
		<stop  offset="0.1568" style="stop-color:#84AC43"/>
		<stop  offset="0.1779" style="stop-color:#8EB84C"/>
		<stop  offset="0.5215" style="stop-color:#A6B421"/>
		<stop  offset="1" style="stop-color:#0D3A17"/>
	</linearGradient>
	<polygon class="st33" points="412.5,201.1 413.6,203.3 417.3,201.8 416.2,199.6 	"/>
</g>
<g>
	<defs>
		<path id="SVGID_91_" d="M417.5,197.7c-1.4,0.6-2.7,1.3-3.7,2.3c-0.1,0.1,0,0.1,0,0.2c-3,0.2-6.1,0.9-8.5,2.4
			c-0.4,0.2,0.5,0.5,0.8,0.3c2.9-1.8,7-2.4,10.5-2.3c0.6,0,0.6-0.5,0.1-0.5c-0.6,0-1.2,0-1.8,0c0.9-0.9,2.1-1.5,3.4-2.1
			c0.4-0.2-0.1-0.4-0.5-0.4C417.6,197.7,417.5,197.7,417.5,197.7"/>
	</defs>
	<clipPath id="SVGID_92_">
		<use xlink:href="#SVGID_91_"  style="overflow:visible;"/>
	</clipPath>
	
		<linearGradient id="SVGID_93_" gradientUnits="userSpaceOnUse" x1="269.9644" y1="776.0746" x2="272.8975" y2="776.0746" gradientTransform="matrix(0.4163 0.8082 -0.9151 0.3677 1009.2048 -303.5884)">
		<stop  offset="0" style="stop-color:#53721A"/>
		<stop  offset="3.749342e-002" style="stop-color:#59791F"/>
		<stop  offset="9.209317e-002" style="stop-color:#698C2D"/>
		<stop  offset="0.1568" style="stop-color:#84AC43"/>
		<stop  offset="0.1779" style="stop-color:#8EB84C"/>
		<stop  offset="0.5215" style="stop-color:#A6B421"/>
		<stop  offset="1" style="stop-color:#0D3A17"/>
	</linearGradient>
	<polygon class="st34" points="402.5,198.6 407.2,207.7 420.9,202.2 416.2,193.1 	"/>
</g>
<g>
	<defs>
		<path id="SVGID_94_" d="M481.4,195.2l-0.9-0.5l-1.5,2.1l-0.5-0.5l-1.4,1.9l-1-0.8l-1.8,2.3l-2.7-2.2l-1.8,6.1l-0.7,1.3l3.1,2.9
			l-4.3,1.6l2,2l0,1.9l1.2,1.7l0.9,1.9l2.5,0.1l1.7,1l1.6-2.1c-0.2,0.5-0.3,1,0,1.4c1.1,1,2.7,2.6,3,2.3c0.3-0.4,0.6-0.8,0.6-0.8
			l3,1.8l1.3-1.8l2.4,0.3l0.9-1.2l1.2,0.2l1-1.3l1.9-2.5l-0.7-0.4l1.7-0.8l-0.8-1.5l2.1-2.5l-1.5-0.9c0,0,1.8-2,1.9-3.7
			c0.1-1.6-1-2.5,0.4-3.5c0.8-0.6,0.2-0.2-0.8,0.2c-0.7,0.3-1.5,0.5-2.2,0.5c-1.7-0.1-4.2,1.3-4.2,1.3l0.3-2l-1.2-0.8l-0.6-1.8
			l-2.1-1.7l-0.6-3.8L481.4,195.2z"/>
	</defs>
	<clipPath id="SVGID_95_">
		<use xlink:href="#SVGID_94_"  style="overflow:visible;"/>
	</clipPath>
	
		<linearGradient id="SVGID_96_" gradientUnits="userSpaceOnUse" x1="11.58" y1="747.056" x2="14.513" y2="747.056" gradientTransform="matrix(8.278 -5.7494 6.5099 7.3109 -4488.748 -5180.375)">
		<stop  offset="0" style="stop-color:#5D7D1F"/>
		<stop  offset="0.1047" style="stop-color:#6C8827"/>
		<stop  offset="0.3698" style="stop-color:#8D9F38"/>
		<stop  offset="0.5153" style="stop-color:#99A83E"/>
		<stop  offset="0.5863" style="stop-color:#94A73E"/>
		<stop  offset="0.6658" style="stop-color:#87A23D"/>
		<stop  offset="0.7492" style="stop-color:#719B3C"/>
		<stop  offset="0.8356" style="stop-color:#51913A"/>
		<stop  offset="0.9231" style="stop-color:#298437"/>
		<stop  offset="1" style="stop-color:#007735"/>
	</linearGradient>
	<polygon class="st35" points="479.1,232.8 512.6,209.6 486,179.7 452.5,203 	"/>
</g>
<g>
	<defs>
		<path id="SVGID_97_" d="M474.6,222.2C474.7,222.2,474.7,222.2,474.6,222.2L474.6,222.2z M484.4,198c0.2,1,0.6,1.9,1,2.8
			c-0.5,0.7-1.2,1.4-1.8,2.1c0-0.8,0-1.6,0.2-2.4c0-0.2-0.9,0-0.9,0.3c-0.3,1.5,0.1,3-0.3,4.4c-0.1,0.5-0.4,0.9-0.6,1.3l-3.7-4.1
			c-0.2-0.2-1.1,0.2-0.8,0.4l0.3,0.3c-1.1,0.1-2.2,0.1-3.3-0.2c-0.2,0-0.4,0-0.6,0.1c0,0-0.4,0.2-0.2,0.3c1.3,0.4,2.8,0.3,4.2,0.2
			c0,0,0.1,0,0.2-0.1l3.4,3.9c-0.3,0.5-0.6,0.9-0.9,1.4c-0.6,1.1-1,2.2-1.4,3.3c-0.8-0.9-1.5-1.9-2.8-2.3c0,0-0.1,0-0.1,0
			c0.2-0.1,0.3-0.2,0.3-0.3c0,0,0-0.1,0-0.1c0.1-0.1,0.1-0.1,0-0.2c0,0,0,0,0,0c-0.2-0.8-0.4-1.6-0.9-2.3c-0.1-0.2-1,0.1-0.9,0.3
			c0.3,0.5,0.5,1,0.7,1.6c-0.4-0.1-0.8-0.2-1.1-0.3c-0.2-0.1-1.1,0.3-0.7,0.4c0.7,0.2,1.4,0.4,2,0.6c0,0.1,0,0.1,0,0.2
			c0,0.1,0.1,0.1,0.3,0c-0.2,0.1-0.5,0.3-0.4,0.3c1.3,0.4,2,1.5,2.8,2.4c0.1,0.1,0.5,0,0.7-0.2c-0.3,1.1-0.7,2.2-1.1,3.3
			c-2.3,1.2-2.8,4.1-3.6,6.1c0,0,0,0.1,0.1,0.2c0.1,0.1,0.1,0.2,0.1,0.2l0.5-0.1c0.6-1.5,1-4,2.3-5.3c0,0,0,0.1,0,0.1
			c-0.1,0.2,0.8,0,0.9-0.3c0.1-0.2,0.2-0.4,0.3-0.6c0.2-0.1,0.3-0.3,0.2-0.4c1-2.7,1.4-5.7,3.2-8.1c0.2-0.1,0.4-0.3,0.3-0.4
			c0.6-0.8,1.1-1.7,1.2-2.7c0-0.3,0-0.7,0-1c0.2,0,0.6-0.1,0.7-0.2c0.6-0.7,1.3-1.4,1.8-2.1c0.2-0.1,0.4-0.2,0.3-0.3c0,0,0,0,0-0.1
			c0.2-0.4,0.5-0.7,0.7-1.1c0.2-0.3-0.7-0.1-0.9,0.1c0,0.1-0.1,0.2-0.1,0.2c-0.3-0.7-0.6-1.5-0.8-2.2c0-0.1-0.1-0.1-0.2-0.1
			C484.8,197.6,484.3,197.8,484.4,198"/>
	</defs>
	<clipPath id="SVGID_98_">
		<use xlink:href="#SVGID_97_"  style="overflow:visible;"/>
	</clipPath>
	
		<linearGradient id="SVGID_99_" gradientUnits="userSpaceOnUse" x1="67.4066" y1="752.5212" x2="70.3397" y2="752.5212" gradientTransform="matrix(3.8589 2.5513 -2.8887 3.4081 2386.0505 -2531.998)">
		<stop  offset="0" style="stop-color:#53721A"/>
		<stop  offset="3.749342e-002" style="stop-color:#59791F"/>
		<stop  offset="9.209317e-002" style="stop-color:#698C2D"/>
		<stop  offset="0.1568" style="stop-color:#84AC43"/>
		<stop  offset="0.1779" style="stop-color:#8EB84C"/>
		<stop  offset="0.5215" style="stop-color:#A6B421"/>
		<stop  offset="1" style="stop-color:#0D3A17"/>
	</linearGradient>
	<polygon class="st36" points="459.9,213.4 482.2,228.1 500.6,206.4 478.3,191.7 	"/>
</g>
<g>
	<defs>
		<path id="SVGID_100_" d="M493.9,206.8c-1.7,0.6-3.1,1.5-4.3,2.7c-0.1,0.1,0,0.1,0,0.2c-3.5,0.2-7.1,1-9.9,2.8
			c-0.5,0.3,0.6,0.6,0.9,0.4c3.4-2.1,8.1-2.8,12.1-2.6c0.7,0,0.7-0.6,0.1-0.6c-0.7,0-1.4,0-2.1,0c1.1-1.1,2.4-1.8,3.9-2.4
			c0.5-0.2-0.1-0.5-0.5-0.5C494,206.8,493.9,206.8,493.9,206.8"/>
	</defs>
	<clipPath id="SVGID_101_">
		<use xlink:href="#SVGID_100_"  style="overflow:visible;"/>
	</clipPath>
	
		<linearGradient id="SVGID_102_" gradientUnits="userSpaceOnUse" x1="259.6031" y1="731.3157" x2="262.5361" y2="731.3157" gradientTransform="matrix(0.4765 0.9356 -1.0593 0.4208 1137.8513 -341.31)">
		<stop  offset="0" style="stop-color:#53721A"/>
		<stop  offset="3.749342e-002" style="stop-color:#59791F"/>
		<stop  offset="9.209317e-002" style="stop-color:#698C2D"/>
		<stop  offset="0.1568" style="stop-color:#84AC43"/>
		<stop  offset="0.1779" style="stop-color:#8EB84C"/>
		<stop  offset="0.5215" style="stop-color:#A6B421"/>
		<stop  offset="1" style="stop-color:#0D3A17"/>
	</linearGradient>
	<polygon class="st37" points="476.6,207.8 481.9,218.3 497.7,212 492.4,201.5 	"/>
</g>
<g>
	<defs>
		<path id="SVGID_103_" d="M421.4,255.1c-6.6-2-13.2-4.4-19.1-7.8c-5.4-3.2-10.2-6.9-15-10.8c3,1,6.1,2,9.2,2.9
			c6,1.7,12.1,3.1,18,4.9c3.1,0.9,6.2,1.9,9.1,3.3c3,1.4,5.5,3.2,8.1,5.1c3.4,2.5,6.9,4.9,10.5,7.2
			C435.2,258.8,428.1,257.1,421.4,255.1 M364,226.9c-11.5-3.9-23.3-7.2-35.5-9.1c6.9-1,14-1.9,20.9-0.9c11.5,1.6,20.7,8.3,29.2,15.1
			C373.8,230.3,368.9,228.5,364,226.9 M392.5,204.7c-3,0.1-7.4,1.2-6.9,4.6c0.3,2.2,3.4,3.4,5.6,3.5c3,0.2,4.2-1.3,3.4-3.9
			c-0.2-0.6-2.7-0.8-2.6-0.4c0.3,0.9,0.6,2.5-0.6,3.1c-1.1,0.5-2,0.3-2.6-0.7c-1.6-2.3,0.6-4.6,3.2-5.1c2.5-0.5,4.5-0.1,6.1,1.7
			c1.1,1.2,2,2.5,2.5,4c0.8,2.5,0.5,5.2-1.1,7.4c-2.9,4-8.6,5.1-13.6,5.6c-4.7,0.4-9.4,0.2-14.2,0c-4.4-2.9-9.1-5.4-14.3-7.1
			c-13-4.2-26-1.4-39.3-0.1c-0.7,0.1-0.8,0.5-0.3,0.9c0.7,0.4,1.7,0.7,2.5,0.6c1-0.1,2.1-0.2,3.2-0.4c0,0,0,0,0,0
			c18.5,2.3,35.9,8.2,53.1,14.4c1.8,0.6,3.6,1.3,5.4,1.9c0.8,0.7,1.6,1.3,2.4,2c2.3,3.1,3,7,3.1,10.6c0.1,4-0.1,8.4-1.4,12.3
			c-1.6,4.6-4.7,9-9.2,11.8c-3.5,2.2-9.6,4.8-13.8,2.3c-3.6-2.1-5.4-6.5-5.2-10.2c0.1-3.6,2.6-7.7,7.1-8c2.5-0.2,3.7,1.9,3.3,3.9
			c-0.4,2.2-2,2.8-4,1.5c-1-0.6-3.2,0-1.7,0.9c1.7,1.1,4.7,2.3,6.7,0.9c1.5-1.1,2.1-2.9,1.7-4.5c-1.7-6.7-11.7-4.2-14.5,0.4
			c-3.9,6.4,1.1,16.7,9.6,17.6c10.6,1.1,20.1-7.4,22.8-15.9c1.3-4.2,1.7-8.9,1.4-13.3c-0.2-2.3-0.6-4.6-1.4-6.8
			c7.4,5.5,15.1,10.4,24.3,13.7c3.7,1.3,7.5,2.5,11.4,3.6c-6.4-0.1-14.8,1.5-12.3,7.5c1.1,2.6,3.8,5.1,7,5.8
			c3.1,0.7,5.1-0.6,5.2-3.5c0-0.5-1.7-0.8-1.8-0.4c-0.2,2.8-2.2,4.4-5.1,2.5c-2.1-1.3-4.2-3.7-3.9-6.1c0.6-4.9,8.4-5.6,13.5-5.1
			c5.9,1.5,12,2.6,18,3.3c0.8,0.4,1.6,0.9,2.4,1.3c5.5,2.7,11.7,4.4,17.1,7.3c2.6,1.4,4.9,3.1,6.7,5.3c1.3,1.6,3.1,4.3,1.5,6.3
			c-2.8,3.4-10.6,3.9-13.8,0.7c-1.5-1.6-2.7-4.4,0.6-5c0.8-0.2,2-0.1,2.6,0.5c0.8,0.8-1.7,0.7-2.1,0.8c-1.8,0-0.1,1.5,1,1.4
			c0.9,0,5.2-0.3,3.8-2.1c-1.1-1.4-3.4-2.1-5.3-2.1c-2,0-4.9,0.9-4.8,3.1c0,2,1.7,3.8,3.4,5c4,2.7,11.6,2.8,15.6,0.1
			c5.5-3.7-0.5-9.9-4.2-12.6c-4.7-3.3-10.5-5.1-15.8-7.3c-1.3-0.5-2.5-1.1-3.8-1.7c8.2,1.2,16.1,3.6,24.5,4.1
			c3.9,0.2,7.8,0.1,11.6-0.7c3-0.7,6.4-1.5,8.8-3.3c2.1-1.5,3.7-3.8,3-6.3c-0.6-2.2-2.3-3.9-4.9-4.3c-2-0.3-5.4,0.1-5.9,2.3
			c-0.4,2.1,1,3.8,2.7,5.1c1,0.7,3.1,0.1,1.7-1c-1.2-0.9-3-3.5-1-4.5c3-1.5,5.2,1.3,4.7,3.8c-1,4.5-6.9,5.9-11.3,6.8
			c-8.7,1.8-17.6-0.3-26.4-2.1c6.5-0.1,13-1.3,17.9-4.9c10.3-7.6,14.4-28.4,0.8-35.1c-3.5-1.7-8-2.7-12-2c-3.6,0.6-7.9,2.5-7.8,6.3
			c0.1,3.4,2.4,6.9,5.8,8.6c1.2,0.6,3.5,1.1,4.7,0.2c1.8-1.3,1.7-3.5,1.3-5.4c-0.2-0.9-3.7-1.4-3.5-0.5c0.3,1.3,0.4,2.8-0.4,4
			c-0.4,0.5-0.6,0.5-0.5,0.6c-0.4-0.3-0.7-0.5-1-0.8c-1.2-1.3-2.4-2.9-2.7-4.6c-0.8-3.9,2.6-6.6,6.8-7c7.8-0.7,12.7,4.9,13.8,11.2
			c1.1,6.2-0.5,13.1-4.1,18.5c-4.6,6.8-13,9.3-21.6,9.4c-2.5,0-4.9-0.1-7.4-0.3c-0.5-0.1-1-0.1-1.5-0.2c-0.1,0-0.1,0-0.2,0
			c-3.4-1.9-6.6-4-9.7-6.3c-4.8-3.4-9.2-6.7-14.9-8.8c-5.5-2.1-11.4-3.4-17.1-4.9c-0.4-0.1-0.8-0.2-1.2-0.3c9.2,1,18.1,4,27.5,4.5
			c3.9,0.2,7.8,0.1,11.6-0.7c3-0.6,6.4-1.5,8.8-3.2c2.1-1.5,3.7-3.8,3-6.3c-0.6-2.2-2.3-3.9-4.9-4.3c-2-0.3-5.4,0.1-5.9,2.3
			c-0.4,2.1,1,3.8,2.7,5.1c1,0.7,3.1,0.1,1.7-1c-1.2-0.9-3-3.5-1-4.5c3-1.5,5.2,1.3,4.7,3.8c-1,4.5-6.9,5.9-11.3,6.8
			c-12.5,2.5-25.4-2.8-37.7-4.1c-1.4-0.2-1.3,0.8-0.5,1.3c-6-1.7-12-3.6-17.8-5.6c-3.6-2.9-7.2-5.8-11-8.5
			c7.1,0.2,14.4,0.7,21.2-1.1c3.1-0.8,6.2-2.3,7.9-4.8c2.1-3.2,2-7.1-0.3-10.2c-2.1-2.8-5.3-4.7-9.2-4.7
			C392.7,204.7,392.6,204.7,392.5,204.7"/>
	</defs>
	<clipPath id="SVGID_104_">
		<use xlink:href="#SVGID_103_"  style="overflow:visible;"/>
	</clipPath>
	
		<linearGradient id="SVGID_105_" gradientUnits="userSpaceOnUse" x1="18.1854" y1="717.3612" x2="21.1184" y2="717.3612" gradientTransform="matrix(-61.5409 0 0 -54.3516 1617.1763 39235.3242)">
		<stop  offset="0" style="stop-color:#53721A"/>
		<stop  offset="0.1671" style="stop-color:#567621"/>
		<stop  offset="0.3988" style="stop-color:#5F8033"/>
		<stop  offset="1" style="stop-color:#0D3A17"/>
	</linearGradient>
	<rect x="317.3" y="204.7" class="st38" width="181.2" height="81.8"/>
</g>
<g>
	<defs>
		<path id="SVGID_106_" d="M397.2,225.3l-2.5-0.9l-2.8,0.4l-3,0.1l-1.3,2.5l-2.1,1.3l2.1,2.7c-0.6-0.5-1.2-0.8-1.8-0.6
			c-1.9,0.7-4.7,1.5-4.4,2c0.3,0.4,0.8,1,0.8,1l-3.8,2.3l1.7,2.2l-1.5,2.4l1.2,1.6l-0.8,1.1l1.3,1.7l2.4,3.1l0.9-0.5l0.3,2.1
			l2.3-0.1l2.4,3.3l1.9-1.1c0,0,1.8,2.8,4,3.7c2.1,0.8,3.8,0.2,4.5,2c0.7,1.9-0.4-1.7,0.5-3.4c0.9-1.7,0.3-4.9,0.3-4.9l2.5,1.3
			l1.7-0.9l2.6,0.2l3.3-1.3l5.4,1.2l-2.2-5l1.1-0.7l-2-2.6l0.9-0.2l-1.8-2.3l1.6-0.6l-2.2-2.9l4.2-1.7l-7.2-4.8l-1.4-1.3l-5.2,1.9
			l-0.1-5.2L397.2,225.3z"/>
	</defs>
	<clipPath id="SVGID_107_">
		<use xlink:href="#SVGID_106_"  style="overflow:visible;"/>
	</clipPath>
	
		<linearGradient id="SVGID_108_" gradientUnits="userSpaceOnUse" x1="40.4056" y1="724.6905" x2="43.3387" y2="724.6905" gradientTransform="matrix(3.6751 11.2408 -12.7276 3.2457 9466.0801 -2581.9622)">
		<stop  offset="0" style="stop-color:#5D7D1F"/>
		<stop  offset="0.1047" style="stop-color:#6C8827"/>
		<stop  offset="0.3698" style="stop-color:#8D9F38"/>
		<stop  offset="0.5153" style="stop-color:#99A83E"/>
		<stop  offset="0.5863" style="stop-color:#94A73E"/>
		<stop  offset="0.6658" style="stop-color:#87A23D"/>
		<stop  offset="0.7492" style="stop-color:#719B3C"/>
		<stop  offset="0.8356" style="stop-color:#51913A"/>
		<stop  offset="0.9231" style="stop-color:#298437"/>
		<stop  offset="1" style="stop-color:#007735"/>
	</linearGradient>
	<polygon class="st39" points="367.6,226.9 381.1,268 425.7,256.7 412.2,215.5 	"/>
</g>
<g>
	<defs>
		<path id="SVGID_109_" d="M380.4,224.9L380.4,224.9C380.4,224.9,380.4,224.9,380.4,224.9 M380.7,224.9c-0.1,0-0.3,0.1-0.3,0.1
			l-0.1,0.6c1.7,1.3,4.7,2.9,5.9,4.9c0,0-0.1-0.1-0.1-0.1c-0.2-0.1-0.4,0.8-0.1,1.1c0.2,0.2,0.5,0.4,0.7,0.6
			c0.1,0.3,0.3,0.4,0.5,0.4c3.1,2.3,6.8,4.2,9.2,7.1c0,0.3,0.2,0.5,0.4,0.5c0.8,1,1.7,2,3,2.5c0.4,0.2,0.9,0.4,1.4,0.5
			c-0.1,0.2-0.1,0.6,0,0.8c0.6,1,1.2,2,1.9,2.9c0,0.2,0.1,0.5,0.3,0.5c0,0,0.1,0,0.1,0c0.3,0.4,0.7,0.8,1.1,1.2
			c0.4,0.4,0.5-0.7,0.3-0.9c-0.1-0.1-0.2-0.2-0.3-0.3c1.1,0,2.2,0.1,3.3,0.3c0.3,0,0.4-1,0-1.1c-1.4-0.2-2.8-0.3-4.2-0.3
			c-0.7-0.9-1.3-1.9-2-2.9c1.1,0.4,2.1,0.8,3.1,1.3c0.3,0.1,0.4-0.9,0.1-1c-1.8-1-4-1.3-5.7-2.5c-0.5-0.4-1-0.8-1.5-1.2l7.2-1.8
			c0.4-0.1,0.3-1.2-0.2-1l-0.5,0.1c0.4-1.2,1-2.3,1.9-3.3c0.2-0.2,0.1-0.5,0.1-0.7c0,0-0.1-0.5-0.2-0.4c-1.1,1.2-1.7,2.7-2.3,4.2
			c0,0.1,0,0.2,0,0.3l-6.7,1.7c-0.5-0.5-0.9-1.1-1.5-1.6c-1.1-1.1-2.4-2.1-3.8-3c1.6-0.4,3.2-0.7,4.4-1.8c0,0,0-0.1,0.1-0.1
			c0,0.2,0.1,0.4,0.2,0.4c0,0,0.1,0,0.1,0c0,0.1,0.1,0.2,0.2,0.1c0,0,0,0,0,0c1.1,0.2,2.3,0.3,3.4,0.2c0.4,0,0.3-1.1,0-1.1
			c-0.8,0.1-1.6,0-2.4,0c0.3-0.3,0.6-0.7,1-1c0.2-0.2,0-1.2-0.3-0.9c-0.6,0.6-1.1,1.2-1.8,1.8c-0.1,0-0.2,0-0.3-0.1
			c-0.1,0-0.2,0.1-0.2,0.2c0-0.3-0.1-0.6-0.2-0.6c-1.2,1.1-2.9,1.4-4.5,1.8c-0.2,0-0.2,0.5-0.1,0.8c-1.3-0.9-2.6-1.7-3.9-2.7
			c-0.5-2.9-4.1-4.8-6.4-6.6c0,0,0,0,0,0C380.9,224.8,380.8,224.8,380.7,224.9"/>
	</defs>
	<clipPath id="SVGID_110_">
		<use xlink:href="#SVGID_109_"  style="overflow:visible;"/>
	</clipPath>
	
		<linearGradient id="SVGID_111_" gradientUnits="userSpaceOnUse" x1="36.2867" y1="678.9238" x2="39.2198" y2="678.9238" gradientTransform="matrix(-5.1922 2.7669 -3.1328 -4.5856 2720.2429 3243.9631)">
		<stop  offset="0" style="stop-color:#53721A"/>
		<stop  offset="3.749342e-002" style="stop-color:#59791F"/>
		<stop  offset="9.209317e-002" style="stop-color:#698C2D"/>
		<stop  offset="0.1568" style="stop-color:#84AC43"/>
		<stop  offset="0.1779" style="stop-color:#8EB84C"/>
		<stop  offset="0.5215" style="stop-color:#A6B421"/>
		<stop  offset="1" style="stop-color:#0D3A17"/>
	</linearGradient>
	<polygon class="st40" points="400.7,213.9 368.3,231.2 387.7,259.6 420.2,242.3 	"/>
</g>
<g>
	<defs>
		<path id="SVGID_112_" d="M389.8,234.9c2.6,4,3.1,9.2,2.4,13.7c-0.1,0.7,0.7,0.9,0.8,0.1c0.1-0.8,0.2-1.5,0.3-2.3
			c1.4,1.3,2.3,2.9,2.9,4.6c0.3,0.7,0.9-0.4,0.7-0.8c-0.7-1.9-1.7-3.6-3.3-5.1c-0.1-0.1-0.2-0.1-0.3,0c0.1-3.9-0.7-7.9-2.9-11.2
			c-0.1-0.1-0.1-0.1-0.2-0.1C389.9,233.8,389.6,234.6,389.8,234.9"/>
	</defs>
	<clipPath id="SVGID_113_">
		<use xlink:href="#SVGID_112_"  style="overflow:visible;"/>
	</clipPath>
	
		<linearGradient id="SVGID_114_" gradientUnits="userSpaceOnUse" x1="56.2317" y1="529.3909" x2="59.1647" y2="529.3909" gradientTransform="matrix(-1.3788 0.4273 -0.4838 -1.2177 727.7963 863.1237)">
		<stop  offset="0" style="stop-color:#53721A"/>
		<stop  offset="3.749342e-002" style="stop-color:#59791F"/>
		<stop  offset="9.209317e-002" style="stop-color:#698C2D"/>
		<stop  offset="0.1568" style="stop-color:#84AC43"/>
		<stop  offset="0.1779" style="stop-color:#8EB84C"/>
		<stop  offset="0.5215" style="stop-color:#A6B421"/>
		<stop  offset="1" style="stop-color:#0D3A17"/>
	</linearGradient>
	<polygon class="st41" points="396.2,231.8 383.2,235.8 390.4,253.8 403.3,249.8 	"/>
</g>
<g>
	<defs>
		<path id="SVGID_115_" d="M476.5,262l-1.8-0.1l-1.8,0.8l-1.9,0.6l-0.3,1.9l-1.1,1.2l2,1.4c-0.5-0.2-1-0.3-1.3-0.1
			c-1.1,0.8-2.8,1.9-2.4,2.1c0.3,0.2,0.7,0.5,0.7,0.5l-2,2.2l1.6,1.2l-0.5,1.8l1.1,0.8l-0.3,0.9l1.2,0.9l2.3,1.6l0.5-0.5l0.7,1.3
			l1.5-0.5l2.3,1.8l1-1.1c0,0,1.8,1.5,3.4,1.7c0.5,0.1,1,0,1.4,0c0.8-0.1,1.4-0.2,2,0.6c0.9,1.1-0.6-1.1-0.4-2.4
			c0.2-1.3-0.9-3.3-0.9-3.3l1.9,0.4l0.9-0.9l1.8-0.3l1.9-1.4l3.8-0.2l-2.6-2.9l0.6-0.7l-1.9-1.3l0.6-0.3l-1.7-1.2l0.9-0.7l-2.1-1.5
			l2.4-1.9l-5.8-1.9l-1.2-0.6l-3,2.1l-1.2-3.4L476.5,262z"/>
	</defs>
	<clipPath id="SVGID_116_">
		<use xlink:href="#SVGID_115_"  style="overflow:visible;"/>
	</clipPath>
	
		<linearGradient id="SVGID_117_" gradientUnits="userSpaceOnUse" x1="53.0943" y1="730.9885" x2="56.0273" y2="730.9885" gradientTransform="matrix(4.9474 6.759 -7.653 4.3694 5804.3115 -3290.6729)">
		<stop  offset="0" style="stop-color:#5D7D1F"/>
		<stop  offset="0.1047" style="stop-color:#6C8827"/>
		<stop  offset="0.3698" style="stop-color:#8D9F38"/>
		<stop  offset="0.5153" style="stop-color:#99A83E"/>
		<stop  offset="0.5863" style="stop-color:#94A73E"/>
		<stop  offset="0.6658" style="stop-color:#87A23D"/>
		<stop  offset="0.7492" style="stop-color:#719B3C"/>
		<stop  offset="0.8356" style="stop-color:#51913A"/>
		<stop  offset="0.9231" style="stop-color:#298437"/>
		<stop  offset="1" style="stop-color:#007735"/>
	</linearGradient>
	<polygon class="st42" points="454.4,267.5 474.5,295 505.9,277.1 485.7,249.6 	"/>
</g>
<g>
	<defs>
		<path id="SVGID_118_" d="M465.4,264.7L465.4,264.7C465.4,264.7,465.4,264.7,465.4,264.7 M465.6,264.6c-0.1,0-0.2,0.1-0.2,0.1
			l0,0.4c1.4,0.6,3.8,1.1,5,2.2c0,0-0.1,0-0.1,0c-0.1-0.1,0,0.6,0.2,0.7c0.2,0.1,0.4,0.2,0.6,0.3c0.1,0.2,0.3,0.2,0.4,0.2
			c2.6,1,5.4,1.6,7.7,3.1c0.1,0.2,0.2,0.3,0.4,0.3c0.8,0.5,1.5,1,2.5,1.1c0.3,0,0.7,0.1,1,0.1c0,0.2,0,0.4,0.1,0.5
			c0.6,0.5,1.2,1.1,1.9,1.6c0.1,0.2,0.2,0.3,0.3,0.3c0,0,0,0,0.1,0c0.3,0.2,0.7,0.4,1,0.6c0.3,0.2,0.2-0.6,0-0.7
			c-0.1,0-0.2-0.1-0.2-0.1c0.7-0.2,1.5-0.3,2.2-0.4c0.2,0,0-0.7-0.3-0.7c-1,0.1-1.9,0.3-2.8,0.6c-0.7-0.5-1.3-1-1.9-1.6
			c0.8,0.1,1.6,0.1,2.3,0.3c0.2,0,0.1-0.6-0.2-0.7c-1.4-0.4-2.9-0.2-4.3-0.6c-0.4-0.1-0.8-0.3-1.2-0.6l4.3-2.5
			c0.2-0.1-0.1-0.8-0.4-0.7l-0.3,0.2c0-0.9,0.1-1.7,0.5-2.5c0.1-0.1,0-0.3-0.1-0.5c0,0-0.2-0.3-0.2-0.2c-0.5,1-0.5,2.1-0.5,3.2
			c0,0,0,0.1,0.1,0.2l-4,2.3c-0.4-0.3-0.9-0.6-1.3-0.8c-1-0.5-2.1-0.9-3.1-1.3c0.9-0.5,2-1,2.5-1.9c0,0,0,0,0-0.1
			c0.1,0.1,0.1,0.2,0.3,0.2c0,0,0.1,0,0.1,0c0.1,0.1,0.1,0.1,0.1,0c0,0,0,0,0,0c0.8-0.1,1.6-0.2,2.3-0.5c0.2-0.1-0.1-0.8-0.3-0.7
			c-0.5,0.2-1.1,0.3-1.6,0.4c0.1-0.3,0.3-0.6,0.4-0.8c0.1-0.2-0.3-0.8-0.4-0.6c-0.2,0.5-0.5,1-0.8,1.5c-0.1,0-0.1,0-0.2,0
			c-0.1,0-0.1,0.1-0.1,0.2c-0.1-0.2-0.2-0.4-0.3-0.3c-0.5,0.9-1.6,1.4-2.6,1.9c-0.1,0.1,0,0.4,0.1,0.6c-1.1-0.3-2.1-0.7-3.1-1.1
			c-1-1.8-3.7-2.4-5.7-3.2c0,0,0,0,0,0C465.7,264.5,465.7,264.5,465.6,264.6"/>
	</defs>
	<clipPath id="SVGID_119_">
		<use xlink:href="#SVGID_118_"  style="overflow:visible;"/>
	</clipPath>
	
		<linearGradient id="SVGID_120_" gradientUnits="userSpaceOnUse" x1="56.8888" y1="655.7202" x2="59.8218" y2="655.7202" gradientTransform="matrix(-2.7975 2.7326 -3.094 -2.4707 2670.9111 1729.1318)">
		<stop  offset="0" style="stop-color:#53721A"/>
		<stop  offset="3.749342e-002" style="stop-color:#59791F"/>
		<stop  offset="9.209317e-002" style="stop-color:#698C2D"/>
		<stop  offset="0.1568" style="stop-color:#84AC43"/>
		<stop  offset="0.1779" style="stop-color:#8EB84C"/>
		<stop  offset="0.5215" style="stop-color:#A6B421"/>
		<stop  offset="1" style="stop-color:#0D3A17"/>
	</linearGradient>
	<polygon class="st43" points="475.9,254.2 458.9,270.9 478.2,286.3 495.2,269.7 	"/>
</g>
<g>
	<defs>
		<path id="SVGID_121_" d="M473.8,269.6c2.6,2.2,4.1,5.6,4.7,8.6c0.1,0.5,0.7,0.5,0.6-0.1c-0.1-0.5-0.2-1-0.4-1.6
			c1.2,0.6,2.1,1.5,3,2.5c0.3,0.4,0.5-0.4,0.3-0.6c-0.9-1.1-2-2.1-3.3-2.8c-0.1,0-0.1,0-0.2,0c-0.8-2.6-2.3-5.1-4.4-6.9
			c-0.1,0-0.1-0.1-0.1-0.1C473.6,268.8,473.6,269.4,473.8,269.6"/>
	</defs>
	<clipPath id="SVGID_122_">
		<use xlink:href="#SVGID_121_"  style="overflow:visible;"/>
	</clipPath>
	
		<linearGradient id="SVGID_123_" gradientUnits="userSpaceOnUse" x1="120.2915" y1="417.8644" x2="123.2245" y2="417.8644" gradientTransform="matrix(-0.8122 0.5233 -0.5925 -0.7173 823.6568 510.6144)">
		<stop  offset="0" style="stop-color:#53721A"/>
		<stop  offset="3.749342e-002" style="stop-color:#59791F"/>
		<stop  offset="9.209317e-002" style="stop-color:#698C2D"/>
		<stop  offset="0.1568" style="stop-color:#84AC43"/>
		<stop  offset="0.1779" style="stop-color:#8EB84C"/>
		<stop  offset="0.5215" style="stop-color:#A6B421"/>
		<stop  offset="1" style="stop-color:#0D3A17"/>
	</linearGradient>
	<polygon class="st44" points="479.2,265.2 467.8,272.5 476.5,283.1 487.9,275.8 	"/>
</g>
<g>
	<defs>
		<path id="SVGID_124_" d="M441,247.3l-2.5-0.9l-2.8,0.4l-3,0.1l-1.3,2.5l-2.1,1.3l2.1,2.7c-0.6-0.5-1.2-0.8-1.8-0.6
			c-1.9,0.7-4.7,1.5-4.4,2c0.3,0.4,0.8,1,0.8,1l-3.8,2.3l1.7,2.2l-1.5,2.4l1.2,1.6l-0.8,1.1l1.3,1.7l2.4,3.1l0.9-0.5l0.3,2.1
			l2.3-0.1l2.4,3.3l1.9-1.1c0,0,1.8,2.8,4,3.7c2.1,0.8,3.8,0.2,4.5,2c0.7,1.9-0.4-1.7,0.5-3.4c0.9-1.7,0.3-4.9,0.3-4.9l2.5,1.3
			l1.7-0.9l2.6,0.2l3.3-1.3l5.4,1.2l-2.2-5l1.1-0.7l-2-2.6l0.9-0.2l-1.8-2.3l1.6-0.6l-2.2-2.9l4.2-1.7l-7.2-4.8l-1.4-1.3l-5.2,1.9
			l-0.1-5.2L441,247.3z"/>
	</defs>
	<clipPath id="SVGID_125_">
		<use xlink:href="#SVGID_124_"  style="overflow:visible;"/>
	</clipPath>
	
		<linearGradient id="SVGID_126_" gradientUnits="userSpaceOnUse" x1="42.1991" y1="722.938" x2="45.1322" y2="722.938" gradientTransform="matrix(3.6751 11.2407 -12.7276 3.2457 9480.9727 -2574.4604)">
		<stop  offset="0" style="stop-color:#5D7D1F"/>
		<stop  offset="0.1047" style="stop-color:#6C8827"/>
		<stop  offset="0.3698" style="stop-color:#8D9F38"/>
		<stop  offset="0.5153" style="stop-color:#99A83E"/>
		<stop  offset="0.5863" style="stop-color:#94A73E"/>
		<stop  offset="0.6658" style="stop-color:#87A23D"/>
		<stop  offset="0.7492" style="stop-color:#719B3C"/>
		<stop  offset="0.8356" style="stop-color:#51913A"/>
		<stop  offset="0.9231" style="stop-color:#298437"/>
		<stop  offset="1" style="stop-color:#007735"/>
	</linearGradient>
	<polygon class="st45" points="411.5,248.8 424.9,290 469.6,278.6 456.1,237.4 	"/>
</g>
<g>
	<defs>
		<path id="SVGID_127_" d="M424.2,246.9L424.2,246.9C424.2,246.9,424.2,246.9,424.2,246.9 M424.5,246.8c-0.1,0-0.3,0.1-0.3,0.1
			l-0.1,0.6c1.7,1.3,4.7,2.9,5.9,4.9c0,0-0.1-0.1-0.1-0.1c-0.2-0.1-0.4,0.8-0.1,1.1c0.2,0.2,0.5,0.4,0.7,0.6
			c0.1,0.3,0.3,0.4,0.5,0.4c3.1,2.3,6.8,4.2,9.2,7.1c0,0.3,0.2,0.5,0.4,0.5c0.8,1,1.7,2,3,2.5c0.4,0.2,0.9,0.4,1.4,0.5
			c-0.1,0.2-0.1,0.6,0,0.8c0.6,1,1.2,1.9,1.9,2.9c0,0.2,0.1,0.5,0.3,0.5c0,0,0.1,0,0.1,0c0.3,0.4,0.7,0.8,1.1,1.2
			c0.4,0.4,0.5-0.7,0.3-0.9c-0.1-0.1-0.2-0.2-0.3-0.3c1.1,0,2.2,0.1,3.3,0.3c0.3,0,0.4-1,0-1.1c-1.4-0.2-2.8-0.3-4.2-0.3
			c-0.7-0.9-1.3-1.9-2-2.9c1.1,0.4,2.1,0.7,3.1,1.3c0.3,0.1,0.4-0.9,0.1-1c-1.8-1-4-1.3-5.7-2.5c-0.5-0.4-1-0.8-1.5-1.2l7.2-1.8
			c0.4-0.1,0.3-1.2-0.2-1l-0.5,0.1c0.4-1.2,1-2.3,1.9-3.3c0.2-0.2,0.1-0.5,0.1-0.7c0,0-0.1-0.5-0.2-0.4c-1.1,1.2-1.7,2.7-2.2,4.2
			c0,0.1,0,0.2,0,0.3l-6.7,1.7c-0.5-0.5-0.9-1.1-1.5-1.6c-1.1-1.1-2.4-2.1-3.8-3c1.6-0.4,3.2-0.7,4.4-1.7c0,0,0-0.1,0.1-0.1
			c0,0.2,0.1,0.4,0.2,0.4c0,0,0.1,0,0.1,0c0,0.1,0.1,0.2,0.2,0.1c0,0,0,0,0,0c1.1,0.2,2.3,0.3,3.4,0.2c0.4,0,0.3-1.1,0-1.1
			c-0.8,0.1-1.6,0.1-2.4,0c0.3-0.3,0.6-0.7,1-1c0.2-0.2,0-1.2-0.3-0.9c-0.6,0.6-1.1,1.2-1.8,1.8c-0.1,0-0.2,0-0.3-0.1
			c-0.1,0-0.2,0.1-0.2,0.2c0-0.3-0.1-0.6-0.2-0.6c-1.2,1.1-2.9,1.4-4.5,1.8c-0.2,0-0.2,0.5-0.1,0.8c-1.3-0.9-2.6-1.7-3.9-2.7
			c-0.5-2.9-4.1-4.8-6.4-6.6c0,0,0,0,0,0C424.8,246.8,424.7,246.8,424.5,246.8"/>
	</defs>
	<clipPath id="SVGID_128_">
		<use xlink:href="#SVGID_127_"  style="overflow:visible;"/>
	</clipPath>
	
		<linearGradient id="SVGID_129_" gradientUnits="userSpaceOnUse" x1="33.6027" y1="674.1489" x2="36.5358" y2="674.1489" gradientTransform="matrix(-5.1922 2.7669 -3.1329 -4.5856 2735.2046 3251.4678)">
		<stop  offset="0" style="stop-color:#53721A"/>
		<stop  offset="3.749342e-002" style="stop-color:#59791F"/>
		<stop  offset="9.209317e-002" style="stop-color:#698C2D"/>
		<stop  offset="0.1568" style="stop-color:#84AC43"/>
		<stop  offset="0.1779" style="stop-color:#8EB84C"/>
		<stop  offset="0.5215" style="stop-color:#A6B421"/>
		<stop  offset="1" style="stop-color:#0D3A17"/>
	</linearGradient>
	<polygon class="st46" points="444.6,235.8 412.1,253.1 431.6,281.6 464,264.3 	"/>
</g>
<g>
	<defs>
		<path id="SVGID_130_" d="M433.6,256.9c2.6,4,3.1,9.2,2.4,13.7c-0.1,0.7,0.7,0.9,0.8,0.1c0.1-0.8,0.2-1.5,0.3-2.3
			c1.4,1.3,2.3,2.9,2.9,4.6c0.3,0.7,0.9-0.4,0.7-0.8c-0.7-1.9-1.7-3.6-3.3-5.1c-0.1-0.1-0.2-0.1-0.3,0c0.1-3.9-0.7-8-2.9-11.2
			c-0.1-0.1-0.1-0.1-0.2-0.1C433.7,255.8,433.4,256.6,433.6,256.9"/>
	</defs>
	<clipPath id="SVGID_131_">
		<use xlink:href="#SVGID_130_"  style="overflow:visible;"/>
	</clipPath>
	
		<linearGradient id="SVGID_132_" gradientUnits="userSpaceOnUse" x1="41.2851" y1="512.2612" x2="44.2181" y2="512.2612" gradientTransform="matrix(-1.3788 0.4273 -0.4838 -1.2177 742.742 870.6046)">
		<stop  offset="0" style="stop-color:#53721A"/>
		<stop  offset="3.749342e-002" style="stop-color:#59791F"/>
		<stop  offset="9.209317e-002" style="stop-color:#698C2D"/>
		<stop  offset="0.1568" style="stop-color:#84AC43"/>
		<stop  offset="0.1779" style="stop-color:#8EB84C"/>
		<stop  offset="0.5215" style="stop-color:#A6B421"/>
		<stop  offset="1" style="stop-color:#0D3A17"/>
	</linearGradient>
	<polygon class="st47" points="440,253.7 427.1,257.7 434.2,275.7 447.2,271.7 	"/>
</g>
<g>
	<defs>
		<path id="SVGID_133_" d="M373.1,270.7l-2.1-0.4l-0.9,1l-1-0.2l-1,1.1l-1.8,2l0.6,0.4l-1.5,0.6l0.5,1.3l-2,2.1l1.2,0.9
			c0,0-1.7,1.6-1.9,3c-0.2,1.4,0.6,2.2-0.6,3c-0.7,0.5-0.2,0.2,0.7-0.1c0.6-0.2,1.4-0.4,2-0.3c1.4,0.2,3.7-0.8,3.7-0.8l-0.4,1.7
			l1,0.8l0.3,1.6l1.6,1.6l0.2,3.4l3.3-2.3l0.7,0.5l1.5-1.7l0.4,0.5l1.4-1.5l0.8,0.8l1.7-1.9l2.1,2.1l2.1-5.2l0.7-1.1L384,281
			l3.8-1.1l-1.6-1.8l0.1-1.6l-0.9-1.6l-0.7-1.7l-2.1-0.3l-1.4-1l-1.6,1.7c0.3-0.5,0.3-0.9,0.1-1.2c-0.9-1-2.1-2.4-2.4-2.1
			c-0.3,0.3-0.6,0.7-0.6,0.7l-2.5-1.7L373.1,270.7z"/>
	</defs>
	<clipPath id="SVGID_134_">
		<use xlink:href="#SVGID_133_"  style="overflow:visible;"/>
	</clipPath>
	
		<linearGradient id="SVGID_135_" gradientUnits="userSpaceOnUse" x1="34.9685" y1="691.5211" x2="37.9015" y2="691.5211" gradientTransform="matrix(-7.6257 4.4065 -4.9893 -6.7348 4103.0176 4777.9937)">
		<stop  offset="0" style="stop-color:#5D7D1F"/>
		<stop  offset="0.1047" style="stop-color:#6C8827"/>
		<stop  offset="0.3698" style="stop-color:#8D9F38"/>
		<stop  offset="0.5153" style="stop-color:#99A83E"/>
		<stop  offset="0.5863" style="stop-color:#94A73E"/>
		<stop  offset="0.6658" style="stop-color:#87A23D"/>
		<stop  offset="0.7492" style="stop-color:#719B3C"/>
		<stop  offset="0.8356" style="stop-color:#51913A"/>
		<stop  offset="0.9231" style="stop-color:#298437"/>
		<stop  offset="1" style="stop-color:#007735"/>
	</linearGradient>
	<polygon class="st48" points="380.1,258.7 349.4,276.5 369.7,303.9 400.4,286.1 	"/>
</g>
<g>
	<defs>
		<path id="SVGID_136_" d="M382.8,268.3c-0.7,1.2-1.2,3.3-2.5,4.4c0,0,0-0.1,0-0.1c0.1-0.1-0.7,0-0.8,0.2c-0.1,0.2-0.2,0.3-0.3,0.5
			c-0.2,0.1-0.3,0.3-0.2,0.4c-1.1,2.3-1.7,4.8-3.4,6.8c-0.2,0.1-0.4,0.2-0.3,0.3c-0.6,0.7-1.1,1.4-1.3,2.2c-0.1,0.3-0.1,0.6-0.1,0.9
			c-0.2,0-0.5,0-0.6,0.1c-0.6,0.5-1.2,1.1-1.8,1.7c-0.2,0.1-0.3,0.2-0.3,0.3c0,0,0,0,0,0.1c-0.2,0.3-0.5,0.6-0.7,0.9
			c-0.2,0.3,0.6,0.2,0.8,0c0-0.1,0.1-0.1,0.1-0.2c0.2,0.6,0.4,1.3,0.5,2c0,0.2,0.8,0,0.8-0.2c-0.1-0.9-0.4-1.7-0.6-2.5
			c0.5-0.6,1.1-1.2,1.7-1.7c-0.1,0.7-0.1,1.4-0.4,2.1c-0.1,0.2,0.7,0,0.8-0.2c0.4-1.2,0.2-2.6,0.7-3.8c0.2-0.4,0.4-0.8,0.6-1.1
			l2.8,3.8c0.2,0.2,0.9-0.1,0.7-0.3l-0.2-0.3c1,0,1.9,0.1,2.8,0.4c0.2,0.1,0.4,0,0.5-0.1c0,0,0.4-0.2,0.2-0.2
			c-1.1-0.4-2.4-0.4-3.6-0.5c0,0-0.1,0-0.2,0l-2.6-3.6c0.3-0.4,0.6-0.8,0.9-1.2c0.6-0.9,1-1.8,1.4-2.8c0.6,0.8,1.1,1.8,2.2,2.2
			c0,0,0,0,0.1,0c-0.2,0.1-0.3,0.1-0.3,0.2c0,0,0,0.1,0,0.1c-0.1,0-0.1,0.1,0,0.1c0,0,0,0,0,0c0.1,0.7,0.2,1.4,0.6,2
			c0.1,0.2,0.9-0.1,0.8-0.2c-0.2-0.5-0.4-0.9-0.5-1.4c0.3,0.1,0.6,0.2,0.9,0.3c0.2,0.1,0.9-0.2,0.6-0.3c-0.6-0.2-1.1-0.4-1.7-0.7
			c0-0.1,0-0.1,0-0.2c0-0.1-0.1-0.1-0.2-0.1c0.2-0.1,0.4-0.2,0.4-0.2c-1.1-0.5-1.6-1.4-2.2-2.3c-0.1-0.1-0.4,0-0.6,0.1
			c0.4-0.9,0.8-1.9,1.2-2.8c2.1-0.9,2.7-3.3,3.6-5.1c0,0,0-0.1-0.1-0.2c-0.1-0.1-0.1-0.1-0.1-0.2L382.8,268.3z M383.2,268.2
			L383.2,268.2C383.2,268.2,383.2,268.2,383.2,268.2C383.2,268.2,383.2,268.2,383.2,268.2"/>
	</defs>
	<clipPath id="SVGID_137_">
		<use xlink:href="#SVGID_136_"  style="overflow:visible;"/>
	</clipPath>
	
		<linearGradient id="SVGID_138_" gradientUnits="userSpaceOnUse" x1="-36.6081" y1="671.6687" x2="-33.675" y2="671.6687" gradientTransform="matrix(-3.1095 -2.4558 2.7806 -2.7462 -1597.988 2038.3881)">
		<stop  offset="0" style="stop-color:#53721A"/>
		<stop  offset="3.749342e-002" style="stop-color:#59791F"/>
		<stop  offset="9.209317e-002" style="stop-color:#698C2D"/>
		<stop  offset="0.1568" style="stop-color:#84AC43"/>
		<stop  offset="0.1779" style="stop-color:#8EB84C"/>
		<stop  offset="0.5215" style="stop-color:#A6B421"/>
		<stop  offset="1" style="stop-color:#0D3A17"/>
	</linearGradient>
	<polygon class="st49" points="395.1,277.4 376.2,262.5 358.8,279.7 377.7,294.6 	"/>
</g>
<g>
	<defs>
		<path id="SVGID_139_" d="M377.6,275.7c-2.4,2.3-6.3,3.7-9.7,4.2c-0.6,0.1-0.5,0.6,0.1,0.5c0.6-0.1,1.2-0.2,1.8-0.3
			c-0.7,1.1-1.7,1.9-2.8,2.6c-0.4,0.3,0.4,0.4,0.7,0.3c1.3-0.8,2.3-1.7,3.1-3c0-0.1,0-0.1,0-0.1c2.9-0.7,5.8-2,7.8-4
			c0.2-0.2-0.1-0.3-0.4-0.3C377.9,275.6,377.7,275.6,377.6,275.7"/>
	</defs>
	<clipPath id="SVGID_140_">
		<use xlink:href="#SVGID_139_"  style="overflow:visible;"/>
	</clipPath>
	
		<linearGradient id="SVGID_141_" gradientUnits="userSpaceOnUse" x1="-246.0461" y1="561.7624" x2="-243.1131" y2="561.7624" gradientTransform="matrix(-0.5968 -0.7143 0.8088 -0.5271 -228.2691 400.0898)">
		<stop  offset="0" style="stop-color:#53721A"/>
		<stop  offset="3.749342e-002" style="stop-color:#59791F"/>
		<stop  offset="9.209317e-002" style="stop-color:#698C2D"/>
		<stop  offset="0.1568" style="stop-color:#84AC43"/>
		<stop  offset="0.1779" style="stop-color:#8EB84C"/>
		<stop  offset="0.5215" style="stop-color:#A6B421"/>
		<stop  offset="1" style="stop-color:#0D3A17"/>
	</linearGradient>
	<polygon class="st50" points="382.8,280.4 374.4,270.4 362.4,278.2 370.8,288.2 	"/>
</g>
<g>
	<defs>
		<path id="SVGID_142_" d="M345,220.1l-2.2-0.1l-1.1,1.8l-1.6,0.8l1.3,2c-0.4-0.4-0.9-0.6-1.3-0.5c-1.4,0.4-3.6,0.9-3.3,1.3
			c0.2,0.3,0.5,0.8,0.5,0.8l-2.9,1.5l1.1,1.7l-1.2,1.7l0.8,1.2l-0.6,0.8l0.9,1.3l1.6,2.4l0.7-0.3l0.1,1.5l1.7,0l1.5,2.5l1.5-0.7
			c0,0,1.2,2.2,2.7,2.9c1.5,0.7,2.7,0.3,3.2,1.7c0.4,1.4-0.2-1.3,0.6-2.5c0.8-1.2,0.5-3.6,0.5-3.6l1.8,1l1.3-0.5l1.9,0.3l2.5-0.8
			l3.9,1.1l-1.3-3.8l0.9-0.5l-1.3-2l0.7-0.1l-1.2-1.8l1.2-0.4l-1.5-2.2l3.2-1.1l-5-3.8l-0.9-1l-3.9,1.1l0.2-3.8l-2.7,0.7l-1.8-0.7
			L345,220.1z"/>
	</defs>
	<clipPath id="SVGID_143_">
		<use xlink:href="#SVGID_142_"  style="overflow:visible;"/>
	</clipPath>
	
		<linearGradient id="SVGID_144_" gradientUnits="userSpaceOnUse" x1="46.9995" y1="726.6856" x2="49.9325" y2="726.6856" gradientTransform="matrix(2.0303 8.39 -9.4998 1.7931 7152.5278 -1477.7362)">
		<stop  offset="0" style="stop-color:#5D7D1F"/>
		<stop  offset="0.1047" style="stop-color:#6C8827"/>
		<stop  offset="0.3698" style="stop-color:#8D9F38"/>
		<stop  offset="0.5153" style="stop-color:#99A83E"/>
		<stop  offset="0.5863" style="stop-color:#94A73E"/>
		<stop  offset="0.6658" style="stop-color:#87A23D"/>
		<stop  offset="0.7492" style="stop-color:#719B3C"/>
		<stop  offset="0.8356" style="stop-color:#51913A"/>
		<stop  offset="0.9231" style="stop-color:#298437"/>
		<stop  offset="1" style="stop-color:#007735"/>
	</linearGradient>
	<polygon class="st51" points="328.3,221 335.5,250.5 367.1,244.5 360,215 	"/>
</g>
<g>
	<defs>
		<path id="SVGID_145_" d="M336.6,219.6L336.6,219.6C336.6,219.6,336.6,219.6,336.6,219.6 M336.9,219.5c-0.1,0-0.2,0-0.2,0l-0.1,0.4
			c1.1,1.1,3.3,2.4,4,3.9c0,0,0,0-0.1-0.1c-0.1-0.1-0.3,0.6-0.1,0.8c0.2,0.2,0.3,0.3,0.5,0.5c0,0.2,0.2,0.3,0.3,0.3
			c2.1,1.8,4.8,3.4,6.3,5.6c0,0.2,0.1,0.4,0.3,0.4c0.5,0.8,1.1,1.5,2,2c0.3,0.2,0.6,0.3,1,0.4c-0.1,0.2-0.1,0.4-0.1,0.6
			c0.4,0.7,0.8,1.5,1.2,2.2c0,0.2,0,0.4,0.2,0.4c0,0,0,0,0.1,0c0.2,0.3,0.5,0.6,0.7,0.9c0.2,0.3,0.4-0.5,0.3-0.7
			c-0.1-0.1-0.1-0.1-0.2-0.2c0.8,0.1,1.6,0.2,2.4,0.4c0.2,0,0.3-0.7,0-0.8c-1-0.2-2-0.3-3.1-0.4c-0.5-0.7-0.9-1.4-1.3-2.2
			c0.8,0.3,1.5,0.6,2.2,1.1c0.2,0.1,0.3-0.6,0.1-0.8c-1.2-0.8-2.8-1.2-4-2.1c-0.4-0.3-0.7-0.6-1-1l5.3-1c0.3-0.1,0.3-0.8-0.1-0.8
			l-0.4,0.1c0.4-0.8,0.8-1.7,1.6-2.3c0.1-0.1,0.1-0.3,0.1-0.5c0,0,0-0.4-0.2-0.3c-0.9,0.8-1.4,1.9-1.9,3c0,0,0,0.1,0,0.2l-5,0.9
			c-0.3-0.4-0.6-0.8-1-1.2c-0.8-0.9-1.6-1.6-2.6-2.3c1.2-0.2,2.4-0.3,3.3-1.1c0,0,0,0,0-0.1c0,0.2,0,0.3,0.1,0.3c0,0,0.1,0,0.1,0
			c0,0.1,0.1,0.1,0.1,0.1c0,0,0,0,0,0c0.8,0.2,1.6,0.3,2.5,0.3c0.3,0,0.3-0.8,0-0.8c-0.6,0-1.2,0-1.8-0.1c0.3-0.2,0.5-0.5,0.8-0.7
			c0.2-0.1,0.1-0.9-0.1-0.7c-0.5,0.4-0.9,0.8-1.4,1.2c-0.1,0-0.2,0-0.2-0.1c-0.1,0-0.1,0.1-0.2,0.2c0-0.2-0.1-0.4-0.1-0.4
			c-0.9,0.8-2.2,0.9-3.4,1.1c-0.1,0-0.2,0.4-0.1,0.6c-0.9-0.7-1.8-1.4-2.7-2.1c-0.2-2.1-2.7-3.7-4.3-5.1c0,0,0,0,0,0
			C337,219.5,336.9,219.5,336.9,219.5"/>
	</defs>
	<clipPath id="SVGID_146_">
		<use xlink:href="#SVGID_145_"  style="overflow:visible;"/>
	</clipPath>
	
		<linearGradient id="SVGID_147_" gradientUnits="userSpaceOnUse" x1="44.2606" y1="666.1578" x2="47.1937" y2="666.1578" gradientTransform="matrix(-3.9599 1.7869 -2.0233 -3.4973 1877.2313 2475.8723)">
		<stop  offset="0" style="stop-color:#53721A"/>
		<stop  offset="3.749342e-002" style="stop-color:#59791F"/>
		<stop  offset="9.209317e-002" style="stop-color:#698C2D"/>
		<stop  offset="0.1568" style="stop-color:#84AC43"/>
		<stop  offset="0.1779" style="stop-color:#8EB84C"/>
		<stop  offset="0.5215" style="stop-color:#A6B421"/>
		<stop  offset="1" style="stop-color:#0D3A17"/>
	</linearGradient>
	<polygon class="st52" points="351.7,212.6 328,223.4 340.5,245 364.2,234.3 	"/>
</g>
<g>
	<defs>
		<path id="SVGID_148_" d="M342.9,227.3c1.7,3,1.7,6.9,0.9,10.1c-0.1,0.5,0.5,0.7,0.6,0.1c0.1-0.5,0.2-1.1,0.3-1.7
			c0.9,1,1.5,2.2,1.9,3.5c0.1,0.5,0.6-0.2,0.6-0.5c-0.4-1.4-1.1-2.7-2.1-3.9c-0.1-0.1-0.1-0.1-0.2,0c0.3-2.8-0.1-5.9-1.5-8.4
			c0-0.1-0.1-0.1-0.2-0.1C343,226.5,342.8,227.1,342.9,227.3"/>
	</defs>
	<clipPath id="SVGID_149_">
		<use xlink:href="#SVGID_148_"  style="overflow:visible;"/>
	</clipPath>
	
		<linearGradient id="SVGID_150_" gradientUnits="userSpaceOnUse" x1="77.82" y1="470.7886" x2="80.7531" y2="470.7886" gradientTransform="matrix(-1.0338 0.2497 -0.2828 -0.913 559.2172 643.4673)">
		<stop  offset="0" style="stop-color:#53721A"/>
		<stop  offset="3.749342e-002" style="stop-color:#59791F"/>
		<stop  offset="9.209317e-002" style="stop-color:#698C2D"/>
		<stop  offset="0.1568" style="stop-color:#84AC43"/>
		<stop  offset="0.1779" style="stop-color:#8EB84C"/>
		<stop  offset="0.5215" style="stop-color:#A6B421"/>
		<stop  offset="1" style="stop-color:#0D3A17"/>
	</linearGradient>
	<polygon class="st53" points="347,225.5 338.9,227.5 343.1,240.9 351.1,239 	"/>
</g>
</svg>
