<?xml version="1.0" ?><svg id="Layer_1" style="enable-background:new 0 0 128 128;" version="1.1" viewBox="0 0 128 128" xml:space="preserve" xmlns="http://www.w3.org/2000/svg" xmlns:xlink="http://www.w3.org/1999/xlink"><style type="text/css">
	.st0{fill:none;stroke:#1D1952;stroke-width:4;stroke-linecap:round;stroke-miterlimit:10;}
	.st1{fill:#F73959;}
	.st2{opacity:0.5;fill:#C02344;}
	.st3{fill:none;stroke:#FFFFFF;stroke-width:4;stroke-linecap:round;stroke-linejoin:round;stroke-miterlimit:10;}
	.st4{fill:#F95F80;}
	.st5{fill:#FFFFFF;}
	.st6{fill:#1D1952;}
	.st7{fill:#EF8FA9;}
	.st8{fill:none;stroke:#AAAAE5;stroke-width:4;stroke-linecap:round;stroke-miterlimit:10;}
	.st9{fill:#AAAAE5;}
	.st10{fill:#FFCE00;}
	.st11{fill:#8E072B;}
	.st12{opacity:0.5;fill:#F73959;}
	.st13{fill:none;stroke:#C02344;stroke-width:4;stroke-linecap:round;stroke-linejoin:round;stroke-miterlimit:10;}
	.st14{fill:none;stroke:#FFAA00;stroke-width:4;stroke-linecap:round;stroke-linejoin:round;stroke-miterlimit:10;}
	.st15{fill:#FFAA00;}
	.st16{fill:none;stroke:#FFFFFF;stroke-width:3;stroke-linecap:round;stroke-linejoin:round;stroke-miterlimit:10;}
	.st17{fill:none;stroke:#1D1952;stroke-width:3;stroke-linecap:round;stroke-miterlimit:10;}
	.st18{fill:none;stroke:#C02344;stroke-width:6;stroke-linecap:round;stroke-linejoin:round;stroke-miterlimit:10;}
	.st19{fill:none;stroke:#AAAAE5;stroke-width:4;stroke-linecap:round;stroke-linejoin:round;stroke-miterlimit:10;}
	.st20{fill:#E87498;}
	.st21{fill:none;stroke:#1D1952;stroke-width:4;stroke-miterlimit:10;}
	.st22{fill:none;stroke:#FFAA00;stroke-width:4;stroke-linecap:round;stroke-miterlimit:10;}
	.st23{fill:#7A61F7;}
	.st24{fill:none;stroke:#FFCE00;stroke-width:4;stroke-linecap:round;stroke-miterlimit:10;}
</style><g><path class="st0" d="M12,65.4V93c0,8.3,6.7,15,15,15h0"/><path class="st0" d="M27,108c3-2,3-8,3-8"/><line class="st0" x1="34" x2="29.4" y1="106" y2="106.8"/><line class="st0" x1="33" x2="28.4" y1="109" y2="107.8"/><path class="st0" d="M31,112c-2.3-0.7-2.4-1.1-4-4"/><path class="st1" d="M99,17c-23-7-35,10-35,10S52,10,29,17C0,25.8-3,64,22,86c19.1,16.8,33.5,23.7,39.3,26c1.8,0.7,3.7,0.7,5.5,0   c5.8-2.3,20.2-9.2,39.3-26C131,64,128,25.8,99,17z"/><path class="st2" d="M120.3,36.3c2.6,14.2-2.7,30.8-16.3,42.7c-7.9,6.9-15.9,12.6-22.7,16.8c-10.3,6.5-23.3,6.9-34.1,1.3   C38.8,92.8,28.7,86.7,20,79C13.3,73.1,8.7,66.1,6,58.8c2,9.7,7.3,19.5,16,27.2c19.1,16.8,33.5,23.7,39.3,26c1.8,0.7,3.7,0.7,5.5,0   c5.8-2.3,20.2-9.2,39.3-26C121.8,72.1,126.4,51.6,120.3,36.3z"/><path class="st3" d="M98.7,25.4c4.8,1.9,8.7,4.9,11.5,8.9"/><path class="st3" d="M88.2,23.3c0.9,0,1.9,0.1,2.8,0.2"/><path class="st3" d="M41.7,23.4c5.1,0.4,9,2.4,11.6,4.3"/><path class="st3" d="M31.3,24.7c0.7-0.2,1.4-0.4,2.1-0.6"/><path class="st6" d="M38.3,71L38.3,71c-8.8,0-15.9-7.1-15.9-15.9v-5.9c0-3.4,2.8-6.1,6.1-6.1h19.6c3.4,0,6.1,2.8,6.1,6.1v5.9   C54.2,63.9,47.1,71,38.3,71z"/><path class="st6" d="M81.7,71L81.7,71c-8.8,0-15.9-7.1-15.9-15.9v-5.9c0-3.4,2.8-6.1,6.1-6.1h19.6c3.4,0,6.1,2.8,6.1,6.1v5.9   C97.7,63.9,90.5,71,81.7,71z"/><path class="st21" d="M50.3,51.6c0,0,4.3-4.3,9.7-4.3s10.8,4.3,10.8,4.3"/><line class="st8" x1="31" x2="41.5" y1="52" y2="62.5"/><line class="st8" x1="43" x2="47" y1="53" y2="57"/><line class="st8" x1="75" x2="85.5" y1="52" y2="62.5"/><line class="st8" x1="87" x2="91" y1="53" y2="57"/><path class="st11" d="M72.6,77c1.9,0,3.4,1.8,3,3.7C73.9,87.7,67.6,93,60,93c-7.5,0-13.8-5.2-15.5-12.2c-0.5-1.9,1-3.8,3-3.8H72.6z   "/><path class="st12" d="M72.6,77c1.9,0,3.4,1.8,3,3.7C73.9,87.7,67.6,93,60,93c-7.5,0-13.8-5.2-15.5-12.2c-0.5-1.9,1-3.8,3-3.8H72.6z   "/><path class="st6" d="M53,82c0,3.9,3.1,7,7,7s7-3.1,7-7c0-2-0.8-3.7-2.1-5h-9.8C53.8,78.3,53,80,53,82z"/><path class="st7" d="M60,93c5.2,0,9.8-2.5,12.7-6.3c-2.3-2.2-5.4-3.6-8.8-3.6c-5.3,0-9.8,3.3-11.7,7.9C54.6,92.3,57.2,93,60,93z"/><path class="st5" d="M57,81h-3c-1.1,0-2-0.9-2-2v-2h7v2C59,80.1,58.1,81,57,81z"/><path class="st5" d="M66,88c-4,0.5-8,0.5-12,0c-1.1,0-2,0.9-2,2v0.8c2.4,1.4,5.1,2.2,8,2.2c2.9,0,5.6-0.8,8-2.1V90   C68,88.9,67.1,88,66,88z"/><path class="st5" d="M66,81h-3c-1.1,0-2-0.9-2-2v-2h7v2C68,80.1,67.1,81,66,81z"/><path class="st0" d="M115,65.4V93c0,8.3-6.7,15-15,15h0"/><path class="st0" d="M100,108c-3-2-3-8-3-8"/><line class="st0" x1="93" x2="97.7" y1="107" y2="106.8"/><line class="st0" x1="94" x2="98.7" y1="110" y2="107.8"/><path class="st0" d="M96,112c3.2-1.1,3.8-1.5,4-4"/><line class="st13" x1="32" x2="45" y1="38" y2="38"/><line class="st13" x1="73" x2="86" y1="36" y2="31"/></g></svg>