<?xml version="1.0" encoding="UTF-8"?>
<svg width="700pt" height="700pt" version="1.1" viewBox="0 0 700 700" xmlns="http://www.w3.org/2000/svg" xmlns:xlink="http://www.w3.org/1999/xlink">
 <defs>
  <symbol id="w" overflow="visible">
   <path d="m3.6562-0.21875c-0.1875 0.09375-0.38672 0.16797-0.59375 0.21875-0.19922 0.050781-0.40625 0.078125-0.625 0.078125-0.66797 0-1.1992-0.17969-1.5938-0.54688-0.38672-0.375-0.57812-0.87891-0.57812-1.5156 0-0.64453 0.19141-1.1484 0.57812-1.5156 0.39453-0.375 0.92578-0.5625 1.5938-0.5625 0.21875 0 0.42578 0.027344 0.625 0.078125 0.20703 0.054687 0.40625 0.125 0.59375 0.21875v0.82812c-0.1875-0.125-0.375-0.21875-0.5625-0.28125-0.17969-0.0625-0.37109-0.09375-0.57812-0.09375-0.36719 0-0.65625 0.12109-0.875 0.35938-0.21094 0.23047-0.3125 0.55469-0.3125 0.96875 0 0.40625 0.10156 0.73047 0.3125 0.96875 0.21875 0.23047 0.50781 0.34375 0.875 0.34375 0.20703 0 0.39844-0.023437 0.57812-0.078125 0.1875-0.0625 0.375-0.16016 0.5625-0.29688z"/>
  </symbol>
  <symbol id="d" overflow="visible">
   <path d="m2.6875-2.1719c-0.085938-0.039063-0.16797-0.070313-0.25-0.09375-0.085938-0.019531-0.16797-0.03125-0.25-0.03125-0.25 0-0.44531 0.085937-0.57812 0.25-0.125 0.15625-0.1875 0.38281-0.1875 0.67188v1.375h-0.96875v-2.9844h0.96875v0.48438c0.11328-0.19531 0.25-0.33594 0.40625-0.42188 0.16406-0.09375 0.35938-0.14062 0.57812-0.14062h0.10938c0.039063 0 0.09375 0.007812 0.15625 0.015625z"/>
  </symbol>
  <symbol id="a" overflow="visible">
   <path d="m3.4375-1.5v0.26562h-2.2344c0.03125 0.23047 0.11328 0.40234 0.25 0.51562 0.13281 0.10547 0.32812 0.15625 0.57812 0.15625 0.20703 0 0.41406-0.023438 0.625-0.078125 0.20703-0.0625 0.42188-0.15625 0.64062-0.28125v0.73438c-0.21875 0.09375-0.44531 0.16406-0.67188 0.20312-0.23047 0.039062-0.45312 0.0625-0.67188 0.0625-0.54297 0-0.96484-0.13281-1.2656-0.40625-0.30469-0.28125-0.45312-0.67188-0.45312-1.1719 0-0.47656 0.14453-0.85938 0.4375-1.1406 0.30078-0.28125 0.70703-0.42188 1.2188-0.42188 0.46875 0 0.84375 0.14062 1.125 0.42188s0.42188 0.66406 0.42188 1.1406zm-0.96875-0.32812c0-0.17578-0.058594-0.31641-0.17188-0.42188-0.10547-0.11328-0.24219-0.17188-0.40625-0.17188-0.1875 0-0.33984 0.054687-0.45312 0.15625-0.11719 0.10547-0.1875 0.25-0.21875 0.4375z"/>
  </symbol>
  <symbol id="o" overflow="visible">
   <path d="m1.7969-1.3438c-0.19922 0-0.35156 0.039062-0.45312 0.10938-0.09375 0.0625-0.14062 0.16406-0.14062 0.29688 0 0.11719 0.035156 0.21094 0.10938 0.28125 0.082031 0.0625 0.19531 0.09375 0.34375 0.09375 0.17578 0 0.32812-0.0625 0.45312-0.1875s0.1875-0.28516 0.1875-0.48438v-0.10938zm1.4688-0.35938v1.7031h-0.96875v-0.4375c-0.125 0.17969-0.27344 0.30859-0.4375 0.39062-0.15625 0.082031-0.35156 0.125-0.57812 0.125-0.3125 0-0.57031-0.085938-0.76562-0.26562-0.1875-0.1875-0.28125-0.42188-0.28125-0.70312 0-0.35156 0.11719-0.61328 0.35938-0.78125 0.23828-0.16406 0.61719-0.25 1.1406-0.25h0.5625v-0.0625c0-0.15625-0.0625-0.26562-0.1875-0.32812-0.11719-0.070312-0.29688-0.10938-0.54688-0.10938-0.21094 0-0.40234 0.023437-0.57812 0.0625-0.17969 0.042969-0.33984 0.10156-0.48438 0.17188v-0.71875c0.19531-0.050781 0.39844-0.085938 0.60938-0.10938 0.20703-0.03125 0.41406-0.046875 0.625-0.046875 0.53906 0 0.92969 0.10938 1.1719 0.32812 0.23828 0.21094 0.35938 0.55469 0.35938 1.0312z"/>
  </symbol>
  <symbol id="c" overflow="visible">
   <path d="m1.5-3.8438v0.85938h0.98438v0.67188h-0.98438v1.2812c0 0.13672 0.023438 0.23047 0.078125 0.28125 0.0625 0.042969 0.17578 0.0625 0.34375 0.0625h0.48438v0.6875h-0.8125c-0.38672 0-0.65625-0.078125-0.8125-0.23438s-0.23438-0.42188-0.23438-0.79688v-1.2812h-0.46875v-0.67188h0.46875v-0.85938z"/>
  </symbol>
  <symbol id="n" overflow="visible">
   <path d="m2.5-2.5469v-1.6094h0.95312v4.1562h-0.95312v-0.4375c-0.13672 0.17969-0.28125 0.30859-0.4375 0.39062-0.15625 0.082031-0.33984 0.125-0.54688 0.125-0.375 0-0.68359-0.14453-0.92188-0.4375-0.23047-0.28906-0.34375-0.67188-0.34375-1.1406 0-0.45703 0.11328-0.83203 0.34375-1.125 0.23828-0.28906 0.54688-0.4375 0.92188-0.4375 0.19531 0 0.375 0.042969 0.53125 0.125 0.16406 0.085938 0.31641 0.21484 0.45312 0.39062zm-0.64062 1.9375c0.20703 0 0.36328-0.070313 0.46875-0.21875 0.11328-0.15625 0.17188-0.37891 0.17188-0.67188 0-0.28125-0.058594-0.49219-0.17188-0.64062-0.10547-0.15625-0.26172-0.23438-0.46875-0.23438-0.19922 0-0.35547 0.078125-0.46875 0.23438-0.10547 0.14844-0.15625 0.35938-0.15625 0.64062 0 0.29297 0.050781 0.51562 0.15625 0.67188 0.11328 0.14844 0.26953 0.21875 0.46875 0.21875z"/>
  </symbol>
  <symbol id="m" overflow="visible">
   <path d="m2.0469-0.60938c0.20703 0 0.36328-0.070313 0.46875-0.21875 0.11328-0.15625 0.17188-0.37891 0.17188-0.67188 0-0.28125-0.058594-0.49219-0.17188-0.64062-0.10547-0.15625-0.26172-0.23438-0.46875-0.23438-0.19922 0-0.35547 0.078125-0.46875 0.23438-0.10547 0.14844-0.15625 0.35938-0.15625 0.64062 0 0.29297 0.050781 0.51562 0.15625 0.67188 0.11328 0.14844 0.26953 0.21875 0.46875 0.21875zm-0.625-1.9375c0.125-0.17578 0.26562-0.30469 0.42188-0.39062 0.16406-0.082031 0.35156-0.125 0.5625-0.125 0.36328 0 0.66406 0.14844 0.90625 0.4375 0.23828 0.29297 0.35938 0.66797 0.35938 1.125 0 0.46875-0.12109 0.85156-0.35938 1.1406-0.24219 0.29297-0.54297 0.4375-0.90625 0.4375-0.21094 0-0.39844-0.042969-0.5625-0.125-0.15625-0.082031-0.29688-0.21094-0.42188-0.39062v0.4375h-0.96875v-4.1562h0.96875z"/>
  </symbol>
  <symbol id="l" overflow="visible">
   <path d="m0.0625-2.9844h0.95312l0.8125 2.0156 0.6875-2.0156h0.95312l-1.2656 3.2656c-0.125 0.33203-0.27344 0.56641-0.4375 0.70312-0.16797 0.13281-0.39062 0.20312-0.67188 0.20312h-0.54688v-0.64062h0.29688c0.16406 0 0.28516-0.027344 0.35938-0.078125 0.070313-0.054688 0.12891-0.14062 0.17188-0.26562l0.03125-0.09375z"/>
  </symbol>
  <symbol id="k" overflow="visible">
   <path d="m0.5-3.9844h1.0312v1.4531l1.4844-1.4531h1.1875l-1.9219 1.8906 2.125 2.0938h-1.2969l-1.5781-1.5625v1.5625h-1.0312z"/>
  </symbol>
  <symbol id="b" overflow="visible">
   <path d="m1.875-2.375c-0.21094 0-0.37109 0.078125-0.48438 0.23438-0.10547 0.14844-0.15625 0.35938-0.15625 0.64062 0 0.29297 0.050781 0.51562 0.15625 0.67188 0.11328 0.14844 0.27344 0.21875 0.48438 0.21875 0.20703 0 0.36719-0.070313 0.48438-0.21875 0.11328-0.15625 0.17188-0.37891 0.17188-0.67188 0-0.28125-0.058594-0.49219-0.17188-0.64062-0.11719-0.15625-0.27734-0.23438-0.48438-0.23438zm0-0.6875c0.51953 0 0.92188 0.14062 1.2031 0.42188 0.28906 0.27344 0.4375 0.65234 0.4375 1.1406 0 0.5-0.14844 0.89062-0.4375 1.1719-0.28125 0.27344-0.68359 0.40625-1.2031 0.40625-0.51172 0-0.91406-0.13281-1.2031-0.40625-0.29297-0.28125-0.4375-0.67188-0.4375-1.1719 0-0.48828 0.14453-0.86719 0.4375-1.1406 0.28906-0.28125 0.69141-0.42188 1.2031-0.42188z"/>
  </symbol>
  <symbol id="e" overflow="visible">
   <path d="m3.2344-2.5c0.11328-0.17578 0.25391-0.3125 0.42188-0.40625 0.16406-0.10156 0.35156-0.15625 0.5625-0.15625 0.33203 0 0.58594 0.10938 0.76562 0.32812 0.1875 0.21094 0.28125 0.51172 0.28125 0.90625v1.8281h-0.96875v-1.5625c0.007813-0.019531 0.015625-0.039062 0.015625-0.0625v-0.10938c0-0.21875-0.03125-0.375-0.09375-0.46875s-0.16406-0.14062-0.29688-0.14062c-0.1875 0-0.33594 0.078125-0.4375 0.23438-0.09375 0.14844-0.14062 0.35938-0.14062 0.64062v1.4688h-0.96875v-1.5625c0-0.33203-0.03125-0.54688-0.09375-0.64062-0.054688-0.09375-0.15234-0.14062-0.29688-0.14062-0.17969 0-0.32031 0.078125-0.42188 0.23438-0.09375 0.14844-0.14062 0.35938-0.14062 0.64062v1.4688h-0.96875v-2.9844h0.96875v0.4375c0.11328-0.17578 0.24219-0.30469 0.39062-0.39062 0.15625-0.082031 0.32812-0.125 0.51562-0.125 0.20703 0 0.39062 0.054688 0.54688 0.15625 0.15625 0.09375 0.27344 0.23047 0.35938 0.40625z"/>
  </symbol>
  <symbol id="v" overflow="visible">
   <path d="m0.45312-4.1562h0.96875v2.2656l1.0938-1.0938h1.1094l-1.4531 1.3594 1.5625 1.625h-1.1562l-1.1562-1.25v1.25h-0.96875z"/>
  </symbol>
  <symbol id="j" overflow="visible">
   <path d="m0.45312-2.9844h0.96875v2.9844h-0.96875zm0-1.1719h0.96875v0.78125h-0.96875z"/>
  </symbol>
  <symbol id="i" overflow="visible">
   <path d="m0.5-3.9844h1.1562l1.4375 2.7344v-2.7344h0.98438v3.9844h-1.1562l-1.4375-2.7344v2.7344h-0.98438z"/>
  </symbol>
  <symbol id="h" overflow="visible">
   <path d="m3.4688-1.8281v1.8281h-0.96875v-1.3906c0-0.25781-0.007812-0.4375-0.015625-0.53125-0.011719-0.10156-0.03125-0.17578-0.0625-0.21875-0.03125-0.0625-0.085937-0.10938-0.15625-0.14062-0.0625-0.039062-0.13281-0.0625-0.20312-0.0625-0.21094 0-0.37109 0.078125-0.48438 0.23438-0.10547 0.15625-0.15625 0.37109-0.15625 0.64062v1.4688h-0.96875v-2.9844h0.96875v0.4375c0.13281-0.17578 0.28516-0.30469 0.45312-0.39062 0.16406-0.082031 0.34375-0.125 0.53125-0.125 0.34375 0 0.60156 0.10938 0.78125 0.32812 0.1875 0.21094 0.28125 0.51172 0.28125 0.90625z"/>
  </symbol>
  <symbol id="g" overflow="visible">
   <path d="m1.4219-0.4375v1.5781h-0.96875v-4.125h0.96875v0.4375c0.125-0.17578 0.26562-0.30469 0.42188-0.39062 0.16406-0.082031 0.35156-0.125 0.5625-0.125 0.36328 0 0.66406 0.14844 0.90625 0.4375 0.23828 0.29297 0.35938 0.66797 0.35938 1.125 0 0.46875-0.12109 0.85156-0.35938 1.1406-0.24219 0.29297-0.54297 0.4375-0.90625 0.4375-0.21094 0-0.39844-0.042969-0.5625-0.125-0.15625-0.082031-0.29688-0.21094-0.42188-0.39062zm0.625-1.9375c-0.19922 0-0.35547 0.078125-0.46875 0.23438-0.10547 0.14844-0.15625 0.35938-0.15625 0.64062 0 0.29297 0.050781 0.51562 0.15625 0.67188 0.11328 0.14844 0.26953 0.21875 0.46875 0.21875 0.20703 0 0.36328-0.070313 0.46875-0.21875 0.11328-0.15625 0.17188-0.37891 0.17188-0.67188 0-0.28125-0.058594-0.49219-0.17188-0.64062-0.10547-0.15625-0.26172-0.23438-0.46875-0.23438z"/>
  </symbol>
  <symbol id="u" overflow="visible">
   <path d="m2.7969-2.8906v0.71875c-0.21094-0.082031-0.40625-0.14453-0.59375-0.1875-0.1875-0.039063-0.37109-0.0625-0.54688-0.0625-0.17969 0-0.3125 0.023437-0.40625 0.0625-0.085938 0.042969-0.125 0.10938-0.125 0.20312 0 0.085938 0.03125 0.14844 0.09375 0.1875 0.070312 0.042969 0.19531 0.074219 0.375 0.09375l0.15625 0.015625c0.48828 0.0625 0.81641 0.16797 0.98438 0.3125 0.17578 0.13672 0.26562 0.35938 0.26562 0.67188s-0.12109 0.55469-0.35938 0.71875c-0.23047 0.15625-0.57812 0.23438-1.0469 0.23438-0.19922 0-0.40625-0.015625-0.625-0.046875-0.21094-0.03125-0.42188-0.078125-0.64062-0.14062v-0.71875c0.1875 0.085937 0.37891 0.15234 0.57812 0.20312 0.20703 0.042969 0.41406 0.0625 0.625 0.0625 0.1875 0 0.32812-0.023438 0.42188-0.078125 0.09375-0.050781 0.14062-0.125 0.14062-0.21875s-0.039062-0.16016-0.10938-0.20312c-0.0625-0.039062-0.1875-0.070312-0.375-0.09375l-0.17188-0.015625c-0.42969-0.050781-0.73047-0.14844-0.90625-0.29688-0.16797-0.14453-0.25-0.36328-0.25-0.65625 0-0.32031 0.10938-0.55469 0.32812-0.70312 0.21875-0.15625 0.55078-0.23438 1-0.23438 0.17578 0 0.35938 0.015625 0.54688 0.046875 0.19531 0.023437 0.41016 0.0625 0.64062 0.125z"/>
  </symbol>
  <symbol id="f" overflow="visible">
   <path d="m0.42188-1.1719v-1.8125h0.96875v0.29688 0.60938 0.48438c0 0.24219 0.003906 0.41797 0.015625 0.53125 0.007812 0.10547 0.03125 0.17969 0.0625 0.21875 0.039062 0.0625 0.09375 0.11719 0.15625 0.15625 0.0625 0.03125 0.13281 0.046875 0.21875 0.046875 0.19531 0 0.35156-0.078125 0.46875-0.23438 0.11328-0.15625 0.17188-0.36719 0.17188-0.64062v-1.4688h0.95312v2.9844h-0.95312v-0.4375c-0.14844 0.17969-0.30469 0.30859-0.46875 0.39062-0.15625 0.082031-0.33594 0.125-0.53125 0.125-0.34375 0-0.60938-0.10156-0.79688-0.3125-0.17969-0.21875-0.26562-0.53125-0.26562-0.9375z"/>
  </symbol>
  <symbol id="t" overflow="visible">
   <path d="m2.4219-4.1562v0.625h-0.51562c-0.13672 0-0.23438 0.027344-0.29688 0.078125-0.054687 0.054687-0.078125 0.13672-0.078125 0.25v0.21875h0.82812v0.67188h-0.82812v2.3125h-0.95312v-2.3125h-0.46875v-0.67188h0.46875v-0.21875c0-0.32031 0.085937-0.5625 0.26562-0.71875 0.1875-0.15625 0.47266-0.23438 0.85938-0.23438z"/>
  </symbol>
  <symbol id="s" overflow="visible">
   <path d="m3.4688-1.8281v1.8281h-0.96875v-1.3906c0-0.25781-0.007812-0.4375-0.015625-0.53125-0.011719-0.10156-0.03125-0.17578-0.0625-0.21875-0.03125-0.0625-0.085937-0.10938-0.15625-0.14062-0.0625-0.039062-0.13281-0.0625-0.20312-0.0625-0.21094 0-0.37109 0.078125-0.48438 0.23438-0.10547 0.15625-0.15625 0.37109-0.15625 0.64062v1.4688h-0.96875v-4.1562h0.96875v1.6094c0.13281-0.17578 0.28516-0.30469 0.45312-0.39062 0.16406-0.082031 0.34375-0.125 0.53125-0.125 0.34375 0 0.60156 0.10938 0.78125 0.32812 0.1875 0.21094 0.28125 0.51172 0.28125 0.90625z"/>
  </symbol>
  <symbol id="r" overflow="visible">
   <path d="m0.5-3.9844h1.7031c0.50781 0 0.89844 0.11719 1.1719 0.34375 0.26953 0.21875 0.40625 0.53906 0.40625 0.95312 0 0.41797-0.13672 0.74219-0.40625 0.96875-0.27344 0.21875-0.66406 0.32812-1.1719 0.32812h-0.67188v1.3906h-1.0312zm1.0312 0.75v1.1094h0.5625c0.19531 0 0.34766-0.046875 0.45312-0.14062 0.11328-0.10156 0.17188-0.24219 0.17188-0.42188 0-0.17578-0.058594-0.3125-0.17188-0.40625-0.10547-0.09375-0.25781-0.14062-0.45312-0.14062z"/>
  </symbol>
  <symbol id="q" overflow="visible">
   <path d="m0.45312-2.9844h0.96875v2.9375c0 0.39453-0.10156 0.69531-0.29688 0.90625-0.1875 0.21875-0.46484 0.32812-0.82812 0.32812h-0.48438v-0.64062h0.17188c0.17578 0 0.29688-0.042969 0.35938-0.125 0.070312-0.074219 0.10938-0.23047 0.10938-0.46875zm0-1.1719h0.96875v0.78125h-0.96875z"/>
  </symbol>
  <symbol id="p" overflow="visible">
   <path d="m2.875-2.8906v0.76562c-0.125-0.082031-0.25781-0.14453-0.39062-0.1875-0.13672-0.039062-0.27344-0.0625-0.40625-0.0625-0.27344 0-0.48047 0.078125-0.625 0.23438-0.14844 0.15625-0.21875 0.37109-0.21875 0.64062 0 0.28125 0.070313 0.5 0.21875 0.65625 0.14453 0.15625 0.35156 0.23438 0.625 0.23438 0.14453 0 0.28516-0.019531 0.42188-0.0625 0.13281-0.039063 0.25781-0.10938 0.375-0.20312v0.78125c-0.14844 0.0625-0.29688 0.10156-0.45312 0.125-0.15625 0.03125-0.3125 0.046875-0.46875 0.046875-0.54297 0-0.96484-0.13281-1.2656-0.40625-0.30469-0.28125-0.45312-0.67188-0.45312-1.1719 0-0.48828 0.14844-0.86719 0.45312-1.1406 0.30078-0.28125 0.72266-0.42188 1.2656-0.42188 0.15625 0 0.3125 0.015625 0.46875 0.046875 0.15625 0.023437 0.30469 0.0625 0.45312 0.125z"/>
  </symbol>
 </defs>
 <g>
  <path d="m268.99 151.69c0.27734 0 0.54687-0.10547 0.75-0.29688 10.961-10.113 25.875-14.781 40.648-12.727 0.59766 0.089844 1.1562-0.32031 1.2461-0.91797 0.089843-0.59766-0.32031-1.1562-0.91797-1.2461-15.434-2.1484-31.02 2.7305-42.473 13.297-0.32812 0.30859-0.43359 0.78516-0.26562 1.1992 0.16406 0.41797 0.56641 0.69141 1.0156 0.69141z"/>
  <path d="m345.25 209.79h0.058594c0.60156 0.015625 1.1055-0.46094 1.1211-1.0664 0.011718-0.60547-0.46484-1.1055-1.0664-1.1211-4.707-0.24609-8.4609-4.0078-8.6992-8.7148-0.23437-4.7031 3.125-8.8242 7.7812-9.5391 0.45313-0.070312 0.81641-0.41406 0.90625-0.86719l2.6367-13.016c0.12109-0.58984-0.26172-1.168-0.85547-1.2891-0.58984-0.12109-1.168 0.26172-1.2891 0.85156l-2.4922 12.301c-5.543 1.2461-9.3203 6.3945-8.8398 12.055 0.47656 5.6641 5.0625 10.105 10.738 10.402z"/>
  <path d="m371.16 235.65c0.39453-0.44531 0.36328-1.1211-0.066406-1.5273-0.43359-0.40234-1.1133-0.39062-1.5273 0.03125-10.957 11.688-30.676 13.914-43.961 4.9648-0.5-0.31641-1.1602-0.17969-1.4922 0.3125-0.32812 0.49219-0.21094 1.1562 0.26953 1.5 5.9102 3.8828 12.84 5.918 19.906 5.8477 9.9922 0 20.035-3.8359 26.871-11.129z"/>
  <path d="m395.95 164.36c-5.8477-0.58594-11.125 5.8906-12.016 14.754s2.9922 16.266 8.8398 16.852c5.8477 0.58594 11.125-5.8945 12.016-14.758 0.88672-8.8594-2.9961-16.258-8.8398-16.848z"/>
  <path d="m300.52 164.49c-5.8477-0.58594-11.125 5.8945-12.016 14.758-0.89062 8.8633 2.9922 16.262 8.8398 16.848 5.8477 0.58984 11.125-5.8906 12.016-14.754 0.89453-8.8594-2.9883-16.262-8.8398-16.852z"/>
  <path d="m612.6 542.72c-16.617-49.238-45.754-93.312-84.547-127.89-31.727-28.34-68.875-49.934-109.2-63.484-13.438-4.4023-23.625-15.461-26.918-29.211 6.3594 3.0312 13.512 3.9883 20.441 2.7344 8.1719-1.6602 15.453-6.2539 20.465-12.918 15.176 7.8906 32.961 9.0859 49.055 3.293 2.4492-0.92188 4.832-2.0078 7.1328-3.25 20.902-11.297 32.562-34.957 29.008-58.887-10.305-69.355-39.434-135.44-84.23-191.13-13.641-16.965-32.508-37.168-57.523-42.832-19.281-4.3203-41.113 0.011719-66.742 13.246-45.336 23.438-64.039 52.641-71.75 73.02-6.125 16.266-7.9961 33.875-9.8125 50.902-1.8047 16.984-3.6758 34.562-9.7891 50.641-6.2461 16.285-16.582 30.254-24.895 40.59h0.003906c-7.4062 9.2305-10.484 21.207-8.4414 32.867 1.9648 11.391 8.7461 21.383 18.605 27.418 0.52344 0.30469 1.0391 0.625 1.5742 0.91797 14.996 8.4102 34.375 9.3086 50.816 2.418 7.832 11.617 20.891 19.031 34.289 19.402 0.35156 0.011719 0.69922 0.011719 1.0508 0.011719h-0.003906c5.1992-0.023438 10.344-1.0391 15.16-2.9844-4.4531 11.27-13.688 19.973-25.199 23.754-40.324 13.551-77.473 35.145-109.2 63.484-38.793 34.578-67.93 78.652-84.547 127.89-0.1875 0.57422 0.12109 1.1914 0.6875 1.3906 0.11328 0.03125 0.23047 0.050781 0.35156 0.054687h109.95c-7.0586-16.219-8.7422-34.27-4.8047-51.512 3.9336-17.246 13.285-32.777 26.68-44.324 0.39453-0.34766 0.89844-0.53906 1.4219-0.53516 0.91406 0 1.7305 0.56641 2.0469 1.4219 0.32031 0.85547 0.074219 1.8164-0.61328 2.418-12.934 11.156-21.879 26.227-25.473 42.926-3.5977 16.695-1.6484 34.113 5.543 49.605h293.61c7.1914-15.492 9.1406-32.91 5.543-49.605-3.5938-16.699-12.539-31.77-25.473-42.926-0.6875-0.60156-0.93359-1.5625-0.61328-2.418 0.31641-0.85547 1.1328-1.4219 2.0469-1.4219 0.52344-0.003907 1.0273 0.1875 1.4219 0.53516 13.395 11.547 22.746 27.078 26.68 44.324 3.9375 17.242 2.2539 35.293-4.8047 51.512h109.95c0.12109-0.003906 0.23828-0.023437 0.35156-0.054687 0.56641-0.19922 0.875-0.81641 0.6875-1.3906zm-314.69-455.27c25.477 22.875 55.848 39.617 88.789 48.945 0.25781 0.27734 0.64453 0.40234 1.0156 0.32812 0.03125-0.011719 0.078124-0.011719 0.10937-0.023438 9.4219 2.6367 19 4.6602 28.68 6.0625 6.543 4.3125 11.512 10.629 14.164 18 0.16016 0.4375 0.57422 0.73047 1.0391 0.73438 0.12109 0.003906 0.24609-0.015626 0.35938-0.054688 0.57031-0.19531 0.875-0.81641 0.67969-1.3906-2.3438-6.5625-6.4531-12.348-11.879-16.723 8.957 1.1211 17.977 1.6836 27.004 1.6836 0.69922 0 1.3906-0.023437 2.0898-0.023437-0.19531 2.3281-0.40625 5-0.61328 7.8516-0.57812 7.5586-1.2148 16.012-2.0117 22.289l-13.727 0.007812c-2.043-11.695-9.4219-21.77-19.953-27.25-10.535-5.4766-23.02-5.7305-33.77-0.68359-10.746 5.043-18.527 14.809-21.047 26.41-3.2891-2.6836-7.5312-3.9219-11.75-3.4219-4.2227 0.49609-8.0586 2.6836-10.637 6.0586-1.8164-12.574-9.7812-23.422-21.238-28.914-11.457-5.4961-24.898-4.918-35.84 1.5391-10.945 6.4609-17.949 17.949-18.676 30.637h-6.8672c-0.75391-8.543-1.2031-21-1.4883-29.027v-0.003907c18.5-18.402 33.891-39.691 45.566-63.031zm134.09 94.25c0 9.5234-3.7852 18.66-10.523 25.398-6.7344 6.7344-15.871 10.52-25.398 10.52-9.5234 0-18.66-3.7852-25.398-10.52-6.7344-6.7383-10.52-15.875-10.52-25.398 0-9.5273 3.7852-18.664 10.52-25.398 6.7383-6.7383 15.875-10.523 25.398-10.523 9.5234 0.011718 18.656 3.8008 25.391 10.531 6.7305 6.7344 10.52 15.867 10.531 25.391zm-97.344 0c0 9.5234-3.7852 18.66-10.523 25.398-6.7344 6.7344-15.871 10.52-25.398 10.52-9.5234 0-18.66-3.7852-25.398-10.52-6.7344-6.7383-10.52-15.875-10.52-25.398 0-9.5273 3.7852-18.664 10.52-25.398 6.7383-6.7383 15.875-10.523 25.398-10.523 9.5234 0.011718 18.656 3.8008 25.391 10.531 6.7305 6.7344 10.52 15.867 10.531 25.391zm-63.469 61.328c-1.5078-2.875-2.7227-5.457-3.7188-7.8984h-0.003906c-0.18359-0.46094-0.65625-0.73828-1.1484-0.67969-3.668 0.47266-7.3867 0.41016-11.035-0.1875-10.238-1.6289-19.328-7.7891-23.723-16.066-4.7891-8.9688-3.8711-20.312 2.2109-27.594h-0.003906c4.7148-5.4922 11.918-8.1797 19.078-7.1211 0.33594 0.046876 0.67188-0.0625 0.91797-0.29687 0.24609-0.23438 0.37109-0.57031 0.33984-0.90625-0.023437-0.1875-0.042968-0.39453-0.066406-0.57813h6.5938c0 13.613 7.2656 26.191 19.055 33 11.789 6.8047 26.316 6.8047 38.105 0 11.789-6.8086 19.055-19.387 19.055-33 0-0.625-0.011719-1.2578-0.042969-1.8828h-0.003906c2.2891-4.6133 6.9922-7.5391 12.141-7.5469 3.5352-0.011719 6.9297 1.375 9.4414 3.8594-0.26953 1.8438-0.40234 3.707-0.40625 5.5703 0 13.613 7.2656 26.191 19.055 33 11.789 6.8047 26.316 6.8047 38.105 0 11.789-6.8086 19.055-19.387 19.055-33 0-1.4648-0.089844-2.9258-0.26562-4.375h13.117c0 0.023438-0.003906 0.050782-0.011718 0.074219-0.046875 0.3125 0.042968 0.62891 0.25 0.86328 0.20312 0.24219 0.49609 0.38672 0.80859 0.39453 3.1953 0.13281 6.293 1.1523 8.9414 2.9414 2.6523 1.793 4.75 4.2852 6.0664 7.1992 3.3359 8.0273 0.53516 18.375-6.8359 25.168-4.9531 4.5625-11.582 7.6016-19.699 9.0352v-0.003906c-0.37891 0.066406-0.69922 0.32812-0.83203 0.69141-2.2969 6.1406-5.0156 12.113-8.1367 17.883-18.168 33.797-50.355 54.875-82.043 53.77-29.07-1.0391-58.262-21.582-74.363-52.316zm116.69 43.375c-0.53125 0.30859-1.0625 0.60547-1.5898 0.89844 0.53125-0.29688 1.0586-0.59766 1.5898-0.90234zm-1.6797 0.94531c-0.76953 0.42188-1.5391 0.82812-2.3086 1.2148 0.76953-0.39453 1.5391-0.79688 2.3047-1.2148zm-2.6406 1.3789c-0.54688 0.27734-1.1055 0.54688-1.6523 0.80859 0.55078-0.26562 1.1016-0.53125 1.6523-0.80859zm23.297 253.25h-116.21v-153.03h116.21zm0-155.21h-116.21v-37.395c12.828-7.7031 20.68-21.562 20.695-36.523v-25.109c8.4062 4.6562 17.582 7.7617 27.09 9.1602 15.09 9.2148 32.574 13.75 50.238 13.031v2.9219-0.003906c0.011719 13.898 6.8008 26.918 18.188 34.883z"/>
  <path d="m444.79 207.62c0.33203 0 0.64453-0.15234 0.85547-0.41016 0.20703-0.26172 0.28516-0.60156 0.21094-0.92578-0.60938-3.0586-0.21875-6.2344 1.1133-9.0586 1.332-2.8203 3.5352-5.1406 6.2812-6.6172 0.54297-0.27344 0.75781-0.92969 0.48828-1.4727-0.27344-0.53906-0.92969-0.75391-1.4727-0.48437-3.1992 1.6797-5.7656 4.3594-7.3086 7.625-1.543 3.2695-1.9766 6.9531-1.2383 10.492 0.11328 0.5 0.55859 0.85156 1.0703 0.85156z"/>
  <path d="m242.48 201.66c-0.29297-0.046875-0.59375 0.027344-0.82812 0.20703-0.23828 0.17578-0.39453 0.44531-0.42969 0.73828-0.035156 0.29688 0.050782 0.59375 0.23828 0.82422 0.1875 0.23047 0.46094 0.375 0.75391 0.39844 6.5703 0.80469 12.039 7.5391 11.469 14.137-0.023438 0.28906 0.066406 0.57422 0.25391 0.79688 0.1875 0.22266 0.45312 0.36328 0.74219 0.38672h0.09375c0.57031 0 1.0469-0.43359 1.0938-1 0.21484-3.918-1.0391-7.7773-3.5117-10.828-2.4766-3.0469-5.9961-5.0625-9.875-5.6602z"/>
  <use x="70" y="576.40625" xlink:href="#w"/>
  <use x="74.011719" y="576.40625" xlink:href="#d"/>
  <use x="76.710938" y="576.40625" xlink:href="#a"/>
  <use x="80.417969" y="576.40625" xlink:href="#o"/>
  <use x="84.109375" y="576.40625" xlink:href="#c"/>
  <use x="86.722656" y="576.40625" xlink:href="#a"/>
  <use x="90.433594" y="576.40625" xlink:href="#n"/>
  <use x="96.25" y="576.40625" xlink:href="#m"/>
  <use x="100.167969" y="576.40625" xlink:href="#l"/>
  <use x="105.636719" y="576.40625" xlink:href="#k"/>
  <use x="109.871094" y="576.40625" xlink:href="#b"/>
  <use x="113.628906" y="576.40625" xlink:href="#e"/>
  <use x="119.328125" y="576.40625" xlink:href="#v"/>
  <use x="122.964844" y="576.40625" xlink:href="#d"/>
  <use x="125.664062" y="576.40625" xlink:href="#j"/>
  <use x="127.535156" y="576.40625" xlink:href="#c"/>
  <use x="132.054688" y="576.40625" xlink:href="#i"/>
  <use x="136.632812" y="576.40625" xlink:href="#b"/>
  <use x="140.390625" y="576.40625" xlink:href="#a"/>
  <use x="144.097656" y="576.40625" xlink:href="#h"/>
  <use x="147.992188" y="576.40625" xlink:href="#g"/>
  <use x="151.90625" y="576.40625" xlink:href="#b"/>
  <use x="155.664062" y="576.40625" xlink:href="#a"/>
  <use x="159.371094" y="576.40625" xlink:href="#e"/>
  <use x="165.070312" y="576.40625" xlink:href="#g"/>
  <use x="168.984375" y="576.40625" xlink:href="#j"/>
  <use x="170.859375" y="576.40625" xlink:href="#u"/>
  <use x="174.113281" y="576.40625" xlink:href="#f"/>
  <use x="178.007812" y="576.40625" xlink:href="#c"/>
  <use x="70" y="581.875" xlink:href="#t"/>
  <use x="72.378906" y="581.875" xlink:href="#d"/>
  <use x="75.078125" y="581.875" xlink:href="#b"/>
  <use x="78.832031" y="581.875" xlink:href="#e"/>
  <use x="86.4375" y="581.875" xlink:href="#c"/>
  <use x="89.050781" y="581.875" xlink:href="#s"/>
  <use x="92.941406" y="581.875" xlink:href="#a"/>
  <use x="98.554688" y="581.875" xlink:href="#i"/>
  <use x="103.132812" y="581.875" xlink:href="#b"/>
  <use x="106.890625" y="581.875" xlink:href="#f"/>
  <use x="110.785156" y="581.875" xlink:href="#h"/>
  <use x="116.582031" y="581.875" xlink:href="#r"/>
  <use x="120.589844" y="581.875" xlink:href="#d"/>
  <use x="123.285156" y="581.875" xlink:href="#b"/>
  <use x="127.042969" y="581.875" xlink:href="#q"/>
  <use x="128.917969" y="581.875" xlink:href="#a"/>
  <use x="132.625" y="581.875" xlink:href="#p"/>
  <use x="135.867188" y="581.875" xlink:href="#c"/>
 </g>
</svg>
