<?xml version="1.0" encoding="UTF-8"?>
<svg width="700pt" height="700pt" version="1.1" viewBox="0 0 700 700" xmlns="http://www.w3.org/2000/svg" xmlns:xlink="http://www.w3.org/1999/xlink">
 <defs>
  <symbol id="l" overflow="visible">
   <path d="m29.312-1.75c-1.5117 0.78125-3.0898 1.3711-4.7344 1.7656-1.6367 0.40625-3.3398 0.60938-5.1094 0.60938-5.3125 0-9.5273-1.4844-12.641-4.4531-3.1055-2.9688-4.6562-7-4.6562-12.094s1.5508-9.125 4.6562-12.094c3.1133-2.9688 7.3281-4.4531 12.641-4.4531 1.7695 0 3.4727 0.19922 5.1094 0.59375 1.6445 0.39844 3.2227 0.99219 4.7344 1.7812v6.5938c-1.5312-1.0391-3.0391-1.8008-4.5156-2.2812-1.4805-0.48828-3.0391-0.73438-4.6719-0.73438-2.9375 0-5.2461 0.94531-6.9219 2.8281-1.6797 1.875-2.5156 4.4648-2.5156 7.7656 0 3.293 0.83594 5.8828 2.5156 7.7656 1.6758 1.875 3.9844 2.8125 6.9219 2.8125 1.6328 0 3.1914-0.23828 4.6719-0.71875 1.4766-0.48828 2.9844-1.2539 4.5156-2.2969z"/>
  </symbol>
  <symbol id="d" overflow="visible">
   <path d="m21.453-17.406c-0.67969-0.3125-1.3516-0.53906-2.0156-0.6875-0.65625-0.15625-1.3203-0.23438-1.9844-0.23438-1.9688 0-3.4844 0.63281-4.5469 1.8906-1.0547 1.2617-1.5781 3.0703-1.5781 5.4219v11.016h-7.6562v-23.922h7.6562v3.9219c0.97656-1.5625 2.1016-2.7031 3.375-3.4219 1.2812-0.71875 2.8125-1.0781 4.5938-1.0781 0.25 0 0.52344 0.011719 0.82812 0.03125 0.30078 0.023438 0.73438 0.070312 1.2969 0.14062z"/>
  </symbol>
  <symbol id="c" overflow="visible">
   <path d="m27.562-12.031v2.1875h-17.891c0.1875 1.793 0.83203 3.1367 1.9375 4.0312 1.1133 0.89844 2.6719 1.3438 4.6719 1.3438 1.6016 0 3.25-0.23438 4.9375-0.70312 1.6875-0.47656 3.4219-1.2031 5.2031-2.1719v5.8906c-1.8047 0.6875-3.6094 1.2031-5.4219 1.5469-1.8125 0.35156-3.6211 0.53125-5.4219 0.53125-4.3359 0-7.7031-1.0977-10.109-3.2969-2.3984-2.207-3.5938-5.2969-3.5938-9.2656 0-3.9062 1.1758-6.9727 3.5312-9.2031 2.3633-2.2383 5.6094-3.3594 9.7344-3.3594 3.7578 0 6.7695 1.1367 9.0312 3.4062 2.2578 2.2617 3.3906 5.2812 3.3906 9.0625zm-7.8594-2.5312c0-1.457-0.42969-2.6289-1.2812-3.5156-0.84375-0.89453-1.9492-1.3438-3.3125-1.3438-1.4922 0-2.6992 0.41797-3.625 1.25-0.91797 0.83594-1.4922 2.0391-1.7188 3.6094z"/>
  </symbol>
  <symbol id="a" overflow="visible">
   <path d="m14.391-10.766c-1.5938 0-2.793 0.27344-3.5938 0.8125-0.80469 0.54297-1.2031 1.3398-1.2031 2.3906 0 0.96875 0.32031 1.7305 0.96875 2.2812 0.64453 0.54297 1.5469 0.8125 2.7031 0.8125 1.4375 0 2.6445-0.51562 3.625-1.5469 0.98828-1.0312 1.4844-2.3203 1.4844-3.875v-0.875zm11.688-2.8906v13.656h-7.7031v-3.5469c-1.0312 1.4492-2.1875 2.5078-3.4688 3.1719s-2.8398 1-4.6719 1c-2.4805 0-4.4961-0.72266-6.0469-2.1719-1.543-1.4453-2.3125-3.3203-2.3125-5.625 0-2.8125 0.96094-4.8672 2.8906-6.1719 1.9375-1.3125 4.9688-1.9688 9.0938-1.9688h4.5156v-0.60938c0-1.207-0.48047-2.0938-1.4375-2.6562-0.94922-0.5625-2.4375-0.84375-4.4688-0.84375-1.6367 0-3.1562 0.16797-4.5625 0.5-1.4062 0.32422-2.7188 0.8125-3.9375 1.4688v-5.8281c1.6445-0.40625 3.2891-0.70703 4.9375-0.90625 1.6562-0.20703 3.3047-0.3125 4.9531-0.3125 4.3203 0 7.4375 0.85547 9.3438 2.5625 1.9141 1.6992 2.875 4.4609 2.875 8.2812z"/>
  </symbol>
  <symbol id="b" overflow="visible">
   <path d="m12.031-30.719v6.7969h7.875v5.4688h-7.875v10.141c0 1.1172 0.21875 1.8711 0.65625 2.2656 0.4375 0.38672 1.3125 0.57812 2.625 0.57812h3.9375v5.4688h-6.5625c-3.0234 0-5.1641-0.62891-6.4219-1.8906-1.2617-1.2578-1.8906-3.3984-1.8906-6.4219v-10.141h-3.7969v-5.4688h3.7969v-6.7969z"/>
  </symbol>
  <symbol id="i" overflow="visible">
   <path d="m19.953-20.422v-12.812h7.6875v33.234h-7.6875v-3.4531c-1.0547 1.4062-2.2148 2.4375-3.4844 3.0938-1.2734 0.65625-2.7422 0.98438-4.4062 0.98438-2.9492 0-5.3711-1.1719-7.2656-3.5156-1.8867-2.3438-2.8281-5.3594-2.8281-9.0469s0.94141-6.7031 2.8281-9.0469c1.8945-2.3438 4.3164-3.5156 7.2656-3.5156 1.6562 0 3.1172 0.33594 4.3906 1 1.2812 0.65625 2.4453 1.6836 3.5 3.0781zm-5.0469 15.484c1.6445 0 2.8945-0.59766 3.75-1.7969 0.86328-1.1953 1.2969-2.9297 1.2969-5.2031 0-2.2812-0.43359-4.0195-1.2969-5.2188-0.85547-1.1953-2.1055-1.7969-3.75-1.7969-1.625 0-2.8711 0.60156-3.7344 1.7969-0.85547 1.1992-1.2812 2.9375-1.2812 5.2188 0 2.2734 0.42578 4.0078 1.2812 5.2031 0.86328 1.1992 2.1094 1.7969 3.7344 1.7969z"/>
  </symbol>
  <symbol id="h" overflow="visible">
   <path d="m16.406-4.9375c1.6328 0 2.8828-0.59766 3.75-1.7969 0.86328-1.1953 1.2969-2.9297 1.2969-5.2031 0-2.2812-0.43359-4.0195-1.2969-5.2188-0.86719-1.1953-2.1172-1.7969-3.75-1.7969-1.6367 0-2.8906 0.60547-3.7656 1.8125-0.875 1.1992-1.3125 2.9336-1.3125 5.2031 0 2.2617 0.4375 3.9961 1.3125 5.2031 0.875 1.1992 2.1289 1.7969 3.7656 1.7969zm-5.0781-15.484c1.0508-1.3945 2.2188-2.4219 3.5-3.0781 1.2812-0.66406 2.7539-1 4.4219-1 2.9453 0 5.3672 1.1719 7.2656 3.5156 1.8945 2.3438 2.8438 5.3594 2.8438 9.0469s-0.94922 6.7031-2.8438 9.0469c-1.8984 2.3438-4.3203 3.5156-7.2656 3.5156-1.668 0-3.1406-0.33594-4.4219-1s-2.4492-1.6914-3.5-3.0781v3.4531h-7.6562v-33.234h7.6562z"/>
  </symbol>
  <symbol id="g" overflow="visible">
   <path d="m0.53125-23.922h7.6562l6.4219 16.234 5.4688-16.234h7.6562l-10.062 26.188c-1.0117 2.6641-2.1953 4.5234-3.5469 5.5781-1.3438 1.0625-3.1211 1.5938-5.3281 1.5938h-4.4219v-5.0156h2.3906c1.3008 0 2.2422-0.21094 2.8281-0.625 0.59375-0.40625 1.0547-1.1484 1.3906-2.2188l0.20312-0.65625z"/>
  </symbol>
  <symbol id="f" overflow="visible">
   <path d="m3.6719-33.234h7.6562v33.234h-7.6562z"/>
  </symbol>
  <symbol id="e" overflow="visible">
   <path d="m22.359-23.172v5.7969c-1.6367-0.67578-3.2148-1.1875-4.7344-1.5312-1.5234-0.34375-2.9609-0.51562-4.3125-0.51562-1.4609 0-2.543 0.18359-3.25 0.54688-0.69922 0.36719-1.0469 0.92188-1.0469 1.6719 0 0.61719 0.26562 1.0898 0.79688 1.4219 0.53125 0.32422 1.4883 0.5625 2.875 0.71875l1.3438 0.1875c3.9141 0.5 6.5508 1.3242 7.9062 2.4688 1.3516 1.1367 2.0312 2.9219 2.0312 5.3594 0 2.5547-0.94531 4.4688-2.8281 5.75-1.875 1.2812-4.6797 1.9219-8.4062 1.9219-1.5859 0-3.2188-0.125-4.9062-0.375s-3.4219-0.625-5.2031-1.125v-5.8125c1.5195 0.74219 3.082 1.2969 4.6875 1.6719 1.6016 0.36719 3.2344 0.54688 4.8906 0.54688 1.4883 0 2.6094-0.20312 3.3594-0.60938 0.75781-0.41406 1.1406-1.0312 1.1406-1.8438 0-0.6875-0.26172-1.1953-0.78125-1.5312-0.52344-0.33203-1.5586-0.59375-3.1094-0.78125l-1.3438-0.17188c-3.4062-0.42578-5.793-1.2109-7.1562-2.3594-1.3672-1.1562-2.0469-2.9102-2.0469-5.2656 0-2.5312 0.86719-4.4062 2.6094-5.625 1.7383-1.2266 4.3984-1.8438 7.9844-1.8438 1.4062 0 2.8828 0.10938 4.4375 0.32812 1.5508 0.21094 3.2383 0.54297 5.0625 1z"/>
  </symbol>
  <symbol id="k" overflow="visible">
   <path d="m11.328-3.4531v12.547h-7.6562v-33.016h7.6562v3.5c1.0508-1.3945 2.2188-2.4219 3.5-3.0781 1.2812-0.66406 2.7539-1 4.4219-1 2.9453 0 5.3672 1.1719 7.2656 3.5156 1.8945 2.3438 2.8438 5.3594 2.8438 9.0469s-0.94922 6.7031-2.8438 9.0469c-1.8984 2.3438-4.3203 3.5156-7.2656 3.5156-1.668 0-3.1406-0.33594-4.4219-1s-2.4492-1.6914-3.5-3.0781zm5.0781-15.5c-1.6367 0-2.8906 0.60547-3.7656 1.8125-0.875 1.1992-1.3125 2.9336-1.3125 5.2031 0 2.2617 0.4375 3.9961 1.3125 5.2031 0.875 1.1992 2.1289 1.7969 3.7656 1.7969 1.6328 0 2.8828-0.59766 3.75-1.7969 0.86328-1.1953 1.2969-2.9297 1.2969-5.2031 0-2.2812-0.43359-4.0195-1.2969-5.2188-0.86719-1.1953-2.1172-1.7969-3.75-1.7969z"/>
  </symbol>
  <symbol id="j" overflow="visible">
   <path d="m3.6719-33.234h7.6562v18.094l8.7969-8.7812h8.8906l-11.688 10.969 12.594 12.953h-9.2656l-9.3281-9.9688v9.9688h-7.6562z"/>
  </symbol>
 </defs>
 <g>
  <path d="m384.11 220.07c-2.9453 0-5.6914-1.4766-7.3086-3.9336-1.6211-2.457-1.8945-5.5664-0.73438-8.2695l45.672-106.4v0.003906c0.20312-0.47656 0.14453-1.0234-0.15234-1.4453-0.31641-0.46094-0.63281-0.28906-1.418-0.69922-14.652 0.042969-29.172-2.7734-42.742-8.2891-47.355-19.629-63.223-66.188-66.949-79.996v-0.003907c-0.81641-2.9883 0.015625-6.1875 2.1875-8.3984 2.1758-2.2031 5.3477-3.1055 8.3555-2.375l147.43 36.582c7.9023 1.9766 14.852 6.6719 19.637 13.266 4.7812 6.5938 7.0859 14.66 6.5117 22.785l-5.4336 73.281-8.0586 47.789c-0.81641 4.7578-5.3281 7.957-10.09 7.1523-4.7578-0.80469-7.9688-5.3125-7.1719-10.074l7.9648-46.98 5.332-72.426c0.27734-4.0156-0.86328-8-3.2266-11.258-2.3633-3.2578-5.7969-5.5781-9.7031-6.5586l-131.7-32.676c9.5234 23.969 28.055 43.254 51.621 53.73 11.344 4.7734 23.559 7.1367 35.863 6.9453 6.4375-0.089844 12.488 3.0703 16.09 8.4062 3.6016 5.3398 4.2656 12.133 1.7695 18.066l-45.707 106.48c-1.3828 3.2109-4.543 5.2969-8.0391 5.2969z"/>
  <path d="m587.36 227.51c-3.1562-0.003906-6.0625-1.7109-7.6094-4.4648-1.5469-2.75-1.4922-6.1211 0.14453-8.8203 4.25-6.9922 6.5078-15.016 6.5195-23.199 0.015626-4.6758-0.71875-9.3242-2.1797-13.766-3.2539-9.8594-9.8359-18.277-18.621-23.809-8.7812-5.5352-19.219-7.8359-29.512-6.5117l-54.48 7.2617-0.003906 0.003906c-4.7891 0.64453-9.1953-2.7148-9.8438-7.5039-0.64453-4.7891 2.7148-9.1953 7.5039-9.8438l54.516-7.2617c14.34-1.8789 28.883 1.3086 41.125 9.0078 12.242 7.6992 21.41 19.43 25.926 33.168 2.0547 6.2109 3.0898 12.711 3.0703 19.254-0.011718 11.383-3.1484 22.547-9.0664 32.273-1.5859 2.6211-4.4258 4.2188-7.4883 4.2109z"/>
  <path d="m525 560h-350c-4.2227 0-7.8438-3.0156-8.6055-7.168l-61.25-332.5c-0.46875-2.5547 0.22266-5.1875 1.8828-7.1836 1.6641-1.9922 4.125-3.1484 6.7227-3.1484h472.5c2.5977 0 5.0586 1.1562 6.7227 3.1484 1.6602 1.9961 2.3516 4.6289 1.8828 7.1836l-61.25 332.5c-0.76172 4.1523-4.3828 7.168-8.6055 7.168zm-342.71-17.5h335.42l58.027-315h-451.48z"/>
  <path d="m113.75 227.5h-17.5c-4.832 0-8.75-3.918-8.75-8.75s3.918-8.75 8.75-8.75h17.5c4.832 0 8.75 3.918 8.75 8.75s-3.918 8.75-8.75 8.75z"/>
  <path d="m603.75 227.5h-17.5c-4.832 0-8.75-3.918-8.75-8.75s3.918-8.75 8.75-8.75h17.5c4.832 0 8.75 3.918 8.75 8.75s-3.918 8.75-8.75 8.75z"/>
  <path d="m366.95 490h-33.906c-18.703-0.023438-36.633-7.4609-49.859-20.688s-20.664-31.156-20.688-49.859v-68.906c0.023438-18.703 7.4609-36.633 20.688-49.859s31.156-20.664 49.859-20.688h33.906c18.703 0.023438 36.633 7.4609 49.859 20.688s20.664 31.156 20.688 49.859v68.906c-0.023438 18.703-7.4609 36.633-20.688 49.859s-31.156 20.664-49.859 20.688zm-33.906-192.5c-14.062 0.015625-27.547 5.6094-37.492 15.555-9.9453 9.9453-15.539 23.43-15.555 37.492v68.906c0.015625 14.062 5.6094 27.547 15.555 37.492 9.9453 9.9453 23.43 15.539 37.492 15.555h33.906c14.062-0.015625 27.547-5.6094 37.492-15.555 9.9453-9.9453 15.539-23.43 15.555-37.492v-68.906c-0.015625-14.062-5.6094-27.547-15.555-37.492-9.9453-9.9453-23.43-15.539-37.492-15.555z"/>
  <path d="m227.49 560c-4.3867-0.007812-8.0898-3.2578-8.6641-7.6055l-43.75-332.5c-0.63281-4.7891 2.7383-9.1836 7.5273-9.8164 4.7891-0.63281 9.1836 2.7383 9.8164 7.5273l43.75 332.5c0.63281 4.7891-2.7383 9.1836-7.5273 9.8164-0.38281 0.050781-0.76562 0.078125-1.1523 0.078125z"/>
  <path d="m350 560c-2.3203 0-4.5469-0.92188-6.1875-2.5625s-2.5625-3.8672-2.5625-6.1875v-70c0-4.832 3.918-8.75 8.75-8.75s8.75 3.918 8.75 8.75v70c0 2.3203-0.92188 4.5469-2.5625 6.1875s-3.8672 2.5625-6.1875 2.5625z"/>
  <path d="m350 297.5c-2.3203 0-4.5469-0.92188-6.1875-2.5625s-2.5625-3.8672-2.5625-6.1875v-70c0-4.832 3.918-8.75 8.75-8.75s8.75 3.918 8.75 8.75v70c0 2.3203-0.92188 4.5469-2.5625 6.1875s-3.8672 2.5625-6.1875 2.5625z"/>
  <path d="m288.74 560c-4.5625-0.007812-8.3516-3.5117-8.7148-8.0586l-7.8789-99.051c-0.38281-4.8203 3.2109-9.0352 8.0312-9.418 4.8164-0.38281 9.0352 3.2148 9.418 8.0312l7.8789 99.051-0.003906 0.003906c0.1875 2.3125-0.55859 4.6055-2.0625 6.3711-1.5078 1.7656-3.6562 2.8633-5.9688 3.043-0.23047 0.019532-0.46875 0.027344-0.69922 0.027344z"/>
  <path d="m272.11 349.56c-4.5625-0.003906-8.3516-3.5117-8.7148-8.0547l-9.707-122.07c-0.38281-4.8164 3.2109-9.0352 8.0312-9.4141 4.8164-0.38281 9.0352 3.2109 9.418 8.0312l9.707 122.06c0.18359 2.3164-0.5625 4.6055-2.0664 6.375-1.5078 1.7656-3.6523 2.8594-5.9688 3.043-0.23828 0.015626-0.46875 0.023438-0.69922 0.023438z"/>
  <path d="m472.51 560c-0.38672 0-0.76953-0.027344-1.1523-0.078125-2.3008-0.30078-4.3867-1.5078-5.8008-3.3477-1.4102-1.8398-2.0312-4.168-1.7266-6.4688l43.867-332.46c0.63281-4.7891 5.0312-8.1602 9.8203-7.5273 4.7891 0.62891 8.1602 5.0273 7.5273 9.8164l-43.871 332.46c-0.57422 4.3477-4.2773 7.5977-8.6641 7.6055z"/>
  <path d="m411.26 560c-0.23047 0-0.46875-0.007812-0.69922-0.027344-2.3164-0.17969-4.4609-1.2773-5.9688-3.043-1.5039-1.7656-2.25-4.0586-2.0625-6.3711l7.8789-99.051-0.003906-0.003906c0.43359-4.793 4.6172-8.3594 9.418-8.0312 4.8164 0.38281 8.4141 4.5977 8.0312 9.418l-7.8789 99.051c-0.36328 4.5469-4.1523 8.0508-8.7148 8.0586z"/>
  <path d="m427.89 349.56c-0.23047 0-0.46094-0.007812-0.69922-0.027344v0.003906c-2.3164-0.18359-4.4609-1.2773-5.9688-3.043-1.5078-1.7695-2.25-4.0586-2.0664-6.375l9.707-122.06c0.18359-2.3164 1.2812-4.4609 3.0469-5.9688 1.7656-1.5039 4.0586-2.2461 6.3711-2.0625 4.8203 0.37891 8.4141 4.5977 8.0312 9.4141l-9.707 122.07c-0.36328 4.543-4.1523 8.0508-8.7148 8.0547z"/>
  <path d="m385.96 227.5c-4.0078-0.003906-7.5039-2.7344-8.4766-6.6211l-4.2656-17.148c-5.3164-21.344-10.605-42.68-15.867-64v-0.003907c-0.95703-3.9062-3.2695-7.3438-6.5273-9.7031-3.2539-2.3594-7.2422-3.4844-11.254-3.1758l-128.95 9.4766h0.003906c-2.3203 0.19922-4.625-0.54688-6.3867-2.0664-1.7617-1.5234-2.8359-3.6914-2.9805-6.0156-0.17187-2.3164 0.58594-4.6016 2.1016-6.3594 1.5156-1.7578 3.668-2.8398 5.9844-3.0078l128.92-9.4766h-0.003907c8.1328-0.61328 16.223 1.6719 22.828 6.4531 6.6055 4.7852 11.305 11.754 13.258 19.672 5.2461 21.371 10.555 42.648 15.867 63.977l4.2461 17.125v-0.003906c0.65625 2.6172 0.066407 5.3867-1.5898 7.5117-1.6602 2.125-4.207 3.3672-6.9023 3.3672z"/>
  <path d="m326.48 227.5c-3.6953 0-6.9922-2.3242-8.2383-5.8008-4.3477-12.172-6.5078-25.016-6.375-37.941 0.027344-0.55469-0.24219-1.0859-0.70703-1.3906-0.42188-0.29688-0.96484-0.33984-1.4297-0.12109-25.234 10.766-50.453 21.559-75.656 32.375l-28.402 12.172c-4.4375 1.8867-9.5664-0.17188-11.465-4.6055s0.14844-9.5703 4.5781-11.477l28.402-12.168c25.234-10.816 50.449-21.609 75.648-32.375v-0.003907c5.9258-2.5391 12.734-1.9062 18.094 1.6836 5.3555 3.5898 8.5312 9.6445 8.4375 16.09-0.11328 10.855 1.6992 21.645 5.3516 31.863 0.95703 2.6797 0.55078 5.6602-1.0859 7.9883-1.6406 2.3242-4.3086 3.7109-7.1523 3.7109z"/>
  <path d="m127.24 227.5c-3.0703 0.003906-5.918-1.6055-7.5039-4.2383-6.2578-10.43-7.7852-23.035-4.1953-34.656 13.844-44.039 32.387-103.27 45.426-145.18 3.9336-12.613 11.805-23.633 22.453-31.445 10.652-7.8164 23.527-12.016 36.738-11.98 6.5156 0.015625 12.988 1.0391 19.191 3.0352 13.762 4.4883 25.512 13.656 33.215 25.91 7.7031 12.254 10.867 26.82 8.9453 41.164l-7.1758 54.492c-0.62891 4.7891-5.0195 8.1641-9.8125 7.5352-4.7891-0.625-8.1641-5.0195-7.5352-9.8086l7.1797-54.508c1.3828-10.285-0.87891-20.73-6.3906-29.523-5.5156-8.793-13.938-15.379-23.801-18.609-4.4648-1.4336-9.125-2.1719-13.816-2.1875-9.4805-0.027344-18.723 2.9844-26.367 8.5898-7.6445 5.6055-13.293 13.516-16.117 22.566-13.031 41.887-31.59 101.14-45.418 145.15-2.1133 6.8516-1.2148 14.277 2.4688 20.43 1.625 2.7031 1.6719 6.0664 0.12109 8.8125-1.5469 2.7461-4.4531 4.4453-7.6055 4.4492z"/>
  <use x="70" y="691.25" xlink:href="#l"/>
  <use x="102.109375" y="691.25" xlink:href="#d"/>
  <use x="123.683594" y="691.25" xlink:href="#c"/>
  <use x="153.355469" y="691.25" xlink:href="#a"/>
  <use x="182.878906" y="691.25" xlink:href="#b"/>
  <use x="203.792969" y="691.25" xlink:href="#c"/>
  <use x="233.464844" y="691.25" xlink:href="#i"/>
  <use x="280.011719" y="691.25" xlink:href="#h"/>
  <use x="311.328125" y="691.25" xlink:href="#g"/>
  <use x="355.078125" y="691.25" xlink:href="#f"/>
  <use x="370.078125" y="691.25" xlink:href="#a"/>
  <use x="399.597656" y="691.25" xlink:href="#e"/>
  <use x="425.640625" y="691.25" xlink:href="#b"/>
  <use x="446.554688" y="691.25" xlink:href="#e"/>
  <use x="472.59375" y="691.25" xlink:href="#k"/>
  <use x="503.910156" y="691.25" xlink:href="#a"/>
  <use x="533.433594" y="691.25" xlink:href="#d"/>
  <use x="555.007812" y="691.25" xlink:href="#j"/>
 </g>
</svg>
