<?xml version="1.0" encoding="UTF-8"?>
<svg width="700pt" height="700pt" version="1.1" viewBox="0 0 700 700" xmlns="http://www.w3.org/2000/svg">
 <path d="m502.87 112.39-132.1 132.1c-4.082 4.082-11.008 1.0664-11.008-4.6172v-233.3c0-3.7305 2.8398-6.5703 6.3906-6.5703 31.25 0 62.5 6.0352 91.973 18.289 28.23 11.719 54.688 29.117 77.77 52.023 2.4844 2.4844 2.4844 6.5703 0 9.0547zm-379.61 177.38h186.79c5.8594 0 8.6992 6.9258 4.6172 11.008l-165.12 165.12c-2.4844 2.4844-6.5703 2.4844-9.0547 0-22.195-22.195-39.949-48.648-52.199-77.945-11.719-28.41-18.109-59.301-18.109-91.793 0-3.5508 2.8398-6.3906 6.5703-6.3906h46.52zm26.809 41.902c0 8.3438 6.9258 15.27 15.27 15.27 8.5234 0 15.27-6.9258 15.27-15.27 0-8.5234-6.7461-15.27-15.27-15.27-8.3438 0-15.27 6.7461-15.27 15.27zm67.824-3.9062c0 5.8594 4.793 10.477 10.652 10.477s10.652-4.6172 10.652-10.477-4.793-10.652-10.652-10.652-10.652 4.793-10.652 10.652zm-32.492 61.434c0 6.0352 3.375 11.363 8.3438 14.203l-15.625 15.625c-14.559-15.625-26.457-33.914-34.621-53.977-7.9883-19.176-12.785-40.305-13.492-62.32h164.41l-78.477 78.477c-2.8398-4.9727-8.168-8.3438-14.203-8.3438-9.0547 0-16.336 7.2812-16.336 16.336zm-16.512 38.883c-15.625-16.691-28.41-36.398-37.465-58.059-8.5234-20.773-13.672-43.5-14.383-67.293h-33.734c0.71094 28.41 6.7461 55.395 17.047 80.254 10.652 25.746 25.922 49.004 44.742 69.066zm13.672-300.95 132.1 132.1c4.082 4.082 1.0664 11.008-4.6172 11.008h-233.3c-3.7305 0-6.5703-2.8398-6.5703-6.3906 0-31.25 6.0352-62.676 18.289-91.973 11.719-28.23 29.117-54.863 52.023-77.77 2.4844-2.4844 6.5703-2.4844 9.0547 0zm-10.652 48.648c-6.0352 5.8594-6.0352 15.625 0 21.484 6.0352 6.0352 15.625 6.0352 21.66 0 5.8594-5.8594 5.8594-15.625 0-21.484-6.0352-6.0352-15.625-6.0352-21.66 0zm50.781 45.098c-4.2617 4.2617-4.2617 10.832 0 15.094 4.082 4.082 10.832 4.082 14.914 0 4.082-4.2617 4.082-10.832 0-15.094-4.082-4.082-10.832-4.082-14.914 0zm-66.582 20.598c-4.2617 4.2617-5.6836 10.297-4.082 15.801h-22.016c0.71094-21.305 5.1484-42.613 13.492-62.676 7.9883-19.176 19.531-37.465 34.621-53.621l116.3 116.3h-111.15c1.5977-5.5039 0.17578-11.539-4.082-15.801-6.3906-6.3906-16.691-6.3906-23.082 0zm-39.062 15.801c0.71094-22.902 5.5039-45.809 14.559-67.469 8.6992-20.953 21.129-40.66 37.285-58.059l-23.793-23.793c-19.531 20.598-34.445 44.031-44.742 68.891-10.652 25.746-16.336 52.91-17.047 80.43zm459.68 32.492h-186.79c-5.8594 0-8.6992 6.9258-4.6172 11.008l165.12 165.12c2.4844 2.4844 6.5703 2.4844 9.0547 0 22.195-22.195 39.949-48.648 52.199-77.945 11.719-28.41 18.109-59.301 18.109-91.793 0-3.5508-2.8398-6.3906-6.5703-6.3906h-46.52zm-26.809 41.902c0 8.3438-6.9258 15.27-15.27 15.27-8.5234 0-15.27-6.9258-15.27-15.27 0-8.5234 6.7461-15.27 15.27-15.27 8.3438 0 15.27 6.7461 15.27 15.27zm-67.824-3.9062c0 5.8594-4.793 10.477-10.652 10.477s-10.652-4.6172-10.652-10.477c0-5.8594 4.793-10.652 10.652-10.652s10.652 4.793 10.652 10.652zm32.492 61.434c0 6.0352-3.375 11.363-8.3438 14.203l15.625 15.625c14.559-15.625 26.457-33.914 34.621-53.977 7.9883-19.176 12.785-40.305 13.492-62.32h-164.41l78.477 78.477c2.8398-4.9727 8.168-8.3438 14.203-8.3438 9.0547 0 16.336 7.2812 16.336 16.336zm16.512 38.883c15.625-16.691 28.41-36.398 37.285-58.059 8.6992-20.773 13.848-43.5 14.559-67.293h33.734c-0.71094 28.41-6.7461 55.395-17.047 80.254-10.652 25.746-25.922 49.004-44.742 69.066l-23.793-23.969zm-13.672-300.95-132.1 132.1c-4.082 4.082-1.0664 11.008 4.6172 11.008h233.3c3.7305 0 6.5703-2.8398 6.5703-6.3906 0-31.25-6.0352-62.676-18.289-91.973-11.719-28.23-29.117-54.863-52.023-77.77-2.4844-2.4844-6.5703-2.4844-9.0547 0zm10.652 48.648c6.0352 5.8594 6.0352 15.625 0 21.484-6.0352 6.0352-15.625 6.0352-21.66 0-5.8594-5.8594-5.8594-15.625 0-21.484 6.0352-6.0352 15.625-6.0352 21.66 0zm-50.781 45.098c4.2617 4.2617 4.2617 10.832 0 15.094-4.082 4.082-10.832 4.082-14.914 0-4.082-4.2617-4.082-10.832 0-15.094 4.082-4.082 10.832-4.082 14.914 0zm66.582 20.598c4.2617 4.2617 5.6836 10.297 4.082 15.801h22.016c-0.71094-21.305-5.1484-42.613-13.492-62.676-7.9883-19.176-19.531-37.465-34.621-53.621l-116.3 116.3h111.15c-1.5977-5.5039-0.17578-11.539 4.082-15.801 6.3906-6.3906 16.691-6.3906 23.082 0zm39.062 15.801c-0.71094-22.902-5.5039-45.809-14.559-67.469-8.6992-20.953-21.129-40.66-37.285-58.059l23.793-23.793c19.531 20.598 34.445 44.031 44.742 68.891 10.652 25.746 16.336 52.91 17.047 80.43zm-242.71 249.46v-186.61c0-5.8594-6.9258-8.6992-11.008-4.6172l-132.1 131.92-33.023 33.023c-2.4844 2.6641-2.4844 6.7461 0 9.2344 22.195 22.016 48.473 39.949 77.945 52.023 28.23 11.719 59.301 18.289 91.793 18.289 3.5508 0 6.3906-3.0195 6.3906-6.5703zm-41.902-26.809c-8.5234 0-15.27-6.7461-15.27-15.27 0-8.3438 6.7461-15.27 15.27-15.27 8.3438 0 15.27 6.9258 15.27 15.27 0 8.5234-6.9258 15.27-15.27 15.27zm3.9062-67.824c-5.8594 0-10.652-4.6172-10.652-10.477 0-5.8594 4.793-10.652 10.652-10.652s10.652 4.793 10.652 10.652c0 5.8594-4.793 10.477-10.652 10.477zm-61.434 32.668c-6.2148 0-11.363-3.375-14.203-8.3438l-15.625 15.625c15.625 14.559 33.914 26.277 53.977 34.621 19.176 7.9883 40.305 12.785 62.32 13.492v-164.41l-78.477 78.477c4.9727 2.8398 8.168 8.168 8.168 14.203 0 9.0547-7.2812 16.336-16.156 16.336zm-39.062 16.336c16.867 15.801 36.574 28.586 58.238 37.465 20.773 8.6992 43.5 13.848 67.293 14.559v33.734c-28.41-0.71094-55.395-6.7461-80.254-17.047-25.746-10.652-49.004-25.922-69.066-44.742l23.793-23.969zm301.13-13.672-132.1-131.92c-4.082-4.082-11.008-1.2422-11.008 4.6172v233.3c0 3.5508 2.8398 6.5703 6.3906 6.5703 31.25 0 62.5-6.2148 91.973-18.289 28.23-11.719 54.688-29.117 77.77-52.023 2.4844-2.4844 2.4844-6.5703 0-9.2344l-33.023-33.023zm-48.648 10.832c-6.0352 5.8594-15.625 5.8594-21.66 0-5.8594-6.0352-5.8594-15.625 0-21.66 6.0352-5.8594 15.625-5.8594 21.66 0 6.0352 6.0352 6.0352 15.625 0 21.66zm-45.098-50.781c-4.2617 4.082-11.008 4.082-15.094 0-4.082-4.082-4.082-10.832 0-14.914 4.082-4.2617 10.832-4.2617 15.094 0 4.082 4.082 4.082 10.832 0 14.914zm-20.598 66.582c-4.2617 4.2617-10.297 5.6836-15.801 4.082v22.016c21.305-0.71094 42.613-5.3281 62.5-13.492 19.352-7.9883 37.641-19.531 53.797-34.621l-116.3-116.3v110.97c5.5039-1.4219 11.539 0 15.801 4.2617 6.3906 6.3906 6.3906 16.691 0 23.082zm-15.801 39.062c22.902-0.71094 45.809-5.6836 67.469-14.559 20.953-8.6992 40.66-21.129 58.059-37.465l23.793 23.969c-20.598 19.531-44.031 34.445-68.891 44.742-25.746 10.652-53.09 16.336-80.43 17.047zm-32.492-460.04v186.79c0 5.8594-6.9258 8.6992-11.008 4.6172l-165.12-165.12c-2.4844-2.4844-2.4844-6.5703 0-9.0547 22.195-22.195 48.473-39.949 77.945-52.199 28.23-11.719 59.301-18.109 91.793-18.109 3.5508 0 6.3906 2.8398 6.3906 6.5703v46.52zm-41.902 26.809c-8.5234 0-15.27 6.9258-15.27 15.27 0 8.5234 6.7461 15.27 15.27 15.27 8.3438 0 15.27-6.7461 15.27-15.27 0-8.3438-6.9258-15.27-15.27-15.27zm3.9062 67.824c-5.8594 0-10.652 4.793-10.652 10.652 0 5.8594 4.793 10.652 10.652 10.652s10.652-4.793 10.652-10.652c0-5.8594-4.793-10.652-10.652-10.652zm-61.434-32.492c-6.2148 0-11.363 3.375-14.203 8.3438l-15.625-15.625c15.625-14.559 33.914-26.457 53.977-34.621 19.176-7.9883 40.305-12.785 62.32-13.492v164.41l-78.477-78.477c4.9727-2.8398 8.168-8.168 8.168-14.203 0-9.0547-7.2812-16.336-16.156-16.336zm-39.062-16.512c16.867-15.625 36.574-28.41 58.238-37.465 20.773-8.5234 43.5-13.672 67.293-14.383v-33.734c-28.41 0.71094-55.395 6.7461-80.254 17.047-25.746 10.652-49.004 25.922-69.066 44.742l23.793 23.793zm252.48 3.0195c-6.0352-6.0352-15.625-6.0352-21.66 0-5.8594 6.0352-5.8594 15.625 0 21.66 6.0352 5.8594 15.625 5.8594 21.66 0 6.0352-6.0352 6.0352-15.625 0-21.66zm-45.098 50.781c-4.2617-4.2617-11.008-4.2617-15.094 0-4.082 4.082-4.082 10.832 0 14.914s10.832 4.082 15.094 0c4.082-4.082 4.082-10.832 0-14.914zm-20.598-66.582c-4.2617-4.2617-10.297-5.6836-15.801-4.082v-22.016c21.305 0.71094 42.613 5.1484 62.5 13.492 19.352 7.9883 37.641 19.531 53.797 34.621l-116.3 116.3v-111.15c5.5039 1.5977 11.539 0.17578 15.801-4.082 6.3906-6.3906 6.3906-16.691 0-23.082zm-15.801-39.062c22.902 0.71094 45.809 5.5039 67.469 14.559 20.953 8.6992 40.66 21.129 58.059 37.285l23.793-23.793c-20.598-19.531-44.031-34.445-68.891-44.742-25.746-10.652-53.09-16.336-80.43-17.047z" fill-rule="evenodd"/>
</svg>
